<?xml version="1.0" standalone="no"?>
<!DOCTYPE svg PUBLIC "-//W3C//DTD SVG 20010904//EN"
 "http://www.w3.org/TR/2001/REC-SVG-20010904/DTD/svg10.dtd">
<svg version="1.0" xmlns="http://www.w3.org/2000/svg"
 width="164.178884pt" height="440.271572pt" viewBox="0 0 164.178884 440.271572"
 preserveAspectRatio="xMidYMid meet">
<metadata>
Created by Potrace Professional 1.1m
</metadata>
<g transform="translate(-2.860893,442.071572) rotate(-360.00) scale(0.022857,-0.022857)"
fill="#000000" stroke="none">
<path d="M184 19323 c-3 -9 -5 -36 -5 -61 0 -36 -6 -50 -27 -66 l-27 -21 24
-4 c24 -3 24 -6 27 -140 2 -149 3 -2465 2 -7035 -1 -3856 -1 -5045 0 -5250 1
-92 2 -1630 3 -3417 l3 -3250 1176 2 c647 2 1497 5 1890 8 392 3 804 5 913 4
110 0 230 0 268 0 38 1 254 2 481 3 368 1 413 3 422 18 9 16 10 15 10 -1 0
-17 15 -18 218 -13 120 4 224 6 231 6 26 -3 173 -3 654 -2 269 0 545 1 614 0
151 0 183 4 196 23 5 8 8 407 8 892 -1 482 2 1980 6 3328 4 1348 8 4075 11
6059 5 4663 3 4333 18 4340 9 3 10 7 2 14 -12 8 -11 2368 1 3069 7 397 7 258
-1 919 -5 480 -8 558 -22 568 -10 8 -73 13 -175 14 -88 1 -183 3 -212 3 -29 1
-170 1 -315 0 -144 0 -543 1 -887 2 -344 1 -634 -1 -646 -5 -11 -4 -29 -2 -39
4 -14 9 -24 9 -39 -1 -11 -7 -23 -9 -26 -4 -4 7 -1014 10 -1133 3 -25 -1 -28
-4 -18 -17 8 -9 9 -21 3 -32 -8 -15 -11 -15 -23 0 -7 9 -11 24 -9 34 5 18 -30
19 -634 19 -351 0 -639 -4 -639 -9 0 -4 -5 -5 -13 0 -7 4 -524 9 -1149 9 -968
1 -1137 -1 -1142 -13z m5346 -68 c-3 -8 -6 -6 -6 6 -1 11 2 18 5 14 4 -3 4
-12 1 -20z m-4406 -8 c0 -6 -3 -11 -5 -11 -3 0 -8 5 -11 11 -4 5 -2 10 4 10 6
0 12 -5 12 -10z m5960 -55 c-3 -8 -6 -6 -6 6 -1 11 2 18 5 14 4 -3 4 -12 1
-20z m-3430 -764 c0 -6 -2 -11 -5 -11 -2 0 -7 5 -11 11 -3 5 -1 10 5 10 6 0
11 -5 11 -10z m-3269 -149 c-3 -9 -6 -6 -6 6 -1 11 2 17 5 14 4 -4 4 -13 1
-20z m5768 0 c0 -6 -5 -7 -10 -4 -6 4 -11 11 -11 17 0 6 5 8 11 4 5 -3 10 -11
10 -17z m1120 -32 c-3 -8 -6 -6 -6 6 -1 11 2 18 5 14 4 -3 4 -12 1 -20z
m-2013 -631 c0 -19 -2 -20 -10 -7 -13 20 -13 31 0 31 6 0 10 -11 10 -24z
m1891 -233 c0 -9 -5 -16 -10 -16 -14 0 -23 16 -15 25 12 12 25 7 25 -9z m7
-49 c-4 -9 -6 -6 -7 6 0 11 2 17 6 14 3 -4 4 -13 1 -20z m-3 -37 c9 -23 2 -28
-25 -19 -18 5 -20 10 -10 22 16 19 27 18 35 -3z m-4110 -1694 c0 -6 -5 -10
-10 -10 -6 0 -11 4 -11 10 0 6 5 11 11 11 5 0 10 -5 10 -11z m1089 -863 c-4
-8 -6 -6 -7 6 0 11 2 18 6 14 3 -3 4 -12 1 -20z m-255 -505 c-4 -13 -11 -28
-15 -34 -21 -27 -46 -222 -30 -232 5 -3 11 1 13 8 2 8 13 45 26 83 12 37 23
78 23 90 -1 24 37 64 49 53 4 -5 0 -23 -10 -42 -28 -57 -31 -72 -35 -191 -4
-116 9 -195 44 -274 21 -48 19 -64 -6 -41 -12 11 -21 25 -21 32 0 7 -10 24
-21 39 -12 14 -27 49 -34 77 -7 29 -22 66 -34 83 -19 27 -22 48 -22 142 0 98
3 117 29 171 28 59 59 84 44 36z m300 -139 c0 -8 -5 -17 -10 -21 -6 -3 -11 6
-11 21 0 16 5 25 11 21 5 -3 10 -13 10 -21z m-175 -260 c4 -34 3 -60 -2 -60
-15 0 -23 30 -29 105 -5 63 -4 66 10 41 8 -14 17 -53 21 -86z m375 -137 c-8
-49 -25 -80 -38 -67 -4 3 1 22 10 40 10 19 13 37 8 40 -5 4 -5 17 0 32 15 41
29 11 20 -45z m-193 -67 c-2 -10 -5 -2 -5 18 0 20 3 28 5 18 3 -10 3 -26 0
-36z m147 -53 c-2 -10 -5 -4 -5 13 0 18 2 26 5 19 3 -7 3 -21 0 -32z m-142
-141 l-10 -35 -1 32 c0 17 3 43 7 58 7 24 8 24 11 3 2 -12 -1 -38 -7 -58z
m-323 8 c3 -9 1 -19 -4 -22 -6 -3 -10 3 -10 15 0 26 5 28 14 7z m101 -100 c0
-21 -14 -36 -24 -26 -8 8 4 47 15 47 5 0 9 -10 9 -21z m391 -111 c-3 -17 -9
-24 -15 -18 -10 10 -1 45 12 45 5 0 6 -13 3 -27z m-401 -31 c-8 -9 -15 -16
-16 -16 -2 0 -6 7 -9 16 -4 11 0 16 16 16 18 0 19 -3 9 -16z m476 -11 c-4 -8
-8 -15 -10 -15 -3 0 -4 7 -4 15 0 9 4 16 10 16 5 0 7 -7 4 -16z m-392 -40 c-8
-8 -11 -5 -11 10 0 28 15 43 19 20 2 -10 -1 -23 -8 -30z m150 -80 c-6 -9 -15
-50 -19 -91 -7 -75 -19 -109 -33 -96 -4 5 0 41 10 80 10 40 18 83 18 95 0 12
4 22 9 22 6 0 8 16 4 36 -3 20 -2 45 3 55 6 14 10 5 15 -33 3 -33 1 -59 -7
-68z m-99 -6 c-8 -25 -17 -43 -22 -40 -9 5 -2 42 15 88 17 42 22 4 7 -48z
m-140 -2 c-13 -13 -19 8 -10 36 l8 29 4 -30 c2 -16 1 -32 -2 -35z m-442 -65
c-5 -43 -10 -53 -17 -40 -6 10 -4 43 4 88 15 84 25 48 13 -48z m1045 18 c0
-17 -3 -20 -12 -12 -6 7 -8 17 -4 24 11 17 16 13 16 -12z m-10 -87 c0 -8 -5
-18 -11 -21 -6 -4 -10 3 -10 15 0 12 4 22 10 22 6 0 11 -7 11 -16z m-736 -108
c17 -105 19 -183 3 -189 -9 -3 -13 11 -12 52 0 31 -7 82 -16 114 -20 71 -21
94 -2 94 10 0 19 -22 27 -71z m501 -15 c-3 -8 -6 -6 -6 6 -1 11 2 18 5 14 4
-3 4 -12 1 -20z m-346 -132 c-3 -10 -5 -4 -5 13 -1 18 2 26 4 19 3 -7 3 -21 1
-32z m-228 -28 c0 -20 3 -43 6 -52 10 -27 -12 -20 -24 7 -12 27 -6 81 9 81 5
0 9 -16 9 -36z m562 -54 c-21 -55 -32 -58 -14 -4 6 20 13 43 16 51 2 8 6 12
10 8 4 -4 -2 -28 -12 -55z m-187 -86 c-3 -15 -6 -13 -15 8 -6 14 -9 30 -6 35
9 14 26 -22 21 -43z m165 -2 c4 -5 2 -13 -4 -16 -6 -4 -11 1 -11 10 0 18 6 21
15 6z m66 -23 c-4 -9 -6 -6 -7 6 0 11 2 17 6 14 3 -4 4 -13 1 -20z m-186 -69
c0 -13 -3 -14 -16 -3 -8 7 -15 20 -15 29 0 13 2 13 15 3 9 -8 16 -21 16 -29z
m-420 -94 c0 -29 -3 -36 -12 -27 -7 6 -9 23 -5 38 10 39 17 34 17 -11z m-280
-32 c-5 -22 -9 -72 -8 -110 0 -51 -3 -66 -10 -53 -10 18 -11 151 0 184 11 37
28 19 18 -21z m816 -66 c0 -35 -5 -63 -11 -63 -11 0 -14 82 -4 109 11 30 15
19 15 -46z m-550 30 c-3 -9 -6 -6 -6 6 -1 11 2 17 5 14 4 -4 4 -13 1 -20z
m-170 -35 c-4 -15 -10 -25 -12 -23 -2 2 -1 17 3 33 3 15 9 25 11 23 2 -2 1
-17 -2 -33z m76 3 c-4 -8 -6 -6 -7 6 0 11 2 18 6 14 3 -3 4 -12 1 -20z m512
-40 c-4 -12 -9 -20 -12 -17 -3 3 -2 15 2 28 4 12 9 20 12 17 3 -3 2 -16 -2
-28z m-1002 -48 c0 -20 -5 -36 -11 -36 -6 0 -10 19 -10 43 0 25 4 40 10 36 6
-4 11 -23 11 -43z m612 -38 c9 -80 9 -227 0 -258 -3 -13 -10 -23 -16 -23 -5 0
-4 9 2 20 7 14 8 49 0 113 -13 113 -14 213 -1 213 4 0 12 -29 15 -65z m231 10
c-4 -17 -1 -48 6 -69 7 -21 12 -58 10 -81 l-4 -42 -19 69 c-29 105 -30 118
-18 151 9 24 14 28 21 17 5 -9 7 -29 4 -45z m123 -165 c0 -18 -5 -32 -11 -32
-6 0 -10 14 -10 32 0 17 4 31 10 31 6 0 11 -14 11 -31z m-988 -92 c0 -50 -3
-67 -10 -55 -13 20 -13 126 0 126 6 0 10 -31 10 -71z m914 17 c0 -5 -5 -9 -10
-9 -6 0 -11 7 -11 16 0 9 5 13 11 10 5 -4 10 -11 10 -17z m-697 -59 c1 -34 -2
-44 -7 -29 -11 27 -12 79 -2 78 4 0 8 -22 9 -49z m977 -90 c-3 -7 -5 -1 -5 14
0 14 2 20 5 13 3 -8 3 -19 0 -27z m-1313 -57 c-13 -13 -18 6 -10 35 l8 30 4
-30 c2 -16 1 -32 -2 -35z m1297 -31 c-9 -16 -11 -16 -12 -3 0 18 11 34 18 27
3 -3 0 -14 -6 -24z m90 -16 c-4 -8 -6 -6 -7 6 0 11 2 18 6 14 3 -3 4 -12 1
-20z m-1014 -53 c-7 -7 -12 -8 -12 -1 0 14 12 26 19 19 3 -3 0 -11 -7 -18z
m82 -192 c15 -8 43 -28 63 -46 20 -17 47 -34 61 -38 26 -6 55 -29 55 -42 0 -3
-30 -3 -66 1 -125 13 -123 13 -273 -67 -86 -46 -165 -128 -165 -170 0 -12 100
62 160 118 17 16 35 26 41 23 12 -8 -16 -43 -88 -109 -36 -33 -69 -75 -83
-106 -29 -64 -78 -99 -128 -91 -49 7 -103 -19 -136 -67 -16 -23 -28 -47 -28
-55 0 -7 -9 -25 -19 -39 -24 -34 -29 -250 -6 -292 7 -15 14 -36 14 -46 0 -10
7 -18 16 -18 9 0 23 -16 31 -35 16 -37 76 -134 110 -177 12 -16 22 -35 22 -44
0 -9 23 -43 52 -77 29 -34 62 -81 73 -106 12 -24 43 -72 69 -106 26 -35 47
-66 47 -71 0 -16 48 -77 60 -77 8 0 27 -19 42 -42 16 -22 41 -47 56 -55 14 -7
37 -24 51 -38 28 -26 57 -27 62 -1 3 18 -112 146 -132 146 -11 0 -46 35 -115
115 -14 15 -41 46 -61 69 -20 23 -41 58 -47 79 -5 20 -21 48 -34 63 -44 48
-96 139 -136 236 -19 47 -41 151 -47 220 -7 80 -27 132 -51 132 -18 0 -19 -3
-5 -75 6 -31 8 -70 4 -86 -6 -28 -7 -29 -25 -13 -22 20 -40 159 -22 176 6 6 8
24 4 41 -3 17 1 44 12 66 9 19 14 43 10 51 -14 39 65 81 151 81 24 0 45 5 45
11 0 5 8 10 19 10 12 0 25 12 33 31 12 30 49 71 206 233 72 74 92 83 186 82
47 -1 51 -2 31 -12 -13 -7 -24 -18 -24 -26 0 -9 5 -12 10 -9 12 8 140 -22 179
-42 14 -7 45 -19 68 -26 23 -7 59 -26 81 -43 l38 -30 15 22 c12 19 17 20 35 9
20 -12 68 -99 68 -124 0 -18 -29 -16 -64 5 -25 15 -33 16 -44 5 -11 -11 -8
-17 13 -33 14 -11 32 -21 39 -21 7 0 36 -22 65 -49 51 -46 62 -66 85 -159 l9
-35 -57 7 c-48 6 -57 5 -57 -10 0 -9 -4 -16 -8 -16 -5 0 -17 -15 -28 -33 -10
-17 -21 -29 -25 -26 -15 15 -31 -40 -21 -72 27 -84 31 -91 60 -88 18 2 28 11
30 24 7 41 27 70 46 65 12 -3 21 2 25 15 4 11 10 20 15 20 5 0 11 10 13 23 5
36 25 34 41 -4 10 -24 15 -79 15 -176 0 -121 -4 -152 -24 -208 -13 -36 -23
-75 -23 -86 0 -34 -70 -71 -168 -89 -50 -9 -101 -13 -115 -9 -21 5 -23 3 -18
-15 5 -14 2 -24 -9 -28 -9 -3 -16 -13 -16 -22 0 -9 -6 -13 -16 -9 -8 3 -15 1
-15 -5 0 -37 -114 -2 -138 43 -7 13 -35 46 -62 73 -42 44 -51 60 -61 117 -14
73 -52 169 -88 216 -19 26 -21 41 -17 99 4 43 14 81 28 104 14 23 22 53 22 82
l0 46 -20 -26 c-12 -14 -21 -31 -21 -38 0 -6 -7 -25 -16 -42 -17 -34 -47 -146
-47 -173 0 -10 -6 -20 -14 -23 -9 -3 -2 -25 23 -74 20 -39 39 -70 43 -70 6 0
26 -38 57 -109 22 -51 31 -123 18 -143 -13 -18 -11 -21 -54 58 -81 147 -99
165 -68 69 25 -74 111 -221 145 -247 l29 -21 26 29 c30 32 70 35 76 5 2 -9
-12 -35 -32 -57 l-34 -39 34 7 c25 5 34 3 34 -8 0 -8 7 -17 16 -20 10 -4 16
-21 16 -46 0 -22 3 -50 6 -63 5 -20 10 -22 27 -12 11 6 23 8 27 5 8 -9 -19
-38 -35 -38 -7 0 -17 -9 -20 -21 -4 -12 -11 -21 -16 -21 -5 0 -44 38 -86 84
-42 46 -83 84 -91 84 -7 0 -51 38 -97 84 -46 46 -86 84 -89 84 -2 0 -4 -9 -4
-21 0 -12 4 -21 9 -21 6 0 13 -9 17 -21 3 -12 13 -21 21 -21 9 0 16 -4 16 -8
0 -5 35 -44 79 -87 44 -43 88 -87 97 -98 80 -91 93 -117 72 -143 -17 -23 -70
-42 -105 -38 -20 3 -32 -2 -39 -16 -18 -33 -57 -24 -89 20 -17 22 -43 53 -59
69 -15 17 -39 52 -52 79 -13 27 -30 61 -37 77 -8 15 -14 34 -14 42 0 8 -26 53
-58 98 -32 46 -60 99 -64 117 -4 18 -21 46 -38 63 l-31 30 16 -32 c9 -17 17
-49 17 -71 0 -26 9 -52 25 -74 14 -18 33 -52 43 -75 9 -23 27 -50 39 -59 40
-31 16 -40 -38 -14 -29 14 -56 26 -60 26 -21 0 -6 -24 33 -50 31 -22 41 -36
42 -59 0 -16 5 -39 12 -51 9 -18 8 -25 -6 -36 -11 -8 -14 -15 -7 -19 6 -4 12
-15 12 -25 0 -10 14 -31 31 -48 17 -16 32 -36 32 -44 0 -20 -37 -19 -57 1 -21
21 -27 20 -27 -6 0 -12 -4 -20 -8 -18 -5 2 -30 14 -55 26 -26 12 -62 36 -79
54 -37 38 -47 41 -47 12 0 -30 -28 -26 -59 7 -14 15 -28 25 -32 22 -9 -9 24
-68 42 -74 9 -4 21 -17 28 -29 12 -23 11 -23 -21 -17 -19 4 -47 16 -63 28 -17
12 -35 21 -41 21 -7 0 -20 7 -30 16 -10 9 -42 32 -70 50 -54 36 -111 124 -111
172 0 13 -5 24 -12 26 -6 2 -15 21 -20 41 -5 20 -19 65 -32 99 -50 140 -65
258 -64 538 0 247 0 249 86 339 40 41 78 74 86 71 23 -8 20 -44 -7 -85 -15
-22 -27 -45 -27 -52 0 -20 75 58 91 95 8 19 19 34 24 34 18 0 53 72 66 137 13
62 39 99 40 56 0 -17 1 -17 10 -4 7 11 10 11 10 3 0 -8 11 -13 23 -13 20 0 22
4 18 60 -3 38 -17 84 -37 126 -24 50 -29 70 -20 81 13 18 88 58 108 58 9 0 14
16 14 47 0 26 1 48 3 48 2 0 30 5 64 11 43 8 64 8 74 -1 10 -8 16 -8 21 -1 4
7 17 12 30 12 13 0 35 8 49 18 56 39 204 49 262 18z m836 -129 c-12 -12 -14 5
-8 56 l7 52 3 -51 c2 -28 1 -53 -2 -57z m-373 66 c0 -8 -5 -15 -10 -15 -6 0
-15 -17 -22 -38 -9 -27 -16 -35 -24 -27 -18 18 12 96 36 96 11 0 20 -7 20 -16z
m-1078 -74 c-4 -9 -9 -14 -12 -11 -2 3 -1 10 2 16 11 17 17 14 10 -5z m-109
-177 c-7 -35 -30 -94 -50 -132 -41 -73 -110 -172 -129 -184 -23 -14 -24 7 -1
51 12 25 23 50 23 54 0 4 15 35 35 67 19 33 43 84 53 115 10 30 31 78 46 105
l28 49 4 -31 c2 -17 -2 -60 -9 -94z m914 99 c0 -13 -12 -13 -32 0 -13 8 -11
10 8 10 13 0 24 -4 24 -10z m472 -326 c0 -19 -4 -30 -10 -26 -6 4 -11 18 -11
32 0 14 5 26 11 26 5 0 10 -14 10 -32z m247 -56 c9 -36 2 -83 -13 -88 -10 -3
-13 12 -13 54 0 60 15 79 26 34z m127 -35 c-3 -34 -6 -64 -6 -69 0 -4 -6 -7
-12 -7 -6 0 -9 8 -6 18 3 10 8 41 12 68 10 70 19 62 12 -10z m-2204 16 c-4 -8
-6 -6 -7 6 0 11 2 18 6 14 3 -3 4 -12 1 -20z m3614 -25 c-7 -19 -14 -25 -17
-17 -3 8 1 26 9 41 18 33 24 16 8 -24z m-1695 -28 c21 -31 20 -53 -5 -83 l-20
-25 -1 42 c0 23 -3 53 -7 66 -8 30 11 31 33 0z m-2353 -45 c3 -8 1 -15 -4 -15
-6 0 -10 7 -10 15 0 9 1 16 4 16 2 0 6 -7 10 -16z m2411 -84 c0 -9 -5 -14 -10
-10 -6 3 -11 11 -11 16 0 6 5 10 11 10 5 0 10 -7 10 -16z m81 -73 c-10 -119
-42 -164 -52 -71 -5 38 -2 55 14 74 11 14 20 34 20 44 0 17 9 32 19 32 2 0 2
-36 -1 -79z m192 44 c0 -7 -4 -19 -9 -27 -12 -18 -25 1 -16 24 7 20 25 22 25
3z m1517 -59 c17 -33 9 -48 -20 -37 -18 7 -19 10 -10 44 8 30 11 30 30 -7z
m-1527 -53 c0 -29 -5 -53 -11 -53 -12 0 -14 45 -4 81 10 37 15 28 15 -28z
m-212 -124 c1 -7 -3 -13 -9 -13 -6 0 -10 18 -9 39 0 36 1 37 9 14 5 -15 9 -33
9 -40z m222 25 c9 -29 8 -43 -4 -71 l-16 -35 6 48 c3 28 0 59 -6 71 -7 13 -8
23 -2 23 5 0 15 -17 22 -36z m1339 -59 c-14 -26 -16 -48 -10 -103 4 -39 3 -67
-1 -62 -5 4 -9 16 -11 26 -1 10 -5 27 -9 37 -10 23 10 141 28 163 12 14 14 13
17 -6 1 -12 -5 -37 -14 -55z m-1438 -47 c0 -43 -4 -79 -7 -79 -15 0 -20 74 -7
115 7 23 14 43 14 43 1 0 1 -36 0 -79z m-136 2 c-2 -7 -5 -1 -5 14 0 14 3 20
5 13 3 -8 3 -19 0 -27z m1684 4 c0 -6 -5 -13 -10 -17 -6 -3 -11 -22 -11 -42 0
-20 -5 -36 -10 -36 -14 0 -14 58 0 84 11 21 31 28 31 11z m-344 -138 c-7 -42
-23 -51 -23 -11 0 17 5 33 13 36 7 3 13 6 14 6 0 1 -2 -13 -4 -31z m1167 -22
c-5 -28 -3 -45 5 -50 7 -5 16 -42 19 -83 5 -60 3 -85 -13 -120 -20 -46 -54
-92 -69 -92 -17 0 -9 20 17 46 15 15 27 37 27 51 0 13 7 33 15 43 15 21 14 65
-5 133 -16 58 -13 116 7 116 2 0 1 -20 -3 -44z m-1327 -100 c-25 -28 -32 -44
-27 -63 4 -14 2 -24 -4 -24 -6 0 -11 11 -11 24 0 14 -3 41 -7 59 -6 30 -4 34
13 28 11 -3 27 -1 36 4 32 21 33 9 0 -28z m731 4 c-2 -7 -5 -1 -5 14 0 14 3
20 5 13 3 -8 3 -19 0 -27z m-305 -19 c8 -26 1 -35 -21 -27 -21 8 -22 49 -1 49
8 0 18 -10 22 -22z m-1969 -67 c0 -2 -5 -7 -11 -11 -6 -3 -10 -1 -10 5 0 6 4
11 10 11 6 0 11 -2 11 -5z m2285 -36 c3 -19 0 -32 -6 -32 -6 0 -11 17 -11 38
0 45 9 41 17 -6z m-1544 1 c16 -11 36 -50 36 -73 0 -28 47 -72 55 -52 3 8 21
18 40 22 31 6 39 2 85 -46 55 -57 74 -59 91 -10 12 35 19 37 51 15 20 -14 27
-14 60 -1 33 14 37 14 53 -3 20 -23 36 -113 39 -232 3 -112 -24 -227 -63 -272
-104 -117 -99 -109 -93 -154 7 -51 -16 -96 -35 -67 -5 8 -10 22 -10 31 -1 17
-91 126 -105 126 -5 0 -29 20 -55 45 -44 44 -66 61 -144 110 -39 25 -57 34
-114 57 -19 7 -34 16 -34 20 0 3 -43 26 -94 51 -52 25 -95 52 -95 60 0 26 -41
103 -62 116 -30 19 -36 0 -11 -32 27 -34 14 -42 -38 -24 -76 27 -152 40 -189
33 -20 -3 -36 -3 -36 2 1 19 34 50 56 52 12 0 49 2 81 4 31 1 64 6 73 10 9 5
34 11 57 15 86 14 95 16 192 59 31 13 56 28 56 33 0 5 8 9 18 9 10 0 35 23 55
52 35 50 55 61 80 44z m-449 -43 c2 -13 0 -31 -4 -41 -6 -16 -8 -15 -16 3 -5
12 -9 32 -9 46 -1 31 24 24 29 -8z m82 8 c-3 -9 -6 -6 -6 6 -1 11 2 17 5 14 4
-4 4 -13 1 -20z m-269 2 c0 -14 -92 -98 -118 -108 -34 -13 -61 9 -61 49 0 26
5 36 20 40 11 3 25 1 30 -5 7 -6 27 -2 56 11 52 24 73 28 73 13z m2877 -113
l-8 -61 -1 84 c0 60 2 77 9 61 5 -14 5 -50 0 -84z m-1127 58 c-4 -8 -6 -6 -7
6 0 11 2 18 6 14 3 -3 4 -12 1 -20z m-1707 -21 c-7 -8 -12 -8 -12 -2 0 14 12
27 19 20 3 -3 0 -11 -7 -18z m1520 -43 c0 -24 -10 -68 -21 -97 l-20 -52 6 52
c12 124 18 152 27 147 5 -4 9 -26 8 -50z m-1857 -2 c-15 -38 -26 -27 -16 16 4
20 11 29 17 23 6 -6 6 -21 -1 -39z m1613 14 c-3 -9 -6 -6 -6 6 -1 11 2 17 5
14 4 -4 4 -13 1 -20z m84 -11 c-3 -8 -6 -6 -6 6 -1 11 2 18 5 14 4 -3 4 -12 1
-20z m1145 -111 c-2 -16 -4 -3 -4 29 0 32 2 45 4 29 2 -16 2 -42 0 -58z m-557
26 c-3 -7 -5 -1 -5 14 0 14 2 20 5 13 3 -8 3 -19 0 -27z m-531 -14 c-10 -17
-11 -16 -9 9 1 17 6 25 11 19 6 -5 5 -17 -2 -28z m-1539 17 c7 -12 -42 -35
-97 -47 -23 -5 -34 -3 -34 4 0 33 114 70 131 43z m1388 -12 c-4 -9 -6 -6 -7 6
0 11 2 17 6 14 3 -4 4 -13 1 -20z m0 -69 c-3 -10 -5 -2 -5 18 0 20 2 28 5 18
2 -10 2 -26 0 -36z m833 39 c0 -6 -5 -10 -11 -10 -6 0 -10 4 -10 10 0 6 4 11
10 11 6 0 11 -5 11 -11z m-2193 -34 c-8 -7 -12 -8 -12 -1 0 14 12 26 19 19 3
-3 0 -11 -7 -18z m1821 -11 c-2 -7 -5 -1 -5 14 0 14 3 20 5 13 3 -8 3 -19 0
-27z m-1602 -29 c14 -8 31 -13 37 -12 7 1 18 -5 25 -14 8 -8 20 -15 27 -15 7
0 16 -8 19 -16 4 -9 12 -16 20 -16 43 0 242 -171 391 -337 40 -44 111 -151
111 -167 0 -4 9 -16 21 -26 11 -11 21 -30 21 -42 0 -13 9 -34 21 -47 11 -14
21 -39 21 -57 0 -18 2 -52 5 -75 5 -37 2 -34 -24 29 -16 39 -33 71 -37 71 -11
0 2 -66 14 -74 5 -3 12 -27 16 -52 5 -26 21 -84 38 -129 16 -44 25 -81 19 -81
-14 0 -23 22 -69 171 -43 140 -64 153 -53 35 6 -74 24 -138 55 -197 9 -17 14
-39 12 -49 -3 -11 -14 3 -33 40 -17 32 -36 65 -43 74 -8 8 -24 58 -37 110 -15
61 -32 102 -47 115 -12 12 -42 63 -66 113 -39 81 -87 137 -103 121 -3 -3 7
-30 21 -62 15 -31 27 -66 27 -78 0 -12 9 -31 21 -41 12 -11 21 -25 21 -32 0
-7 7 -19 16 -26 8 -7 15 -21 15 -30 -1 -15 -2 -15 -8 -1 -4 9 -16 25 -26 37
-45 49 -105 125 -134 171 -18 27 -48 60 -66 72 -18 13 -46 34 -62 47 -49 39
-42 15 16 -55 30 -37 65 -80 76 -95 11 -15 33 -44 48 -63 16 -20 31 -47 36
-60 7 -24 7 -24 -20 -7 -15 9 -31 15 -37 11 -5 -3 -11 -2 -13 3 -8 20 -119
107 -131 102 -11 -4 -51 26 -188 143 -230 198 -265 220 -415 258 l-78 21 -4
44 c-2 37 1 48 21 62 53 37 121 66 167 70 29 3 53 12 63 25 21 25 44 29 157
27 54 -1 100 -7 116 -16z m1873 -46 c3 -28 9 -54 15 -58 21 -14 32 -194 13
-214 -9 -8 -10 -3 -5 21 3 19 -3 72 -15 126 -30 128 -39 201 -24 187 6 -6 14
-34 16 -62z m-823 36 c0 -6 -5 -10 -11 -10 -6 0 -10 4 -10 10 0 6 4 11 10 11
6 0 11 -5 11 -11z m472 -32 c0 -11 -5 -20 -10 -20 -6 0 -11 12 -11 26 0 16 5
24 11 21 5 -4 10 -16 10 -27z m-397 -52 c-2 -23 -6 -42 -8 -42 -3 0 -4 19 -4
42 0 23 3 42 8 42 4 0 6 -19 4 -42z m-2112 22 c0 -18 -19 -22 -25 -6 -4 9 0
16 9 16 9 0 16 -5 16 -10z m2223 -34 c-2 -8 -7 -3 -11 11 -4 18 -3 22 5 14 6
-6 9 -17 6 -25z m536 -15 c1 -17 -2 -50 -7 -73 l-10 -42 -1 60 c-1 33 -4 67
-8 77 -5 13 -2 17 8 13 8 -2 16 -18 18 -35z m282 -28 c-3 -7 -5 -1 -5 13 0 14
2 20 5 13 3 -7 3 -19 0 -26z m-2703 -13 c-3 -15 -9 -26 -15 -26 -5 0 -7 -9 -4
-20 8 -23 -19 -51 -31 -33 -12 20 19 105 38 105 13 0 16 -7 12 -26z m1779 -7
c-3 -9 -6 -6 -6 6 -1 11 2 17 5 14 4 -4 4 -13 1 -20z m-2332 -17 c-7 -7 -27 8
-27 20 0 7 6 7 16 -2 9 -7 14 -15 11 -18z m2253 -45 c-9 -23 -11 -23 -17 -7
-5 10 -2 25 6 35 18 21 24 5 11 -28z m1038 -60 c0 -49 -3 -87 -6 -84 -10 10
-12 186 -3 180 5 -3 9 -46 9 -96z m-777 53 c-11 -18 -12 -18 -6 0 3 11 6 25 7
32 0 9 2 9 6 0 3 -7 0 -22 -7 -32z m-124 -33 c1 -24 -2 -47 -6 -51 -3 -3 -6
19 -6 50 0 65 9 66 12 1z m-1642 -1 c10 1 20 1 23 0 10 -4 47 -11 73 -15 14
-2 30 -13 35 -25 5 -12 24 -24 41 -28 18 -3 51 -26 75 -51 54 -55 167 -144
184 -144 6 0 12 -7 12 -16 0 -8 4 -15 9 -15 15 0 212 -207 212 -222 0 -5 5 -8
11 -7 6 2 17 -7 24 -18 6 -12 25 -37 41 -56 16 -19 29 -42 29 -51 0 -10 -4
-14 -7 -11 -4 4 -14 2 -22 -5 -22 -18 -126 11 -166 46 -33 28 -79 52 -110 55
-36 4 -85 33 -90 53 -3 12 -18 28 -34 35 -16 7 -43 26 -62 44 -18 17 -36 32
-39 32 -4 0 -44 23 -90 52 -46 29 -87 53 -90 53 -13 0 -298 183 -298 192 0 5
26 34 58 66 60 59 76 63 133 34 15 -8 19 -5 20 14 1 19 2 20 6 5 3 -10 13 -18
22 -17z m1500 -13 c-3 -8 -6 -6 -6 6 -1 11 2 18 5 14 4 -3 4 -12 1 -20z m-569
2 c4 -6 2 -10 -4 -10 -6 0 -11 4 -11 10 0 6 2 11 4 11 3 0 8 -5 11 -11z m87
-36 c79 -51 150 -153 150 -216 0 -34 -16 -43 -26 -13 -3 10 -21 36 -40 57 -19
21 -43 51 -53 66 -11 15 -24 24 -29 21 -6 -4 -10 0 -10 8 0 8 -14 28 -31 45
-59 55 -31 78 39 32z m1356 -94 c1 -5 -6 -3 -15 4 -8 7 -15 28 -15 46 l1 33
14 -37 c8 -20 15 -41 15 -46z m-170 23 c-4 -8 -6 -6 -7 6 0 11 2 18 6 14 3 -3
4 -12 1 -20z m1061 4 c6 -19 -15 -15 -23 4 -4 10 -1 15 6 13 7 -3 15 -10 17
-17z m-3668 -6 c60 -4 86 -10 92 -22 5 -9 20 -16 33 -16 12 0 35 -7 49 -15 14
-8 55 -29 89 -46 35 -17 70 -38 78 -48 8 -9 19 -17 26 -17 6 -1 25 -12 42 -26
34 -27 32 -58 -3 -58 -11 0 -24 -5 -27 -10 -4 -6 -15 -11 -24 -11 -29 -1 -63
-34 -70 -70 -6 -29 -4 -34 17 -41 13 -4 27 -10 30 -14 9 -13 115 -42 131 -36
17 6 20 17 9 28 -12 12 -15 69 -4 75 6 4 11 16 11 26 0 14 10 22 32 27 27 6
38 2 65 -23 19 -16 35 -33 37 -38 2 -4 10 -7 17 -7 16 0 27 -45 28 -120 1 -67
13 -107 30 -103 7 1 29 -2 49 -8 34 -9 37 -7 47 17 5 14 10 38 10 52 0 42 28
42 67 0 19 -21 40 -38 45 -38 6 0 23 -11 38 -25 15 -14 41 -29 59 -33 18 -4
32 -11 32 -15 0 -5 14 -12 31 -16 18 -4 34 -11 38 -17 3 -5 31 -22 63 -37 31
-16 57 -34 57 -41 0 -7 7 -19 15 -26 13 -10 15 -35 12 -124 -8 -205 -8 -205
36 -160 33 35 47 80 37 126 -9 42 13 52 27 12 8 -22 16 -29 27 -25 13 5 15 16
10 52 -7 51 -5 53 25 27 61 -52 74 -71 71 -96 -3 -27 -9 -29 -41 -17 -11 4
-19 0 -23 -12 -27 -74 -27 -81 -10 -100 10 -12 13 -23 7 -28 -11 -10 -110 -32
-160 -36 -23 -1 -40 -10 -48 -23 -29 -52 -73 -54 -106 -6 -12 18 -32 32 -52
35 -17 3 -71 28 -118 55 -63 36 -91 46 -100 39 -9 -8 -19 -7 -34 4 -23 16 -79
20 -79 5 0 -6 8 -15 18 -21 15 -9 15 -11 3 -11 -23 -1 -81 37 -130 84 -24 23
-64 52 -89 65 -26 13 -59 39 -74 58 -15 19 -30 34 -34 34 -10 0 -20 -49 -14
-66 8 -21 55 -42 60 -27 3 11 92 -71 92 -85 0 -19 -16 -18 -51 3 -70 44 -67
43 -60 19 4 -12 6 -22 4 -22 -2 0 -20 4 -40 10 -20 6 -51 13 -68 16 -51 9 -91
27 -152 70 -31 22 -68 40 -81 40 -47 0 -130 65 -232 183 -26 30 -44 62 -44 76
0 45 -24 77 -108 147 -19 16 -31 41 -40 84 -7 34 -18 78 -26 98 -7 20 -16 67
-20 105 -6 66 -5 70 28 110 24 29 44 43 66 46 17 1 35 7 41 12 9 9 59 8 231
-4z m2280 -46 c-12 -12 -18 7 -10 31 l8 24 4 -24 c2 -14 1 -28 -2 -31z m666
13 c0 -20 -5 -36 -10 -36 -12 0 -15 55 -4 66 12 12 14 8 14 -30z m-264 -13 c0
-35 -1 -36 -9 -13 -12 38 -12 53 0 53 6 0 10 -18 9 -40z m-3309 -10 c-3 -10
-5 -5 -5 13 -1 17 2 25 4 18 3 -7 3 -21 1 -31z m2730 16 c-4 -8 -6 -6 -7 6 0
11 2 18 6 14 3 -3 4 -12 1 -20z m-289 -22 c-5 -7 -14 -36 -18 -65 l-9 -53 -10
46 c-9 38 -8 49 5 58 9 6 19 21 24 33 6 14 10 16 13 7 3 -7 1 -19 -5 -26z
m183 -20 c-2 -47 -27 -52 -27 -6 0 20 3 39 6 43 13 13 23 -4 21 -37z m610 11
c-4 -9 -6 -6 -7 6 0 11 2 17 6 14 3 -4 4 -13 1 -20z m-515 -21 c-3 -9 -6 -6
-6 6 -1 11 2 17 5 14 4 -4 4 -13 1 -20z m110 -76 c12 -10 18 -22 16 -24 -6 -6
-59 48 -59 59 0 18 16 21 19 4 2 -11 13 -28 24 -39z m387 -16 c0 -6 -5 -13
-10 -17 -6 -3 -11 1 -11 10 0 9 5 17 11 17 5 0 10 -5 10 -10z m-451 -33 c0
-11 -5 -20 -11 -20 -6 0 -10 12 -10 26 0 16 4 24 10 21 6 -4 11 -16 11 -27z
m399 -5 c0 -8 -5 -15 -11 -15 -6 0 -10 7 -10 15 0 9 4 16 10 16 6 0 11 -7 11
-16z m-401 -165 c-6 -11 -12 -19 -13 -17 -2 2 -1 39 2 83 l6 78 8 -61 c6 -39
5 -69 -3 -83z m-488 87 c3 -15 10 -43 16 -63 7 -21 12 -50 12 -65 0 -15 7 -34
16 -41 11 -10 14 -22 9 -41 -4 -15 -9 -39 -10 -53 -1 -14 -3 -32 -4 -39 -3
-29 -22 -11 -22 21 0 18 -7 67 -16 109 -21 103 -31 222 -17 208 6 -6 13 -22
16 -36z m285 -32 c-3 -5 -1 -12 5 -16 6 -3 10 -28 10 -55 l-1 -50 -15 53 c-17
62 -19 93 -4 84 6 -4 8 -11 5 -16z m389 -58 c-8 -64 -24 -67 -28 -5 -3 49 10
90 24 75 7 -6 8 -33 4 -70z m306 8 c25 -86 29 -158 10 -179 -11 -12 -16 -37
-15 -77 2 -62 -32 -157 -65 -185 -14 -11 -14 -14 -2 -22 12 -8 11 -15 -5 -42
-10 -18 -25 -33 -33 -33 -16 0 -17 -13 0 -29 9 -10 6 -20 -16 -42 -32 -33 -37
-63 -13 -72 9 -4 16 -15 16 -25 0 -10 -7 -21 -16 -25 -17 -7 -22 -38 -5 -38
22 0 9 -17 -36 -47 -51 -34 -53 -50 -6 -41 39 8 41 -8 7 -43 -14 -14 -28 -37
-32 -52 -4 -15 -12 -27 -17 -27 -6 0 -10 -5 -10 -10 0 -20 69 -24 103 -6 31
16 39 13 33 -10 -21 -84 -29 -104 -46 -106 -10 -2 -21 -5 -24 -8 -9 -9 47 -20
70 -14 53 13 -10 -56 -71 -79 -19 -7 -34 -17 -34 -22 0 -9 27 -7 108 9 36 8
37 -9 2 -34 -15 -11 -37 -27 -49 -36 l-22 -17 22 -22 c27 -27 53 -29 70 -6 8
11 18 14 26 9 34 -20 -12 -224 -69 -309 -31 -46 -31 -56 -2 -47 23 7 23 7 5
-20 -9 -15 -17 -34 -17 -42 0 -8 -22 -33 -49 -54 -35 -30 -51 -37 -59 -28 -9
9 -2 31 27 86 l39 73 -27 0 c-15 0 -37 -5 -49 -11 -12 -7 -56 -12 -99 -11 -43
0 -77 -2 -77 -4 0 -3 16 -12 36 -21 37 -15 50 -37 22 -37 -17 0 -30 -28 -17
-37 6 -3 22 -3 37 1 15 4 27 2 27 -4 0 -6 -15 -14 -33 -18 -17 -4 -34 -14 -38
-22 -7 -18 -34 -19 -35 -1 0 7 -5 4 -11 -6 -8 -14 -21 -19 -49 -16 -61 5 -52
-19 10 -27 31 -4 65 -9 77 -11 11 -2 25 -5 31 -6 20 -3 -52 -31 -81 -31 -30
-1 -38 -15 -16 -28 7 -5 26 -7 42 -6 43 3 35 -14 -13 -28 -23 -7 -48 -23 -55
-36 -13 -22 -15 -29 -17 -57 -2 -15 -40 -19 -45 -4 -6 13 -103 25 -103 12 0
-6 11 -14 25 -17 15 -4 32 -13 38 -21 11 -13 4 -15 -37 -15 -53 0 -56 -15 -6
-25 18 -4 46 -9 63 -13 48 -10 27 -25 -26 -20 -30 3 -50 0 -55 -9 -4 -7 -43
-21 -86 -30 -112 -24 -113 -23 -106 160 4 113 28 266 41 271 7 2 12 11 12 19
0 25 26 99 34 99 4 0 8 6 8 14 0 8 12 31 26 53 14 21 29 51 33 67 4 15 10 33
15 39 4 6 10 39 13 75 3 36 13 76 22 89 9 13 17 36 17 50 0 15 12 69 26 121
14 53 34 133 44 179 10 46 29 108 42 137 13 29 24 62 24 73 1 12 10 36 21 54
11 18 23 55 27 82 4 26 11 50 15 53 6 4 28 -51 36 -90 1 -4 11 -3 24 2 l23 8
-19 61 c-25 77 -24 76 -23 116 1 19 6 35 10 35 5 0 15 -16 21 -35 11 -30 11
-30 7 -4 -5 26 -3 29 16 23 25 -8 27 5 9 71 -7 25 -9 62 -5 84 6 33 10 38 26
29 15 -8 19 -4 21 23 1 19 11 42 23 53 11 10 21 33 21 50 0 17 3 31 7 31 5 0
27 28 49 63 23 34 45 60 50 57 5 -3 9 4 9 16 0 12 5 22 11 22 5 0 10 -8 10
-16 0 -32 27 -15 45 28 22 53 36 45 57 -31z m-388 -61 c-3 -3 -9 3 -13 13 -5
15 -4 17 6 6 7 -7 11 -15 7 -19z m-392 -77 c-4 -11 -8 -12 -17 -4 -7 8 -8 26
-3 52 l8 40 9 -36 c4 -21 6 -44 3 -52z m404 -1 c1 -14 0 -14 -9 0 -6 9 -10 28
-10 42 l1 26 9 -26 c4 -14 8 -33 9 -42z m-865 42 c3 -6 1 -10 -5 -10 -6 0 -11
4 -11 10 0 6 2 11 5 11 2 0 7 -5 11 -11z m666 -36 c11 -21 12 -35 1 -71 -12
-44 -49 -100 -58 -91 -3 3 -6 33 -7 67 -2 46 2 70 16 92 24 35 31 36 48 3z
m-759 -8 c-3 -8 -6 -6 -6 6 -1 11 2 18 5 14 4 -3 4 -12 1 -20z m122 2 c3 -12
1 -21 -4 -21 -5 0 -9 9 -9 21 0 12 1 21 4 21 2 0 6 -9 9 -21z m-64 -39 c24
-27 78 -123 65 -116 -17 11 -99 134 -89 134 4 0 15 -8 24 -18z m1741 -27 c0
-5 -5 -6 -10 -2 -6 3 -11 14 -11 24 0 15 2 16 11 2 5 -9 10 -20 10 -24z
m-1364 -131 c-10 -16 -11 -15 -11 8 0 14 3 38 8 53 7 25 7 24 11 -8 1 -19 -2
-42 -8 -53z m209 55 c0 -16 -13 -20 -24 -9 -9 9 4 36 15 30 5 -4 9 -13 9 -21z
m-207 -134 c-9 -83 -23 -108 -23 -44 -1 59 8 100 21 100 5 0 6 -25 2 -56z
m949 11 c-3 -7 -5 -1 -5 13 0 14 2 20 5 13 3 -7 3 -19 0 -26z m-700 -92 c0 -6
-2 -10 -5 -10 -2 0 -7 4 -11 10 -3 6 -1 11 5 11 6 0 11 -5 11 -11z m11 -121
c-8 -82 -19 -61 -13 26 2 38 7 61 12 52 4 -8 5 -43 1 -78z m829 26 c0 -35 -7
-80 -16 -101 -8 -21 -15 -46 -15 -57 0 -28 -21 -25 -23 4 -3 63 29 218 45 218
5 0 9 -29 9 -64z m-1150 -124 c-2 -2 -12 12 -20 32 -13 30 -13 43 -3 65 12 26
13 24 20 -32 5 -33 6 -62 3 -65z m82 9 c5 -43 5 -45 -9 -27 -16 21 -20 60 -8
72 10 10 10 8 17 -45z m-838 1 c11 -19 -17 -25 -35 -7 -15 15 -15 17 6 17 13
0 25 -5 29 -10z m983 -88 c-8 -9 -11 -1 -11 30 1 41 1 41 12 11 8 -21 7 -33
-1 -41z m-1699 13 c-3 -11 -10 -20 -15 -20 -10 0 -12 35 -2 45 12 12 23 -3 17
-25z m622 -5 c0 -10 -6 -21 -12 -23 -14 -5 -28 26 -19 41 10 15 31 4 31 -18z
m1020 -179 c11 -59 13 -91 6 -104 -8 -15 -13 -8 -29 38 -20 61 -25 185 -10
235 9 29 10 26 13 -26 1 -32 10 -97 20 -143z m-888 136 c-9 -17 -11 -16 -11
11 0 23 3 28 11 20 8 -9 8 -17 0 -31z m1721 -4 c0 -6 -5 -10 -10 -10 -6 0 -11
4 -11 10 0 6 5 11 11 11 5 0 10 -5 10 -11z m-168 -99 c-20 -33 -52 -51 -52
-30 0 11 65 77 71 72 2 -3 -6 -22 -19 -42z m-1953 -21 c0 -32 -5 -60 -10 -64
-7 -4 -11 18 -11 57 0 36 5 64 11 64 5 0 10 -26 10 -57z m628 10 c-1 -21 1
-40 4 -43 10 -9 -18 -103 -31 -107 -16 -5 -17 38 -3 91 6 21 13 51 16 67 8 40
16 36 14 -8z m412 5 c0 -12 -7 -21 -17 -21 -12 0 -13 4 -4 21 6 12 13 21 16
21 2 0 5 -9 5 -21z m-263 -100 c0 -6 -5 -3 -10 6 -6 8 -11 20 -11 26 0 6 5 3
11 -5 5 -9 10 -21 10 -27z m263 15 c0 -12 4 -29 9 -39 7 -13 3 -23 -16 -37
l-25 -18 4 34 c2 19 5 45 5 58 2 30 23 32 23 2z m1317 -130 c1 -111 -10 -149
-19 -66 -5 40 -5 65 2 165 1 14 5 22 9 18 3 -4 7 -57 8 -117z m-2067 44 c-2
-7 -5 -1 -5 14 0 14 3 20 5 13 3 -8 3 -19 0 -27z m402 -63 c0 -36 1 -77 3 -91
2 -15 -1 -29 -7 -32 -11 -6 -21 149 -12 175 11 29 16 12 16 -52z m-391 -58
c11 -27 6 -86 -7 -86 -10 0 -21 83 -20 141 l1 43 8 -37 c5 -20 13 -48 18 -61z
m602 55 c0 -8 -5 -15 -10 -15 -6 0 -11 10 -11 22 0 12 5 18 11 15 5 -4 10 -14
10 -22z m-447 -47 c-2 -4 2 -27 11 -50 14 -40 13 -45 -5 -67 -11 -13 -21 -22
-21 -19 -7 47 -10 158 -4 178 l7 27 8 -31 c5 -17 7 -34 4 -38z m876 -115 c-5
-38 -14 -85 -19 -105 -33 -120 -40 -138 -45 -125 -7 20 9 144 24 183 6 17 14
68 16 113 2 46 8 88 12 95 14 21 22 -89 12 -161z m1364 88 l-2 -59 -14 44
c-12 34 -12 46 -2 59 7 8 14 15 16 15 1 0 2 -27 2 -59z m-1777 -6 c5 -25 10
-62 11 -82 1 -20 5 -70 9 -112 6 -51 4 -77 -3 -82 -8 -4 -12 4 -12 23 0 16 -5
46 -11 66 -22 76 -31 142 -25 191 8 59 19 58 31 -4z m324 -38 c-6 -70 -16 -98
-30 -76 -4 6 -3 11 2 11 5 0 10 18 11 39 2 78 6 107 14 102 4 -3 5 -37 3 -76z
m-99 -73 c0 -87 -10 -132 -27 -115 -9 9 -9 154 1 184 15 49 26 19 26 -69z
m1866 -16 c-3 -7 -5 -1 -5 14 0 14 2 20 5 13 3 -8 3 -19 0 -27z m-690 -31 c-1
-35 -3 -40 -10 -24 -13 30 -13 69 0 69 6 0 10 -21 10 -45z m-2463 -120 c-4
-28 -7 -67 -6 -87 2 -32 1 -34 -9 -18 -7 11 -9 35 -6 55 4 20 9 53 13 73 4 21
9 35 12 32 3 -3 1 -28 -4 -55z m1187 32 c5 -15 -9 -56 -21 -56 -2 0 -4 16 -4
36 0 38 13 49 25 20z m-625 -49 c0 -24 -4 -70 -9 -102 -14 -96 8 -114 43 -37
11 26 23 48 26 48 13 0 -10 -71 -35 -107 -21 -32 -24 -43 -14 -60 14 -26 5
-69 -18 -88 -14 -11 -15 -10 -9 10 4 13 2 51 -5 84 -17 80 -22 179 -9 187 5 3
10 30 10 58 0 29 5 52 11 52 5 0 10 -20 9 -45z m774 4 c-2 -42 -17 -55 -17
-15 0 27 7 46 16 46 2 0 2 -14 1 -31z m-409 -82 c-2 -10 -5 -2 -5 18 0 20 3
28 5 18 3 -10 3 -26 0 -36z m1617 0 c-2 -10 -5 -5 -5 13 0 17 2 25 5 18 3 -7
3 -21 0 -31z m-374 -13 c-17 -39 -36 -43 -21 -4 14 37 22 48 28 41 3 -3 0 -20
-7 -37z m-885 -14 c13 -35 7 -81 -9 -81 -5 0 -10 11 -11 24 0 13 -2 39 -4 57
-1 19 1 35 5 35 4 0 12 -16 19 -35z m-1278 -28 c0 -12 -5 -21 -11 -21 -6 0
-10 9 -10 21 0 11 4 21 10 21 6 0 11 -10 11 -21z m2813 -50 c0 -23 -2 -26 -10
-13 -13 20 -13 42 0 42 6 0 10 -13 10 -29z m8 -141 c-4 -9 -6 -6 -7 6 0 11 2
17 6 14 3 -4 4 -13 1 -20z m-393 -69 c3 -25 2 -47 -3 -50 -7 -5 -21 69 -21
109 1 31 18 -11 24 -59z m-1241 21 c-10 -17 -11 -17 -11 3 -1 24 13 43 18 27
2 -6 -1 -20 -7 -30z m-1915 -19 c-1 -20 -5 -36 -10 -36 -4 0 -7 18 -6 41 1 23
5 39 9 37 4 -3 7 -22 7 -42z m1804 13 c2 -7 0 -29 -5 -49 -5 -21 -9 -30 -10
-20 -1 9 -4 32 -8 50 -6 32 13 48 23 19z m1595 -28 c4 -5 2 -13 -4 -16 -6 -4
-11 1 -11 10 0 18 6 21 15 6z m-773 -26 c-8 -8 -15 -13 -17 -11 -7 6 9 26 20
26 6 0 4 -7 -3 -15z m-1713 -18 c-3 -9 -6 -6 -6 6 -1 11 2 17 5 14 4 -4 4 -13
1 -20z m811 -38 c0 -35 -2 -37 -12 -16 -6 12 -8 30 -4 39 10 28 17 18 16 -23z
m915 3 c0 -8 -5 -18 -11 -21 -6 -4 -10 5 -10 21 0 15 4 24 10 21 6 -4 11 -13
11 -21z m766 -6 c0 -12 -5 -19 -10 -15 -6 3 -11 13 -11 21 0 9 5 16 11 16 5 0
10 -10 10 -22z m-4148 -76 c-1 -46 -2 -51 -11 -29 -9 23 -4 85 7 85 3 0 4 -25
4 -56z m3802 -1 c0 -33 -12 -41 -27 -20 -10 13 -10 23 -2 36 15 23 29 15 29
-16z m-1240 -30 c0 -4 -4 -8 -10 -8 -6 0 -10 11 -10 24 0 19 2 20 10 8 6 -9
10 -20 10 -24z m1313 3 c0 -12 -4 -21 -10 -21 -5 0 -7 9 -4 21 3 11 8 21 10
21 2 0 4 -10 4 -21z m-556 -21 c0 -6 -5 -11 -11 -11 -6 0 -10 5 -10 11 0 5 4
10 10 10 6 0 11 -5 11 -10z m-3218 -59 c-4 -21 -10 -36 -13 -33 -2 3 -2 23 2
44 4 21 10 36 13 33 3 -3 2 -23 -2 -44z m108 24 c0 -7 -4 -25 -9 -39 -8 -23
-9 -22 -9 13 -1 22 3 40 9 40 6 0 10 -6 9 -14z m3217 7 c-7 -3 -19 -3 -26 0
-7 2 -1 5 13 5 14 0 20 -3 13 -5z m-139 -25 c0 -6 7 -10 16 -10 8 0 16 -5 16
-11 0 -17 -39 -31 -85 -31 -38 0 -42 2 -31 15 7 9 21 16 32 16 10 0 21 7 24
16 7 17 28 21 28 5z m474 -39 c-11 -17 -11 -17 -12 3 0 24 13 43 19 27 2 -6
-1 -20 -7 -30z m-401 -11 c0 -10 -16 -32 -37 -48 -34 -27 -41 -29 -63 -17 -23
12 -24 14 -7 27 10 8 29 14 42 14 13 0 32 10 42 22 22 25 24 25 23 2z m563 0
c21 -26 19 -31 -17 -38 -44 -8 -47 -7 -43 13 9 43 38 55 60 25z m-1091 -20
c29 -14 41 -15 60 -4 35 19 145 5 204 -25 27 -13 75 -41 106 -62 31 -20 74
-40 97 -44 47 -8 56 -18 56 -68 0 -26 5 -37 16 -37 9 0 30 -5 47 -11 62 -23
137 -39 175 -37 45 2 76 -23 69 -56 -7 -28 -29 -90 -40 -114 -12 -22 4 -24 22
-2 21 25 32 18 32 -21 0 -39 -9 -44 -42 -27 -15 8 -24 7 -37 -6 -23 -23 -21
-67 3 -67 10 0 28 -7 39 -15 17 -12 18 -17 6 -32 -11 -13 -12 -20 -3 -29 10
-9 20 -8 43 6 17 9 43 18 58 18 22 0 27 -5 27 -27 0 -16 7 -29 18 -32 10 -3
27 -11 38 -16 10 -6 24 -7 30 -3 8 5 9 -2 4 -21 -6 -25 -3 -31 25 -41 22 -8
32 -19 32 -34 0 -26 -20 -89 -28 -89 -10 0 -72 47 -90 68 -15 18 -20 19 -28 6
-12 -19 -5 -32 18 -32 12 0 6 -11 -21 -39 -37 -39 -37 -41 -30 -102 6 -50 13
-66 37 -87 19 -17 38 -24 54 -21 14 2 25 1 25 -3 0 -8 -34 -22 -58 -25 -17 -3
-36 -18 -36 -29 0 -5 12 -22 27 -37 19 -20 25 -34 20 -52 -7 -29 -22 -31 -66
-9 -38 19 -43 31 -44 114 0 33 -3 66 -7 71 -3 6 -10 59 -15 117 -9 112 -37
202 -77 246 -17 20 -19 28 -8 50 11 26 2 60 -21 79 -3 3 -16 25 -29 50 -15 29
-41 56 -77 79 -33 21 -72 60 -97 96 -72 103 -142 168 -229 215 -45 23 -91 43
-102 43 -11 0 -23 5 -26 11 -4 5 -18 10 -32 10 -14 0 -27 4 -30 9 -3 5 -49 12
-102 15 -70 4 -100 10 -113 23 -16 16 -16 18 3 32 27 20 52 19 97 -2z m-1813
-87 c-6 -23 -16 -42 -21 -42 -13 0 -14 47 -1 71 6 10 14 27 18 39 7 20 8 20
12 -2 2 -13 -1 -42 -8 -66z m-814 9 c-12 -19 -23 1 -18 29 6 28 6 28 15 5 5
-14 6 -29 3 -34z m2322 25 c-11 -11 -20 5 -11 19 7 11 9 11 13 0 2 -7 1 -16
-2 -19z m-197 -25 c-12 -22 -14 -23 -17 -6 -6 29 6 55 20 41 8 -7 7 -18 -3
-35z m1186 -52 l-1 -39 -28 17 c-15 10 -39 26 -53 36 l-26 18 31 27 30 26 24
-23 c18 -17 24 -33 23 -62z m-1128 20 c8 -47 1 -65 -15 -40 -12 19 -13 84 -1
84 5 0 12 -20 16 -44z m-921 10 c-3 -8 -6 -6 -6 6 -1 11 2 18 5 14 4 -3 4 -12
1 -20z m1211 -12 c8 8 27 8 61 1 27 -5 62 -12 79 -14 16 -2 37 -9 48 -14 11
-6 22 -8 24 -6 7 7 118 -21 182 -45 157 -62 224 -106 247 -162 17 -41 71 -103
89 -103 53 0 121 -124 118 -213 -1 -30 2 -64 7 -75 7 -15 6 -18 -5 -14 -9 2
-19 16 -23 30 -32 113 -44 143 -67 172 -14 19 -25 39 -25 45 0 6 -39 50 -87
98 -76 77 -101 96 -207 148 -66 33 -137 63 -157 67 -21 4 -43 12 -51 18 -7 6
-15 8 -18 5 -3 -3 -32 1 -65 9 -37 8 -94 12 -152 8 -86 -5 -92 -4 -92 15 0 26
41 45 65 30 13 -9 21 -8 29 0z m1449 -1 c0 -8 -5 -18 -10 -22 -6 -3 -11 -4
-11 -1 0 3 -3 12 -6 21 -5 11 -1 17 10 17 9 0 17 -7 17 -15z m-393 -32 c22
-15 57 -30 78 -33 22 -3 45 -10 51 -14 20 -12 2 -42 -26 -42 -14 0 -25 -6 -26
-14 0 -10 -2 -10 -6 0 -3 8 -13 14 -22 14 -9 0 -25 8 -36 17 -19 17 -22 17
-57 -2 -37 -19 -38 -19 -96 1 -32 11 -60 25 -62 32 -2 6 13 16 33 22 21 7 37
7 37 2 0 -5 5 -9 11 -9 6 0 10 7 8 17 -2 11 6 21 23 25 43 13 50 11 90 -16z
m246 10 c11 -13 10 -15 -4 -15 -9 0 -17 7 -17 15 0 9 2 16 4 16 2 0 10 -7 17
-16z m-3748 -15 c0 -6 -5 -11 -11 -11 -6 0 -10 5 -10 11 0 5 4 10 10 10 6 0
11 -5 11 -10z m1959 -103 c-24 -25 -34 -7 -11 19 12 14 21 18 24 10 2 -7 -4
-20 -13 -29z m655 16 c-1 -20 -27 -50 -44 -50 -16 0 -40 -20 -40 -34 0 -4 12
-8 27 -8 17 0 29 -8 35 -24 8 -20 5 -25 -20 -36 -17 -7 -35 -21 -40 -31 -9
-15 -13 -16 -27 -5 -46 39 -37 -41 11 -88 13 -14 25 -35 25 -47 0 -27 17 -27
26 0 4 13 14 20 27 18 16 -2 28 11 47 45 14 26 26 42 26 37 1 -6 5 -1 10 12
12 29 2 67 -17 67 -8 0 -14 7 -14 15 0 9 6 16 15 16 9 0 23 11 32 25 11 17 23
24 36 20 13 -3 24 3 31 16 11 20 14 21 40 7 16 -9 34 -15 40 -15 6 0 34 -15
61 -32 l50 -32 -5 -55 c-3 -31 -7 -63 -8 -71 -5 -20 73 -15 97 7 19 17 40 18
62 4 13 -8 12 -13 -9 -35 -17 -18 -22 -33 -17 -51 8 -31 -9 -64 -61 -118 -47
-50 -49 -74 -9 -95 29 -15 50 -45 39 -56 -3 -3 -20 -5 -37 -4 -18 0 -32 -4
-32 -9 0 -6 -7 -10 -16 -10 -9 0 -26 -5 -38 -11 l-22 -12 22 -20 c12 -12 37
-20 57 -20 38 0 102 -27 102 -42 0 -5 -14 -4 -30 3 -33 14 -138 11 -138 -4 0
-5 12 -12 26 -16 29 -7 35 -20 13 -29 -10 -4 -9 -7 2 -15 11 -8 5 -14 -25 -24
-36 -13 -37 -15 -14 -20 18 -5 24 -14 25 -37 0 -33 13 -39 54 -24 45 15 24 -8
-34 -38 -32 -17 -57 -35 -57 -40 0 -18 110 3 197 36 55 22 80 20 56 -4 -15
-15 -16 -82 -1 -82 18 0 11 -27 -12 -48 -12 -11 -40 -38 -61 -59 -31 -31 -51
-40 -106 -51 -38 -7 -73 -17 -78 -22 -15 -13 -28 -11 -26 4 3 24 -1 40 -10 40
-5 0 -8 -27 -7 -59 2 -43 -1 -60 -12 -64 -8 -4 -25 -27 -37 -52 -22 -48 -83
-109 -108 -109 -8 0 -39 -5 -68 -11 -44 -10 -55 -17 -67 -45 -62 -141 -53
-130 -147 -175 -49 -23 -103 -42 -121 -42 -28 0 -36 7 -55 45 -26 49 -47 70
-75 70 -25 1 -92 44 -92 60 0 7 -13 27 -28 46 -23 27 -25 35 -13 42 8 5 19 10
24 10 11 0 2 26 -10 27 -5 0 -22 6 -36 12 -14 7 -34 14 -44 17 -27 9 -81 88
-93 137 -6 24 -19 65 -28 91 -9 25 -17 63 -18 84 -1 20 -5 41 -9 48 -9 16 -12
281 -3 297 4 6 12 9 17 6 10 -6 4 94 -6 112 -5 8 28 66 47 83 4 2 16 21 28 42
20 33 20 39 6 60 -14 21 -13 29 4 74 10 27 35 75 55 107 20 32 43 72 50 89 11
26 25 36 74 52 34 11 77 34 96 50 40 34 54 38 163 44 46 3 85 7 89 11 3 3 45
6 94 6 63 0 87 -4 87 -13z m-766 -38 c0 -11 -8 -23 -17 -27 -9 -3 -14 -2 -12
2 2 4 7 16 11 26 8 24 18 24 18 -1z m1939 -55 c6 -42 5 -45 -11 -32 -11 9 -17
30 -17 57 0 57 20 38 28 -25z m-3471 -83 c-10 -24 -11 -22 -11 16 -1 23 3 61
7 84 l8 42 3 -58 c2 -32 -2 -70 -7 -84z m4117 96 c2 -17 0 -42 -6 -56 -10 -24
-10 -24 -18 7 -10 32 -3 79 11 79 4 0 10 -14 13 -30z m-808 -50 c23 -21 38
-40 35 -43 -7 -7 -76 49 -84 68 -10 23 8 14 49 -25z m-2676 -14 c4 -5 2 -13
-4 -16 -6 -4 -11 1 -11 10 0 18 6 21 15 6z m3282 -27 c0 -6 -5 -3 -10 6 -6 8
-11 20 -11 26 0 6 5 3 11 -5 5 -9 10 -21 10 -27z m-735 3 c0 -8 -9 -14 -21
-14 -23 0 -28 12 -8 20 22 9 29 8 29 -6z m581 -63 c-10 -16 -24 4 -24 32 l0
28 15 -26 c8 -14 12 -30 9 -34z m207 45 c11 -8 15 -31 15 -92 0 -68 4 -87 24
-115 31 -43 30 -55 -2 -25 -14 13 -29 39 -32 57 -4 18 -16 63 -27 99 -25 79
-19 101 22 76z m-686 -65 c-2 -49 1 -56 34 -83 47 -40 33 -53 -18 -17 -22 15
-46 28 -53 28 -17 0 -15 22 4 47 8 11 15 33 15 50 0 16 5 29 10 29 6 0 9 -24
8 -54z m271 -119 c5 -155 -12 -101 -21 68 -4 86 -3 104 6 84 7 -14 13 -83 15
-152z m-75 106 c-8 -54 -25 -66 -25 -16 0 31 18 79 27 70 3 -3 2 -27 -2 -54z
m-125 -2 c9 -14 14 -25 11 -25 -16 0 -58 35 -58 48 0 20 27 7 47 -23z m-3082
-44 c-11 -17 -11 -17 -6 1 4 11 7 27 8 37 1 16 1 15 6 -1 2 -10 -1 -26 -8 -37z
m4004 -65 c4 -30 3 -41 -4 -31 -8 14 -14 92 -6 82 2 -2 7 -25 10 -51z m-413
-30 c1 -28 -26 -5 -29 25 -3 30 -3 30 13 10 9 -12 16 -28 16 -35z m-3993 6
c-3 -7 -5 -1 -5 13 0 14 2 20 5 13 3 -7 3 -19 0 -26z m4020 -57 c11 -11 15
-26 10 -48 -8 -36 15 -60 60 -60 16 0 31 -5 35 -11 3 -6 15 -10 26 -10 23 0
26 -10 41 -121 18 -138 23 -249 11 -242 -5 4 -10 25 -10 48 0 22 -5 43 -10 47
-6 3 -11 19 -11 36 0 30 -53 139 -82 168 -9 9 -25 21 -37 27 -24 12 -59 101
-59 149 -1 39 2 41 26 17z m184 -5 c0 -6 -5 -7 -11 -4 -6 4 -10 11 -10 17 0 6
4 8 10 4 6 -3 11 -11 11 -17z m-4216 -40 c-5 -28 -3 -42 4 -42 6 0 11 -18 10
-40 l-1 -39 -8 36 c-5 20 -14 38 -20 40 -15 5 -15 26 1 60 17 38 22 33 14 -15z
m2929 -21 c4 -6 16 -11 27 -11 14 0 20 -7 20 -24 0 -20 -2 -21 -13 -7 -7 10
-19 15 -26 13 -15 -5 -44 15 -44 30 0 12 28 11 36 -1z m264 -61 c-3 -22 -5
-55 -6 -74 0 -19 -5 -32 -10 -29 -14 9 -23 68 -12 88 5 10 12 26 15 36 10 32
18 20 13 -21z m570 -68 c-1 -52 -3 -59 -9 -34 -12 47 -12 100 0 100 6 0 9 -29
9 -66z m106 -35 c0 -9 -5 -13 -10 -10 -6 4 -11 11 -11 17 0 5 5 10 11 10 5 0
10 -8 10 -17z m-330 -76 c-9 -8 -27 18 -27 40 0 10 6 7 17 -9 9 -13 14 -27 10
-31z m36 18 c0 -6 -5 -8 -10 -4 -6 3 -11 11 -11 17 0 6 5 7 11 4 5 -4 10 -11
10 -17z m-346 -20 c-9 -5 -17 -8 -19 -6 -2 2 0 11 4 21 5 13 10 15 18 6 9 -8
8 -14 -3 -21z m178 16 c0 -8 -5 -28 -12 -44 l-12 -30 -7 27 c-8 27 4 63 21 63
5 0 10 -7 10 -16z m657 -45 c3 -22 15 -68 25 -102 16 -53 46 -165 71 -263 5
-17 0 -16 -27 10 -18 17 -33 37 -33 44 0 6 -14 42 -31 79 -22 50 -32 90 -37
158 -4 50 -4 97 -1 103 14 21 26 10 33 -29z m-2746 9 c0 -5 2 -18 6 -29 5 -18
4 -18 -11 1 -19 23 -21 38 -6 38 6 0 11 -5 11 -10z m1914 -103 c4 -38 1 -64
-9 -84 -15 -29 -15 -28 -15 33 0 41 -6 68 -17 80 -12 14 -13 24 -4 48 l12 30
13 -26 c8 -14 16 -51 20 -81z m-2954 -23 c0 -6 -5 -13 -10 -17 -6 -3 -11 1
-11 10 0 9 5 17 11 17 5 0 10 -5 10 -10z m-11 -114 c0 -22 -2 -25 -10 -13 -13
21 -13 42 0 42 6 0 10 -13 10 -29z m3517 -49 c-17 -28 -25 -35 -32 -25 -9 15
-1 59 15 80 9 11 14 11 26 -1 12 -13 11 -20 -9 -54z m-2636 -120 c15 -10 11
-33 -19 -143 -7 -23 -12 -49 -12 -58 0 -9 -2 -26 -5 -39 -9 -46 -23 -23 -29
51 -6 60 -4 79 9 93 8 9 16 34 16 54 0 49 10 60 40 42z m2161 -51 c11 -26 -5
-27 -37 -2 -18 14 -32 34 -32 44 -1 18 2 18 31 -4 18 -12 35 -29 38 -38z
m1038 -3 c-4 -12 -10 -20 -13 -17 -3 3 -2 15 2 28 4 12 10 20 13 17 3 -3 2
-16 -2 -28z m-1402 -9 c0 -6 -7 -12 -16 -16 -16 -6 -21 5 -8 18 10 10 24 9 24
-2z m843 0 c4 -1 8 -8 8 -17 0 -8 10 -21 23 -28 39 -20 71 -61 76 -96 2 -19 7
-49 11 -68 6 -27 4 -34 -8 -34 -18 0 -42 24 -95 95 -32 42 -40 47 -74 44 -44
-2 -123 -36 -143 -60 -20 -23 5 -21 36 3 18 14 39 18 73 16 71 -4 86 -11 101
-46 7 -17 18 -35 25 -39 53 -34 165 -232 185 -328 46 -223 74 -599 48 -635
-11 -16 -32 -23 -66 -26 -15 -1 -98 -167 -98 -198 0 -40 21 -25 47 34 21 47
109 153 127 153 8 0 -37 -84 -56 -103 -27 -27 -60 -95 -52 -103 4 -4 23 7 42
26 40 38 66 42 76 12 8 -27 -3 -63 -20 -63 -14 0 -27 -149 -27 -291 0 -48 -3
-55 -21 -55 -21 0 -53 46 -53 76 0 22 -34 48 -39 31 -7 -18 -31 -16 -39 4 -3
9 -3 28 1 42 4 19 0 32 -16 47 -24 22 -27 38 -13 61 6 9 4 31 -5 56 -21 58
-18 89 11 150 15 29 26 55 26 59 0 4 -20 7 -44 6 l-45 -2 3 36 c2 20 0 43 -3
52 -5 14 -7 14 -16 1 -5 -9 -10 -26 -10 -39 0 -13 -4 -24 -9 -24 -5 0 -14 -12
-21 -26 -14 -32 -34 -34 -52 -5 -11 17 -11 26 -1 37 6 8 16 12 21 9 16 -10 10
13 -6 27 -9 7 -16 10 -16 6 0 -4 -18 7 -41 25 -22 17 -46 32 -52 32 -18 0 -14
28 4 35 19 8 19 32 0 86 -10 27 -13 61 -9 97 7 56 -3 70 -28 39 -8 -10 -11
-36 -8 -73 3 -44 1 -58 -10 -58 -7 0 -48 34 -90 76 -57 57 -81 90 -95 131 -25
70 -44 73 -35 7 8 -57 32 -91 141 -202 42 -43 76 -80 76 -82 0 -10 -23 -1 -40
15 -10 10 -36 32 -58 48 -21 16 -51 41 -66 55 -32 29 -42 31 -49 12 -9 -23 49
-89 125 -143 116 -84 137 -103 161 -154 29 -61 26 -88 -6 -59 -24 23 -90 35
-91 18 0 -6 31 -29 70 -51 48 -28 70 -47 70 -60 0 -25 -2 -25 -55 1 -24 11
-50 21 -58 21 -26 0 4 -39 53 -67 58 -34 77 -56 62 -72 -15 -15 -89 14 -167
66 -42 27 -65 36 -72 29 -12 -13 57 -79 140 -132 l56 -36 -24 -26 c-19 -20
-21 -28 -10 -38 10 -11 16 -9 30 9 20 25 87 45 87 26 0 -6 -12 -14 -27 -18
-14 -3 -26 -10 -26 -15 0 -11 59 -31 69 -22 5 4 1 -5 -8 -19 -11 -18 -27 -28
-52 -30 -50 -5 -61 -20 -24 -33 17 -6 40 -16 52 -22 20 -10 92 -27 161 -38 19
-3 36 -11 38 -18 1 -6 8 -28 14 -48 7 -21 15 -110 18 -200 9 -245 12 -278 23
-300 16 -31 24 -162 10 -163 -7 -1 -19 -2 -28 -4 -9 -1 -26 -3 -39 -4 -13 -1
-24 -6 -24 -11 0 -11 40 -25 65 -23 9 1 20 -3 24 -9 4 -7 -5 -11 -24 -11 -17
0 -37 -7 -44 -16 -12 -14 -10 -21 8 -45 11 -15 28 -27 37 -26 12 3 15 -10 16
-61 1 -54 -1 -62 -14 -51 -9 7 -15 21 -15 32 0 11 -4 20 -9 20 -12 0 -89 120
-125 194 -36 75 -104 167 -113 153 -6 -9 127 -284 143 -295 9 -6 41 -78 40
-91 0 -5 -11 6 -25 23 -30 38 -42 32 -26 -15 10 -27 9 -36 -1 -43 -9 -5 -11
-18 -6 -35 8 -34 -7 -66 -37 -75 -14 -5 -20 -14 -18 -30 3 -20 9 -22 54 -19
50 4 51 4 47 -26 -3 -26 -8 -30 -48 -36 -45 -6 -63 -15 -52 -26 11 -12 86 -24
110 -19 14 4 24 1 24 -5 0 -7 -5 -12 -11 -12 -6 0 -25 -10 -41 -22 -28 -21
-33 -21 -54 -6 -12 8 -29 25 -38 37 -8 12 -25 28 -38 34 l-22 13 19 -31 c11
-17 33 -44 50 -61 33 -33 56 -69 44 -69 -10 0 -56 52 -56 64 0 5 -5 10 -10 10
-16 0 -95 86 -124 136 -16 26 -34 52 -40 58 -12 10 -36 51 -97 163 -34 62 -44
73 -44 42 0 -13 21 -62 47 -108 26 -46 47 -87 47 -91 0 -4 9 -26 21 -48 12
-23 21 -49 21 -59 0 -29 -31 -32 -69 -9 -26 16 -36 30 -36 50 0 16 -16 54 -34
86 -31 51 -45 81 -84 179 -6 14 -17 47 -24 72 -22 70 7 34 37 -46 36 -100 107
-237 123 -237 10 1 12 9 7 29 -8 34 -25 69 -36 77 -12 7 -73 131 -73 147 0 7
-8 22 -17 33 -10 10 -26 58 -36 106 -10 49 -23 98 -30 110 -16 31 -125 414
-139 490 -19 108 -23 185 -10 185 6 0 12 -17 12 -38 0 -39 29 -138 64 -214 12
-26 30 -79 40 -118 19 -72 67 -166 85 -166 22 0 4 60 -54 184 -58 124 -72 162
-72 195 0 42 16 38 31 -7 7 -21 25 -53 41 -71 57 -67 119 -256 137 -416 7 -66
20 -103 47 -137 7 -9 21 -47 32 -86 18 -71 40 -114 53 -101 19 19 -64 311
-101 350 -16 17 -20 37 -20 92 0 39 -4 71 -8 71 -13 0 -58 143 -52 167 4 15
-13 47 -54 105 -134 191 -194 300 -260 473 -41 107 -56 166 -66 266 -7 57 -18
105 -31 126 -21 36 -36 95 -26 105 10 10 40 -43 94 -163 53 -119 93 -187 110
-187 7 0 5 10 -5 26 -9 14 -17 37 -17 52 0 14 -5 29 -10 32 -29 18 -116 250
-116 307 0 40 16 38 32 -3 9 -24 31 -36 31 -17 0 4 -15 50 -32 101 -31 87 -32
99 -26 194 8 121 22 182 55 235 35 55 55 52 57 -11 0 -27 0 -65 -1 -83 -1 -18
3 -36 8 -39 10 -6 22 48 24 109 0 30 2 33 10 16 4 -12 9 -35 9 -51 1 -30 25
-64 36 -52 4 4 7 23 7 43 0 30 3 34 15 24 18 -15 21 -11 38 62 15 66 27 95 42
95 12 0 66 49 181 166 142 144 197 168 336 150z m-3489 -53 c0 -28 -11 -53
-22 -53 -11 0 -13 56 -3 66 14 13 25 7 25 -13z m4053 -24 c0 -17 -3 -20 -12
-12 -6 7 -8 17 -4 24 11 17 16 13 16 -12z m-1648 -13 c0 -14 -31 -32 -40 -22
-3 2 -2 12 1 21 8 20 39 21 39 1z m-1656 -35 c4 -22 7 -68 7 -102 -1 -57 -2
-61 -16 -44 -10 14 -14 46 -13 103 1 88 12 108 22 43z m3301 -31 c-3 -10 -5
-2 -5 18 0 20 2 28 5 18 2 -10 2 -26 0 -36z m-123 -50 c4 -6 5 -41 1 -79 l-7
-68 -16 80 c-12 58 -14 86 -6 100 11 18 12 18 16 -2 2 -11 7 -25 12 -31z
m-3372 -13 c-1 -39 -1 -39 -8 -8 -7 30 -5 47 5 47 2 0 4 -18 3 -39z m3226 -34
c17 -36 27 -294 11 -294 -7 0 -12 12 -12 26 0 15 -5 36 -11 47 -5 11 -17 68
-25 128 -8 60 -17 116 -21 126 -13 30 43 -2 58 -33z m-3081 2 c-2 -10 -5 -4
-5 13 0 18 2 26 5 19 3 -7 3 -21 0 -32z m497 24 c0 -9 -5 -16 -10 -16 -6 0
-11 7 -11 16 0 8 5 16 11 16 5 0 10 -8 10 -16z m1008 -10 c0 -15 -22 -27 -51
-27 -14 1 -12 5 8 21 29 25 43 27 43 6z m47 -47 c8 -17 19 -32 24 -34 16 -7
66 -79 66 -97 0 -21 -9 -22 -31 -2 -27 23 -63 30 -70 14 -8 -22 14 -71 32 -71
9 0 16 -2 16 -4 0 -3 3 -13 7 -23 6 -14 3 -16 -13 -7 -11 6 -47 16 -79 24
l-59 13 -1 51 c-2 58 6 64 32 22 l18 -29 1 27 c1 14 1 34 0 45 -1 10 4 25 10
34 7 8 10 22 6 32 -7 18 0 36 15 36 6 0 17 -14 26 -31z m288 9 c-16 -10 -33
-2 -25 11 3 5 13 7 22 3 13 -5 13 -8 3 -14z m-114 -64 c0 -5 -8 -9 -16 -9 -9
0 -16 4 -16 9 0 5 7 9 16 9 8 0 16 -4 16 -9z m100 -8 c-3 -5 -22 -9 -43 -9
-20 0 -36 4 -36 9 0 5 19 10 42 10 24 0 40 -5 37 -10z m306 -34 c-4 -9 -6 -6
-7 6 0 11 2 17 6 14 3 -4 4 -13 1 -20z m1199 -77 l0 -63 -16 56 c-8 32 -12 67
-8 78 11 37 25 -3 24 -71z m-3338 -55 c-1 -29 -3 -35 -10 -23 -9 15 -4 62 6
62 2 0 4 -18 4 -39z m382 -93 c5 -46 3 -68 -8 -83 -13 -19 -15 -13 -22 60 -8
85 -1 132 15 103 5 -9 11 -45 15 -80z m1540 59 c-6 -11 -11 -32 -11 -48 0 -15
-7 -41 -16 -57 -13 -27 -13 -42 0 -134 19 -122 19 -139 6 -139 -6 0 -11 14
-11 32 0 19 -6 75 -12 126 -10 74 -10 104 1 153 8 34 19 67 25 74 16 21 30 16
18 -7z m1288 -2 c-4 -9 -6 -6 -7 6 0 11 2 17 6 14 3 -4 4 -13 1 -20z m-1644
-6 c38 -7 62 -39 62 -83 0 -72 66 -191 161 -287 83 -84 117 -159 142 -310 19
-111 52 -231 74 -263 4 -6 13 -32 20 -57 8 -26 18 -63 24 -83 13 -43 7 -52
-14 -20 -9 13 -43 52 -75 87 -45 48 -59 58 -59 42 0 -12 6 -34 14 -48 8 -15
17 -46 22 -69 4 -22 16 -56 26 -74 16 -26 18 -42 11 -73 -5 -23 -7 -51 -4 -64
8 -30 -12 -31 -28 -2 -6 12 -14 19 -18 16 -3 -3 2 -18 12 -32 20 -31 22 -62 4
-56 -18 6 -88 124 -97 162 -3 18 -21 48 -38 67 -17 19 -36 53 -41 75 -6 21
-16 42 -21 45 -6 4 -10 14 -10 22 0 9 -17 51 -37 94 -37 79 -82 210 -120 351
-12 43 -27 83 -32 89 -6 5 -11 26 -11 45 0 20 -7 49 -15 65 -9 16 -13 32 -11
35 7 6 -14 110 -27 139 -5 12 -14 47 -20 79 -6 32 -13 68 -17 79 -7 27 30 49
68 41 13 -3 38 -8 55 -12z m-789 -80 c0 -53 -13 -92 -24 -73 -9 14 5 140 15
133 5 -3 9 -30 9 -60z m903 8 c0 -20 10 -19 33 2 23 21 25 7 3 -22 -8 -11 -15
-31 -15 -44 0 -31 -19 -32 -25 -1 -11 50 -13 91 -5 86 5 -3 9 -13 9 -21z
m-2110 -10 c0 -8 -5 -17 -11 -21 -6 -3 -10 6 -10 21 0 16 4 25 10 21 6 -3 11
-13 11 -21z m448 -23 c-3 -10 -5 -5 -5 13 -1 17 2 25 4 18 3 -7 3 -21 1 -31z
m1771 -79 c3 -51 3 -92 1 -92 -12 0 -78 67 -78 80 0 13 63 112 69 106 1 -1 5
-44 8 -94z m1556 7 c-11 -19 -17 -38 -14 -43 3 -5 2 -32 -2 -61 l-7 -53 -12
58 c-11 56 -2 170 11 137 3 -9 9 -23 12 -32 3 -9 4 4 1 27 -6 52 6 70 19 30 7
-22 5 -38 -8 -63z m-3477 -31 c-13 -57 -13 -64 3 -76 11 -8 18 -29 19 -55 1
-53 -11 -54 -27 -3 -7 22 -16 44 -19 50 -11 17 -10 91 1 147 10 50 11 51 24
25 11 -21 11 -36 -1 -88z m1308 74 c0 -15 -5 -26 -10 -26 -12 0 -15 34 -4 45
12 12 14 8 14 -19z m-201 -137 c1 -17 -1 -18 -9 -5 -6 9 -10 32 -9 53 l1 36 8
-31 c4 -18 9 -41 9 -53z m-1368 -23 c-12 -13 -18 6 -10 30 l8 25 4 -25 c2 -13
1 -27 -2 -30z m2252 21 c1 -10 3 -29 5 -42 3 -16 0 -24 -11 -24 -11 0 -15 12
-15 42 0 40 20 62 21 24z m-1702 -152 c8 -42 9 -78 1 -124 -5 -35 -8 -70 -5
-78 3 -8 2 -17 -4 -20 -5 -4 -12 45 -16 114 -3 67 -12 140 -19 163 -10 33 -10
47 2 70 l14 29 7 -47 c4 -26 13 -74 20 -107z m1218 26 c5 -34 6 -76 3 -93 l-6
-31 -8 27 c-9 31 -12 174 -4 165 4 -3 10 -34 15 -68z m1804 -11 c0 -45 -2 -95
-5 -113 l-6 -31 -10 26 c-17 44 -5 200 16 200 1 0 4 -37 5 -82z m-3572 -30 c2
-42 -9 -57 -18 -25 -11 43 -10 65 4 60 7 -2 14 -18 14 -35z m347 -97 c3 -65 2
-117 -4 -117 -15 0 -34 67 -34 123 0 50 18 125 28 115 3 -3 7 -57 10 -121z
m-226 75 c0 -22 2 -70 3 -108 3 -85 -1 -94 -25 -55 -26 43 -37 132 -21 171 19
45 42 40 43 -8z m1039 -155 c0 -52 -4 -68 -15 -68 -26 0 -33 89 -10 128 14 25
25 0 25 -60z m1806 58 c0 -6 -3 -11 -5 -11 -3 0 -8 5 -11 11 -4 5 -2 10 4 10
6 0 12 -5 12 -10z m868 -52 c-3 -21 -13 -59 -23 -85 -10 -26 -20 -72 -24 -102
-3 -30 -9 -53 -13 -50 -9 6 -27 116 -23 146 1 12 11 31 22 42 11 12 26 39 33
61 17 47 35 40 28 -12z m-2256 -99 c-8 -15 -14 -18 -17 -9 -7 19 6 46 18 39 7
-5 7 -15 -1 -30z m-1589 -169 c1 -104 9 -134 32 -125 11 4 15 -2 15 -21 0 -18
-7 -29 -22 -34 -28 -9 -41 9 -41 60 0 21 -7 44 -16 51 -12 10 -15 36 -15 105
0 50 3 94 6 98 4 4 14 -3 23 -16 11 -15 16 -52 18 -118z m3187 68 c-7 -12 -19
-21 -27 -21 -24 0 -18 38 8 57 21 14 24 15 27 1 2 -8 -2 -25 -8 -37z m-1836
-29 c11 -13 -31 -111 -49 -112 -6 -1 -12 19 -13 43 -1 31 2 45 12 45 8 0 18
18 22 39 6 29 10 34 13 19 3 -12 9 -27 15 -34z m-1055 16 c-4 -8 -6 -6 -7 6 0
11 2 18 6 14 3 -3 4 -12 1 -20z m430 -147 c-3 -8 -6 -6 -6 6 -1 11 2 18 5 14
4 -3 4 -12 1 -20z m-416 -8 c0 -6 -6 -11 -12 -11 -6 0 -8 5 -4 11 3 5 8 10 11
10 2 0 5 -5 5 -10z m842 -70 c2 -63 -10 -183 -19 -192 -4 -3 -4 15 0 42 5 37
3 51 -9 61 -23 20 -32 81 -17 129 11 38 15 41 28 27 9 -9 16 -37 17 -67z
m-594 28 c19 -48 4 -163 -21 -155 -14 5 -22 111 -12 164 7 37 15 35 33 -9z
m-882 -29 c-2 -10 -5 -5 -5 13 0 17 2 25 5 18 3 -7 3 -21 0 -31z m4000 2 c8
-34 11 -310 3 -310 -4 0 -10 32 -15 71 -4 39 -11 76 -15 82 -5 6 -11 48 -15
95 -6 79 -5 84 14 86 15 1 23 -7 28 -24z m-3324 -31 c0 -20 -5 -39 -11 -42 -6
-4 -10 12 -10 42 0 29 4 46 10 42 6 -4 11 -23 11 -42z m424 -19 c12 -110 12
-157 -2 -162 -7 -3 -18 8 -23 23 -12 31 -15 177 -4 188 16 16 23 4 29 -49z
m-572 -7 c0 -21 -2 -23 -10 -11 -6 9 -10 28 -10 42 0 21 2 23 10 11 6 -9 10
-28 10 -42z m606 29 c-3 -8 -6 -6 -6 6 -1 11 2 18 5 14 4 -3 4 -12 1 -20z
m-501 -135 c0 -18 -5 -27 -15 -27 -12 0 -16 13 -16 55 0 79 13 106 23 46 4
-26 7 -59 8 -74z m3241 80 c0 -22 -7 -39 -19 -47 -17 -10 -18 -8 -13 23 9 48
13 60 23 60 5 0 9 -16 9 -36z m-353 -28 c0 -5 -7 -9 -16 -9 -16 0 -21 12 -9
24 9 8 25 -1 25 -15z m-3154 -71 c-15 -14 -17 -14 -17 -1 0 22 25 47 30 30 2
-6 -4 -19 -13 -29z m3154 21 c0 -5 -12 -7 -26 -4 -15 3 -26 7 -26 9 0 2 11 4
26 4 14 0 26 -4 26 -9z m610 -66 c-9 -22 -10 -19 -11 17 0 32 3 38 10 25 7
-11 7 -27 1 -42z m-3590 -32 c-10 -23 -11 -22 -12 12 0 28 2 33 12 24 9 -9 9
-19 0 -36z m2051 -3 c15 -26 26 -53 23 -60 -3 -8 -11 0 -19 18 -8 17 -17 34
-21 37 -9 7 -23 52 -16 52 3 0 18 -21 33 -47z m-1142 -34 c-3 -16 -5 -6 -5 23
0 29 2 42 4 29 3 -13 3 -36 1 -52z m90 -11 c-5 -21 -15 -40 -22 -42 -17 -6
-18 83 0 100 20 20 32 -13 22 -58z m2601 2 c0 -15 -5 -24 -10 -21 -5 3 -7 15
-4 27 8 29 14 26 14 -6z m-3596 -42 c-3 -10 -9 -16 -12 -13 -3 3 -2 13 2 23 4
10 9 16 12 13 3 -3 2 -14 -2 -23z m3193 -6 c-3 -9 -6 -6 -6 6 -1 11 2 17 5 14
4 -4 4 -13 1 -20z m-1068 -46 c0 -6 -9 2 -20 16 -12 14 -21 31 -21 37 0 6 9
-2 21 -16 11 -14 20 -31 20 -37z m-1707 -13 c-3 -22 -11 -44 -17 -50 -7 -7 -9
1 -4 25 4 20 7 42 7 50 0 8 4 15 10 15 7 0 9 -15 4 -40z m318 17 c-3 -9 -6 -6
-6 6 -1 11 2 17 5 14 4 -4 4 -13 1 -20z m1499 -61 c-8 -7 -57 53 -57 68 1 6
15 -6 32 -26 17 -20 28 -39 25 -42z m-1953 25 c9 -25 7 -57 -6 -104 l-11 -42
-25 31 c-25 31 -24 46 8 108 14 28 25 30 34 7z m489 -15 c0 -11 -5 -23 -10
-26 -7 -4 -11 7 -11 26 0 19 4 30 11 26 5 -3 10 -15 10 -26z m1393 15 c8 -22
-6 -34 -18 -15 -13 21 -13 32 1 32 6 0 13 -8 17 -17z m1434 -226 c-1 -122 -4
-224 -7 -228 -17 -17 -27 29 -37 183 -12 188 -7 263 19 269 10 2 19 3 21 1 2
-1 4 -103 4 -225z m-435 169 c0 -23 -4 -42 -9 -42 -11 0 -22 48 -14 67 12 31
24 18 23 -25z m-2321 8 c19 -18 15 -103 -7 -143 -25 -48 -35 -29 -34 63 2 93
11 111 41 80z m101 -11 c9 -35 8 -81 -3 -81 -8 0 -22 57 -22 92 0 22 18 14 25
-11z m1340 -13 c11 -13 11 -15 -4 -9 -9 3 -17 10 -17 16 0 13 6 11 21 -7z
m-95 -179 c15 -13 46 -41 69 -63 23 -21 59 -50 81 -64 22 -13 40 -30 40 -37 0
-7 6 -20 14 -29 8 -9 18 -33 22 -53 8 -37 7 -36 -68 39 -42 42 -81 73 -86 70
-5 -3 -16 0 -25 7 -8 7 -15 9 -15 5 0 -24 109 -189 163 -248 48 -52 100 -143
100 -176 0 -11 9 -31 20 -45 11 -14 19 -38 18 -53 l-2 -28 -28 27 c-16 15 -37
44 -46 65 -10 20 -40 61 -66 90 -27 29 -55 65 -64 79 -38 69 -63 126 -63 146
0 12 -5 30 -11 41 -5 10 -30 58 -54 107 -24 49 -56 113 -71 142 -33 65 -52
118 -46 125 3 3 25 -23 49 -59 23 -35 54 -74 69 -88z m-3107 138 c0 -3 -5 -8
-11 -11 -6 -4 -10 -2 -10 4 0 6 4 12 10 12 6 0 11 -3 11 -5z m4129 -37 c3 -12
1 -21 -4 -21 -5 0 -9 9 -9 21 0 11 1 21 4 21 2 0 6 -10 9 -21z m-902 -38 c22
-21 37 -41 34 -44 -4 -3 -19 7 -34 22 -15 15 -34 28 -42 28 -8 0 -14 7 -14 16
0 24 14 19 56 -22z m872 -62 c9 -83 -3 -87 -16 -5 -7 44 -3 92 6 81 2 -1 6
-36 10 -76z m273 -42 c13 -132 15 -194 6 -200 -21 -13 -50 195 -37 258 11 47
24 22 31 -58z m-2273 28 c1 -35 -22 -117 -31 -117 -4 0 -12 17 -18 39 -8 32
-6 49 10 86 15 37 22 44 29 32 6 -9 10 -27 10 -40z m1133 -18 c0 -15 -2 -16
-6 -5 -3 9 -16 27 -28 41 l-22 26 28 -21 c16 -11 29 -29 28 -41z m-2172 16 c0
-6 -5 -10 -10 -10 -6 0 -11 4 -11 10 0 6 5 11 11 11 5 0 10 -5 10 -11z m733
-2 c18 -18 15 -63 -6 -104 -12 -23 -18 -59 -18 -100 0 -36 -4 -69 -8 -73 -4
-4 -8 4 -8 19 0 14 -7 32 -15 38 -19 16 -34 188 -18 204 9 9 12 8 12 -1 0 -6
7 -9 16 -6 8 4 16 13 16 21 0 18 12 19 29 2z m-384 -53 c3 -25 1 -49 -4 -55
-5 -5 -9 -17 -9 -26 -1 -9 -8 -26 -17 -37 -15 -20 -16 -18 -14 31 2 29 9 66
17 82 8 16 12 34 9 39 -4 6 -2 11 3 11 6 0 12 -21 15 -45z m1212 -47 c-2 -10
-5 -2 -5 18 0 20 3 28 5 18 3 -10 3 -26 0 -36z m1494 -55 c-1 -36 -3 -43 -10
-27 -13 31 -13 110 0 90 6 -9 10 -38 10 -63z m-1733 -163 c1 -36 -3 -58 -8
-52 -11 12 -23 210 -14 220 9 8 21 -83 22 -168z m470 134 c-2 -10 -5 -5 -5 13
0 17 2 25 5 18 3 -7 3 -21 0 -31z m-963 -34 c15 -35 6 -82 -10 -53 -14 27 -23
84 -13 84 6 0 16 -14 23 -31z m2641 -155 c-4 -79 -11 -127 -17 -121 -14 14
-14 244 0 286 1 3 7 -4 14 -14 7 -14 8 -63 3 -151z m-148 96 c8 -22 6 -211 -3
-251 l-7 -32 -8 40 c-10 48 -6 260 5 260 4 0 10 -8 13 -17z m-2635 -93 c-7
-55 -25 -83 -25 -37 0 24 23 105 29 100 2 -3 0 -31 -4 -63z m258 18 c0 -21 -3
-25 -12 -16 -6 6 -9 19 -5 28 9 25 17 20 17 -12z m-159 -190 c-3 -106 -10
-141 -25 -126 -11 11 -13 172 -3 217 18 80 32 35 28 -91z m-129 64 c-10 -11
-19 5 -10 19 6 11 9 11 12 0 3 -7 2 -16 -2 -19z m1481 -37 c-2 -7 -5 -1 -5 13
0 14 3 20 5 13 3 -7 3 -19 0 -26z m-1897 -63 c0 -16 -4 -29 -9 -29 -10 0 -22
51 -22 88 1 21 2 21 16 -4 8 -14 15 -39 15 -55z m2689 21 c0 -15 -19 -9 -26 9
-11 30 -6 41 10 20 9 -11 16 -24 16 -29z m-2566 -26 c-2 -10 -5 -2 -5 18 0 20
3 28 5 18 3 -10 3 -26 0 -36z m865 7 c0 -6 -5 -10 -11 -10 -6 0 -10 7 -10 16
0 9 4 14 10 10 6 -3 11 -11 11 -16z m1660 -10 c4 -26 3 -32 -6 -34 -5 -2 -11
8 -13 21 -2 13 1 24 7 24 6 0 11 -5 12 -11z m412 -147 l-7 -47 -9 37 c-5 20
-15 45 -21 57 -9 15 -9 21 0 24 7 2 12 14 12 25 0 12 6 31 13 44 12 21 14 17
17 -35 1 -32 0 -79 -5 -105z m-3332 116 c0 -18 -5 -32 -11 -32 -6 0 -10 14
-10 32 0 17 4 31 10 31 6 0 11 -14 11 -31z m1930 -89 c0 -37 2 -72 6 -78 8
-14 10 -137 2 -145 -15 -15 -22 13 -24 84 0 41 -7 100 -15 130 -11 44 -11 57
0 70 23 28 32 9 31 -61z m1020 51 c0 -8 -5 -15 -10 -15 -6 0 -11 10 -11 22 0
12 5 18 11 15 5 -4 10 -14 10 -22z m261 -39 c0 -30 -4 -67 -8 -81 -6 -23 -9
-19 -18 26 -11 56 0 126 17 116 6 -4 10 -31 9 -61z m-833 24 c10 -12 16 -21
14 -21 -3 0 -14 9 -25 21 -10 12 -16 21 -14 21 3 0 14 -9 25 -21z m-54 -6 c4
-9 2 -13 -4 -10 -6 4 -10 11 -10 17 0 15 7 11 14 -7z m-1058 -28 c-2 -7 -5 -1
-5 13 0 14 3 20 5 13 3 -7 3 -19 0 -26z m361 2 c0 -19 -4 -30 -10 -26 -6 4
-11 18 -11 32 0 14 5 26 11 26 5 0 10 -14 10 -32z m541 -21 c-13 -21 -26 -9
-26 24 0 33 0 34 16 10 9 -13 13 -28 10 -34z m940 11 c0 -23 -5 -42 -11 -42
-12 0 -15 66 -3 77 12 12 14 8 14 -35z m-1691 -8 c0 -7 -5 -13 -10 -13 -6 0
-11 13 -11 29 0 22 3 25 11 13 5 -9 10 -22 10 -29z m-698 -135 c3 -82 1 -127
-5 -114 -5 12 -16 28 -26 36 -10 8 -16 30 -16 55 0 60 24 177 34 167 5 -5 11
-70 13 -144z m-613 108 c-9 -8 -12 -7 -12 5 0 21 14 35 19 19 3 -6 -1 -17 -7
-24z m2381 -40 c41 -59 53 -92 27 -74 -20 13 -89 110 -89 124 0 29 19 13 62
-50z m495 60 c0 -3 -5 -8 -11 -11 -6 -4 -10 -2 -10 4 0 6 4 12 10 12 6 0 11
-3 11 -5z m-606 -19 c7 -7 30 -37 51 -66 21 -29 51 -64 66 -78 16 -15 33 -36
39 -47 9 -16 8 -19 -6 -13 -26 10 -20 -12 15 -56 17 -22 31 -44 31 -50 0 -6 6
-16 14 -22 8 -6 25 -34 39 -61 14 -27 41 -65 60 -83 20 -19 31 -37 25 -40 -11
-7 -106 94 -106 113 0 19 -56 75 -61 61 -8 -23 -23 -13 -23 15 0 15 -15 45
-32 67 -17 22 -31 44 -31 50 0 5 -24 56 -53 112 -29 56 -52 104 -52 106 0 9
12 5 24 -8z m-2419 -37 c0 -22 -4 -46 -10 -55 -7 -11 -10 0 -10 39 0 31 4 56
10 56 6 0 10 -18 10 -40z m900 5 c-3 -7 -5 -1 -5 14 0 14 2 20 5 13 3 -8 3
-19 0 -27z m-470 -9 c6 -18 11 -41 11 -50 0 -14 -2 -14 -11 2 -17 30 -30 81
-20 81 5 0 14 -15 20 -33z m106 -14 c0 -51 -17 -55 -19 -5 -1 23 3 42 9 42 5
0 10 -17 10 -37z m-320 -102 c-10 -130 -28 -151 -47 -57 -9 40 -9 70 0 106 15
68 21 76 39 52 11 -16 13 -39 8 -101z m93 39 c-8 -63 -15 -58 -14 11 0 43 3
57 10 47 5 -9 7 -35 4 -58z m1003 39 c0 -25 -2 -26 -9 -8 -5 12 -6 25 -4 29 9
15 14 8 13 -21z m91 5 c9 -36 1 -137 -11 -141 -7 -2 -11 28 -11 81 0 82 10
108 22 60z m1297 -9 c44 -15 58 -27 66 -63 5 -24 2 -30 -24 -38 -42 -15 -92
11 -112 58 -8 20 -15 41 -15 46 0 13 42 11 85 -3z m283 -52 c0 -5 -12 -9 -27
-9 -34 0 -34 15 0 17 15 1 27 -3 27 -8z m-1418 -130 c1 -134 -10 -278 -22
-278 -5 0 -10 61 -10 139 0 76 -5 162 -9 191 -11 68 -5 88 21 61 15 -15 19
-37 20 -113z m1755 15 c-2 -43 -7 -71 -13 -67 -11 7 -11 75 -1 146 9 64 19 12
14 -79z m161 31 c-6 -87 -7 -90 -14 -57 -10 44 -2 155 9 125 5 -12 7 -43 5
-68z m-2964 6 c-5 -40 -26 -45 -32 -7 -3 22 19 56 31 49 3 -2 3 -21 1 -42z
m102 -87 c1 -74 -2 -97 -12 -94 -14 5 -20 150 -10 206 10 51 21 -8 22 -112z
m1247 52 c-4 -33 -6 -79 -7 -104 0 -25 -5 -44 -12 -44 -6 0 -9 9 -6 23 4 13 0
47 -7 76 -12 45 -12 57 3 86 24 47 35 32 29 -37z m1153 41 c-8 -25 -29 -24
-34 2 -2 9 5 19 15 21 26 6 28 3 19 -23z m97 -71 c-2 -22 -4 -7 -4 34 0 40 2
58 4 39 2 -18 2 -51 0 -73z m-2780 44 c0 -12 -3 -26 -8 -32 -8 -8 -23 -69 -37
-146 -2 -12 -3 30 -2 92 1 85 5 116 16 123 18 11 31 -5 31 -37z m546 -49 c1
-62 -13 -89 -24 -48 -9 33 -9 129 1 138 12 12 22 -26 23 -90z m429 52 c13 -16
15 -207 3 -207 -30 0 -51 91 -38 172 7 49 16 58 35 35z m1526 -15 c15 -18 11
-22 -28 -25 -44 -4 -97 11 -104 28 -8 21 115 18 132 -3z m-2791 -57 c4 -18 7
-41 7 -50 -1 -15 -2 -15 -9 -1 -14 24 -23 84 -13 84 5 0 12 -15 15 -33z m2072
10 c-3 -9 -6 -6 -6 6 -1 11 2 17 5 14 4 -4 4 -13 1 -20z m586 -30 c12 -12 32
-33 45 -46 25 -26 29 -38 15 -38 -12 0 -117 107 -117 118 0 12 32 -7 57 -34z
m308 26 c18 -13 23 -14 24 -3 1 8 5 -5 10 -28 5 -28 3 -62 -6 -99 -19 -76 -36
-92 -36 -35 0 24 4 46 10 50 6 3 11 23 11 43 0 23 -5 34 -12 30 -13 -8 -51 24
-51 44 0 19 21 18 50 -2z m411 -82 c-10 -10 -11 -6 -6 14 3 14 7 36 8 47 1 12
4 5 6 -14 3 -20 -1 -41 -8 -47z m-580 40 c39 -9 82 -18 95 -21 13 -3 24 -11
24 -17 0 -8 -25 -10 -78 -6 -82 5 -122 20 -122 45 0 18 -6 18 81 -1z m-1725
-9 c-3 -8 2 -17 11 -21 12 -4 16 -22 16 -73 0 -37 5 -82 12 -100 6 -18 8 -46
4 -62 -7 -25 -11 -19 -34 55 -34 110 -44 216 -20 216 9 0 14 -6 11 -15z m1346
-41 c-2 -7 -5 -1 -5 14 0 14 3 20 5 13 3 -8 3 -19 0 -27z m773 -13 c3 -15 1
-29 -4 -32 -5 -3 -9 9 -9 26 0 39 6 42 13 6z m-3173 -6 c0 -5 -5 -9 -11 -9 -6
0 -10 7 -10 16 0 9 4 13 10 10 6 -4 11 -11 11 -17z m3353 -33 c-9 -14 -24 2
-18 19 5 13 8 14 15 3 4 -7 6 -17 3 -22z m-3416 -36 c0 -72 -6 -70 -14 4 -4
33 -2 56 3 56 6 0 11 -27 11 -60z m651 4 c-8 -9 -11 -6 -11 10 0 27 15 42 19
19 2 -10 -1 -23 -8 -29z m-121 -55 c0 -43 -2 -78 -6 -78 -3 0 -12 23 -18 51
-9 38 -9 59 0 83 7 18 15 30 18 27 3 -3 6 -40 6 -83z m971 72 c0 -9 -22 -62
-49 -117 l-49 -100 20 -69 c22 -78 34 -263 16 -263 -13 0 -17 15 -33 152 -8
70 -20 121 -36 152 -32 60 -39 97 -31 143 6 31 10 35 29 29 39 -12 51 -10 63
12 43 75 70 98 70 61z m1457 -9 c-3 -25 -35 -23 -64 5 -19 18 -18 19 24 18 37
-1 43 -4 40 -23z m-2674 -37 c-3 -18 -11 -33 -17 -34 -15 -3 -19 44 -5 61 19
23 30 10 22 -27z m608 9 c0 -17 -3 -20 -12 -12 -6 7 -8 17 -4 24 11 17 16 13
16 -12z m2534 -22 c4 -16 3 -28 -2 -28 -11 0 -23 48 -14 57 7 7 8 5 16 -29z
m-297 14 c0 -5 -5 -13 -11 -16 -6 -4 -10 1 -10 10 0 9 4 16 10 16 6 0 11 -4
11 -10z m-2958 -70 c-3 -8 -10 -14 -16 -14 -5 0 -7 -10 -4 -21 15 -44 16 -70
5 -108 -6 -22 -15 -37 -20 -34 -17 10 -12 144 7 200 17 51 18 51 26 22 4 -16
5 -36 2 -45z m2704 56 c6 -7 7 -19 3 -26 -6 -10 -15 -6 -33 13 -24 26 -24 27
-3 27 12 0 26 -7 33 -14z m-1634 -10 c7 -20 -3 -51 -14 -44 -13 8 -12 57 0 57
5 0 12 -6 14 -13z m-537 -64 c-20 -19 -25 2 -10 37 l14 35 4 -30 c2 -17 -2
-36 -8 -42z m1067 44 c-4 -9 -6 -6 -7 6 0 11 2 17 6 14 3 -4 4 -13 1 -20z
m927 -20 c0 -14 -10 -12 -27 5 -21 21 -19 30 6 17 12 -7 21 -16 21 -22z m417
-1 c-4 -9 -6 -6 -7 6 0 11 2 17 6 14 3 -4 4 -13 1 -20z m-2838 2 c4 -5 2 -13
-4 -16 -6 -4 -11 1 -11 10 0 18 6 21 15 6z m3057 -93 c-5 -82 -15 -128 -28
-128 -5 0 -9 9 -9 20 0 11 -6 22 -13 24 -9 3 -9 13 0 40 7 19 13 46 13 60 0
33 19 68 32 60 5 -3 8 -37 5 -76z m-2505 39 c0 -12 -5 -18 -10 -15 -6 3 -7 13
-4 22 8 21 14 19 14 -7z m1208 -23 c0 -25 6 -37 23 -44 19 -9 24 -20 25 -55 2
-47 -4 -54 -25 -32 -10 9 -13 5 -13 -19 -1 -29 -2 -29 -16 -11 -17 23 -22 211
-5 200 6 -3 11 -21 11 -39z m441 -5 c8 -22 15 -44 16 -50 0 -6 6 -29 13 -52
15 -51 17 -180 3 -189 -16 -10 -29 24 -47 121 -18 96 -23 210 -9 210 5 0 16
-18 24 -40z m459 -37 c-4 -33 -22 -32 -42 4 -10 18 -28 35 -40 38 -11 3 -20
11 -20 18 0 9 18 4 53 -13 40 -20 52 -31 49 -47z m-1121 -48 c-8 -36 -16 -53
-23 -46 -15 15 -14 44 2 100 14 45 16 47 24 26 6 -14 4 -46 -3 -80z m1309 64
c-2 -10 -5 -4 -5 13 0 18 2 26 5 19 3 -7 3 -21 0 -32z m-2492 -38 c-8 -24 -10
-44 -12 -130 -1 -37 -6 -54 -13 -49 -11 6 -6 165 7 225 l6 26 10 -25 c5 -14 6
-35 2 -47z m2403 6 l-6 -28 -8 30 c-9 33 -1 59 12 38 4 -6 5 -25 2 -40z
m-4149 19 c0 -6 -6 -10 -12 -10 -6 0 -8 4 -4 10 3 6 8 11 11 11 2 0 5 -5 5
-11z m1879 -59 c18 -52 4 -185 -21 -217 l-19 -23 -8 40 c-4 22 -4 62 1 89 4
27 7 59 7 70 -1 42 10 90 19 84 5 -3 15 -22 21 -43z m2814 -11 c0 -19 -5 -37
-10 -40 -7 -4 -11 14 -11 49 0 40 3 51 11 40 5 -9 10 -31 10 -49z m-3577 34
c3 -9 2 -19 -4 -22 -5 -3 -10 3 -10 15 0 26 6 28 14 7z m2767 -102 c14 -28 27
-72 31 -96 5 -40 4 -43 -12 -30 -10 8 -17 22 -17 32 0 10 -7 27 -16 39 -18 26
-33 109 -20 109 5 -1 20 -25 34 -54z m-1473 11 c12 -24 15 -46 10 -79 -4 -25
-10 -46 -15 -46 -11 0 -43 70 -43 96 0 21 17 62 26 62 3 0 13 -15 22 -33z
m2230 -12 c-1 -29 -2 -31 -10 -13 -12 29 -12 47 0 47 6 0 10 -15 10 -34z
m-3119 -95 c1 -33 -3 -60 -8 -60 -16 0 -24 117 -12 158 6 19 20 -48 20 -98z
m607 37 c-3 -10 -5 -4 -5 13 -1 18 2 26 4 19 3 -7 3 -21 1 -32z m-732 -35 c0
-11 -2 -20 -5 -20 -6 0 -37 72 -37 83 1 16 42 -46 42 -63z m1543 9 c0 -40 -3
-51 -10 -39 -13 20 -13 94 0 94 6 0 10 -25 10 -55z m295 -19 c0 -12 -5 -19
-11 -15 -6 3 -10 13 -10 21 0 9 4 16 10 16 6 0 11 -10 11 -22z m1423 -70 c-12
-13 -18 6 -10 30 l8 25 4 -25 c2 -13 1 -27 -2 -30z m-1142 -5 c-2 -24 -9 -46
-16 -48 -15 -5 -18 28 -7 68 11 40 26 27 23 -20z m-579 -1 c-3 -7 -5 -1 -5 14
0 14 2 20 5 13 3 -8 3 -19 0 -27z m130 -39 c0 -52 -4 -74 -14 -74 -9 0 -12 18
-10 61 2 33 6 66 8 73 10 30 16 9 16 -60z m157 1 c8 -41 7 -68 -2 -100 l-13
-43 -6 53 c-3 29 -9 58 -14 65 -10 16 4 101 15 90 5 -5 14 -34 20 -65z m798
62 c0 -6 -5 -10 -10 -10 -6 0 -11 4 -11 10 0 6 5 11 11 11 5 0 10 -5 10 -11z
m126 -35 c0 -18 -2 -20 -10 -7 -14 21 -14 45 0 37 5 -4 10 -17 10 -30z m-2855
-29 c-7 -17 -10 -19 -11 -8 -1 24 13 58 17 44 2 -6 0 -22 -6 -36z m646 19 c-3
-13 -6 -32 -6 -42 0 -10 -8 -18 -16 -18 -17 0 -22 32 -8 46 4 5 8 13 9 18 3
18 4 20 16 20 7 0 9 -9 5 -24z m-484 -42 c20 -38 21 -136 3 -199 -12 -42 -37
-57 -25 -16 18 66 19 103 4 103 -12 0 -15 13 -14 60 3 102 5 105 32 52z m-131
-68 c1 -22 3 -52 5 -68 5 -43 -12 -25 -21 21 -4 21 -9 50 -13 63 -4 17 -1 24
12 24 12 0 17 -11 17 -40z m1501 17 c0 -11 21 -8 76 8 24 7 25 -34 2 -67 -13
-19 -14 -30 -4 -64 9 -30 9 -54 0 -99 -7 -33 -16 -60 -20 -60 -5 0 -15 12 -22
26 -11 21 -12 37 -3 76 13 56 10 64 -12 46 -9 -8 -18 -43 -23 -90 -4 -43 -13
-87 -21 -97 -14 -18 -14 -18 -16 2 -5 82 -3 258 4 258 4 0 5 12 1 27 -5 18 -2
30 8 36 20 13 30 12 30 -2z m1335 -95 c-13 -34 -26 -5 -17 36 7 32 8 33 17 11
4 -13 5 -34 0 -47z m237 -3 c5 -31 3 -39 -9 -35 -9 3 -15 21 -15 49 -2 53 14
44 24 -14z m-1324 -19 c-8 -85 -29 -175 -39 -175 -11 0 -23 39 -15 51 3 6 10
46 16 90 11 86 16 100 34 100 7 0 9 -21 4 -66z m-1494 -3 l-7 -31 -7 27 c-8
32 -1 57 12 44 6 -6 7 -24 2 -40z m1159 25 c-4 -8 -6 -6 -7 6 0 11 2 18 6 14
3 -3 4 -12 1 -20z m-522 -38 c5 -28 3 -47 -7 -60 -12 -17 -14 -11 -14 47 0 73
9 78 21 13z m767 40 c0 -5 5 -8 13 -5 10 4 13 -25 13 -123 0 -71 4 -149 7
-172 8 -53 -5 -81 -22 -49 -6 12 -11 34 -11 48 0 15 -5 29 -10 33 -5 3 -8 -2
-8 -12 3 -32 -22 -25 -28 8 -11 55 -8 111 9 162 9 27 16 59 15 71 -1 13 -1 29
-1 36 2 16 23 18 23 3z m462 -44 c12 -22 6 -60 -24 -134 -10 -25 -11 -26 -19
-6 -20 49 -5 163 21 163 6 0 16 -10 22 -23z m707 -3 c3 -8 1 -18 -4 -22 -6 -3
-10 4 -10 16 0 25 5 28 14 6z m-1722 -150 c-2 -68 -4 -139 -4 -158 0 -48 -14
-41 -31 15 -22 77 0 267 31 267 5 0 6 -56 4 -124z m175 87 c0 -15 -5 -26 -11
-26 -6 0 -10 11 -10 26 0 14 4 26 10 26 6 0 11 -12 11 -26z m1740 -79 c4 -62
-3 -105 -18 -105 -15 0 -23 53 -16 112 10 73 30 68 34 -7z m198 37 c9 -22 -5
-71 -17 -63 -12 7 -9 78 3 78 4 0 11 -7 14 -15z m-1953 -40 c-2 -7 -5 -1 -5
14 0 14 3 20 5 13 3 -8 3 -19 0 -27z m-343 -11 c0 -36 -12 -70 -22 -64 -10 7
-12 58 -3 82 9 23 26 11 25 -18z m1999 -29 c5 -22 -8 -72 -19 -72 -3 0 -5 21
-5 47 0 49 14 63 24 25z m-1347 -9 c0 -6 -6 -11 -12 -11 -6 0 -8 5 -4 11 3 5
8 10 11 10 2 0 5 -5 5 -10z m1628 -33 c-7 -17 -10 -19 -11 -8 -1 24 13 58 17
44 2 -6 0 -22 -6 -36z m-1619 -54 c-1 -41 -1 -43 -10 -15 -8 27 -4 60 7 60 2
0 4 -21 3 -45z m1426 -62 c-4 -9 -6 -6 -7 6 0 11 2 17 6 14 3 -4 4 -13 1 -20z
m-1410 -33 c-9 -25 -25 -12 -18 14 3 13 10 18 15 12 5 -5 7 -17 3 -26z m121
-15 c0 -5 -4 -15 -10 -24 -8 -13 -10 -11 -10 8 0 13 4 24 10 24 6 0 10 -4 10
-8z"/>
<path d="M3503 10996 c-15 -14 -4 -25 22 -23 16 1 56 1 90 1 72 -2 77 -16 19
-56 -35 -23 -41 -33 -39 -63 1 -35 57 -143 86 -167 21 -17 68 -21 68 -5 0 7
-15 23 -33 36 -39 29 -72 82 -72 115 -1 35 29 86 49 86 9 0 26 8 36 17 16 14
22 15 35 4 24 -20 19 -56 -10 -84 -15 -14 -26 -36 -26 -50 0 -22 3 -25 27 -19
25 7 26 5 20 -25 -6 -25 -4 -32 9 -32 10 0 17 5 17 11 0 5 4 9 8 7 10 -3 76
50 76 61 0 4 -10 15 -22 25 -20 16 -21 21 -9 40 12 20 12 26 -4 43 -9 10 -17
24 -17 30 0 6 -10 19 -21 30 -18 16 -44 19 -162 21 -78 2 -144 0 -147 -3z"/>
<path d="M3310 10926 c-12 -14 -42 -39 -65 -54 -24 -16 -41 -31 -38 -34 3 -3
29 -5 58 -3 42 1 54 -3 63 -19 6 -11 18 -27 26 -35 12 -12 12 -20 2 -41 -13
-27 -41 -33 -75 -16 -11 6 -35 10 -53 8 -23 -2 -43 6 -65 25 -37 31 -38 31
-59 10 -13 -13 -15 -35 -10 -123 3 -59 12 -122 20 -140 8 -19 15 -38 15 -43 0
-5 14 -24 32 -43 17 -19 31 -39 31 -43 0 -5 13 -18 29 -28 18 -12 25 -13 17
-4 -6 9 -14 27 -18 42 -3 14 -17 39 -29 54 -34 42 -53 102 -46 147 4 21 2 41
-4 45 -16 9 -4 34 19 40 12 3 33 -7 54 -26 31 -28 39 -31 81 -25 25 3 55 1 66
-5 14 -8 20 -7 20 1 0 7 12 27 27 45 27 32 30 60 13 144 -2 8 0 16 5 18 19 5
38 34 33 49 -8 20 -19 21 -46 4 -16 -10 -24 -10 -34 -1 -9 10 -8 18 7 34 10
12 23 18 28 15 5 -3 9 0 9 7 0 9 -12 11 -36 7 -19 -3 -39 -1 -45 4 -6 6 -18 0
-32 -16z"/>
<path d="M3877 10693 c-19 -8 -16 -21 10 -57 28 -38 57 -40 73 -5 9 18 21 27
39 27 23 0 25 1 12 14 -16 15 -111 30 -134 21z"/>
<path d="M3828 10575 c-8 -36 9 -85 30 -85 20 0 29 15 38 64 5 30 3 41 -8 45
-35 13 -54 6 -60 -24z"/>
<path d="M3182 10565 c0 -13 125 -111 133 -103 8 8 -102 112 -119 112 -8 0
-14 -5 -14 -9z"/>
<path d="M3638 10518 c-4 -9 -17 -13 -36 -10 -26 4 -35 -3 -73 -53 -49 -65
-57 -115 -22 -133 17 -9 21 -8 21 4 0 8 16 33 36 55 33 36 35 41 21 57 -28 31
3 34 39 5 25 -21 28 -28 16 -33 -21 -8 -74 -77 -66 -86 14 -14 77 29 93 62 15
32 16 54 2 122 -5 26 -23 31 -31 10z"/>
<path d="M3329 10002 c0 -14 4 -29 10 -32 6 -4 11 -14 11 -23 0 -9 22 -50 49
-91 62 -93 66 -98 95 -125 13 -12 24 -28 24 -35 0 -16 19 -24 44 -17 26 6 23
16 -13 44 -17 13 -31 30 -31 37 0 14 -59 79 -85 95 -9 5 -34 46 -55 91 -21 45
-41 82 -44 82 -3 0 -5 -12 -5 -26z"/>
<path d="M4306 9624 c-17 -19 -3 -27 48 -27 39 0 48 -4 55 -25 13 -32 75 -70
126 -77 34 -5 43 -2 53 18 16 29 7 53 -20 53 -12 0 -21 6 -21 15 0 10 -10 16
-26 16 -14 0 -31 8 -36 18 -10 17 -11 17 -31 0 -20 -18 -23 -18 -79 2 -46 16
-61 17 -69 7z"/>
<path d="M4076 9457 c-48 -18 -31 -28 46 -28 37 0 69 -5 73 -10 3 -6 13 -11
21 -11 8 0 31 -11 50 -24 20 -13 56 -35 80 -49 54 -32 155 -123 147 -131 -9
-9 -60 12 -79 31 -9 8 -22 16 -30 16 -7 0 -19 7 -26 15 -8 9 -19 16 -25 16 -6
0 22 -33 62 -72 49 -50 76 -69 82 -61 5 8 6 6 3 -6 -9 -26 81 -116 108 -108
16 5 28 -5 58 -49 20 -30 37 -61 37 -68 0 -12 109 -129 120 -129 4 0 3 12 -1
28 l-7 29 28 -19 c20 -13 28 -14 28 -5 0 22 -51 71 -68 65 -9 -4 -23 9 -39 35
-13 22 -30 50 -37 61 -7 11 -26 44 -41 73 -48 92 -130 182 -222 247 -33 23
-90 63 -126 89 -59 41 -155 80 -193 78 -8 0 -30 -6 -49 -13z m456 -274 c23
-24 18 -44 -6 -22 -21 18 -28 37 -15 37 3 0 12 -7 21 -15z m43 -65 c-10 -10
-30 7 -22 19 4 7 10 7 18 -1 6 -6 8 -14 4 -18z"/>
<path d="M3014 8960 c0 -18 5 -25 18 -22 12 2 19 -5 22 -21 2 -15 17 -31 42
-44 22 -11 46 -27 53 -36 8 -10 22 -17 32 -17 18 0 21 30 12 108 -1 4 -12 8
-26 8 -15 0 -32 10 -42 26 -15 22 -25 26 -65 24 -42 -1 -46 -4 -46 -26z"/>
<path d="M3182 8680 c0 -14 18 -38 44 -58 17 -13 18 -13 12 5 -10 25 -57 70
-56 53z"/>
<path d="M3308 8595 c0 -8 25 -42 57 -76 32 -33 58 -63 58 -66 0 -15 80 -68
100 -66 16 1 39 -16 74 -57 61 -70 112 -120 118 -114 7 7 -35 63 -77 103 -79
74 -120 118 -120 126 0 5 -27 37 -59 70 -39 41 -64 60 -76 56 -10 -2 -27 5
-38 17 -23 26 -37 28 -37 7z m175 -159 c-10 -10 -30 6 -22 18 4 7 10 7 18 0 6
-7 8 -15 4 -18z"/>
<path d="M3249 8567 c4 -14 13 -45 19 -70 8 -32 17 -44 31 -44 24 0 24 -2 -9
68 -29 61 -55 90 -41 46z"/>
<path d="M3728 8207 c0 -2 8 -10 18 -18 17 -13 17 -13 4 4 -14 17 -22 23 -22
14z"/>
<path d="M5822 7655 c-3 -6 1 -11 11 -11 9 0 14 5 10 11 -3 5 -8 10 -10 10 -2
0 -7 -5 -11 -10z"/>
<path d="M5730 7188 c-10 -7 -18 -17 -18 -20 0 -10 37 -9 46 1 5 4 13 8 20 8
6 0 13 6 15 13 6 17 -39 16 -63 -2z"/>
<path d="M5597 7156 c0 -9 6 -13 15 -9 9 3 16 10 16 15 0 5 -7 10 -16 10 -8 0
-15 -7 -15 -16z"/>
<path d="M5597 7109 c-23 -14 -13 -19 55 -25 52 -5 61 -3 71 15 10 19 7 20
-50 20 -33 0 -68 -5 -76 -10z"/>
<path d="M5756 7108 c2 -6 8 -12 14 -12 5 0 11 6 13 12 3 6 -4 11 -13 11 -10
0 -16 -5 -14 -11z"/>
<path d="M4951 5897 c-27 -21 -29 -27 -17 -42 7 -9 10 -21 6 -28 -4 -6 -4 -28
0 -48 6 -31 10 -37 28 -32 17 4 21 2 16 -15 -7 -26 8 -35 25 -15 7 9 18 16 25
16 7 0 23 10 36 22 l24 23 -33 30 c-28 25 -32 35 -26 61 5 24 2 33 -15 42 -29
15 -33 14 -69 -14z m2 -103 c-4 -8 -6 -6 -7 6 0 11 2 18 6 14 3 -3 4 -12 1
-20z"/>
<path d="M5325 5888 c5 -25 -32 -79 -59 -86 -38 -9 -33 -27 8 -28 94 -3 129
-10 189 -35 44 -19 44 -19 27 22 -7 16 -11 34 -10 40 13 50 7 55 -94 88 -48
15 -64 15 -61 -1z"/>
<path d="M4507 5536 c-38 -34 -68 -80 -59 -90 12 -12 35 -8 36 6 0 7 13 24 30
37 30 24 48 61 33 70 -4 3 -22 -8 -40 -23z"/>
<path d="M4508 5394 c-44 -67 -49 -81 -38 -93 7 -7 20 6 38 39 16 27 28 53 28
58 0 14 -19 11 -28 -4z"/>
<path d="M4523 5295 c-8 -10 -21 -40 -27 -66 -9 -38 -9 -52 4 -71 19 -28 42
-33 24 -4 -9 15 -7 32 11 82 12 34 22 66 22 70 0 13 -18 7 -34 -11z"/>
<path d="M4390 5234 c-1 -44 4 -70 15 -84 16 -20 17 -18 11 21 -3 23 -10 61
-15 84 -9 42 -10 41 -11 -21z"/>
<path d="M4575 5249 c-43 -76 -28 -213 24 -227 12 -3 29 -20 38 -37 27 -53 41
-30 37 62 -2 46 2 102 8 124 10 37 9 42 -18 62 -15 12 -29 20 -30 17 0 -3 -10
3 -21 13 -19 16 -20 16 -38 -14z"/>
<path d="M4833 5228 c-3 -12 -12 -19 -20 -16 -7 3 -23 -6 -34 -20 -13 -17 -27
-24 -37 -20 -25 10 -21 -18 12 -95 19 -44 38 -72 55 -81 49 -24 74 -52 62 -68
-7 -8 -19 -14 -27 -14 -7 0 -24 -10 -36 -22 l-21 -21 66 2 c36 2 72 7 79 13
19 14 17 -8 -1 -24 -8 -6 -34 -17 -59 -24 -54 -16 -55 -33 -2 -37 52 -4 87 22
87 66 0 50 -13 110 -24 110 -5 0 -7 5 -3 11 4 6 -3 22 -14 35 -35 36 -54 96
-54 164 0 62 -17 87 -29 41z"/>
<path d="M4411 5036 c-10 -12 -8 -20 11 -37 12 -12 27 -19 32 -16 14 9 10 32
-11 50 -17 16 -21 16 -32 3z"/>
<path d="M5042 4988 c2 -11 -8 -32 -22 -47 l-25 -26 28 -37 c37 -48 54 -57
121 -60 55 -2 74 8 74 41 0 7 5 23 11 34 6 12 15 30 21 42 18 36 13 39 -60 39
-43 0 -87 7 -111 17 -39 16 -40 16 -37 -3z m123 -116 c30 0 33 -2 22 -16 -7
-9 -23 -14 -36 -12 -43 9 -69 20 -69 30 0 6 11 8 24 5 13 -4 39 -7 59 -7z"/>
<path d="M4846 4693 c-18 -4 -25 -9 -16 -10 35 -6 89 1 101 13 8 8 -43 6 -85
-3z"/>
<path d="M6122 3219 c0 -21 11 -26 36 -17 20 8 20 8 -2 20 -29 16 -34 15 -34
-3z"/>
<path d="M6022 3190 c7 -33 65 -113 81 -113 4 0 8 -6 8 -14 0 -7 9 -19 21 -26
12 -7 21 -19 21 -26 0 -7 -19 6 -42 29 -40 39 -42 40 -57 20 -11 -15 -12 -25
-3 -41 15 -28 104 -110 120 -110 14 -1 20 -32 6 -32 -4 0 -30 19 -58 43 -28
24 -54 40 -57 37 -14 -14 46 -103 94 -139 62 -47 79 -39 75 37 -3 67 -13 96
-31 96 -9 0 -15 7 -15 15 0 19 32 21 50 4 7 -7 15 -10 18 -7 3 3 -30 39 -74
81 -43 41 -78 81 -78 88 0 7 -15 25 -32 39 -17 14 -31 32 -31 39 0 8 -6 14
-12 14 -7 0 -9 -13 -4 -34z"/>
<path d="M6069 3205 c0 -5 18 -25 39 -45 22 -20 30 -25 19 -11 -34 42 -58 65
-58 56z"/>
<path d="M6221 2651 c5 -11 18 -47 29 -78 21 -60 40 -91 39 -63 -1 42 -30 118
-51 139 -23 22 -24 22 -17 2z"/>
<path d="M6295 2378 c9 -58 66 -191 84 -198 17 -6 21 15 7 31 -5 5 -20 38 -32
73 -13 34 -33 79 -45 100 l-20 36 6 -42z"/>
<path d="M6253 2219 c21 -91 32 -118 66 -169 37 -53 55 -67 55 -44 0 5 -5 18
-10 29 -6 10 -29 59 -53 109 -44 95 -70 128 -58 75z"/>
<path d="M6199 2122 c8 -42 12 -48 27 -38 15 10 14 17 -11 48 l-22 26 6 -36z"/>
<path d="M6268 1997 c11 -22 43 -51 43 -40 0 4 -8 19 -17 33 -20 30 -42 36
-26 7z"/>
</g>
</svg>
