<?xml version="1.0" encoding="utf-8"?>
<svg xmlns="http://www.w3.org/2000/svg" height="164.178884pt" preserveAspectRatio="xMidYMid meet" version="1.0" viewBox="0 0 440.271572 164.178884" width="440.271572pt">
	<title>Side by side the three swam.</title>
	<g fill="#000000" stroke="none" transform="translate(-1.800000,167.299107) rotate(-360.00) scale(0.022857,-0.022857)">
		<path d="M19171 7295 c-3 -23 -6 -24 -140 -26 -149 -3 -2465 -4 -7035 -3 -3856 1 -5045 1 -5250 0 -92 0 -1630 -2 -3417 -3 l-3250 -2 2 -1176 c2 -647 5 -1498 8 -1890 3 -393 5 -804 4 -914 0 -109 0 -230 0 -267 1 -38 2 -254 3 -481 1 -369 3 -413 18 -422 16 -9 15 -10 -1 -11 -17 0 -18 -15 -13 -218 4 -120 6 -224 6 -231 -3 -26 -3 -172 -2 -653 0 -269 1 -545 0 -615 0 -151 4 -183 23 -195 8 -5 407 -9 892 -8 482 0 1980 -3 3328 -6 1348 -4 4075 -9 6059 -11 4663 -5 4333 -4 4340 -19 3 -9 7 -9 14 -1 8 11 2368 11 3069 -1 397 -7 258 -7 919 0 480 5 558 8 568 22 8 10 13 73 14 175 1 88 3 183 3 212 1 29 1 171 0 315 0 145 1 544 2 888 1 343 -1 634 -5 645 -4 12 -2 29 4 39 9 14 9 24 -1 40 -7 11 -9 22 -4 25 7 5 10 1014 3 1134 -1 25 -4 28 -17 17 -9 -8 -21 -9 -32 -3 -15 9 -15 11 0 23 9 8 24 12 34 9 18 -4 19 30 19 634 0 352 -4 639 -9 639 -4 0 -5 6 0 13 13 22 13 2280 -1 2289 -6 4 -33 8 -60 8 -40 0 -53 5 -70 27 l-21 26 -4 -24z m-872 -235 c-4 -3 -13 -4 -20 -1 -9 4 -6 6 6 7 11 0 17 -2 14 -6z m958 -728 c0 -6 -5 -11 -11 -11 -6 0 -8 5 -5 11 4 5 9 10 11 10 3 0 5 -5 5 -10z m-8589 -729 c0 -2 -7 -7 -16 -10 -8 -4 -15 -2 -15 4 0 5 7 10 15 10 9 0 16 -2 16 -4z m-4016 -447 c15 -7 4 -10 -37 -10 -41 0 -52 3 -37 10 12 4 28 9 37 9 9 0 25 -5 37 -9z m4118 4 c-3 -4 -12 -4 -20 -1 -8 3 -6 6 6 6 11 1 18 -2 14 -5z m-4239 -109 l26 -9 -26 0 c-14 0 -36 4 -47 9 l-21 9 21 -1 c11 0 33 -4 47 -8z m-5308 -63 c4 -6 2 -11 -4 -11 -6 0 -11 5 -11 11 0 5 2 10 4 10 3 0 8 -5 11 -10z m9302 -17 c38 -5 59 -19 122 -78 41 -40 74 -79 71 -86 -8 -24 -44 -21 -85 7 -22 14 -45 27 -52 27 -20 0 58 -75 95 -91 19 -8 34 -19 34 -24 0 -19 72 -54 137 -67 62 -12 99 -39 56 -39 -17 0 -17 -2 -4 -10 11 -7 11 -11 3 -11 -8 0 -13 -10 -13 -22 0 -21 4 -22 60 -18 38 3 84 16 126 36 50 24 70 29 81 21 18 -13 58 -88 58 -108 0 -10 16 -14 47 -14 26 0 48 -1 48 -3 0 -2 5 -31 11 -64 8 -44 8 -64 -1 -75 -8 -9 -8 -16 -1 -20 7 -4 12 -17 12 -29 0 -12 8 -37 19 -55 26 -42 36 -91 35 -165 -1 -65 -15 -99 -64 -155 -17 -20 -34 -48 -38 -62 -6 -25 -29 -54 -42 -54 -3 0 -3 29 1 65 13 125 13 124 -67 274 -46 85 -128 165 -170 165 -12 0 62 -100 118 -161 16 -17 26 -35 23 -40 -8 -13 -43 15 -109 88 -33 35 -75 68 -106 82 -64 29 -99 78 -91 128 7 49 -19 103 -67 136 -23 16 -47 29 -55 29 -7 0 -25 8 -39 18 -34 24 -250 29 -292 7 -15 -8 -36 -14 -46 -14 -10 0 -18 -8 -18 -17 0 -9 -16 -23 -35 -31 -37 -16 -134 -75 -177 -109 -16 -12 -35 -22 -44 -22 -9 0 -43 -24 -77 -52 -34 -29 -81 -62 -106 -74 -24 -12 -72 -42 -106 -68 -35 -26 -66 -47 -71 -47 -16 0 -77 -48 -77 -61 0 -7 -19 -26 -42 -42 -22 -16 -47 -41 -55 -55 -7 -14 -24 -38 -38 -52 -26 -28 -27 -56 -1 -61 18 -4 146 112 146 132 0 10 35 45 115 115 15 13 46 40 69 61 23 20 58 41 79 46 20 6 48 21 63 34 48 44 139 97 236 136 47 19 151 42 220 48 80 6 132 26 132 51 0 18 -3 18 -75 4 -31 -6 -70 -8 -86 -4 -28 6 -29 8 -13 25 20 22 159 40 176 23 6 -6 24 -8 41 -5 17 4 44 -1 66 -11 19 -9 43 -14 51 -11 39 15 81 -65 81 -150 0 -25 5 -45 11 -45 5 0 10 -9 10 -20 0 -12 12 -25 31 -32 30 -13 71 -49 233 -206 74 -72 83 -93 82 -187 -1 -46 -2 -51 -12 -30 -7 13 -18 24 -26 24 -9 0 -12 -5 -9 -11 8 -12 -22 -140 -42 -178 -7 -15 -19 -46 -26 -69 -7 -23 -26 -59 -43 -80 l-30 -38 22 -15 c19 -13 20 -18 9 -35 -12 -21 -99 -68 -124 -68 -18 0 -16 28 5 64 15 24 16 33 5 44 -11 10 -17 8 -33 -13 -11 -15 -21 -32 -21 -39 0 -7 -22 -37 -49 -66 -46 -50 -66 -61 -159 -84 l-35 -9 7 57 c6 48 5 57 -10 57 -9 0 -16 3 -16 8 0 4 -15 17 -33 27 -17 10 -29 22 -26 25 15 15 -40 31 -72 21 -84 -26 -91 -31 -88 -59 2 -18 11 -29 24 -31 41 -6 70 -27 65 -46 -3 -11 2 -21 15 -25 11 -3 20 -10 20 -15 0 -5 10 -11 23 -12 36 -6 34 -26 -4 -42 -24 -10 -79 -14 -176 -14 -121 0 -152 3 -208 23 -36 13 -75 24 -86 24 -34 0 -71 69 -89 168 -9 49 -13 100 -9 114 5 21 3 24 -15 18 -14 -4 -24 -1 -28 9 -3 9 -13 17 -22 17 -9 0 -13 6 -9 15 3 9 1 16 -5 16 -37 0 -2 114 43 138 13 7 46 34 73 61 44 43 60 51 117 62 73 13 169 52 216 87 26 19 41 22 99 17 43 -3 81 -14 104 -28 23 -14 53 -22 82 -22 l46 0 -26 21 c-14 11 -31 21 -38 21 -6 0 -25 7 -42 15 -34 17 -146 48 -173 48 -10 0 -20 6 -23 13 -3 9 -25 3 -74 -23 -39 -20 -70 -39 -70 -42 0 -6 -38 -26 -109 -57 -51 -22 -123 -31 -143 -18 -18 12 -21 10 58 53 147 81 165 100 69 68 -74 -24 -221 -110 -247 -145 l-21 -28 29 -27 c32 -29 35 -70 5 -75 -9 -2 -35 12 -57 31 l-39 35 7 -34 c5 -26 3 -34 -8 -34 -8 0 -17 -8 -20 -16 -4 -10 -21 -16 -46 -16 -22 0 -50 -3 -63 -7 -20 -5 -22 -9 -12 -27 6 -11 8 -23 5 -26 -9 -9 -38 18 -38 34 0 8 -9 17 -21 21 -12 3 -21 11 -21 16 0 5 38 43 84 85 46 43 84 83 84 91 0 8 38 52 84 98 46 46 84 86 84 88 0 3 -9 5 -21 5 -12 0 -21 -4 -21 -10 0 -5 -9 -13 -21 -16 -12 -4 -21 -14 -21 -22 0 -8 -4 -15 -8 -15 -5 0 -44 -36 -87 -80 -43 -43 -87 -87 -98 -97 -91 -80 -117 -93 -143 -72 -23 18 -42 70 -38 105 3 20 -2 32 -16 40 -33 17 -24 56 20 89 22 16 53 42 69 58 17 16 52 39 79 52 27 13 61 30 77 38 15 8 34 14 42 14 8 0 53 26 98 58 46 31 99 60 117 64 18 3 46 20 63 37 l30 31 -32 -16 c-17 -9 -49 -16 -71 -16 -26 0 -52 -9 -74 -26 -18 -14 -52 -33 -75 -42 -23 -10 -50 -27 -59 -39 -31 -41 -40 -16 -14 38 14 28 26 55 26 60 0 21 -24 5 -50 -33 -22 -32 -36 -42 -59 -42 -16 0 -39 -6 -51 -12 -18 -10 -25 -9 -36 6 -8 11 -15 13 -19 6 -4 -6 -15 -11 -25 -11 -10 0 -31 -14 -48 -31 -16 -18 -36 -32 -44 -32 -20 0 -19 36 1 56 21 22 20 28 -6 28 -12 0 -20 4 -18 8 2 4 14 29 26 55 12 26 36 61 54 79 38 37 41 47 12 47 -30 0 -26 28 7 58 15 15 25 29 22 32 -9 9 -68 -24 -74 -42 -4 -8 -17 -21 -29 -28 -23 -11 -23 -10 -17 22 4 18 16 47 28 63 12 16 21 35 21 41 0 6 7 20 16 30 9 10 32 41 50 70 36 53 124 110 172 111 13 0 24 5 26 11 2 6 21 15 41 20 20 5 65 19 99 32 88 32 185 52 283 58 45 2 84 6 85 7 6 6 343 -1 387 -8z m-4129 -27 c-26 -9 -47 -3 -39 11 3 5 18 6 34 3 28 -5 28 -5 5 -14z m146 2 c0 -13 -15 -13 -53 0 -23 7 -22 8 13 9 22 1 40 -4 40 -9z m-242 -21 c0 -6 -5 -11 -10 -11 -6 0 -11 5 -11 11 0 5 5 10 11 10 5 0 10 -5 10 -10z m4479 -25 c11 -8 32 -18 47 -23 14 -4 52 -23 84 -42 31 -18 82 -42 113 -52 30 -10 78 -31 105 -46 l49 -28 -31 -3 c-56 -7 -156 20 -231 62 -83 46 -175 113 -181 133 -6 17 19 17 45 -1z m-7975 -38 c0 -6 -3 -11 -5 -11 -3 0 -8 5 -11 11 -4 5 -2 10 4 10 6 0 12 -5 12 -10z m2919 -112 c25 -15 24 -15 -19 -9 -29 5 -44 3 -44 -5 0 -6 -18 -11 -40 -10 l-39 1 36 9 c20 4 38 13 40 20 6 15 34 13 66 -6z m107 -21 c-7 -3 -19 -3 -26 0 -7 2 -1 5 13 5 14 0 20 -3 13 -5z m3255 -11 c-7 -3 -21 -3 -31 0 -10 2 -5 5 13 5 17 0 25 -2 18 -5z m2155 -108 c4 -6 0 -8 -10 -5 -18 7 -21 15 -6 15 5 0 13 -5 16 -10z m-5103 -11 c25 -6 19 -8 -31 -9 -35 0 -73 4 -84 9 -27 12 70 12 115 0z m-929 -115 c0 -6 -13 -11 -29 -11 -22 0 -25 3 -13 11 21 13 42 13 42 0z m-1835 -7 c-7 -3 -21 -3 -31 -1 -10 3 -5 5 13 5 17 1 25 -2 18 -4z m1930 -4 c0 -6 -5 -10 -10 -10 -6 0 -13 4 -17 10 -3 6 1 11 10 11 9 0 17 -5 17 -11z m-392 -18 c3 -8 -4 -13 -16 -13 -29 0 -54 10 -54 22 0 15 65 6 70 -9z m4145 -27 c29 -23 43 -44 46 -65 2 -17 7 -36 12 -42 9 -11 8 -63 -4 -230 -4 -61 -10 -86 -22 -93 -9 -5 -16 -19 -16 -32 0 -13 -7 -35 -15 -49 -8 -15 -29 -55 -46 -90 -17 -35 -38 -69 -48 -77 -9 -8 -17 -20 -17 -26 -1 -7 -12 -26 -26 -43 -27 -33 -58 -31 -58 4 0 11 -5 23 -10 27 -6 3 -11 14 -11 24 -1 29 -34 62 -70 70 -29 6 -34 3 -41 -17 -4 -14 -10 -27 -14 -30 -13 -10 -42 -116 -36 -131 6 -17 17 -20 28 -9 12 12 69 14 75 3 4 -5 16 -10 26 -10 14 0 22 -10 27 -32 6 -27 2 -39 -23 -66 -16 -18 -33 -35 -38 -37 -4 -2 -7 -9 -7 -17 0 -16 -45 -26 -120 -28 -67 -1 -107 -12 -103 -29 1 -7 -2 -30 -8 -50 -9 -33 -7 -37 17 -46 14 -6 38 -10 52 -10 42 0 42 -29 0 -68 -21 -19 -38 -39 -38 -45 0 -5 -11 -22 -25 -37 -14 -15 -29 -42 -33 -60 -4 -17 -11 -31 -15 -31 -5 0 -12 -15 -16 -32 -4 -17 -11 -34 -17 -37 -5 -4 -22 -32 -37 -63 -16 -32 -34 -57 -41 -57 -7 0 -19 -7 -26 -16 -10 -12 -35 -15 -124 -11 -205 8 -205 8 -160 -36 35 -34 80 -47 126 -37 42 9 52 -14 12 -28 -22 -7 -29 -15 -25 -27 5 -12 16 -15 52 -10 51 7 53 5 27 -25 -52 -60 -71 -74 -96 -71 -27 3 -29 9 -17 41 4 11 0 20 -12 24 -74 26 -81 27 -100 10 -12 -11 -23 -14 -28 -8 -10 12 -32 110 -36 161 -1 23 -10 40 -23 47 -52 29 -54 73 -6 106 18 12 32 32 35 52 3 18 28 71 55 119 36 63 46 90 39 100 -8 9 -7 19 4 33 16 23 20 80 5 80 -6 0 -15 -9 -21 -19 -9 -14 -11 -15 -11 -2 -1 22 37 81 84 130 23 24 52 63 65 89 13 25 39 58 58 73 19 15 34 31 34 34 0 11 -49 21 -66 14 -21 -8 -42 -54 -27 -59 11 -4 -71 -92 -85 -92 -19 0 -18 15 3 51 44 69 43 67 19 59 -12 -4 -22 -5 -22 -4 0 2 4 20 10 41 6 20 13 50 16 68 9 51 27 91 70 151 22 31 40 68 40 82 0 47 65 130 183 231 30 26 62 45 76 45 45 0 77 24 147 107 16 20 41 31 84 40 34 7 80 19 103 27 41 14 69 18 137 23 22 1 44 -9 73 -32z m278 18 c-7 -8 -15 -13 -18 -11 -7 8 8 28 20 28 7 0 7 -7 -2 -17z m2368 6 c18 -8 16 -9 -13 -10 -19 0 -34 4 -34 10 0 12 18 12 47 0z m-4872 -43 c-7 -10 -78 -8 -78 3 0 5 18 8 41 7 23 -1 39 -5 37 -10z m8784 1 c0 -6 -5 -10 -11 -10 -6 0 -10 4 -10 10 0 6 4 11 10 11 6 0 11 -5 11 -11z m-3696 -73 c0 -6 -31 -11 -71 -11 -50 0 -67 3 -55 11 20 13 126 13 126 0z m-5976 -18 c11 -9 -37 -2 -51 7 -12 8 -8 9 15 4 18 -4 34 -9 36 -11z m6233 -3 c-4 -6 -23 -11 -43 -11 -20 0 -36 5 -36 11 0 5 19 10 43 10 25 0 40 -4 36 -10z m-2739 -91 c-3 -4 -11 -3 -18 2 -9 5 -9 9 2 16 14 9 28 -7 16 -18z m-5789 -32 c4 -4 -3 -14 -16 -23 -15 -10 -52 -16 -118 -17 -104 -2 -134 -10 -125 -33 4 -10 -2 -14 -21 -14 -18 0 -29 7 -34 22 -9 28 9 40 60 40 21 0 44 8 51 16 10 12 36 16 105 16 50 0 94 -3 98 -7z m684 -3 c-3 -6 -13 -11 -21 -11 -8 0 -17 5 -21 11 -3 5 6 10 21 10 16 0 25 -5 21 -10z m-344 -35 c-2 -7 -18 -13 -35 -14 -42 -1 -57 9 -25 18 43 12 65 11 60 -4z m150 -7 c12 -8 9 -11 -13 -11 -16 0 -29 5 -29 11 0 13 21 13 42 0z m2245 0 c10 -5 27 -13 39 -17 20 -8 20 -8 -2 -12 -30 -5 -108 16 -108 29 0 13 47 13 71 0z m-3190 -37 c11 -13 10 -16 -3 -16 -8 0 -21 7 -28 16 -11 13 -11 16 2 16 9 0 22 -8 29 -16z m8662 8 c0 -5 -22 -9 -49 -9 -34 -1 -44 1 -29 7 27 11 79 12 78 2z m-278 -45 c4 -6 2 -10 -4 -10 -6 0 -13 4 -17 10 -3 6 -2 11 4 11 6 0 14 -5 17 -11z m-7634 -12 c41 -19 34 -40 -12 -41 -22 -1 -72 -2 -111 -3 -40 -1 -74 0 -76 4 -5 8 57 39 90 45 51 8 83 7 109 -5z m8361 -57 c13 -3 24 -10 24 -16 0 -8 -12 -9 -39 -3 -22 5 -72 9 -111 9 -39 0 -70 1 -70 2 0 2 15 7 34 12 32 8 112 6 162 -4z m-6234 -30 c0 -11 -20 -16 -26 -6 -4 6 1 11 10 11 9 0 16 -3 16 -5z m-2740 -16 c-9 -6 -28 -11 -42 -11 -21 0 -23 2 -11 11 9 5 28 10 42 10 21 0 23 -2 11 -10z m9728 -16 l63 -14 -47 -1 c-69 -1 -131 11 -114 21 17 11 21 11 98 -6z m-10043 -5 c13 -9 13 -11 -3 -11 -9 0 -20 5 -24 11 -8 13 6 13 27 0z m107 -2 c-9 -9 -19 -10 -36 -1 -23 11 -22 12 12 12 28 1 33 -2 24 -11z m6203 -12 c48 -15 61 -50 16 -42 -15 3 -26 10 -26 16 0 6 -8 7 -18 4 -19 -8 -48 12 -40 26 8 13 18 12 68 -4z m-130 -55 c59 -61 63 -77 34 -134 -8 -14 -5 -18 14 -19 19 -1 20 -3 5 -6 -10 -3 -18 -13 -17 -23 1 -9 1 -20 0 -22 -4 -10 -11 -48 -15 -73 -2 -15 -13 -30 -25 -36 -12 -5 -24 -23 -28 -41 -3 -18 -26 -51 -51 -75 -55 -54 -144 -166 -144 -183 0 -7 -7 -12 -16 -12 -8 0 -15 -5 -15 -9 0 -15 -207 -212 -222 -212 -5 0 -8 -5 -7 -11 2 -7 -7 -17 -18 -24 -12 -7 -37 -25 -56 -41 -19 -16 -42 -29 -51 -29 -10 0 -14 3 -11 7 4 4 2 13 -5 21 -18 22 11 127 46 167 28 32 52 79 55 110 4 35 33 85 53 90 12 3 28 18 35 33 7 16 26 44 44 62 17 19 32 37 32 40 0 3 23 43 52 90 29 46 53 86 53 90 0 13 183 298 192 298 5 0 34 -26 66 -58z m-4932 32 l37 -8 -26 -14 c-22 -11 -37 -11 -89 1 -57 14 -64 14 -76 -3 -8 -11 -29 -18 -55 -18 -53 -2 -54 10 -3 26 22 7 44 17 48 21 11 10 114 6 164 -5z m3712 6 c3 -5 3 -11 0 -14 -8 -8 -46 3 -46 14 0 12 38 12 46 0z m-3212 -11 c4 -7 -9 -11 -34 -10 -39 1 -39 2 -8 10 17 4 32 8 33 9 1 0 5 -4 9 -9z m7476 0 c13 -6 15 -10 5 -10 -9 0 -25 5 -37 10 -13 5 -15 9 -5 9 9 0 25 -5 37 -9z m-10757 -21 c0 -6 -27 -10 -61 -9 l-60 1 47 8 c72 11 74 11 74 0z m420 0 c0 -14 -74 -14 -95 0 -11 7 0 10 39 10 31 0 56 -5 56 -10z m-704 -5 c0 -10 -31 -15 -37 -6 -3 6 3 11 15 11 12 0 22 -2 22 -5z m2090 -6 c13 -8 12 -10 -6 -10 -11 -1 -45 -4 -74 -7 -45 -5 -53 -4 -53 10 0 14 11 17 58 17 32 0 66 -4 75 -10z m131 -10 c3 -6 1 -11 -5 -11 -6 0 -11 5 -11 11 0 5 2 10 5 10 2 0 7 -5 11 -10z m170 4 c-3 -4 -12 -4 -20 -1 -8 3 -6 6 6 6 11 1 18 -2 14 -5z m-1960 -24 c0 -9 -50 -22 -82 -22 -25 0 -7 12 31 21 48 11 51 11 51 1z m430 -1 c0 -6 -14 -11 -31 -11 -18 0 -32 5 -32 11 0 5 14 10 32 10 17 0 31 -5 31 -10z m9099 -29 c-11 -12 -17 4 -9 24 7 19 8 19 11 1 3 -11 2 -22 -2 -25z m-7210 17 c18 -7 31 -14 29 -17 -10 -9 -238 -15 -238 -6 0 29 146 45 209 23z m-2440 -9 c-4 -6 -11 -11 -17 -11 -5 0 -9 5 -9 11 0 5 7 10 16 10 9 0 13 -5 10 -10z m1848 0 c-4 -6 -23 -11 -42 -11 -20 0 -39 5 -42 11 -4 6 12 10 42 10 29 0 46 -4 42 -10z m8885 4 c-3 -4 -12 -4 -20 -1 -8 3 -6 6 6 6 11 1 18 -2 14 -5z m-9583 -15 c0 -6 -5 -10 -11 -10 -6 0 -10 4 -10 10 0 6 4 11 10 11 6 0 11 -5 11 -11z m15781 0 c0 -6 -5 -10 -11 -10 -6 0 -8 4 -5 10 4 6 9 11 11 11 3 0 5 -5 5 -11z m-13981 -42 c17 -7 12 -9 -21 -10 -31 0 -38 3 -26 10 18 12 20 12 47 0z m4940 -24 c40 -60 65 -122 69 -165 3 -32 12 -53 28 -66 21 -18 23 -29 24 -132 0 -79 -4 -119 -15 -138 -9 -14 -14 -32 -13 -38 1 -6 -5 -18 -14 -25 -8 -7 -15 -19 -15 -26 0 -8 -8 -16 -16 -20 -9 -3 -16 -12 -16 -19 0 -44 -171 -242 -337 -391 -44 -40 -151 -111 -167 -111 -4 0 -16 -9 -26 -21 -11 -12 -30 -21 -42 -21 -13 0 -34 -9 -47 -21 -14 -12 -39 -21 -57 -21 -18 0 -52 -3 -75 -6 -37 -4 -34 -2 29 24 39 16 71 33 71 38 0 11 -66 -3 -74 -15 -3 -5 -27 -12 -52 -16 -26 -4 -84 -21 -129 -37 -44 -16 -81 -25 -81 -19 0 14 22 23 171 68 140 44 153 64 35 54 -74 -7 -138 -25 -197 -55 -17 -9 -39 -15 -49 -12 -11 2 3 14 40 33 32 16 65 35 74 43 8 7 58 24 110 37 61 15 102 31 115 46 12 13 63 42 113 66 81 39 137 87 121 103 -3 3 -30 -6 -62 -21 -31 -14 -66 -26 -78 -26 -12 0 -31 -10 -41 -21 -11 -12 -25 -21 -32 -21 -7 0 -19 -8 -26 -16 -7 -9 -21 -16 -30 -15 -15 0 -15 1 -1 8 9 4 25 15 37 25 49 45 125 105 171 135 27 18 60 47 72 65 13 19 34 47 47 62 39 49 15 42 -55 -16 -37 -30 -80 -64 -95 -75 -15 -12 -44 -34 -63 -49 -20 -15 -47 -31 -60 -35 -24 -7 -24 -7 -7 19 9 15 15 32 11 37 -3 6 -2 12 3 14 20 7 107 119 102 131 -4 11 26 51 143 187 150 174 183 219 208 273 16 35 37 94 47 132 10 37 20 74 22 81 2 8 22 13 49 13 35 0 48 -5 60 -24z m-4669 7 c-7 -3 -21 -3 -32 -1 -10 3 -4 5 13 5 18 1 26 -2 19 -4z m-3378 -22 c51 -17 51 -17 22 -25 -32 -9 -59 -3 -59 13 0 6 -10 8 -21 4 -44 -14 -70 -15 -108 -5 -22 6 -37 15 -34 21 10 16 144 11 200 -8z m2968 11 c-7 -3 -21 -3 -31 0 -10 2 -5 5 13 5 17 0 25 -2 18 -5z m8365 -10 c9 -8 -5 -12 -54 -17 -54 -6 -65 3 -26 21 20 10 67 7 80 -4z m-10756 -4 c3 -6 -1 -10 -10 -10 -8 0 -18 4 -22 10 -3 6 1 11 10 11 8 0 18 -5 22 -11z m10345 4 c-4 -3 -13 -4 -20 -1 -9 4 -6 6 6 7 11 0 17 -2 14 -6z m76 -4 c12 -8 5 -10 -24 -10 -24 0 -38 4 -34 10 8 13 37 13 58 0z m-9434 -39 c18 -11 19 -15 5 -24 -21 -13 -58 -13 -110 1 l-42 12 30 24 c27 21 34 22 63 12 18 -7 42 -18 54 -25z m1948 28 c0 -11 -69 -20 -142 -20 -57 0 -61 2 -44 15 21 15 186 20 186 5z m4866 2 c12 -5 16 -11 8 -16 -11 -7 -65 9 -65 19 0 8 32 6 57 -3z m2218 -2 c113 13 213 14 213 2 0 -12 -105 -23 -214 -22 -92 0 -132 7 -132 22 0 5 9 5 20 -1 14 -8 49 -8 113 -1z m-10109 -22 c26 -10 26 -11 6 -26 -31 -24 -215 -9 -215 18 0 27 144 32 209 8z m5382 3 c41 -11 41 -11 -11 -5 -29 3 -71 6 -94 5 -32 -1 -38 1 -26 9 16 12 62 8 131 -9z m-6326 -1 c14 -10 14 -11 0 -10 -9 0 -26 5 -37 10 l-21 9 21 0 c11 0 28 -4 37 -9z m6174 0 c0 -6 -10 -11 -21 -11 -12 0 -21 5 -21 11 0 5 9 10 21 10 11 0 21 -5 21 -10z m-6258 -16 c0 -11 -12 -16 -40 -17 -22 0 -53 -2 -70 -4 -45 -6 -18 12 36 24 67 15 74 14 74 -3z m5551 9 c-3 -3 -12 -4 -20 -1 -8 4 -6 6 6 7 11 0 18 -2 14 -6z m6534 -19 c0 -27 -250 -56 -260 -30 -3 10 11 13 52 13 31 0 79 6 108 15 69 20 100 21 100 2z m-7980 -11 c6 -8 31 -16 55 -18 45 -3 56 -14 41 -39 -10 -14 -33 -11 -143 20 -23 6 -49 12 -58 12 -31 0 -63 10 -63 19 0 9 25 13 127 20 16 1 34 -5 41 -14z m-816 -18 c22 -12 20 -14 -24 -20 -26 -4 -74 -12 -107 -19 -42 -9 -78 -9 -124 -2 -35 6 -70 8 -78 5 -8 -3 -17 -1 -20 4 -4 6 47 13 118 16 68 4 136 12 149 17 35 14 60 14 86 -1z m10101 -22 c33 -15 60 -33 60 -40 0 -11 -38 -4 -58 12 -27 21 -222 46 -232 30 -3 -6 1 -11 8 -13 8 -2 45 -14 83 -26 37 -13 78 -23 90 -23 24 0 64 -38 53 -49 -5 -5 -23 0 -42 9 -57 29 -72 32 -191 35 -116 4 -195 -8 -274 -43 -48 -22 -64 -19 -41 6 11 12 25 21 32 21 7 0 24 9 39 21 14 11 49 26 77 33 29 7 64 21 78 31 36 25 64 29 168 27 72 -2 101 -8 150 -31z m-10802 14 c19 -8 18 -10 -11 -21 -44 -18 -78 -21 -124 -11 -46 10 -54 15 -44 31 8 13 147 14 179 1z m-2367 -22 c-22 -18 -64 -29 -64 -15 0 6 64 35 79 35 6 1 -1 -8 -15 -20z m398 -5 c14 -17 9 -19 -31 -16 -34 3 -45 10 -37 22 10 16 54 12 68 -6z m8180 -18 c22 -37 27 -87 10 -97 -12 -7 -35 41 -47 97 -5 22 -3 34 4 34 7 0 21 -15 33 -34z m-8264 19 c0 -11 -20 -16 -26 -6 -4 6 1 11 10 11 9 0 16 -3 16 -5z m9940 -19 c36 -13 50 -50 19 -50 -8 0 -15 4 -15 10 0 5 -17 15 -37 22 -21 6 -35 16 -31 21 8 13 22 13 64 -3z m2177 9 c0 -10 -31 -15 -37 -6 -3 5 3 10 15 10 12 0 22 -2 22 -4z m-11760 -28 c16 -25 -44 -44 -69 -22 -8 7 -69 22 -146 37 -12 2 30 3 92 2 85 -2 116 -6 123 -17z m420 6 c-30 -17 -84 -21 -84 -6 0 10 30 18 79 20 l31 1 -26 -15z m7678 -5 c3 -11 1 -24 -5 -30 -6 -7 -2 -28 12 -60 38 -85 23 -92 -43 -20 -53 58 -65 83 -50 110 15 28 79 29 86 0z m-7961 0 c-15 -10 -94 -5 -104 5 -3 3 23 5 57 5 43 0 57 -3 47 -10z m-971 -13 c3 -4 -10 -14 -29 -24 -39 -21 -137 -22 -200 -3 -42 12 -57 36 -16 25 67 -18 103 -20 103 -4 0 13 13 16 67 14 38 -1 71 -5 75 -8z m6966 2 c0 -6 -26 -10 -57 -10 -32 0 -60 4 -64 10 -4 7 18 11 57 11 36 0 64 -5 64 -11z m-4876 -21 c8 0 15 -5 15 -11 0 -13 -74 -2 -90 14 -7 7 1 8 25 4 20 -4 42 -7 50 -7z m6934 -10 c0 -6 -2 -11 -5 -11 -2 0 -7 5 -11 11 -3 5 -1 10 5 10 6 0 11 -5 11 -10z m3329 -23 c0 -19 -3 -20 -17 -9 -13 11 -13 16 -2 23 18 11 19 11 19 -14z m-105 2 c11 -8 7 -11 -19 -11 -19 0 -34 5 -34 11 0 13 32 13 53 0z m252 -12 c0 -12 -39 -12 -47 0 -3 5 -3 11 0 14 8 8 47 -3 47 -14z m-6618 5 c-4 -3 -13 -4 -20 -1 -9 4 -6 6 6 7 11 0 17 -2 14 -6z m5385 -4 c38 -15 25 -24 -41 -28 -30 -1 -83 -5 -118 -8 -56 -4 -59 -4 -26 6 20 6 53 17 74 25 46 17 75 18 111 5z m-11052 -11 c20 -5 -48 -19 -98 -20 -61 -1 -83 16 -31 24 24 3 110 1 129 -4z m1504 -7 c16 -8 34 -12 39 -8 6 3 11 2 11 -4 0 -13 -87 -22 -100 -10 -5 4 -17 9 -26 9 -9 0 -26 7 -37 16 -20 15 -18 16 31 14 29 -1 66 -9 82 -17z m10122 11 c-7 -3 -21 -3 -32 0 -10 2 -4 5 13 5 18 0 26 -2 19 -5z m1214 -18 c-34 -18 -146 -31 -146 -17 0 13 54 27 120 29 50 2 52 2 26 -12z m-12032 -5 c0 -11 -56 -33 -82 -33 -23 0 -9 10 37 27 49 17 45 17 45 6z m7670 -1 c4 -6 2 -11 -4 -11 -6 0 -13 5 -17 11 -3 5 -2 10 4 10 6 0 14 -5 17 -10z m-4131 -21 c0 -6 -5 -11 -10 -11 -5 0 -18 -3 -29 -6 -18 -6 -18 -5 1 10 23 19 38 22 38 7z m-3332 -8 c-10 -2 -26 -2 -36 0 -10 3 -2 5 18 5 20 0 28 -2 18 -5z m1344 1 c-3 -3 -12 -4 -20 -1 -8 4 -6 6 6 7 11 0 18 -2 14 -6z m6161 -10 c12 -9 22 -26 23 -39 0 -13 2 -49 4 -81 1 -32 6 -65 10 -73 5 -9 11 -35 15 -57 14 -87 16 -96 59 -193 13 -30 28 -55 33 -55 5 0 9 -8 9 -18 0 -10 23 -35 52 -55 50 -36 61 -56 44 -80 -11 -17 -50 -36 -73 -36 -28 0 -72 -48 -52 -56 8 -3 18 -21 22 -39 6 -31 2 -39 -46 -85 -57 -55 -59 -75 -10 -92 35 -12 37 -19 15 -51 -14 -20 -14 -27 -1 -59 14 -33 14 -38 -3 -53 -23 -21 -113 -36 -232 -39 -112 -3 -227 23 -272 63 -117 103 -109 98 -154 92 -51 -7 -96 16 -67 35 8 6 22 11 31 11 17 0 126 91 126 105 0 5 20 29 45 54 44 45 61 67 110 144 25 40 34 57 57 114 7 19 16 35 20 35 3 0 26 42 51 94 25 52 52 95 60 95 26 0 103 41 116 62 19 29 0 35 -32 11 -34 -27 -42 -14 -24 38 27 75 40 152 33 188 -7 40 -1 44 31 20z m2279 6 c-4 -6 -11 -10 -17 -10 -5 0 -9 4 -9 10 0 6 7 11 16 11 9 0 13 -5 10 -11z m-11175 -23 c-6 -5 -24 -6 -40 -2 l-31 8 27 7 c32 8 57 1 44 -13z m2641 -5 c4 -12 -51 -22 -159 -27 -57 -3 -78 17 -36 34 34 14 190 8 195 -7z m9846 7 c4 -6 -3 -10 -14 -10 -12 0 -24 4 -28 10 -3 6 3 11 15 11 11 0 24 -5 27 -11z m-8767 -10 c12 -21 -133 -38 -165 -20 -23 13 -23 14 18 20 68 11 140 11 147 0z m-2708 -27 c18 -17 14 -19 -33 -16 -37 3 -41 6 -32 21 10 16 47 14 65 -5z m11397 -8 c16 -6 20 -12 12 -15 -18 -7 -107 20 -100 31 5 8 42 2 88 -16z m-11686 -2 c20 -8 29 -16 20 -17 -44 -5 -157 -4 -157 2 0 5 51 21 95 29 4 1 23 -5 42 -14z m8331 5 c3 -6 2 -10 -4 -10 -6 0 -14 4 -17 10 -4 6 -2 11 4 11 6 0 13 -5 17 -11z m2210 -10 c0 -6 -14 -11 -31 -11 -18 0 -32 5 -32 11 0 5 14 10 32 10 17 0 31 -5 31 -10z m573 -13 c-9 -6 -25 -8 -35 -6 -15 4 -13 7 8 16 31 12 53 4 27 -10z m-10663 2 c0 -13 -71 -14 -78 -2 -3 5 13 10 36 11 23 1 42 -3 42 -9z m1456 4 c-3 -3 -12 -4 -20 -1 -8 4 -6 6 6 7 11 0 18 -2 14 -6z m7521 -4 c0 -6 -14 -10 -32 -10 -19 0 -30 4 -26 10 4 6 18 11 32 11 14 0 26 -5 26 -11z m1344 -31 c14 -10 14 -11 0 -11 -9 0 -23 5 -31 11 -14 9 -14 10 0 10 8 0 22 -5 31 -10z m242 -6 c-8 -8 -21 -15 -29 -15 -13 0 -14 2 -3 15 7 9 20 16 29 16 13 0 13 -3 3 -16z m2317 10 c-3 -4 -12 -4 -20 -1 -8 3 -6 6 6 6 11 1 18 -2 14 -5z m-6793 -24 c6 -17 -28 -28 -43 -13 -9 9 -8 15 4 22 18 12 33 9 39 -9z m5045 -3 c39 -7 71 -17 71 -21 0 -4 16 -5 36 -2 20 3 45 2 55 -3 14 -6 5 -10 -33 -14 -33 -4 -59 -2 -68 6 -9 7 -49 15 -89 20 -82 8 -100 13 -100 28 0 6 12 8 28 5 16 -3 61 -11 100 -19z m1105 -9 c-3 -6 -13 -10 -21 -10 -8 0 -17 4 -21 10 -3 6 6 11 21 11 16 0 25 -5 21 -11z m-12384 -11 c2 0 -5 -5 -16 -10 -27 -12 -215 -13 -215 -2 0 21 21 24 120 19 58 -3 108 -6 111 -7z m8988 1 c0 -13 -43 -42 -63 -42 -9 0 -29 8 -43 18 l-26 18 53 6 c29 4 58 7 65 8 8 1 14 -2 14 -8z m-9482 -18 l26 -6 -25 -9 c-14 -6 -35 -7 -47 -3 -24 8 -44 10 -130 13 -37 1 -54 5 -49 13 6 11 165 5 225 -8z m3497 7 c0 -6 -8 -10 -16 -10 -9 0 -16 4 -16 10 0 6 7 11 16 11 8 0 16 -5 16 -11z m2824 0 c-20 -4 -48 -12 -61 -18 -28 -11 -86 -5 -86 8 0 10 47 17 126 18 51 0 53 -1 21 -8z m5938 0 c18 -8 16 -9 -11 -9 -17 0 -43 4 -57 9 -24 8 -23 8 10 9 20 0 46 -4 58 -9z m170 3 c-10 -2 -26 -2 -36 0 -10 3 -2 5 18 5 20 0 28 -2 18 -5z m-6021 -10 c-8 -3 -19 -3 -27 0 -7 3 -1 5 14 5 14 0 20 -2 13 -5z m2189 -17 c-5 -15 -44 -23 -69 -12 -16 6 -15 8 3 15 33 14 71 12 66 -3z m-8371 -18 c3 -6 -3 -10 -15 -10 -11 0 -24 4 -27 10 -4 6 3 11 14 11 12 0 24 -5 28 -11z m6563 -28 c-5 -13 -10 -14 -18 -6 -9 9 -9 17 2 29 16 20 27 5 16 -23z m-5059 11 c-4 -3 -13 -4 -20 -1 -9 4 -6 6 6 7 11 0 17 -2 14 -6z m7615 -4 c0 -6 -7 -10 -16 -10 -9 0 -14 4 -10 10 3 6 11 11 16 11 6 0 10 -5 10 -11z m1691 -10 c11 -8 -4 -11 -50 -11 -37 0 -66 5 -66 11 0 13 95 13 116 0z m-10920 -17 l26 -15 -36 3 c-20 1 -38 8 -40 15 -6 18 17 16 50 -3z m1569 6 c-3 -6 -15 -10 -26 -10 -11 0 -23 4 -26 10 -4 6 7 11 26 11 19 0 30 -5 26 -11z m9592 6 c0 -11 -20 -16 -26 -6 -4 6 1 11 10 11 9 0 16 -3 16 -5z m-1177 -23 c3 -2 -20 -4 -50 -4 -30 0 -54 5 -54 10 0 10 93 4 104 -6z m1274 -1 c16 -3 32 -10 35 -15 10 -15 -19 -10 -64 12 -23 12 -32 18 -21 14 12 -3 34 -9 50 -11z m-5498 -4 c3 -5 29 -9 57 -9 29 0 52 -5 52 -11 0 -12 -65 -13 -147 -1 -96 14 -114 -8 -37 -42 26 -12 48 -23 48 -27 0 -12 -71 11 -107 35 -32 21 -43 24 -60 15 -24 -13 -68 -6 -84 13 -7 9 6 13 49 14 33 1 72 7 86 12 32 13 135 13 143 1z m3382 -9 c15 -12 35 -21 46 -21 10 0 22 -6 26 -12 10 -16 -143 -5 -174 11 -32 18 -25 30 18 35 22 2 44 5 49 6 4 1 20 -8 35 -19z m1153 10 c8 -13 -6 -13 -26 0 -14 9 -14 10 2 10 9 0 20 -4 24 -10z m-10519 -11 c18 0 44 -4 57 -9 24 -9 23 -10 -17 -27 -51 -22 -184 -15 -226 13 -24 16 -25 17 -5 25 11 5 51 6 89 3 38 -3 83 -6 102 -5z m753 -4 c37 -7 57 -16 50 -21 -7 -4 -73 -10 -147 -12 -80 -2 -125 0 -112 5 12 5 28 17 36 26 17 21 83 21 173 2z m305 5 c4 -6 -1 -11 -10 -11 -9 0 -16 5 -16 11 0 5 4 10 10 10 5 0 13 -5 16 -10z m5742 -2 c-9 -8 -17 -8 -31 0 -17 10 -16 11 11 12 23 0 28 -3 20 -12z m2320 5 c-8 -3 -19 -3 -27 0 -7 3 -1 5 14 5 14 0 20 -2 13 -5z m92 -3 c-38 -13 -53 -13 -53 0 0 5 18 10 39 9 36 -1 37 -2 14 -9z m-7713 -11 c4 -6 2 -10 -4 -10 -6 0 -8 -8 -5 -16 4 -9 13 -16 21 -16 18 0 19 -13 2 -29 -18 -18 -63 -16 -104 5 -23 12 -59 19 -100 19 -36 0 -69 3 -73 8 -4 4 4 8 19 8 14 0 32 6 39 15 18 21 194 35 205 16z m241 -11 c20 -19 -17 -42 -66 -41 -52 0 -135 36 -106 45 42 15 155 12 172 -4z m6965 15 c-4 -3 -13 -4 -20 -1 -9 4 -6 6 6 7 11 0 17 -2 14 -6z m1906 0 c-8 -3 -19 -3 -27 0 -7 2 -1 5 14 5 14 0 20 -3 13 -5z m1086 0 c-3 -3 -12 -4 -20 -1 -8 4 -6 6 6 7 11 0 18 -2 14 -6z m-10523 -19 c46 -17 34 -20 -41 -10 -27 4 -48 11 -48 16 0 14 42 11 89 -6z m3172 -10 c9 -4 13 -11 9 -17 -6 -11 93 -6 112 6 8 5 66 -29 83 -48 2 -3 21 -16 42 -28 33 -19 39 -20 60 -6 21 14 29 14 74 -3 27 -10 75 -35 107 -55 32 -21 72 -43 89 -50 26 -11 36 -26 52 -75 11 -34 34 -77 50 -96 34 -39 37 -51 46 -165 16 -193 17 -268 3 -267 -21 0 -51 26 -51 43 0 17 -20 41 -34 41 -4 0 -8 -12 -8 -27 0 -18 -8 -30 -24 -36 -20 -7 -25 -4 -36 21 -7 16 -21 34 -31 40 -15 8 -16 13 -5 26 39 47 -41 37 -88 -10 -14 -14 -35 -25 -47 -25 -27 0 -27 -18 0 -26 13 -4 20 -15 18 -28 -2 -15 11 -28 45 -47 26 -14 42 -25 37 -26 -6 0 -1 -4 12 -9 29 -12 67 -2 67 16 0 8 7 15 15 15 9 0 16 -7 16 -16 0 -8 11 -22 25 -31 17 -11 24 -24 20 -37 -3 -12 3 -23 16 -31 20 -10 21 -13 7 -40 -9 -16 -15 -34 -15 -40 0 -6 -15 -33 -32 -61 l-32 -50 -55 5 c-31 3 -63 7 -71 9 -20 4 -15 -73 7 -97 17 -19 18 -40 4 -62 -8 -13 -13 -12 -35 8 -18 17 -33 22 -51 18 -31 -8 -64 9 -118 60 -50 47 -74 50 -95 9 -15 -29 -45 -49 -56 -38 -3 3 -5 19 -4 37 0 17 -4 32 -9 32 -6 0 -10 7 -10 16 0 9 -5 26 -11 38 l-12 21 -20 -22 c-12 -12 -20 -36 -20 -57 0 -37 -27 -101 -42 -101 -5 0 -4 13 3 30 14 32 11 138 -4 138 -5 0 -12 -12 -16 -27 -7 -28 -20 -34 -29 -13 -4 10 -7 10 -15 -1 -8 -11 -14 -5 -24 25 -13 35 -15 37 -20 14 -5 -19 -14 -25 -37 -25 -33 -1 -39 -13 -24 -55 15 -44 -8 -23 -38 34 -17 32 -35 58 -40 58 -18 0 3 -110 36 -197 22 -55 20 -81 -4 -57 -15 15 -82 17 -82 2 0 -18 -27 -12 -48 12 -11 12 -38 39 -59 60 -31 31 -40 51 -51 107 -7 37 -17 72 -22 78 -13 14 -11 28 4 26 24 -3 40 0 40 10 0 5 -27 8 -59 6 -43 -2 -60 2 -64 13 -4 8 -27 24 -52 36 -48 23 -109 83 -109 109 0 8 -5 38 -11 67 -10 45 -17 56 -45 68 -141 62 -130 53 -175 147 -23 48 -42 102 -42 120 0 28 7 36 45 56 49 25 70 47 70 75 1 24 44 91 60 91 7 0 27 13 46 28 27 23 35 26 42 14 5 -9 10 -19 10 -24 0 -12 26 -3 27 10 0 5 6 21 12 36 7 14 14 34 17 44 9 26 88 80 137 93 24 6 65 18 91 27 51 19 73 22 220 33 110 8 181 7 206 -2z m8134 8 c-7 -3 -21 -3 -32 -1 -10 3 -4 5 13 5 18 1 26 -2 19 -4z m-6054 -14 c17 -9 16 -11 -7 -12 -15 -1 -33 -2 -41 -2 -8 1 -32 -5 -54 -13 -34 -12 -43 -12 -62 2 -12 8 -20 19 -18 23 8 12 162 14 182 2z m3237 0 c0 -25 -105 -28 -113 -3 -3 9 12 13 54 13 33 0 59 -5 59 -10z m1709 4 c-4 -4 -13 -4 -20 -1 -9 3 -6 6 6 6 11 1 17 -2 14 -5z m742 0 c26 -10 19 -23 -10 -18 -14 3 -23 10 -20 15 7 11 8 11 30 3z m430 -10 c17 -9 34 -12 37 -7 4 6 16 6 31 1 38 -14 17 -29 -33 -23 -50 7 -81 20 -81 35 0 14 11 12 46 -6z m-7495 -17 c3 -5 -3 -9 -15 -9 -11 0 -23 7 -26 15 -4 10 1 13 15 9 11 -3 23 -10 26 -15z m-5315 -6 c5 -5 13 -8 20 -8 6 0 13 -7 16 -15 4 -11 -2 -13 -20 -8 -14 4 -34 7 -44 7 -10 0 -18 7 -18 16 0 16 32 22 46 8z m10766 -9 c-3 -4 -12 -4 -20 -1 -8 3 -6 6 6 6 11 1 18 -2 14 -5z m-10329 -21 c0 -3 -10 -4 -22 -4 -12 0 -18 4 -15 10 6 9 37 4 37 -6z m2093 3 c27 -12 29 -15 14 -27 -9 -7 -39 -14 -67 -15 -62 -2 -183 11 -191 20 -3 4 16 3 43 0 32 -5 51 -3 56 4 18 30 95 39 145 18z m-1182 -14 c49 -14 8 -25 -90 -25 -105 0 -149 7 -149 22 0 18 176 20 239 3z m887 -1 c-13 -2 -36 -2 -52 0 -16 2 -6 4 23 4 29 1 42 -1 29 -4z m7162 -7 c39 -14 39 -14 -40 -13 -76 1 -104 11 -55 20 42 8 54 7 95 -7z m-6428 -13 c25 -15 2 -25 -59 -25 -52 0 -68 4 -68 15 0 8 8 17 18 20 20 6 95 -1 109 -10z m9375 7 c0 -6 -7 -8 -16 -4 -8 3 -15 8 -15 10 0 2 7 4 15 4 9 0 16 -5 16 -10z m-11503 -10 c7 -13 -32 -22 -96 -22 -54 0 -84 15 -48 24 34 9 138 8 144 -2z m1171 0 c0 -5 -11 -12 -24 -15 -35 -10 -81 -8 -81 3 0 9 30 16 81 20 13 1 24 -3 24 -8z m1467 -11 c21 0 33 -5 29 -11 -7 -11 -98 -14 -125 -4 -28 11 -5 27 28 21 17 -4 48 -6 68 -6z m-2921 -11 c3 -6 -4 -10 -16 -10 -12 0 -19 4 -16 10 4 6 11 11 16 11 5 0 12 -5 16 -11z m1034 2 c0 -11 -47 -33 -68 -33 -31 0 -26 20 7 30 45 13 61 13 61 3z m3754 -23 c15 -17 16 -21 3 -21 -16 0 -40 20 -40 34 0 14 17 9 37 -13z m4557 -1 c30 -8 21 -8 -103 0 -4 1 -7 5 -7 11 0 10 56 5 110 -11z m-8875 5 c-8 -3 -19 -3 -27 0 -7 2 -1 5 14 5 14 0 20 -3 13 -5z m1204 -9 c11 -12 8 -16 -12 -21 -30 -7 -84 7 -90 24 -6 19 86 16 102 -3z m4639 -17 c80 -19 98 -29 52 -28 -21 1 -42 -2 -45 -5 -9 -9 -103 18 -107 32 -5 16 34 16 100 1z m2628 -9 c0 -5 -17 -15 -36 -21 -29 -10 -43 -9 -71 4 l-35 16 49 -6 c27 -3 57 -1 68 5 24 14 25 14 25 2z m99 0 c16 -7 7 -10 -34 -10 -30 -1 -55 4 -55 10 0 12 60 12 89 0z m79 0 c8 -5 12 -13 8 -17 -10 -10 -51 6 -44 17 7 12 16 12 36 0z m2405 -21 c0 -6 -7 -11 -16 -11 -8 0 -18 5 -21 11 -4 5 3 10 15 10 12 0 22 -5 22 -10z m89 -11 c3 -6 -4 -10 -16 -10 -12 0 -19 4 -16 10 4 6 11 11 16 11 5 0 12 -5 16 -11z m-10721 -42 c4 -6 -5 -10 -21 -10 -15 0 -24 4 -21 10 4 6 13 11 21 11 8 0 18 -5 21 -11z m1213 -5 c0 -8 18 -17 39 -22 29 -6 34 -9 19 -13 -12 -2 -26 -9 -33 -14 -20 -16 -126 35 -114 55 9 14 89 9 89 -6z m4091 4 c5 -9 -9 -11 -48 -6 -30 3 -68 1 -85 -5 -34 -12 -68 -5 -57 12 9 15 180 14 190 -1z m-6566 -6 c-7 -3 -21 -3 -32 0 -10 2 -4 5 13 5 18 0 26 -2 19 -5z m5343 -29 c0 -18 -17 -18 -39 -1 -19 16 -19 16 9 14 16 -2 29 -8 30 -13z m-3704 -48 c5 -5 -3 -12 -19 -17 -32 -8 -142 13 -142 27 0 5 17 13 39 19 38 9 97 -5 122 -29z m5915 25 c-3 -3 -12 -4 -20 -1 -8 4 -6 6 6 7 11 0 18 -2 14 -6z m-4433 -14 c-18 -5 -41 -9 -53 -10 -17 0 -18 1 -5 10 9 5 32 9 53 9 l36 -1 -31 -8z m-3474 -7 c-16 -16 -89 -21 -107 -8 -17 13 -11 15 47 15 37 0 64 -3 60 -7z m5674 -3 c0 -10 -84 -26 -93 -17 -11 11 23 26 58 26 19 0 35 -4 35 -9z m1344 -1 c-9 -6 -21 -10 -27 -10 -6 0 -3 4 6 10 8 6 20 10 26 10 6 0 3 -4 -5 -10z m-6153 -15 c0 -9 -7 -13 -15 -10 -8 3 -17 -2 -21 -11 -4 -13 -22 -16 -73 -16 -37 0 -82 -6 -100 -12 -18 -6 -46 -8 -62 -4 -25 6 -17 11 60 33 49 14 91 28 94 30 2 3 30 5 61 5 42 0 56 -4 56 -15z m6987 -15 c-25 -24 -131 -84 -113 -65 19 21 123 93 128 88 3 -2 -4 -13 -15 -23z m678 25 c0 -2 -5 -7 -11 -11 -6 -3 -10 -1 -10 5 0 6 4 11 10 11 6 0 11 -2 11 -5z m-8716 -16 c13 -8 13 -10 -2 -16 -25 -10 -94 4 -86 17 7 12 68 12 88 -1z m6623 3 c-10 -2 -26 -2 -36 0 -10 3 -2 5 18 5 20 0 28 -2 18 -5z m2072 -29 c0 -9 -12 -34 -26 -56 -51 -78 -153 -149 -216 -149 -34 0 -43 16 -13 26 10 3 36 21 57 40 21 18 51 42 66 53 15 10 24 23 21 29 -4 5 0 10 8 10 8 0 28 14 45 31 32 34 58 41 58 16z m-567 -10 c0 -3 -5 -8 -11 -11 -6 -4 -10 -2 -10 4 0 6 4 12 10 12 6 0 11 -3 11 -5z m-1917 -27 c4 -6 -9 -10 -33 -10 -30 0 -36 2 -24 10 20 13 49 13 57 0z m1885 -4 c0 -2 -9 -7 -21 -10 -12 -3 -21 -1 -21 4 0 6 9 10 21 10 12 0 21 -2 21 -4z m-1118 -37 c24 -5 35 -11 26 -14 -30 -11 -110 -27 -136 -27 -15 1 -60 -3 -102 -7 -51 -5 -77 -4 -82 4 -4 7 4 12 23 12 17 0 54 6 82 15 93 26 126 29 189 17z m84 -1 c-4 -6 -14 -10 -22 -10 -8 0 -15 4 -15 10 0 6 10 11 22 11 12 0 18 -5 15 -11z m-6190 -10 c0 -5 -6 -11 -13 -14 -20 -6 -51 4 -44 15 8 12 57 12 57 -1z m5024 -11 c4 -6 -1 -10 -10 -10 -9 0 -16 4 -16 10 0 6 4 11 10 11 5 0 13 -5 16 -11z m405 -10 c0 -17 -17 -21 -59 -14 l-41 7 31 7 c48 11 69 11 69 0z m-5707 -15 c18 -14 18 -15 -15 -32 -26 -14 -48 -17 -81 -12 -25 4 -46 11 -46 15 0 13 65 42 95 43 15 0 36 -6 47 -14z m5497 -6 c-21 -14 -32 -14 -32 0 0 5 11 10 24 10 19 0 20 -2 8 -10z m-6014 -22 c16 -7 29 -17 29 -21 0 -4 -56 -6 -124 -4 -68 3 -139 5 -158 5 -43 0 -43 13 1 28 43 15 213 9 252 -8z m1086 7 c3 -3 0 -13 -7 -21 -9 -11 -38 -15 -111 -16 -55 0 -99 4 -99 9 0 12 22 29 47 36 26 7 161 1 170 -8z m2602 4 c3 -6 -5 -10 -21 -10 -14 0 -26 4 -26 10 0 6 9 11 20 11 11 0 23 -5 27 -11z m-2195 -10 c-3 -6 -11 -11 -16 -11 -6 0 -10 5 -10 11 0 5 7 10 16 10 9 0 14 -5 10 -10z m1627 0 c11 -17 -11 -21 -32 -6 -19 15 -19 15 3 16 13 0 26 -4 29 -10z m-1868 -11 c4 -6 -6 -10 -23 -10 -26 1 -27 2 -9 10 12 5 22 9 23 10 1 0 5 -4 9 -10z m123 -7 c-7 -3 -19 -3 -26 0 -7 3 -1 5 13 5 14 0 20 -2 13 -5z m4362 -17 c8 -16 8 -29 0 -41 -9 -13 -9 -22 0 -30 8 -8 8 -27 1 -61 -5 -27 -12 -62 -14 -78 -2 -16 -9 -38 -14 -49 -6 -10 -8 -21 -6 -24 7 -7 -21 -118 -45 -181 -62 -158 -106 -225 -162 -248 -41 -16 -103 -70 -103 -89 0 -52 -124 -121 -213 -117 -30 1 -64 -2 -75 -8 -15 -7 -18 -5 -14 6 2 8 16 18 30 22 113 33 143 45 172 67 19 14 39 26 45 26 6 0 50 38 98 86 77 76 96 102 148 208 33 66 63 137 67 157 4 20 12 43 18 50 6 7 8 16 5 19 -3 3 1 32 9 65 8 37 12 93 8 151 -5 86 -4 93 15 93 11 0 24 -11 30 -24z m-4955 -22 c2 -2 -2 -17 -8 -33 -11 -29 0 -57 23 -57 15 0 72 -42 72 -54 0 -19 -36 -9 -135 40 l-100 49 -69 -20 c-78 -23 -263 -34 -263 -16 0 13 15 16 152 32 67 8 120 21 147 35 23 13 54 26 68 30 24 6 105 2 113 -6z m6331 5 c30 -1 32 -22 2 -22 -12 0 -29 -4 -39 -9 -13 -7 -23 -3 -37 15 l-18 25 34 -4 c19 -2 45 -4 58 -5z m108 -17 c0 -3 -9 -5 -21 -5 -12 0 -21 7 -21 16 0 13 4 14 21 5 12 -6 21 -13 21 -16z m-567 7 c0 -16 -32 -23 -53 -12 -29 16 -25 21 16 21 20 0 37 -4 37 -9z m-4752 -21 c6 -9 -100 -22 -182 -22 -75 -1 -37 19 45 23 39 1 85 4 101 5 17 2 33 -1 36 -6z m4348 -1 c8 -14 -16 -14 -37 0 -13 8 -11 10 7 10 13 0 26 -5 30 -10z m-4993 -13 c0 -13 -45 -20 -105 -17 -91 5 -74 25 21 24 46 0 84 -3 84 -7z m6998 -18 c-6 -6 -22 -13 -36 -16 -15 -2 -43 -10 -63 -16 -21 -6 -50 -11 -65 -11 -15 0 -34 -7 -41 -16 -10 -12 -22 -15 -41 -9 -15 4 -39 8 -53 9 -14 2 -32 3 -39 4 -8 1 -13 6 -13 11 0 5 27 12 60 15 33 4 93 13 134 21 94 17 170 21 157 8z m-736 -15 c27 -14 26 -15 -32 -21 -34 -3 -63 -4 -65 -1 -3 3 47 29 68 36 1 0 14 -6 29 -14z m-679 -24 c13 -2 24 -9 24 -15 0 -11 -166 -14 -193 -4 -68 26 64 41 169 19z m-5478 -4 c-21 -13 -42 -13 -42 0 0 6 13 10 29 10 22 0 25 -2 13 -10z m4494 -10 c15 -28 13 -49 -7 -91 -14 -30 -15 -41 -4 -60 19 -35 5 -145 -25 -204 -13 -27 -41 -75 -62 -106 -20 -31 -40 -75 -44 -97 -8 -48 -18 -56 -68 -57 -26 0 -37 -5 -37 -15 0 -9 -5 -30 -11 -48 -23 -61 -39 -137 -37 -175 2 -45 -23 -76 -56 -68 -28 6 -90 28 -114 40 -22 11 -24 -4 -2 -22 25 -22 18 -32 -21 -32 -39 0 -44 9 -27 42 8 14 7 24 -6 36 -23 23 -67 22 -67 -2 0 -11 -7 -28 -15 -39 -12 -18 -17 -18 -32 -6 -13 11 -20 11 -29 2 -9 -9 -8 -19 6 -43 9 -16 18 -42 18 -57 0 -22 -5 -27 -27 -27 -16 0 -29 -8 -32 -19 -3 -10 -11 -27 -16 -37 -6 -10 -7 -24 -3 -30 5 -8 -2 -10 -21 -5 -25 6 -31 3 -41 -25 -8 -21 -19 -32 -34 -32 -26 0 -89 21 -89 29 0 10 47 71 68 89 18 16 19 20 6 29 -19 12 -32 5 -32 -18 0 -12 -11 -7 -39 20 -39 37 -41 38 -102 31 -50 -6 -66 -13 -87 -37 -17 -20 -24 -39 -21 -55 2 -13 1 -24 -3 -24 -8 0 -22 33 -25 57 -3 18 -18 37 -29 37 -5 0 -22 -12 -37 -27 -20 -20 -34 -25 -52 -21 -29 7 -31 22 -9 67 19 38 31 42 114 43 33 1 66 4 71 7 6 4 59 11 117 15 112 10 202 38 246 77 20 18 28 19 50 9 26 -12 60 -3 79 20 3 4 25 17 50 29 29 15 56 41 79 78 21 33 60 72 96 97 103 71 168 141 215 229 23 45 43 90 43 101 0 11 5 23 11 27 5 3 10 17 10 31 0 14 4 28 9 31 5 3 11 48 14 100 7 113 33 158 61 106z m662 10 c0 -12 -69 -31 -92 -25 -33 9 -30 23 5 27 49 6 87 5 87 -2z m-6581 -28 c-8 -3 -19 -3 -27 0 -7 3 -1 5 14 5 14 0 20 -2 13 -5z m81 -3 c0 -6 -12 -11 -26 -11 -15 0 -26 5 -26 11 0 5 11 10 26 10 14 0 26 -5 26 -10z m3452 4 c-11 -11 -130 -23 -161 -17 l-31 6 27 7 c31 9 174 13 165 4z m4284 -11 c45 -12 23 -24 -32 -18 -83 10 -108 23 -44 24 29 0 63 -3 76 -6z m113 -14 c17 -8 14 -10 -16 -10 -20 0 -44 4 -52 10 -13 7 -9 10 15 9 18 0 41 -5 53 -9z m-1251 -10 c7 -11 -52 -9 -63 2 -4 4 7 8 25 8 18 0 35 -5 38 -10z m862 -1 c4 -6 -6 -10 -25 -10 -17 0 -39 -3 -50 -7 -18 -5 -18 -4 1 11 23 19 64 22 74 6z m-6318 -9 c10 -6 9 -12 -5 -25 -14 -13 -43 -17 -113 -18 -133 -1 -278 10 -278 21 0 6 61 10 139 11 114 0 180 6 239 19 2 0 11 -3 18 -8z m5665 -30 c81 -4 101 -7 96 -15 -5 -7 -122 -2 -150 7 -7 3 -10 10 -6 17 4 6 10 7 14 2 3 -5 24 -10 46 -11z m-748 -4 c96 -2 255 -26 260 -40 2 -6 11 -11 19 -11 25 0 99 -26 99 -35 0 -4 6 -7 14 -7 8 0 31 -12 53 -27 21 -14 51 -29 67 -33 15 -3 33 -10 39 -14 6 -4 39 -10 75 -13 36 -3 76 -13 89 -23 13 -9 36 -16 50 -16 15 0 69 -12 121 -26 53 -14 133 -34 179 -44 46 -10 108 -29 137 -43 29 -13 62 -24 73 -24 12 0 36 -9 54 -20 18 -11 55 -24 82 -28 26 -4 50 -10 53 -15 4 -6 -51 -27 -90 -35 -4 -1 -3 -12 2 -24 l8 -23 61 19 c77 24 76 24 116 22 19 0 35 -5 35 -10 0 -5 -16 -14 -35 -21 -30 -10 -30 -11 -4 -6 26 5 29 3 23 -16 -8 -25 5 -27 71 -9 25 6 62 8 84 4 33 -6 38 -10 29 -25 -8 -16 -4 -19 23 -21 19 -2 42 -12 53 -23 10 -12 33 -21 50 -21 17 0 31 -4 31 -8 0 -4 28 -26 63 -49 34 -22 60 -45 57 -50 -3 -5 4 -8 16 -8 12 0 22 -5 22 -11 0 -6 -8 -10 -16 -10 -32 0 -15 -27 28 -45 53 -22 45 -36 -31 -58 -86 -24 -158 -28 -179 -10 -12 11 -37 16 -77 15 -62 -1 -157 33 -185 66 -11 13 -14 13 -22 1 -8 -12 -15 -11 -42 5 -18 11 -33 26 -33 33 0 17 -13 17 -29 1 -10 -10 -20 -6 -42 16 -33 31 -63 36 -72 12 -4 -8 -15 -15 -25 -15 -10 0 -21 7 -25 15 -7 18 -38 22 -38 6 0 -22 -17 -9 -47 36 -34 51 -50 53 -41 5 8 -38 -8 -41 -43 -6 -14 14 -37 28 -52 32 -15 3 -27 11 -27 17 0 5 -5 10 -10 10 -20 0 -24 -70 -6 -104 16 -31 13 -38 -10 -32 -84 20 -104 29 -106 46 -2 10 -5 21 -8 24 -9 9 -20 -48 -14 -71 13 -52 -56 11 -79 71 -7 19 -17 35 -22 35 -9 0 -7 -28 9 -108 8 -37 -9 -38 -34 -2 -11 14 -27 36 -36 49 l-17 22 -22 -23 c-27 -27 -29 -52 -6 -70 11 -7 14 -18 9 -26 -20 -34 -224 12 -309 70 -46 31 -56 31 -47 1 7 -22 7 -22 -20 -5 -15 10 -34 18 -42 18 -8 0 -33 22 -54 48 -30 36 -37 51 -28 60 9 9 31 2 86 -27 l73 -39 0 27 c0 15 -5 37 -11 48 -7 12 -12 57 -11 99 0 43 -2 78 -4 78 -3 0 -12 -17 -21 -37 -15 -36 -37 -50 -37 -22 0 18 -28 31 -37 17 -3 -5 -3 -22 1 -36 4 -16 2 -27 -4 -27 -6 0 -14 14 -18 32 -4 18 -14 35 -22 38 -18 7 -19 35 -1 35 7 0 4 6 -6 12 -14 8 -19 21 -16 48 5 62 -19 53 -27 -10 -4 -30 -9 -65 -11 -76 -2 -12 -5 -26 -6 -32 -3 -19 -31 52 -31 82 -1 30 -15 38 -28 16 -5 -7 -7 -26 -6 -42 3 -43 -14 -36 -28 12 -7 23 -23 48 -36 55 -22 13 -29 15 -57 18 -15 1 -19 39 -4 45 13 5 25 103 12 103 -6 0 -14 -12 -17 -26 -4 -14 -13 -31 -21 -38 -13 -10 -15 -4 -15 37 0 55 -15 57 -25 4 -17 -83 -20 -92 -28 -87 -5 3 -8 27 -5 53 3 30 0 49 -9 54 -19 12 -50 162 -37 178 13 16 48 23 83 18 14 -2 57 -5 95 -5z m2369 -2 c5 -8 18 -18 30 -23 14 -5 16 -10 7 -13 -7 -3 -19 0 -26 5 -7 6 -36 14 -65 19 -45 7 -49 9 -26 16 41 12 71 11 80 -4z m-4639 -24 c16 -35 -3 -118 -32 -144 -12 -10 -37 -18 -55 -18 -74 0 -192 -66 -289 -162 -84 -82 -159 -117 -310 -142 -111 -18 -231 -52 -263 -73 -6 -4 -32 -14 -57 -21 -26 -7 -63 -18 -83 -24 -43 -13 -52 -6 -20 15 13 9 52 42 87 75 48 45 58 58 42 59 -12 0 -34 -7 -48 -14 -15 -8 -46 -18 -69 -22 -22 -4 -56 -16 -74 -27 -26 -15 -42 -17 -73 -10 -23 5 -51 6 -64 3 -30 -7 -31 13 -2 28 12 7 19 15 16 18 -3 3 -18 -2 -32 -11 -31 -20 -62 -23 -56 -5 6 18 124 89 162 97 18 4 48 21 67 38 19 17 53 36 75 42 21 6 42 15 45 21 4 5 14 10 22 10 9 0 51 16 94 36 79 37 210 83 351 121 43 12 83 26 89 32 5 6 26 11 45 11 20 0 49 6 65 15 16 8 32 13 35 10 6 -6 110 14 139 27 12 5 49 15 83 21 34 6 65 13 68 16 12 12 31 3 42 -22z m180 8 c0 -4 -13 -16 -29 -26 l-29 -17 27 -2 c14 -1 34 -1 45 1 10 1 25 -4 33 -11 8 -6 24 -9 36 -5 28 9 42 -16 17 -31 -11 -6 -27 -18 -36 -27 -40 -37 -93 -73 -110 -73 -21 0 -22 9 -2 31 23 27 30 63 14 69 -22 9 -71 -13 -71 -31 0 -9 -2 -16 -4 -16 -3 0 -13 -4 -23 -7 -14 -6 -16 -4 -7 13 6 11 16 46 24 79 l13 59 51 1 c28 1 51 -2 51 -7z m147 -45 c0 -5 -7 -9 -15 -9 -15 0 -27 22 -27 50 1 14 5 13 21 -7 12 -14 21 -29 21 -34z m3224 32 c10 -6 -8 -9 -49 -10 -35 0 -98 -8 -140 -17 -52 -12 -82 -14 -98 -7 -20 9 -16 12 35 27 31 10 69 19 84 22 35 6 148 -4 168 -15z m-620 -28 c32 -9 93 -18 136 -20 89 -4 127 -24 52 -27 -77 -3 -148 3 -209 18 -123 31 -161 44 -147 49 23 8 103 -2 168 -20z m1328 8 c16 -6 13 -9 -20 -14 -43 -7 -63 -2 -53 14 7 12 44 12 73 0z m-7946 -17 c-3 -4 -12 -4 -20 -1 -8 3 -6 6 6 6 11 1 18 -2 14 -5z m1869 -12 c-10 -2 -26 -2 -36 0 -10 3 -2 5 18 5 20 0 28 -2 18 -5z m-606 -24 c0 -6 -14 -10 -32 -10 -19 0 -30 4 -26 10 4 6 18 11 32 11 14 0 26 -5 26 -11z m-1250 -13 c0 -4 14 -5 30 -1 23 4 32 1 38 -13 4 -10 1 -22 -5 -26 -7 -4 -10 -16 -7 -27 3 -11 9 -30 13 -43 5 -20 2 -24 -18 -24 -14 0 -35 7 -48 16 -19 14 -30 14 -64 4 -30 -9 -54 -9 -99 1 -33 6 -60 16 -60 20 0 4 12 14 26 22 21 11 37 12 76 3 56 -13 64 -11 46 11 -7 9 -43 19 -88 23 -42 4 -85 12 -97 19 -20 11 -20 11 3 17 36 9 254 7 254 -2z m7252 0 c-21 -7 -33 -7 -41 1 -9 9 -1 12 30 11 41 -1 41 -1 11 -12z m1328 -5 c13 -15 12 -16 -11 -10 -15 4 -31 7 -35 7 -5 0 -6 5 -2 11 10 15 32 12 48 -8z m199 8 c0 -6 -5 -11 -11 -11 -6 0 -10 5 -10 11 0 5 4 10 10 10 6 0 11 -5 11 -10z m8137 0 c0 -6 -11 -11 -24 -11 -19 0 -20 2 -7 11 20 13 31 13 31 0z m-8403 -7 c-3 -3 -12 -4 -20 -1 -8 4 -6 6 6 7 11 0 18 -2 14 -6z m-769 -26 c-8 -12 -36 -12 -36 -1 0 15 11 22 27 16 8 -3 12 -10 9 -15z m326 1 c-4 -6 -11 -8 -16 -5 -5 3 -12 1 -16 -5 -3 -6 -28 -11 -55 -10 l-50 1 48 14 c58 17 97 19 89 5z m-551 -42 c0 -6 -6 -10 -12 -10 -6 0 -8 4 -4 10 3 6 8 11 11 11 2 0 5 -5 5 -11z m-92 -11 c33 0 49 -3 39 -8 -22 -12 -138 -3 -130 10 3 6 13 8 22 4 8 -3 40 -6 69 -6z m913 -5 c-4 -15 -68 -12 -74 4 -3 10 6 13 36 10 23 -2 40 -8 38 -14z m386 8 c0 -5 -19 -7 -42 -4 -23 2 -42 6 -42 8 0 2 19 4 42 4 23 0 42 -4 42 -8z m-853 -31 c30 -20 30 -28 -3 -45 -21 -11 -34 -11 -70 -1 -44 14 -92 42 -92 56 -1 8 91 16 120 10 12 -3 32 -12 45 -20z m756 22 c-4 -3 -13 -4 -20 -1 -9 4 -6 6 6 7 11 0 17 -2 14 -6z m-8896 -14 c3 -6 1 -11 -5 -11 -6 0 -11 5 -11 11 0 5 2 10 5 10 2 0 7 -5 11 -10z m916 4 c-4 -4 -13 -4 -20 -1 -9 3 -6 6 6 6 11 1 17 -2 14 -5z m8200 -1 c-10 -3 -26 -3 -36 0 -10 2 -2 5 18 5 20 0 28 -3 18 -5z m53 1 c-4 -4 -13 -4 -20 -1 -9 3 -6 6 6 6 11 1 17 -2 14 -5z m-9227 -15 c11 -7 3 -10 -31 -9 -40 0 -43 2 -21 9 35 11 34 11 52 0z m851 -20 c25 -8 24 -9 -11 -16 -22 -4 -56 -1 -84 8 -46 14 -46 15 -21 25 17 7 37 7 58 1 17 -6 43 -14 58 -18z m3092 20 c-4 -6 -14 -10 -22 -10 -20 0 -19 -10 2 -34 21 -23 7 -25 -22 -3 -11 9 -31 16 -44 16 -14 0 -24 4 -24 10 0 10 22 17 78 24 18 3 33 5 35 6 2 1 0 -3 -3 -9z m5389 4 c-4 -3 -13 -4 -20 -1 -9 4 -6 6 6 7 11 0 17 -2 14 -6z m-9435 -27 c-11 -11 -46 0 -39 13 3 4 15 5 27 2 13 -3 18 -9 12 -15z m4574 -1 c2 -11 -3 -18 -13 -18 -9 0 -16 2 -16 4 0 3 -4 13 -7 22 -5 14 -2 17 13 14 11 -2 21 -12 23 -22z m-3820 -7 c0 -6 -25 -11 -55 -11 -40 0 -51 3 -39 11 20 13 94 13 94 0z m8230 5 c-8 -8 -92 -10 -100 -2 -3 4 19 7 50 7 30 0 53 -2 50 -5z m-8696 -22 c27 -9 60 -15 73 -12 28 5 60 -12 39 -20 -7 -3 -10 -11 -8 -18 4 -9 -29 -12 -123 -13 -71 0 -149 -3 -172 -7 -53 -8 -81 5 -49 22 12 7 34 12 48 12 15 0 29 4 33 9 3 5 -2 9 -12 8 -9 -1 -19 4 -21 11 -10 26 122 31 192 8z m343 10 c-8 -3 -19 -3 -27 0 -7 2 -1 5 14 5 14 0 20 -3 13 -5z m787 -39 c-2 -5 -31 -6 -64 -3 -33 3 -79 6 -104 6 -25 0 -44 6 -44 12 0 7 9 9 23 6 13 -3 47 1 76 8 45 12 57 11 86 -3 18 -10 30 -21 27 -26z m2903 30 c0 -9 -4 -16 -9 -16 -5 0 -9 7 -9 16 0 8 4 16 9 16 5 0 9 -8 9 -16z m-360 -28 c26 -19 47 -35 45 -36 -5 -5 -186 -14 -186 -10 0 13 67 79 80 79 7 0 35 -15 61 -33z m5167 2 c-4 -6 -15 -11 -24 -10 -15 0 -14 2 3 10 28 12 28 12 21 0z m569 -14 c0 -13 4 -33 9 -44 6 -16 -2 -12 -32 14 -30 26 -46 33 -65 28 -13 -3 -24 -1 -24 4 0 6 17 12 39 14 22 3 47 5 57 6 11 1 17 -6 16 -22z m-7502 7 c-7 -3 -21 -3 -31 -1 -10 3 -5 5 13 5 17 1 25 -2 18 -4z m6547 0 c-4 -3 -13 -4 -20 -1 -9 4 -6 6 6 7 11 0 17 -2 14 -6z m682 0 c-3 -3 -12 -4 -20 -1 -8 4 -6 6 6 7 11 0 18 -2 14 -6z m-5110 -47 c0 -23 -5 -40 -10 -36 -5 3 -9 22 -9 42 0 20 4 37 9 37 5 0 10 -19 10 -43z m4480 37 c-3 -4 -12 -4 -20 -1 -8 3 -6 6 6 6 11 1 18 -2 14 -5z m-281 -25 c70 -1 66 -6 -11 -15 -45 -5 -63 -2 -79 10 -19 16 -19 16 7 11 14 -4 51 -6 83 -6z m111 0 c-4 -6 -16 -11 -27 -11 -11 0 -20 5 -20 11 0 5 12 10 26 10 16 0 24 -5 21 -10z m-8281 -21 c82 -11 96 -16 96 -34 0 -18 -218 10 -241 30 -11 9 27 24 47 19 11 -3 55 -10 98 -15z m-376 0 c0 -14 -12 -14 -32 0 -13 8 -11 10 8 10 13 0 24 -5 24 -10z m6226 -30 c0 -8 8 -22 18 -30 14 -11 15 -17 6 -21 -8 -3 -13 -12 -13 -20 0 -8 -5 -15 -11 -15 -17 0 -31 39 -31 85 0 37 2 42 15 31 9 -8 16 -21 16 -30z m3140 26 c-5 -5 -17 -4 -28 2 -17 10 -16 11 9 9 17 -1 25 -5 19 -11z m-8700 -18 c6 -6 -20 -10 -66 -10 -53 0 -76 4 -76 13 0 16 125 12 142 -3z m1076 -4 c17 -21 2 -27 -71 -26 -35 1 -68 -2 -74 -5 -14 -9 -137 -11 -146 -2 -16 16 27 27 82 21 38 -3 72 0 99 10 54 20 94 21 110 2z m2681 -12 c-5 -13 -8 -14 -14 -3 -10 16 -2 33 11 25 5 -4 7 -14 3 -22z m4307 17 c4 -6 -2 -11 -13 -11 -10 0 -27 -10 -38 -22 -10 -12 -21 -19 -24 -16 -7 6 47 59 60 59 5 0 12 -5 15 -10z m294 0 c14 -6 16 -10 6 -10 -9 0 -23 4 -32 10 -19 12 -3 12 26 0z m-6158 -5 c0 -11 -95 -60 -107 -56 -8 3 0 11 18 20 17 7 34 17 37 20 9 13 52 25 52 16z m16146 -2 c-3 -3 -12 -4 -20 -1 -8 4 -6 6 6 7 11 0 18 -2 14 -6z m-15138 -14 c0 -6 -8 -11 -18 -12 -10 0 -29 -3 -42 -5 -16 -3 -24 1 -24 11 0 12 12 16 42 16 23 0 42 -5 42 -10z m2299 -50 c0 -13 11 -33 23 -45 22 -20 22 -21 3 -21 -11 0 -34 17 -50 38 -27 33 -29 40 -17 63 12 23 14 23 27 6 8 -10 14 -28 14 -41z m-2089 15 c54 -15 74 -25 74 -40 0 -6 -8 -6 -21 1 -11 6 -32 11 -48 11 -15 0 -41 7 -57 15 -27 14 -42 14 -134 0 -122 -18 -139 -19 -139 -5 0 6 20 11 44 11 25 1 66 5 92 9 70 13 136 12 189 -2z m5358 -4 c27 -3 47 -10 44 -15 -10 -16 -91 -9 -147 12 l-52 20 52 -5 c29 -3 75 -8 103 -12z m-6955 -49 c-35 -23 -75 -55 -89 -70 -13 -14 -41 -45 -63 -68 -21 -23 -50 -60 -64 -82 -13 -21 -30 -39 -37 -39 -7 0 -20 -7 -29 -15 -9 -8 -33 -18 -53 -22 -37 -7 -36 -7 39 69 42 42 73 80 70 85 -3 6 0 17 7 25 7 9 9 16 5 16 -24 0 -189 -109 -248 -164 -52 -48 -143 -99 -176 -99 -11 0 -31 -9 -45 -20 -14 -11 -38 -19 -53 -18 l-28 1 27 29 c15 15 44 36 65 46 20 10 61 39 90 66 29 27 65 55 79 63 69 39 126 64 146 64 12 0 30 5 41 10 10 6 58 30 107 54 49 24 113 56 142 71 123 64 163 63 67 -2z m5939 46 c-4 -6 -12 -11 -19 -11 -8 0 -6 4 3 11 20 13 24 13 16 0z m-58 -11 c-14 -5 -33 -9 -42 -9 -14 -1 -14 0 0 9 9 6 28 10 42 9 l26 -1 -26 -8z m-7335 -11 c-3 -5 -21 -10 -39 -10 -25 0 -37 -6 -44 -24 -9 -18 -20 -24 -55 -25 -47 -2 -54 4 -32 26 9 10 5 13 -19 13 -29 0 -29 1 -11 15 23 17 211 22 200 5z m1686 -10 c-14 -11 -31 -21 -37 -21 -6 0 2 10 16 21 14 11 31 21 37 21 6 0 -2 -10 -16 -21z m2709 6 c0 -8 -5 -18 -10 -22 -6 -3 -11 -15 -11 -27 0 -14 -7 -20 -24 -20 -20 1 -21 2 -7 13 10 7 15 19 13 27 -5 14 15 44 30 44 5 0 9 -7 9 -15z m882 5 c0 -6 -5 -11 -10 -11 -6 0 -11 5 -11 11 0 5 5 10 11 10 5 0 10 -5 10 -10z m-2632 -7 c10 -10 -41 -39 -163 -94 -119 -53 -187 -94 -187 -111 0 -7 10 -5 26 6 14 9 37 17 52 17 14 0 29 4 32 10 18 28 250 116 307 116 40 0 38 -17 -3 -32 -24 -9 -36 -31 -17 -31 4 0 50 14 101 32 87 30 99 32 194 26 121 -8 182 -22 235 -55 55 -35 52 -56 -11 -57 -27 -1 -65 0 -83 1 -18 1 -36 -3 -39 -8 -6 -11 48 -23 109 -24 30 -1 33 -3 16 -10 -12 -5 -35 -9 -51 -10 -30 -1 -64 -24 -52 -36 4 -4 23 -6 43 -6 30 0 34 -3 24 -15 -15 -18 -11 -21 62 -38 66 -15 95 -28 95 -42 0 -12 48 -65 170 -187 117 -115 144 -159 149 -245 4 -73 0 -93 -21 -93 -8 0 -20 -11 -27 -24 -20 -39 -61 -70 -96 -75 -19 -3 -49 -8 -68 -12 -27 -6 -34 -4 -34 9 0 18 24 42 95 95 42 31 47 39 44 73 -2 44 -36 123 -60 144 -23 19 -21 -6 3 -37 14 -17 18 -38 16 -73 -4 -70 -11 -86 -46 -100 -17 -7 -35 -19 -39 -25 -34 -54 -232 -165 -328 -185 -223 -46 -599 -75 -635 -48 -16 11 -23 31 -26 65 -1 16 -167 99 -198 99 -40 0 -25 -22 34 -48 47 -21 153 -108 153 -126 0 -9 -84 37 -103 56 -27 26 -95 60 -103 51 -4 -4 7 -23 26 -42 38 -39 42 -66 12 -75 -27 -9 -63 3 -63 20 0 13 -149 27 -291 27 -48 0 -55 3 -55 21 0 20 46 52 76 53 22 0 48 33 31 39 -18 6 -16 31 4 38 9 4 28 4 42 0 19 -5 32 0 47 16 22 24 38 27 61 12 9 -5 31 -3 56 6 58 20 89 18 150 -12 29 -14 55 -26 59 -26 4 0 7 20 6 45 l-2 44 36 -3 c20 -1 43 0 52 3 14 6 14 8 1 16 -9 6 -26 10 -39 10 -13 0 -24 4 -24 9 0 5 -12 15 -26 21 -32 15 -34 34 -5 53 17 10 26 10 37 1 8 -7 12 -17 9 -22 -10 -15 13 -10 27 7 7 8 10 16 6 16 -4 0 7 18 25 40 17 23 32 46 32 53 0 17 28 14 35 -4 8 -20 32 -20 86 -1 27 10 61 13 97 9 56 -6 70 3 39 29 -10 8 -36 11 -73 8 -44 -4 -58 -2 -58 9 0 8 34 48 76 90 57 57 90 81 131 96 70 24 73 43 7 34 -57 -8 -91 -32 -202 -140 -43 -42 -80 -76 -82 -76 -10 0 -1 23 15 39 10 11 32 37 48 58 16 22 41 52 55 67 29 31 31 41 12 48 -23 9 -89 -48 -143 -125 -84 -116 -103 -136 -154 -160 -61 -29 -88 -26 -59 5 23 24 34 81 17 87 -5 3 -28 -27 -50 -65 -28 -48 -47 -70 -60 -70 -25 0 -25 2 1 55 11 24 21 50 21 58 0 25 -39 -5 -67 -53 -34 -58 -56 -78 -72 -63 -15 16 14 89 66 168 27 41 36 64 29 71 -13 13 -79 -57 -132 -140 l-36 -56 -26 24 c-20 19 -28 21 -38 11 -11 -10 -9 -17 9 -31 25 -19 45 -86 26 -86 -6 0 -14 12 -18 26 -3 15 -10 26 -15 27 -11 0 -31 -60 -22 -70 4 -5 -5 -1 -19 8 -18 11 -28 28 -30 52 -5 50 -20 61 -33 24 -6 -16 -16 -40 -22 -51 -10 -21 -27 -92 -38 -161 -3 -19 -11 -36 -18 -38 -6 -2 -28 -8 -48 -15 -21 -6 -110 -14 -200 -18 -245 -9 -278 -11 -300 -23 -31 -16 -162 -23 -163 -9 -1 6 -2 19 -4 28 -1 8 -3 26 -4 39 -1 13 -6 24 -11 24 -11 -1 -25 -40 -23 -65 1 -10 -3 -21 -9 -24 -7 -5 -11 5 -11 24 0 17 -7 36 -16 44 -14 11 -21 10 -45 -8 -15 -12 -27 -29 -26 -37 3 -12 -10 -16 -61 -16 -54 -1 -62 1 -51 14 7 8 21 15 32 15 11 0 20 4 20 8 0 12 120 89 194 125 75 36 167 105 153 113 -9 6 -284 -127 -295 -143 -6 -8 -78 -40 -91 -40 -5 0 6 11 23 25 38 31 32 42 -15 26 -27 -9 -36 -9 -43 2 -5 8 -18 10 -35 6 -34 -9 -66 7 -75 36 -5 15 -14 21 -30 18 -20 -2 -22 -8 -19 -53 4 -51 4 -51 -26 -48 -26 3 -30 9 -36 48 -6 45 -15 64 -26 53 -12 -12 -24 -87 -19 -110 4 -14 1 -24 -5 -24 -7 0 -12 5 -12 11 0 6 -10 24 -22 41 -21 28 -21 32 -6 53 8 13 25 30 37 38 12 9 28 26 34 38 l13 23 -31 -19 c-17 -11 -44 -34 -61 -51 -33 -32 -69 -55 -69 -44 0 11 52 57 64 57 5 0 10 4 9 10 0 16 87 94 137 124 26 15 52 33 58 40 10 11 51 36 163 96 62 34 73 45 42 45 -13 0 -62 -21 -108 -47 -46 -26 -87 -48 -91 -48 -4 0 -26 -9 -48 -21 -23 -11 -49 -21 -59 -21 -29 0 -32 32 -9 70 16 26 30 36 50 36 16 0 54 15 86 34 51 30 81 44 179 83 14 6 47 17 72 25 70 21 34 -8 -46 -37 -100 -37 -236 -108 -236 -123 0 -10 8 -12 28 -7 34 7 69 24 77 35 7 12 131 74 147 74 7 0 22 7 33 17 10 9 58 25 106 35 49 10 98 24 110 30 31 17 414 125 490 139 108 19 185 24 185 11 0 -7 -17 -12 -38 -12 -39 0 -138 -30 -214 -65 -26 -11 -79 -29 -118 -40 -72 -19 -166 -67 -166 -84 0 -22 60 -5 184 53 124 59 162 73 195 73 42 0 38 -17 -7 -32 -21 -7 -53 -25 -71 -41 -67 -57 -256 -119 -416 -136 -66 -8 -103 -21 -137 -48 -9 -7 -47 -21 -86 -31 -71 -19 -114 -41 -101 -53 19 -20 311 64 350 100 17 16 37 21 92 21 39 0 71 3 71 8 0 13 143 58 167 52 15 -4 47 12 105 53 191 134 300 195 473 261 107 41 166 55 266 66 55 6 104 17 121 28 22 15 59 28 97 34 3 1 9 -2 13 -5z m1013 -23 c6 -19 -16 -15 -23 4 -4 10 -2 15 6 13 7 -3 14 -10 17 -17z m4150 9 c12 -8 9 -11 -14 -11 -16 0 -28 5 -28 11 0 13 21 13 42 0z m1011 -4 c3 -10 -4 -12 -26 -9 -41 6 -49 23 -11 23 17 0 34 -6 37 -14z m-1325 -41 c-6 -6 -34 -8 -70 -3 -61 7 -66 22 -10 29 42 5 94 -12 80 -26z m-7882 13 l32 -7 -32 -13 c-41 -17 -141 -19 -168 -4 -18 11 -15 13 27 13 25 1 54 5 63 11 17 11 32 11 78 0z m2022 0 c0 -14 -30 -26 -40 -16 -4 3 0 11 8 16 21 13 32 13 32 0z m3827 -1 c11 -17 1 -20 -14 -3 -7 8 -9 15 -3 15 6 0 13 -6 17 -12z m-42 -9 c-4 -6 -13 -11 -21 -11 -8 0 -18 5 -21 11 -4 5 5 10 21 10 15 0 24 -5 21 -10z m-5717 -21 c0 -6 -10 -11 -22 -11 -12 0 -19 5 -15 11 3 5 13 10 21 10 9 0 16 -5 16 -10z m627 -7 c-4 -3 -13 -4 -20 -1 -9 4 -6 6 6 7 11 0 17 -2 14 -6z m1305 -25 c-20 -17 -39 -28 -42 -25 -7 7 53 57 68 56 6 0 -6 -14 -26 -31z m3608 -3 c-3 -7 -5 -1 -5 14 0 14 2 20 5 13 3 -8 3 -19 0 -27z m-167 -15 l24 -28 -23 -24 c-17 -18 -33 -24 -63 -23 -27 1 -37 6 -32 13 5 7 20 29 34 51 14 22 28 39 31 39 2 0 15 -12 29 -28z m3116 18 c-4 -6 -16 -10 -27 -10 -11 0 -20 4 -20 10 0 6 12 11 26 11 16 0 24 -5 21 -11z m-7532 -58 c-23 -16 -44 -13 -44 6 0 6 15 10 34 10 33 0 34 0 10 -16z m807 7 c0 -13 -75 -88 -82 -81 -3 3 7 18 22 34 15 15 28 34 28 42 0 8 7 14 16 14 8 0 16 -4 16 -9z m-92 -27 c-10 -15 -28 -26 -40 -26 -20 0 -20 0 1 9 11 5 27 16 35 26 22 26 25 19 4 -9z m186 22 c0 -3 -7 -10 -16 -18 -13 -11 -15 -10 -9 4 5 15 25 25 25 14z m-701 -14 c-7 -3 -19 -3 -26 0 -7 3 -1 5 13 5 14 0 20 -2 13 -5z m7628 1 c-3 -4 -12 -4 -20 -1 -8 3 -6 6 6 6 11 1 18 -2 14 -5z m-1971 -52 c20 -20 32 -36 27 -36 -19 0 -79 44 -79 58 0 24 14 18 52 -22z m1746 30 c-8 -3 -19 -3 -27 0 -7 3 -1 5 14 5 14 0 20 -2 13 -5z m-4972 -20 c-4 -4 -13 -4 -20 -1 -9 3 -6 6 6 6 11 1 17 -2 14 -5z m1690 -31 c7 -20 7 -36 2 -36 -5 0 -9 -5 -9 -11 0 -6 7 -10 17 -8 13 2 21 -8 27 -35 8 -32 5 -44 -18 -78 -15 -22 -30 -57 -33 -79 -3 -21 -10 -44 -14 -51 -12 -20 -42 -1 -42 26 0 14 -6 26 -14 26 -10 1 -10 2 0 6 8 3 14 13 14 22 0 10 8 26 17 37 17 18 17 22 -1 55 -20 37 -18 61 10 128 18 45 30 44 44 -2z m3984 16 c61 -12 107 -42 63 -42 -13 0 -38 7 -55 16 -25 13 -49 15 -102 10 -53 -4 -66 -3 -52 6 10 6 23 8 28 5 6 -3 13 -1 17 5 8 13 30 13 101 0z m-9615 -21 c33 -12 34 -27 4 -43 -22 -12 -60 -5 -134 24 -25 10 -26 11 -6 19 30 13 104 12 136 0z m4957 0 c3 -6 15 -10 26 -10 11 0 23 -5 26 -11 5 -7 -7 -10 -33 -6 -22 2 -57 5 -76 5 -38 1 -35 16 4 25 36 9 46 8 53 -3z m3302 -10 c0 -6 -7 -11 -16 -11 -8 0 -15 5 -15 11 0 5 7 10 15 10 9 0 16 -5 16 -10z m1071 -5 c0 -15 -39 -34 -49 -23 -4 3 -3 13 0 22 8 20 49 21 49 1z m-4564 -16 c11 -11 -40 -29 -100 -36 -33 -4 -59 -1 -79 9 -29 16 -28 16 35 16 45 0 68 5 78 16 13 15 46 13 66 -5z m5346 3 c20 -16 20 -16 -10 -9 -39 9 -60 27 -31 26 11 0 30 -8 41 -17z m-3632 -36 c3 -5 1 -9 -5 -9 -17 0 -64 23 -64 32 0 10 61 -10 69 -23z m-1671 16 c9 -4 14 -11 11 -16 -9 -14 -23 -11 -30 6 -7 18 -5 19 19 10z m3482 -15 c0 -6 -5 -10 -10 -10 -6 0 -13 4 -17 10 -3 6 1 11 10 11 9 0 17 -5 17 -11z m-6951 -4 c0 -2 -8 -7 -17 -11 -9 -3 -13 -1 -10 5 6 10 27 14 27 6z m3012 -39 c-23 -33 -48 -48 -58 -38 -11 11 42 69 62 70 18 0 18 -2 -4 -32z m5225 18 c12 -9 17 -19 13 -23 -5 -5 -14 -3 -21 4 -7 7 -28 13 -47 13 -19 0 -34 4 -34 10 0 16 66 13 89 -4z m-9301 -3 c13 -3 24 -10 24 -16 0 -15 -87 -5 -92 10 -5 14 28 17 68 6z m8138 1 c-4 -4 -13 -4 -20 -1 -9 3 -6 6 6 6 11 1 17 -2 14 -5z m73 0 c-3 -4 -12 -4 -20 -1 -8 3 -6 6 6 6 11 1 18 -2 14 -5z m287 -5 c0 -19 -30 -23 -93 -14 l-60 9 69 6 c37 4 71 7 76 8 4 1 8 -3 8 -9z m-7508 -16 c0 -9 -20 -27 -79 -69 -29 -21 -64 -51 -78 -67 -15 -15 -36 -33 -47 -39 -16 -9 -19 -7 -13 7 10 26 -12 20 -56 -15 -22 -17 -44 -31 -50 -31 -6 0 -16 -7 -22 -15 -6 -7 -34 -25 -61 -39 -27 -14 -65 -41 -83 -60 -19 -19 -37 -30 -40 -25 -7 12 94 107 113 107 19 0 75 56 61 61 -23 7 -13 23 15 23 15 0 44 13 65 30 22 16 53 35 70 41 18 6 67 30 111 53 79 43 94 49 94 38z m84 2 c0 -2 -11 -12 -24 -23 l-23 -20 20 23 c19 23 27 29 27 20z m4047 -23 c8 -23 8 -25 -7 -25 -8 0 -14 9 -14 21 0 25 12 27 21 4z m1865 -15 c0 -6 -5 -10 -11 -10 -6 0 -10 4 -10 10 0 6 4 11 10 11 6 0 11 -5 11 -11z m1197 -10 c0 -6 -18 -11 -40 -10 -35 1 -36 2 -13 10 38 12 53 12 53 0z m1391 0 c19 -7 18 -9 -13 -25 -34 -18 -50 -11 -39 18 7 18 19 20 52 7z m-9203 -9 c0 -8 -67 -37 -90 -39 -6 -1 -29 -7 -52 -14 -50 -14 -180 -16 -189 -2 -9 15 14 25 105 44 89 18 226 25 226 11z m7058 2 c-7 -3 -19 -3 -26 0 -7 2 -1 5 13 5 14 0 20 -3 13 -5z m1292 0 c-8 -3 -19 -3 -27 0 -7 2 -1 5 14 5 14 0 20 -3 13 -5z m-8106 -11 c-8 -3 -19 -3 -27 0 -7 3 -1 5 14 5 14 0 20 -2 13 -5z m386 -13 c0 -12 -126 -97 -138 -93 -14 4 1 21 58 64 49 37 80 48 80 29z m4583 -1 c8 -13 -16 -13 -37 0 -13 8 -11 10 7 10 13 0 26 -4 30 -10z m135 -34 c-6 -10 -50 -11 -60 -1 -4 4 1 12 11 20 13 9 23 10 36 1 10 -6 16 -15 13 -20z m2877 24 c-5 -6 -33 -13 -61 -16 -28 -2 -54 -9 -58 -14 -7 -11 -100 -25 -162 -25 -62 0 -65 18 -3 19 30 1 97 11 149 23 107 24 151 29 135 13z m-4046 -32 c0 -14 -24 -13 -60 1 l-30 12 27 8 c27 8 63 -4 63 -21z m456 5 c11 -9 33 -15 50 -15 16 0 29 -5 29 -11 0 -5 -24 -9 -54 -7 -49 2 -56 -1 -83 -34 -40 -48 -53 -34 -17 18 15 22 28 46 28 52 0 17 22 16 47 -3z m151 -56 c-34 -40 -51 -52 -51 -36 0 13 75 89 81 83 3 -3 -10 -25 -30 -47z m3057 35 c-49 -19 -58 -19 -42 0 7 9 28 16 46 15 l33 -1 -37 -14z m-990 -26 c31 -7 56 -17 56 -22 0 -15 -124 -11 -165 6 -21 9 -46 16 -57 16 -28 0 -25 19 4 23 26 4 79 -3 162 -23z m10151 0 c-3 -6 -11 -10 -17 -10 -6 0 -7 4 -4 10 4 6 11 11 17 11 6 0 8 -5 4 -11z m-12328 -26 c-6 -15 -56 -53 -56 -42 0 3 7 17 16 32 19 27 50 36 40 10z m505 -19 c8 -13 5 -21 -10 -33 -12 -9 -24 -16 -27 -16 -7 -1 -29 72 -23 77 8 9 48 -11 60 -28z m132 18 c0 -3 -10 -4 -21 -4 -12 0 -21 4 -21 9 0 5 9 7 21 4 11 -3 21 -7 21 -9z m2982 -4 c0 -6 -5 -11 -11 -11 -6 0 -10 5 -10 11 0 5 4 10 10 10 6 0 11 -5 11 -10z m-2734 -7 c-10 -11 -105 -24 -117 -16 -6 4 6 10 26 13 52 9 99 11 91 3z m-5026 -39 c0 -31 -20 -93 -36 -108 -6 -7 -24 -15 -39 -18 -24 -6 -29 -3 -39 24 -13 39 13 92 57 111 45 20 57 18 57 -9z m5534 4 c0 -6 -21 -11 -45 -10 -35 0 -40 3 -24 10 30 12 69 12 69 0z m2527 4 c-11 -12 -70 -16 -70 -5 0 6 17 11 38 11 21 0 36 -3 32 -6z m111 -1 c-8 -3 -19 -3 -27 0 -7 3 -1 5 14 5 14 0 20 -2 13 -5z m-4527 -20 c-13 -10 -27 -14 -31 -10 -8 8 18 26 40 26 10 0 7 -5 -9 -16z m-3864 -12 c-6 -10 -20 -28 -33 -40 -12 -11 -33 -31 -46 -44 -26 -25 -38 -30 -38 -15 0 11 107 117 118 117 5 0 4 -8 -1 -18z m-253 -13 c-7 -12 -16 -21 -22 -21 -14 0 -13 8 3 26 20 22 31 19 19 -5z m6339 6 c7 -8 -33 -11 -147 -11 -78 -1 -107 8 -58 18 32 7 197 1 205 -7z m-3851 -6 c0 -6 -5 -11 -11 -11 -6 0 -8 5 -5 11 4 5 9 10 11 10 3 0 5 -5 5 -10z m1633 -11 c-4 -6 -11 -10 -17 -10 -6 0 -8 4 -4 10 3 6 11 11 17 11 6 0 7 -5 4 -11z m845 7 c0 -3 -7 -10 -16 -17 -13 -11 -15 -10 -15 3 0 10 7 18 15 18 9 0 16 -2 16 -4z m3058 -3 c-7 -3 -19 -3 -26 0 -7 2 -1 5 13 5 14 0 20 -3 13 -5z m-7710 -75 c-3 -83 -34 -121 -44 -53 -7 45 19 112 42 113 2 0 3 -27 2 -60z m7440 50 c4 -6 -9 -10 -31 -10 -21 0 -37 4 -37 10 0 6 13 11 30 11 17 0 34 -5 38 -11z m198 -2 c-3 -5 -46 -8 -96 -8 -51 0 -86 3 -80 8 17 10 182 10 176 0z m-3140 -9 c-6 -7 -32 -14 -57 -18 -42 -5 -45 -4 -32 12 9 11 30 17 57 17 31 0 40 -3 32 -11z m-187 -16 c20 -16 19 -16 -15 -11 -19 4 -44 7 -55 7 -11 0 -19 4 -19 10 0 17 67 12 89 -6z m1152 10 c-7 -3 -21 -3 -31 -1 -10 3 -5 5 13 5 17 1 25 -2 18 -4z m-5998 -12 c-1 -13 -104 -57 -150 -63 -40 -5 -43 -4 -30 12 8 9 22 17 32 17 10 0 27 7 38 14 33 23 111 37 110 20z m441 -28 c0 -4 -6 -32 -37 -171 -3 -13 -11 -24 -17 -24 -15 0 -6 145 11 177 10 19 43 33 43 18z m4410 -39 c-14 -6 -83 -13 -152 -15 -122 -4 -124 -3 -63 9 86 17 252 22 215 6z m357 -25 c0 -8 -7 -15 -15 -15 -20 0 -30 17 -14 24 23 9 29 7 29 -9z m-4956 -42 c-7 -8 -19 -12 -28 -8 -12 5 -11 10 9 32 20 21 25 22 28 8 2 -9 -2 -24 -9 -32z m-124 -16 c-20 -41 -31 -52 -47 -50 -33 5 -32 22 4 43 18 10 35 28 38 39 3 12 11 21 18 21 9 0 4 -18 -13 -53z m5448 32 c0 -6 -10 -10 -22 -10 -12 0 -19 4 -15 10 3 6 13 11 21 11 9 0 16 -5 16 -11z m73 6 c0 -11 -20 -16 -26 -6 -4 6 1 11 10 11 9 0 16 -3 16 -5z m1764 -6 c-21 -13 -34 -13 -26 0 3 6 14 10 24 10 15 0 16 -1 2 -10z m-5355 -26 c0 -15 -4 -26 -9 -26 -5 0 -7 11 -4 26 3 14 7 26 9 26 2 0 4 -12 4 -26z m425 2 c14 -20 15 -24 1 -27 -22 -4 -58 18 -58 36 0 23 38 18 57 -9z m1568 -11 c11 -8 11 -13 -1 -25 -13 -13 -20 -11 -54 8 -28 17 -35 26 -25 32 15 10 59 2 80 -15z m433 14 c0 -6 -29 -10 -66 -9 -52 1 -59 3 -34 9 47 12 100 12 100 0z m-4162 -42 c-1 -37 -4 -42 -23 -40 -14 2 -20 10 -17 24 3 17 30 58 39 58 1 0 1 -19 1 -42z m1790 26 c0 -5 -5 -11 -11 -13 -6 -3 -11 4 -11 13 0 10 5 16 11 14 6 -2 11 -8 11 -14z m-2311 -5 c0 -6 -5 -10 -11 -10 -6 0 -10 4 -10 10 0 6 4 11 10 11 6 0 11 -5 11 -11z m836 -58 c1 -14 -3 -26 -8 -26 -5 0 -9 12 -9 26 0 34 15 34 17 0z m298 6 c0 -12 -32 -23 -44 -16 -5 4 -7 10 -5 14 7 11 49 12 49 2z m-452 -24 c0 -8 -7 -24 -16 -37 -13 -18 -14 -24 -3 -25 8 0 -5 -5 -28 -9 -28 -6 -62 -4 -99 5 -76 20 -92 37 -35 37 24 0 46 -5 50 -10 3 -6 23 -11 43 -11 23 0 34 4 30 11 -8 14 24 52 44 52 8 0 14 -6 14 -13z m394 -8 c-4 -6 -14 -10 -22 -10 -8 0 -15 4 -15 10 0 6 10 11 22 11 12 0 18 -5 15 -11z m105 -6 c-23 -17 -37 -19 -37 -5 0 10 18 20 42 20 12 1 11 -3 -5 -15z m3418 6 c0 -6 -8 -10 -17 -10 -9 0 -13 4 -10 10 4 6 11 11 17 11 5 0 10 -5 10 -11z m-3819 -21 c5 -22 -9 -27 -34 -12 -8 6 -11 15 -7 21 12 19 35 14 41 -9z m5310 11 c0 -6 -13 -11 -29 -11 -23 0 -26 3 -13 11 20 13 42 13 42 0z m503 -15 c10 -13 3 -15 -47 -14 l-60 1 35 13 c48 17 57 17 72 0z m-5606 -6 c0 -6 -3 -11 -5 -11 -3 0 -8 5 -11 11 -4 5 -2 10 4 10 6 0 12 -5 12 -10z m4084 -5 c-27 -15 -47 -12 -36 5 3 6 18 10 34 10 l28 -1 -26 -14z m869 9 c-4 -4 -13 -4 -20 -1 -9 3 -6 6 6 6 11 1 17 -2 14 -5z m2772 -2 c-16 -2 -42 -2 -58 0 -16 3 -3 5 29 5 32 0 45 -2 29 -5z m-8728 -13 c-4 -6 -17 -10 -30 -10 -18 0 -20 2 -7 10 21 13 45 13 37 0z m325 1 c8 -13 -14 -19 -47 -13 l-26 5 26 8 c37 11 40 11 47 0z m-582 -5 c0 -10 -32 -15 -38 -6 -3 5 4 10 16 10 12 0 22 -2 22 -4z m78 -5 c19 -8 19 -9 -3 -15 -29 -7 -67 2 -59 15 7 11 33 11 62 0z m2141 -39 c31 -12 18 -24 -25 -24 -43 1 -57 14 -24 23 29 7 32 7 49 1z m-151 -25 c12 -9 10 -11 -12 -11 -15 0 -50 -3 -78 -7 -62 -8 -54 8 9 18 64 11 64 11 81 0z m3102 -16 c-22 -17 -46 -21 -46 -7 0 15 13 23 40 23 26 0 26 -1 6 -16z m-5349 -4 c0 -15 -42 -22 -69 -12 -38 15 -31 21 22 21 26 0 47 -4 47 -9z m869 3 c-4 -4 -13 -4 -20 -1 -9 3 -6 6 6 6 11 1 17 -2 14 -5z m55 -4 c0 -6 -4 -11 -10 -11 -5 0 -13 5 -16 11 -4 5 1 10 10 10 9 0 16 -5 16 -10z m281 2 c-22 -2 -55 -2 -74 0 -18 3 -1 5 40 5 40 0 55 -2 34 -5z m864 -2 c-9 -6 -38 -10 -63 -10 -36 0 -43 3 -27 10 31 13 110 13 90 0z m-1289 -7 c-7 -3 -21 -3 -32 -1 -10 3 -4 5 13 5 18 1 26 -2 19 -4z m1748 0 c-4 -3 -13 -4 -20 -1 -9 4 -6 6 6 7 11 0 17 -2 14 -6z m-1042 -14 c4 -7 -11 -11 -36 -11 -24 0 -43 5 -43 11 0 5 16 10 36 10 20 0 39 -5 43 -10z m814 6 c0 -2 -10 -7 -21 -10 -12 -3 -21 -1 -21 4 0 6 9 10 21 10 11 0 21 -2 21 -4z m2982 0 c0 -3 -8 -13 -18 -22 -11 -12 -26 -15 -48 -10 -36 8 -60 -16 -60 -61 0 -15 -5 -31 -11 -34 -6 -4 -10 -16 -10 -26 0 -23 -10 -27 -121 -41 -138 -18 -249 -24 -242 -12 4 6 25 11 48 11 22 0 43 4 47 10 3 6 19 11 36 11 30 0 139 52 168 81 9 9 21 26 27 37 13 26 91 57 144 59 22 1 40 -1 40 -3z m-1033 -32 c-7 -14 -24 -32 -38 -39 -36 -17 -294 -26 -294 -10 0 6 10 12 23 12 13 0 43 6 66 14 23 8 76 18 119 22 42 4 87 11 100 16 34 14 37 12 24 -15z m715 -3 c2 -7 -12 -15 -36 -19 -22 -4 -69 -15 -103 -26 -53 -16 -165 -46 -263 -71 -17 -4 -16 0 10 28 17 18 37 33 45 33 8 0 39 12 69 27 78 40 268 59 278 28z m612 -3 c-9 -6 -21 -10 -27 -10 -6 0 -3 4 6 10 8 6 20 10 26 10 6 0 3 -4 -5 -10z m3710 -16 c15 -14 37 -26 51 -26 13 -1 33 -7 43 -15 21 -16 65 -14 133 5 48 13 102 13 110 -1 5 -7 -8 -8 -37 -3 -29 4 -46 2 -51 -6 -5 -7 -42 -15 -83 -19 -60 -5 -85 -2 -120 13 -46 20 -92 55 -92 70 0 16 20 9 46 -18z m-9204 -21 c22 -21 -103 -38 -149 -20 -22 9 -21 23 1 29 19 6 141 -2 148 -9z m5457 6 c3 -6 1 -19 -4 -29 -9 -15 -25 -19 -93 -19 -68 0 -87 -4 -115 -23 -43 -31 -55 -31 -26 1 16 16 50 31 99 43 42 10 83 22 92 27 21 12 39 12 47 0z m-5699 -17 c-4 -4 -13 -4 -20 -1 -9 3 -6 6 6 6 11 1 17 -2 14 -5z m1691 -15 c2 0 0 -5 -3 -10 -8 -13 -81 -14 -133 -4 l-35 8 52 12 c32 7 65 8 84 3 17 -5 33 -9 35 -9z m-491 6 c0 -8 -54 -13 -59 -5 -3 5 9 10 26 10 18 0 33 -2 33 -5z m1761 -12 c26 -8 12 -21 -23 -21 -22 0 -39 6 -47 18 -10 17 -8 18 23 13 18 -3 40 -8 47 -10z m-2545 -27 c-6 -10 -77 -24 -84 -16 -14 13 9 26 48 25 23 -1 39 -5 36 -9z m3314 -16 c11 -11 -133 -16 -183 -7 l-31 6 30 12 c32 14 168 6 184 -11z m-2798 -13 c50 -9 71 -20 62 -33 -6 -11 -126 -7 -175 6 -34 8 -39 26 -8 26 12 0 21 5 21 12 0 7 10 9 29 3 16 -4 48 -11 71 -14z m472 -9 c34 -5 37 -8 18 -12 -37 -10 -171 -1 -164 11 7 10 75 11 146 1z m3045 -32 c-11 -2 -25 -8 -31 -12 -6 -5 -41 -5 -79 -2 l-68 7 79 17 c56 11 84 13 99 5 l21 -11 -21 -4z m-354 13 c-4 -4 -13 -4 -20 -1 -9 3 -6 6 6 6 11 1 17 -2 14 -5z m1341 -4 c-3 -6 -11 -11 -17 -11 -6 0 -7 5 -4 11 4 5 11 10 17 10 6 0 8 -5 4 -10z m-3774 -11 c0 -6 10 -10 24 -10 13 0 33 -7 44 -16 19 -14 13 -15 -58 -15 -43 1 -91 5 -105 9 -24 7 -22 8 18 15 25 5 48 13 51 18 8 13 26 12 26 -1z m5389 4 c-8 -3 -19 -3 -27 0 -7 2 -1 5 14 5 14 0 20 -3 13 -5z m2415 -4 c-14 -6 -50 -6 -84 -1 l-61 9 84 1 c60 0 77 -3 61 -9z m-6421 -21 c1 -14 -7 -23 -24 -27 -34 -9 -310 -11 -310 -3 0 4 32 10 71 14 39 4 76 12 82 16 6 5 37 11 68 13 32 2 70 5 84 6 20 2 27 -3 29 -19z m-676 1 c17 -6 18 -9 5 -14 -42 -16 -269 -31 -277 -19 -15 25 220 54 272 33z m3437 3 c13 -4 24 -10 24 -15 0 -13 -59 -17 -86 -7 l-24 10 26 8 c35 11 34 11 60 4z m-3745 -26 c0 -4 -8 -10 -17 -14 -22 -8 -188 -8 -241 1 -38 7 -40 8 -15 15 32 10 273 8 273 -2z m-905 -31 c-16 -10 -33 -2 -25 11 4 5 14 7 22 3 13 -5 14 -8 3 -14z m-1027 1 c14 -10 14 -11 0 -10 -9 0 -26 5 -37 10 l-21 9 21 0 c11 0 28 -4 37 -9z m104 -3 c1 -14 -29 -21 -58 -14 -14 4 -24 11 -20 17 7 12 78 9 78 -3z m860 -2 c-12 -10 -61 -15 -61 -7 0 11 41 21 55 14 5 -3 7 -6 6 -7z m179 -13 c3 -2 -13 -3 -33 -3 -21 0 -41 5 -45 11 -5 7 6 9 33 4 23 -4 43 -10 45 -12z m2645 7 c30 0 21 -15 -14 -25 -11 -3 -1 -4 23 -1 52 6 71 -11 24 -21 -20 -5 -40 -2 -55 7 -13 8 -51 16 -86 17 -34 1 -64 4 -66 7 -8 8 87 25 117 20 17 -2 42 -4 57 -4z m4887 -13 c-7 -6 -16 -8 -20 -4 -5 4 -1 12 7 17 20 12 28 3 13 -13z m-4565 6 c32 -12 -6 -24 -73 -23 l-63 0 47 14 c59 17 68 18 89 9z m-2837 -36 c35 0 40 -2 22 -9 -12 -5 -43 -8 -68 -6 -87 7 -90 7 -57 16 18 4 38 6 46 4 7 -2 33 -4 57 -5z m3163 1 c3 -6 -4 -10 -16 -10 -12 0 -19 4 -16 10 4 6 11 11 16 11 5 0 12 -5 16 -11z m89 0 c14 -9 14 -10 0 -10 -9 0 -23 4 -31 10 -14 9 -14 10 0 10 8 0 22 -4 31 -10z m-1246 -30 c11 -10 39 -25 63 -35 35 -13 40 -19 25 -24 -22 -9 -60 -3 -123 21 -26 9 -72 20 -103 23 -66 7 -62 15 17 30 67 13 93 10 121 -15z m1096 23 c-10 -3 -26 -3 -36 0 -10 2 -2 5 18 5 20 0 28 -3 18 -5z m-1968 -10 c34 -5 49 -12 53 -26 3 -14 -1 -20 -12 -21 -82 -3 -436 1 -441 6 -17 17 27 27 151 35 191 13 196 13 249 6z m16353 -21 c-3 -3 -12 -4 -20 -1 -8 4 -6 6 6 7 11 0 18 -2 14 -6z m-18099 -14 c0 -6 -15 -11 -34 -10 -29 0 -31 2 -13 10 29 12 47 12 47 0z m1283 -2 c36 1 48 -16 18 -25 -30 -10 -276 6 -265 17 13 12 94 18 161 12 32 -2 71 -4 86 -4z m670 -5 c0 -2 -12 -4 -27 -4 -15 0 -24 4 -21 10 6 8 48 3 48 -6z m93 6 c-11 -6 -27 -6 -42 0 -22 8 -19 10 17 10 32 0 38 -2 25 -10z m-2214 -20 c12 -8 9 -11 -13 -11 -16 0 -29 5 -29 11 0 13 21 13 42 0z m4934 6 c-2 -2 -25 -6 -51 -10 -30 -3 -41 -2 -31 4 14 9 92 15 82 6z m11436 -28 c0 -9 -33 -23 -40 -16 -2 2 -1 14 3 27 5 18 10 20 22 10 8 -7 15 -16 15 -21z m84 0 c0 -6 -8 -10 -16 -10 -16 0 -21 12 -9 24 8 9 25 -1 25 -14z m-16202 -10 c-21 -13 -81 -13 -89 0 -4 7 14 10 49 10 40 0 51 -3 40 -10z m16157 -6 c-4 -4 -13 -4 -20 -1 -9 3 -6 6 6 6 11 1 17 -2 14 -5z m913 -116 c-3 -3 -12 -4 -20 -1 -8 4 -6 6 6 7 11 0 18 -2 14 -6z"/>
		<path d="M10616 4350 c-44 -2 -94 -11 -112 -19 -19 -9 -38 -15 -43 -15 -5 0 -24 -15 -43 -32 -19 -17 -39 -31 -43 -31 -5 0 -18 -13 -28 -29 -12 -19 -13 -25 -4 -18 9 7 27 15 42 18 14 4 39 17 54 30 42 33 102 52 147 45 21 -3 41 -1 45 5 9 15 34 3 40 -20 3 -12 -7 -32 -26 -53 -28 -31 -31 -40 -25 -81 3 -25 1 -55 -5 -66 -8 -15 -7 -20 1 -20 7 0 27 -13 45 -28 32 -27 60 -29 144 -12 8 1 15 0 15 -3 0 -16 37 -41 52 -35 20 8 21 19 4 46 -10 16 -10 23 -1 33 10 10 18 8 34 -6 12 -11 18 -23 15 -28 -3 -5 0 -9 7 -9 9 0 11 11 7 36 -4 21 -1 40 5 43 6 4 0 17 -17 33 -15 14 -40 44 -55 67 -15 23 -30 39 -33 36 -3 -3 -5 -29 -3 -57 1 -42 -3 -55 -19 -63 -11 -6 -27 -18 -35 -26 -12 -12 -20 -13 -41 -3 -27 14 -33 42 -16 75 6 12 10 36 8 54 -2 22 6 42 25 64 14 18 27 35 27 38 0 16 -37 38 -62 36 -15 -1 -63 -3 -106 -5z"/>
		<path d="M10506 4199 c-28 -35 -48 -66 -44 -69 8 -8 112 102 112 119 0 27 -19 14 -68 -50z"/>
		<path d="M9970 4106 c-4 -6 -14 -11 -23 -11 -9 0 -50 -22 -91 -50 -93 -61 -98 -65 -125 -94 -12 -13 -28 -24 -35 -24 -16 0 -24 -20 -17 -45 6 -26 16 -23 44 14 13 17 30 31 37 31 14 0 79 58 95 85 5 9 46 33 91 54 45 21 82 41 82 44 0 11 -52 6 -58 -4z"/>
		<path d="M10322 3938 c-9 -17 -8 -21 4 -21 8 0 33 -17 55 -37 36 -33 41 -35 57 -20 31 27 34 -4 5 -39 -21 -25 -28 -29 -33 -16 -8 21 -77 74 -86 65 -3 -3 1 -22 10 -41 23 -49 73 -70 137 -60 59 9 72 18 50 35 -9 7 -14 25 -13 41 3 23 -6 35 -53 71 -65 48 -115 57 -133 22z"/>
		<path d="M10973 3920 c1 -16 1 -57 1 -90 -2 -72 -16 -77 -56 -19 -23 34 -33 40 -63 39 -35 -2 -143 -58 -167 -86 -17 -22 -21 -68 -5 -68 7 0 23 14 36 32 29 39 82 73 115 73 35 0 86 -29 86 -49 0 -10 8 -26 17 -37 14 -15 15 -22 4 -35 -20 -23 -56 -19 -84 11 -14 14 -36 26 -50 26 -22 0 -25 -4 -19 -27 7 -26 5 -27 -25 -20 -25 5 -32 3 -32 -10 0 -9 5 -16 11 -16 5 0 9 -4 7 -9 -3 -9 50 -75 61 -75 4 0 15 10 25 22 16 19 21 20 40 8 20 -12 26 -11 43 4 10 10 24 18 30 18 6 0 19 10 30 21 16 18 19 41 20 165 1 111 -2 144 -13 148 -10 3 -14 -5 -12 -26z"/>
		<path d="M10513 3612 c-25 -11 -31 -36 -11 -48 7 -5 30 -11 52 -15 41 -8 51 0 51 42 0 28 -47 39 -92 21z"/>
		<path d="M10634 3556 c-36 -29 -37 -56 -3 -72 18 -8 27 -20 27 -38 0 -47 28 -6 34 51 11 86 -5 102 -58 59z"/>
		<path d="M8938 4413 c2 -13 -5 -20 -21 -22 -15 -2 -31 -18 -44 -43 -11 -21 -27 -45 -36 -53 -10 -7 -17 -22 -17 -32 0 -17 30 -20 108 -11 4 0 8 12 8 26 0 15 10 31 26 42 22 14 26 24 24 64 -1 42 -4 47 -26 47 -18 0 -25 -5 -22 -18z"/>
		<path d="M8652 4250 c-9 -7 -22 -22 -30 -32 -13 -16 -13 -18 5 -11 25 9 70 56 53 56 -7 -1 -19 -6 -28 -13z"/>
		<path d="M8526 4184 c-20 -8 -45 -15 -55 -15 -11 0 -18 -9 -18 -21 0 -27 -2 -27 68 6 86 41 89 62 5 30z"/>
		<path d="M8519 4079 c-33 -32 -63 -58 -66 -58 -15 0 -68 -80 -66 -100 1 -16 -16 -38 -57 -74 -70 -61 -120 -112 -114 -117 7 -8 63 34 103 76 74 79 118 121 126 121 5 0 37 26 70 58 41 39 60 65 56 77 -2 10 5 27 17 38 12 10 22 23 22 28 0 23 -35 4 -91 -49z m-65 -113 c-14 -14 -28 -3 -18 13 4 6 12 8 18 5 7 -5 7 -11 0 -18z"/>
		<path d="M8189 3699 c-13 -17 -13 -17 4 -4 10 8 18 16 18 18 0 9 -9 3 -22 -14z"/>
		<path d="M9437 3396 c-4 -4 -8 -38 -8 -74 0 -36 -5 -69 -10 -72 -6 -4 -11 -13 -11 -21 0 -8 -11 -31 -24 -51 -13 -19 -35 -55 -49 -80 -32 -53 -123 -155 -131 -146 -9 8 12 60 31 79 8 8 16 22 16 29 0 8 7 20 15 27 9 7 16 18 16 24 0 7 -33 -21 -72 -61 -50 -50 -69 -76 -61 -82 8 -6 6 -7 -6 -3 -26 8 -116 -82 -108 -109 5 -15 -5 -28 -49 -57 -30 -21 -61 -37 -68 -37 -12 0 -129 -109 -129 -121 0 -3 12 -3 28 1 l29 7 -19 -28 c-13 -20 -14 -27 -5 -27 22 0 71 51 65 67 -4 10 9 24 35 39 22 14 50 31 61 38 11 7 44 25 73 41 92 48 182 129 247 222 23 33 63 89 89 126 25 36 54 92 64 125 15 53 15 67 3 106 -8 25 -18 42 -22 38z m-239 -462 c0 -11 -30 -36 -43 -36 -8 0 -6 8 6 21 18 20 37 28 37 15z m-62 -60 c-13 -14 -27 -3 -17 13 4 6 12 8 18 5 7 -5 7 -11 -1 -18z"/>
		<path d="M9604 3143 c-4 -4 -7 -28 -7 -53 0 -38 -4 -47 -25 -55 -32 -12 -70 -74 -77 -126 -5 -34 -2 -42 18 -53 29 -16 53 -7 53 21 0 12 6 21 15 21 10 0 16 10 16 26 0 14 8 30 18 36 17 9 17 11 0 30 -18 20 -18 23 2 80 16 46 17 60 7 69 -7 6 -16 8 -20 4z"/>
		<path d="M5150 3039 c-20 -15 -18 -16 21 -11 23 4 61 11 84 16 42 9 41 9 -21 10 -44 1 -70 -4 -84 -15z"/>
		<path d="M4999 3023 c-12 -13 -19 -27 -16 -32 9 -15 32 -10 50 10 16 17 16 22 3 33 -12 10 -20 7 -37 -11z"/>
		<path d="M5446 2996 c-12 -12 -8 -35 6 -35 7 0 24 -14 37 -30 24 -31 61 -48 70 -34 12 19 -97 115 -113 99z"/>
		<path d="M5298 2972 c-6 -9 81 -63 101 -63 18 0 3 25 -22 38 -13 6 -29 17 -35 23 -15 14 -36 16 -44 2z"/>
		<path d="M5158 2945 c-28 -20 -32 -42 -4 -25 15 10 33 7 84 -11 37 -13 69 -21 72 -17 12 12 -31 46 -67 53 -20 4 -42 9 -49 12 -7 2 -23 -3 -36 -12z"/>
		<path d="M5063 2883 c-20 -9 -38 -26 -41 -38 -3 -12 -20 -29 -37 -37 -53 -28 -30 -42 62 -38 46 2 102 -1 124 -7 37 -10 42 -9 62 17 12 16 21 32 20 35 -1 4 5 13 13 21 14 11 12 15 -16 32 -45 27 -142 35 -187 15z"/>
		<path d="M5075 2690 c-42 -18 -70 -38 -79 -54 -24 -49 -52 -75 -68 -62 -8 6 -14 18 -14 26 0 8 -10 24 -22 36 l-21 22 2 -66 c2 -37 7 -73 13 -80 14 -18 -8 -17 -24 2 -6 8 -17 34 -24 58 -17 57 -33 59 -37 5 -4 -54 21 -89 66 -89 50 0 110 12 110 23 0 6 5 7 11 3 6 -4 22 3 35 15 36 34 96 54 164 54 62 0 87 17 41 29 -12 3 -19 11 -16 19 3 8 -6 23 -20 35 -17 12 -24 26 -20 37 10 24 -21 21 -97 -13z"/>
		<path d="M4682 2614 c-4 -43 3 -89 15 -101 5 -5 5 18 2 49 -7 57 -15 81 -17 52z"/>
		<path d="M5853 2509 c-3 -6 -15 -8 -27 -4 -11 3 -34 3 -52 -1 -26 -6 -31 -11 -27 -28 4 -17 1 -20 -15 -16 -26 7 -35 -7 -15 -24 9 -7 16 -19 16 -26 0 -6 10 -23 22 -36 l23 -24 30 33 c25 28 35 33 62 27 26 -6 33 -3 43 19 10 22 8 31 -11 59 -25 34 -37 39 -49 21z m-39 -16 c-3 -4 -12 -4 -20 -1 -8 3 -6 6 6 6 11 1 18 -2 14 -5z"/>
		<path d="M4867 2412 c-36 -31 -42 -42 -47 -96 -7 -63 4 -90 37 -90 15 0 26 -5 75 -30 39 -20 42 -15 42 59 0 43 7 87 17 111 17 40 17 41 -3 36 -13 -4 -29 4 -44 19 -13 14 -26 26 -30 26 -4 0 -25 -16 -47 -35z m12 -73 c-4 -13 -7 -40 -7 -59 0 -31 -2 -34 -16 -22 -9 7 -14 23 -12 35 9 44 20 70 30 70 6 0 8 -11 5 -24z"/>
		<path d="M5774 2171 c-3 -94 -10 -129 -35 -189 -19 -44 -19 -44 22 -27 16 6 34 11 40 9 50 -12 55 -6 88 95 15 48 15 64 -1 60 -25 -5 -79 33 -86 59 -9 38 -27 33 -28 -7z"/>
		<path d="M7086 1824 c0 -18 -2 -47 -4 -63 -3 -20 2 -32 17 -39 19 -11 20 -7 20 46 0 32 -3 65 -6 74 -11 28 -25 18 -27 -18z"/>
		<path d="M7147 1832 c3 -8 10 -15 15 -15 5 0 10 7 10 15 0 9 -7 16 -16 16 -9 0 -13 -6 -9 -16z"/>
		<path d="M7161 1713 c0 -10 4 -23 8 -27 4 -4 8 -13 8 -19 0 -6 6 -13 13 -16 17 -6 16 39 -2 63 -18 24 -27 23 -27 -1z"/>
		<path d="M7095 1684 c-9 -9 1 -25 14 -25 6 0 10 7 10 16 0 16 -12 21 -24 9z"/>
		<path d="M7644 1611 c0 -9 5 -13 11 -10 6 4 8 11 4 17 -9 14 -15 12 -15 -7z"/>
		<path d="M3174 1419 c-12 -4 -42 -24 -66 -46 -24 -22 -47 -39 -51 -39 -4 0 -13 -10 -20 -21 -7 -12 -19 -21 -26 -21 -7 0 6 18 29 41 39 41 40 43 20 57 -15 11 -25 12 -41 4 -28 -15 -110 -104 -110 -121 -1 -13 -32 -19 -32 -6 0 4 19 30 43 59 24 28 40 54 37 57 -14 14 -103 -47 -139 -94 -47 -62 -39 -80 37 -76 67 4 96 13 96 32 0 8 7 15 15 15 19 0 21 -33 4 -50 -7 -7 -10 -15 -7 -18 3 -3 39 30 81 73 41 44 81 79 88 79 7 0 25 14 39 32 14 17 32 31 39 31 8 0 14 5 14 11 0 11 -15 12 -50 1z"/>
		<path d="M3160 1336 c-20 -21 -25 -29 -11 -18 42 34 65 58 56 58 -5 0 -25 -18 -45 -40z"/>
		<path d="M3199 1315 c-2 -4 -1 -17 3 -29 8 -20 8 -20 20 2 7 13 12 26 12 29 0 9 -30 7 -35 -2z"/>
		<path d="M2097 1242 c-11 -3 -17 -10 -15 -16 6 -20 22 -19 50 3 23 18 24 20 5 19 -12 0 -30 -3 -40 -6z"/>
		<path d="M2599 1205 c-29 -12 -64 -25 -78 -31 -44 -17 -15 -21 46 -7 34 8 69 24 81 38 27 28 20 28 -49 0z"/>
		<path d="M2170 1180 c-77 -18 -213 -109 -164 -109 5 0 18 4 29 10 10 5 59 29 109 52 50 24 94 48 98 54 8 12 5 12 -72 -7z"/>
		<path d="M1978 1161 c-17 -14 -26 -26 -20 -26 16 -1 64 39 56 46 -3 4 -20 -5 -36 -20z"/>
		<path d="M2357 1147 c-51 -12 -172 -68 -177 -82 -6 -16 15 -21 31 -6 5 5 38 19 73 32 83 31 143 63 115 62 -11 0 -30 -3 -42 -6z"/>
	</g>
</svg>
