<?xml version="1.0" encoding="utf-8"?>
<svg xmlns="http://www.w3.org/2000/svg" version="1" viewBox="0 0 440 164">
	<title>
    Side by side the three swam.
  </title>
	<path d="M436.392.557c-.069.526-.138.549-3.2.595-3.406.068-56.343.091-160.8.068-88.136-.023-115.313-.023-119.999 0-2.103 0-37.257.046-78.102.069L.006 1.334l.045 26.88c.046 14.789.115 34.24.183 43.2.069 8.983.115 18.377.092 20.891v6.103c.023.869.045 5.806.068 10.994.023 8.435.069 9.44.412 9.646.365.206.343.229-.023.251-.389 0-.412.343-.297 4.983.091 2.743.137 5.12.137 5.28-.069.594-.069 3.932-.046 14.926 0 6.148.023 12.457 0 14.057 0 3.451.092 4.183.526 4.457.183.114 9.303.206 20.388.183 11.017 0 45.257.068 76.068.137 30.812.091 93.143.206 138.49.251 106.583.115 99.04.092 99.2.435.069.205.16.205.32.023.183-.252 54.126-.252 70.148.022 9.075.16 5.898.16 21.006 0 10.971-.114 12.754-.182 12.983-.502.183-.229.297-1.669.32-4 .023-2.012.068-4.183.068-4.846.023-.663.023-3.909 0-7.2 0-3.314.023-12.434.046-20.297.023-7.84-.023-14.491-.114-14.743a1.197 1.197 0 0 1 .091-.891c.206-.32.206-.549-.023-.915-.16-.251-.205-.502-.091-.571.16-.114.229-23.177.069-25.92-.023-.571-.092-.64-.389-.388-.206.182-.48.205-.731.068-.343-.206-.343-.251 0-.526.205-.182.548-.274.777-.205.411.091.434-.686.434-14.492 0-8.045-.091-14.605-.206-14.605-.091 0-.114-.137 0-.297.297-.503.297-52.114-.023-52.32-.137-.091-.754-.183-1.371-.183-.914 0-1.211-.114-1.6-.617l-.48-.594-.091.548zM416.46 5.93c-.091.068-.297.091-.457.023-.206-.092-.137-.138.137-.16.252 0 .389.045.32.137zm21.897 16.64a.254.254 0 0 1-.251.251c-.137 0-.183-.114-.114-.251.091-.115.205-.229.251-.229.069 0 .114.114.114.229zM242.038 39.23c0 .046-.16.16-.365.229-.183.091-.343.046-.343-.092 0-.114.16-.228.343-.228.205 0 .365.046.365.091zm-91.793 10.217c.343.16.091.229-.846.229-.937 0-1.189-.069-.846-.229.275-.091.64-.205.846-.205.206 0 .571.114.846.205zm94.125-.091c-.069.091-.274.091-.457.023-.183-.069-.137-.137.137-.137.251-.023.411.045.32.114zm-96.89 2.491l.593.206h-.594c-.32 0-.823-.091-1.074-.206l-.48-.205.48.023c.251 0 .754.091 1.074.182zm-121.326 1.44c.092.138.046.252-.091.252a.254.254 0 0 1-.252-.252c0-.114.046-.228.092-.228.068 0 .183.114.251.228zm212.616.389c.868.114 1.348.434 2.788 1.783.938.914 1.692 1.806 1.623 1.966-.183.548-1.005.48-1.943-.16-.502-.32-1.028-.618-1.188-.618-.457 0 1.326 1.715 2.171 2.08.435.183.777.435.777.549 0 .434 1.646 1.234 3.132 1.531 1.417.275 2.263.892 1.28.892-.389 0-.389.045-.092.228.252.16.252.252.069.252s-.297.228-.297.503c0 .48.091.502 1.371.411.869-.069 1.92-.366 2.88-.823 1.143-.548 1.6-.663 1.852-.48.411.297 1.325 2.012 1.325 2.469 0 .228.366.32 1.075.32.594 0 1.097.023 1.097.068 0 .046.114.709.251 1.463.183 1.006.183 1.463-.023 1.714-.182.206-.182.366-.022.458.16.091.274.388.274.662 0 .275.183.846.434 1.258.594.96.823 2.08.8 3.771-.023 1.486-.343 2.263-1.463 3.543-.388.457-.777 1.097-.868 1.417-.137.571-.663 1.234-.96 1.234-.069 0-.069-.663.023-1.485.297-2.858.297-2.835-1.532-6.263-1.051-1.943-2.926-3.772-3.886-3.772-.274 0 1.418 2.286 2.698 3.68.365.389.594.8.525.915-.183.297-.983-.343-2.491-2.012-.754-.8-1.714-1.554-2.423-1.874-1.463-.663-2.263-1.783-2.08-2.926.16-1.12-.434-2.354-1.531-3.108-.526-.366-1.075-.663-1.258-.663-.16 0-.571-.183-.891-.412-.777-.548-5.714-.663-6.674-.16-.343.183-.823.32-1.052.32-.228 0-.411.183-.411.389 0 .206-.366.526-.8.708-.846.366-3.063 1.715-4.046 2.492-.365.274-.8.503-1.005.503-.206 0-.983.548-1.76 1.188-.778.663-1.852 1.417-2.423 1.692-.549.274-1.646.96-2.423 1.554-.8.594-1.509 1.074-1.623 1.074-.366 0-1.76 1.097-1.76 1.395 0 .16-.434.594-.96.96-.503.365-1.074.937-1.257 1.257-.16.32-.549.868-.869 1.188-.594.64-.617 1.28-.022 1.395.41.09 3.337-2.56 3.337-3.018 0-.228.8-1.028 2.628-2.628a92.213 92.213 0 0 0 1.577-1.394c.526-.458 1.326-.938 1.806-1.052.457-.137 1.097-.48 1.44-.777 1.097-1.006 3.177-2.217 5.394-3.109 1.075-.434 3.452-.96 5.029-1.097 1.828-.137 3.017-.594 3.017-1.165 0-.412-.069-.412-1.714-.092-.709.137-1.6.183-1.966.092-.64-.138-.663-.183-.297-.572.457-.503 3.634-.914 4.023-.526.137.138.548.183.937.115.388-.092 1.005.023 1.508.251.435.206.983.32 1.166.252.891-.343 1.851 1.485 1.851 3.428 0 .572.115 1.029.252 1.029.114 0 .228.205.228.457 0 .274.275.571.709.731.686.297 1.623 1.12 5.326 4.709 1.691 1.646 1.897 2.126 1.874 4.274-.023 1.052-.046 1.166-.274.686-.16-.297-.412-.549-.595-.549-.205 0-.274.115-.205.252.183.274-.503 3.2-.96 4.068-.16.343-.435 1.052-.595 1.577-.16.526-.594 1.349-.982 1.829l-.686.868.503.343c.434.297.457.412.205.8-.274.48-2.262 1.555-2.834 1.555-.411 0-.366-.64.114-1.463.343-.549.366-.755.115-1.006-.252-.229-.389-.183-.755.297-.251.343-.48.732-.48.892 0 .16-.502.845-1.12 1.508-1.051 1.143-1.508 1.394-3.634 1.92l-.8.206.16-1.303c.137-1.097.114-1.303-.228-1.303-.206 0-.366-.068-.366-.183 0-.091-.343-.388-.754-.617-.389-.228-.663-.503-.595-.571.343-.343-.914-.709-1.645-.48-1.92.594-2.08.708-2.012 1.348.046.412.252.663.549.709.937.137 1.6.617 1.486 1.051-.07.252.045.48.342.572.252.068.458.228.458.343 0 .114.228.251.525.274.823.137.777.594-.091.96-.549.228-1.806.32-4.023.32-2.766 0-3.474-.069-4.754-.526-.823-.297-1.715-.548-1.966-.548-.777 0-1.623-1.578-2.034-3.84-.206-1.12-.297-2.286-.206-2.606.114-.48.069-.549-.343-.412-.32.092-.548.023-.64-.205-.068-.206-.297-.389-.503-.389-.205 0-.297-.137-.205-.343.068-.205.022-.365-.115-.365-.845 0-.045-2.606.983-3.155.297-.16 1.052-.777 1.669-1.394 1.005-.983 1.371-1.166 2.674-1.417 1.669-.297 3.863-1.189 4.937-1.989.594-.434.937-.502 2.263-.388.983.068 1.851.32 2.377.64.526.32 1.211.503 1.874.503h1.052l-.595-.48c-.32-.252-.708-.48-.868-.48-.137 0-.572-.16-.96-.343-.777-.389-3.337-1.097-3.954-1.097-.229 0-.457-.137-.526-.297-.069-.206-.571-.069-1.691.525-.892.457-1.6.892-1.6.96 0 .137-.869.595-2.492 1.303-1.166.503-2.811.709-3.268.412-.412-.275-.48-.229 1.325-1.212 3.36-1.851 3.772-2.286 1.577-1.554-1.691.548-5.051 2.514-5.645 3.314l-.48.64.663.617c.731.663.8 1.6.114 1.715-.206.045-.8-.275-1.303-.71l-.891-.8.16.778c.114.594.068.777-.183.777-.183 0-.389.183-.457.366-.092.229-.48.366-1.052.366-.503 0-1.143.068-1.44.16-.457.114-.503.205-.274.617.137.251.183.525.114.594-.206.206-.868-.411-.868-.777 0-.183-.206-.389-.48-.48-.275-.069-.48-.251-.48-.366 0-.114.868-.983 1.92-1.943 1.051-.982 1.92-1.897 1.92-2.08 0-.182.868-1.188 1.92-2.24 1.051-1.051 1.92-1.965 1.92-2.011 0-.069-.206-.114-.48-.114-.275 0-.48.091-.48.228 0 .115-.206.297-.48.366-.275.091-.48.32-.48.503s-.092.343-.183.343c-.115 0-1.006.823-1.989 1.828-.983.983-1.988 1.989-2.24 2.217-2.08 1.829-2.674 2.126-3.268 1.646-.526-.411-.96-1.6-.869-2.4.069-.457-.046-.731-.366-.914-.754-.389-.548-1.28.458-2.034.502-.366 1.21-.96 1.577-1.326.388-.366 1.188-.892 1.805-1.189.617-.297 1.395-.685 1.76-.868.343-.183.777-.32.96-.32.183 0 1.212-.595 2.24-1.326 1.052-.709 2.263-1.371 2.675-1.463.411-.068 1.051-.457 1.44-.846l.685-.708-.731.366c-.389.205-1.12.365-1.623.365-.594 0-1.189.206-1.691.595-.412.32-1.189.754-1.715.96-.525.228-1.143.617-1.348.891-.709.937-.915.366-.32-.869.32-.64.594-1.257.594-1.371 0-.48-.549-.114-1.143.754-.503.732-.823.96-1.348.96a3.12 3.12 0 0 0-1.166.275c-.411.228-.571.205-.823-.138-.183-.251-.343-.297-.434-.137-.092.137-.343.252-.572.252-.228 0-.708.32-1.097.708-.365.412-.823.732-1.005.732-.458 0-.435-.823.022-1.28.48-.503.458-.64-.137-.64-.274 0-.457-.092-.411-.183.046-.092.32-.663.594-1.257.274-.595.823-1.395 1.234-1.806.869-.846.938-1.074.275-1.074-.686 0-.595-.64.16-1.326.343-.343.571-.663.503-.731-.206-.206-1.555.548-1.692.96-.091.182-.388.48-.663.64-.525.251-.525.228-.388-.503.091-.412.365-1.075.64-1.44.274-.366.48-.8.48-.937 0-.138.16-.458.365-.686.206-.229.732-.937 1.143-1.6.823-1.211 2.834-2.514 3.932-2.537.297 0 .548-.114.594-.252.046-.137.48-.342.937-.457a24.637 24.637 0 0 0 2.263-.731 23.254 23.254 0 0 1 6.468-1.326c1.029-.046 1.92-.137 1.943-.16.137-.137 7.84.023 8.846.183zm-94.377.617c-.594.206-1.074.069-.891-.251.069-.115.411-.137.777-.069.64.114.64.114.114.32zm3.337-.046c0 .298-.342.298-1.21 0-.527-.16-.504-.182.296-.205.503-.023.914.091.914.205zm-5.53.48c0 .138-.115.252-.23.252a.254.254 0 0 1-.25-.252c0-.114.113-.228.25-.228.115 0 .23.114.23.228zm102.376.572c.251.183.731.411 1.074.526.32.09 1.188.525 1.92.96.708.41 1.874.96 2.583 1.188.685.229 1.783.709 2.4 1.051l1.12.64-.709.07c-1.28.16-3.566-.458-5.28-1.418-1.897-1.051-4-2.583-4.137-3.04-.137-.389.434-.389 1.029.023zm-182.285.868c0 .138-.069.252-.114.252-.069 0-.183-.114-.252-.252-.091-.114-.045-.228.092-.228s.274.114.274.228zm66.72 2.56c.571.343.548.343-.435.206-.663-.114-1.005-.069-1.005.114 0 .137-.412.252-.915.229l-.891-.023.823-.206c.457-.091.868-.297.914-.457.137-.343.777-.297 1.509.137zm2.445.48a.884.884 0 0 1-.594 0c-.16-.045-.023-.114.297-.114s.457.069.297.114zm74.4.252c-.16.068-.48.068-.709 0-.228-.046-.114-.115.297-.115.389 0 .572.046.412.115zm49.257 2.468c.091.137 0 .183-.229.115-.411-.16-.48-.343-.137-.343.114 0 .297.114.366.228zm-116.64.252c.572.137.435.183-.708.205-.8 0-1.669-.091-1.92-.205-.617-.275 1.6-.275 2.628 0zm-21.234 2.628c0 .137-.297.252-.663.252-.502 0-.571-.069-.297-.252.48-.297.96-.297.96 0zm-41.942.16c-.16.069-.48.069-.709.023-.228-.068-.114-.114.297-.114.389-.023.572.046.412.091zm44.114.092a.229.229 0 0 1-.229.228.505.505 0 0 1-.388-.228c-.069-.137.022-.252.228-.252.206 0 .389.115.389.252zm-8.96.411c.068.183-.092.297-.366.297-.663 0-1.234-.228-1.234-.503 0-.342 1.485-.137 1.6.206zm94.742.617c.663.526.983 1.006 1.051 1.486.046.389.16.823.275.96.205.251.183 1.44-.092 5.257-.091 1.394-.228 1.966-.503 2.126-.205.114-.365.434-.365.731s-.16.8-.343 1.12a69.635 69.635 0 0 0-1.052 2.057c-.388.8-.868 1.578-1.097 1.76-.205.183-.388.457-.388.595-.023.16-.275.594-.595.982-.617.755-1.325.71-1.325-.09 0-.252-.115-.527-.229-.618-.137-.069-.251-.32-.251-.549-.023-.662-.777-1.417-1.6-1.6-.663-.137-.777-.068-.937.389-.092.32-.229.617-.32.686-.298.228-.96 2.651-.823 2.994.137.388.388.457.64.206.274-.275 1.577-.32 1.714-.069.091.114.366.229.594.229.32 0 .503.228.617.731.138.617.046.891-.525 1.509-.366.411-.755.8-.869.845-.091.046-.16.206-.16.389 0 .366-1.028.594-2.743.64-1.531.023-2.445.274-2.354.663.023.16-.046.685-.183 1.143-.206.754-.16.845.389 1.051.32.137.868.229 1.188.229.96 0 .96.662 0 1.554-.48.434-.868.891-.868 1.028 0 .115-.252.503-.572.846-.32.343-.663.96-.754 1.372-.091.388-.251.708-.343.708-.114 0-.274.343-.365.732-.092.388-.252.777-.39.845-.113.092-.502.732-.845 1.44-.365.732-.777 1.303-.937 1.303-.16 0-.434.16-.594.366-.229.274-.8.343-2.834.251-4.686-.183-4.686-.183-3.658.823.8.777 1.829 1.074 2.88.846.96-.206 1.189.32.275.64-.503.16-.663.343-.572.617.115.274.366.343 1.189.228 1.166-.16 1.211-.114.617.572-1.189 1.371-1.623 1.691-2.194 1.623-.617-.069-.663-.206-.389-.937.092-.252 0-.458-.274-.549-1.692-.594-1.852-.617-2.286-.229-.274.252-.526.32-.64.183-.228-.274-.731-2.514-.823-3.68-.023-.525-.228-.914-.525-1.074-1.189-.663-1.235-1.668-.138-2.423.412-.274.732-.731.8-1.188.069-.412.64-1.623 1.258-2.72.822-1.44 1.051-2.057.891-2.286-.183-.206-.16-.434.091-.754.366-.526.458-1.829.115-1.829-.137 0-.343.206-.48.434-.206.32-.252.343-.252.046-.023-.503.846-1.851 1.92-2.971.526-.549 1.189-1.44 1.486-2.035.297-.571.891-1.325 1.326-1.668.434-.343.777-.709.777-.777 0-.252-1.12-.48-1.509-.32-.48.183-.96 1.234-.617 1.348.252.092-1.623 2.103-1.943 2.103-.434 0-.411-.343.069-1.166 1.006-1.577.983-1.53.434-1.348-.274.091-.503.114-.503.091 0-.045.092-.457.229-.937a15.1 15.1 0 0 0 .366-1.554c.205-1.166.617-2.08 1.6-3.451.502-.709.914-1.555.914-1.875 0-1.074 1.486-2.971 4.183-5.28.685-.594 1.417-1.028 1.737-1.028 1.028 0 1.76-.549 3.36-2.446.365-.457.937-.709 1.92-.914.777-.16 1.828-.435 2.354-.617.937-.32 1.577-.412 3.131-.526.503-.023 1.006.206 1.669.731zm6.354-.411c-.16.183-.343.297-.411.251-.16-.183.183-.64.457-.64.16 0 .16.16-.046.389zm54.126-.137c.411.183.365.205-.298.228-.434 0-.777-.091-.777-.228 0-.275.412-.275 1.075 0zm-111.36.983c-.16.228-1.783.182-1.783-.069 0-.114.412-.183.938-.16.525.023.891.114.845.229zM355.09 66.5c0 .137-.114.228-.251.228s-.229-.091-.229-.228.092-.252.229-.252.251.115.251.252zm-84.48 1.668c0 .137-.708.252-1.622.252-1.143 0-1.532-.069-1.257-.252.457-.297 2.88-.297 2.88 0zm-136.593.412c.252.205-.845.045-1.165-.16-.275-.183-.183-.206.342-.092.412.092.778.206.823.252zm142.468.068c-.091.137-.526.252-.983.252-.457 0-.823-.115-.823-.252 0-.114.435-.228.983-.228.572 0 .914.091.823.228zm-62.605 2.08c-.069.092-.252.069-.412-.045-.205-.115-.205-.206.046-.366.32-.206.64.16.366.411zm-132.32.732c.092.091-.068.32-.365.525-.343.229-1.189.366-2.697.389-2.377.046-3.063.229-2.857.754.09.229-.046.32-.48.32-.412 0-.663-.16-.778-.503-.205-.64.206-.914 1.372-.914.48 0 1.006-.183 1.166-.366.228-.274.822-.365 2.4-.365 1.142 0 2.148.068 2.24.16zm15.635.068c-.069.137-.297.252-.48.252a.628.628 0 0 1-.48-.252c-.069-.114.137-.228.48-.228.365 0 .571.114.48.228zm-7.863.8c-.046.16-.412.297-.8.32-.96.023-1.303-.205-.572-.411.983-.274 1.486-.252 1.372.091zm3.428.16c.275.183.206.252-.297.252-.365 0-.663-.115-.663-.252 0-.297.48-.297.96 0zm51.314 0c.229.115.618.297.892.389.457.183.457.183-.046.274-.686.114-2.468-.366-2.468-.663 0-.297 1.074-.297 1.622 0zm-72.913.846c.251.297.228.366-.069.366-.183 0-.48-.16-.64-.366-.251-.297-.251-.366.046-.366.205 0 .503.183.663.366zm197.987-.183c0 .114-.503.206-1.12.206-.777.023-1.006-.023-.663-.16.617-.252 1.806-.274 1.783-.046zm-6.354 1.029c.091.137.045.228-.092.228a.505.505 0 0 1-.388-.228c-.069-.137-.046-.252.091-.252s.32.115.389.252zm-174.49.274c.936.434.776.914-.275.937-.503.023-1.646.046-2.537.069-.914.023-1.692 0-1.737-.092-.115-.183 1.303-.891 2.057-1.028 1.166-.183 1.897-.16 2.491.114zm191.107 1.303c.297.068.548.228.548.366 0 .182-.274.205-.891.068-.503-.114-1.646-.206-2.537-.206-.892 0-1.6-.022-1.6-.045 0-.046.343-.16.777-.275.731-.182 2.56-.137 3.703.092zm-142.49.686c0 .251-.458.365-.595.137-.092-.137.023-.252.228-.252.206 0 .366.069.366.115zm-62.629.365c-.206.137-.64.252-.96.252-.48 0-.526-.046-.251-.252.205-.114.64-.228.96-.228.48 0 .525.045.251.228zm222.353.366l1.44.32-1.074.023c-1.578.023-2.995-.252-2.606-.48.388-.252.48-.252 2.24.137zm-229.553.114c.297.206.297.252-.069.252-.205 0-.457-.115-.548-.252-.183-.297.137-.297.617 0zm2.446.046c-.206.206-.435.229-.823.023-.526-.252-.503-.274.274-.274.64-.023.754.045.549.251zm141.782.274c1.097.343 1.394 1.143.365.96-.342-.068-.594-.228-.594-.365 0-.138-.183-.16-.411-.092-.435.183-1.097-.274-.915-.594.183-.297.412-.274 1.555.091zm-2.972 1.257c1.349 1.395 1.44 1.76.777 3.063-.182.32-.114.412.32.434.435.023.458.07.115.138-.229.068-.412.297-.389.525.023.206.023.457 0 .503-.091.229-.251 1.097-.343 1.669-.045.343-.297.685-.571.823-.274.114-.549.525-.64.937-.069.411-.594 1.165-1.166 1.714-1.257 1.234-3.291 3.794-3.291 4.183 0 .16-.16.274-.366.274-.183 0-.343.114-.343.206 0 .343-4.731 4.846-5.074 4.846-.114 0-.183.114-.16.251.046.16-.16.389-.412.549-.274.16-.845.571-1.28.937-.434.365-.96.663-1.165.663-.229 0-.32-.069-.252-.16.092-.092.046-.298-.114-.48-.411-.503.251-2.903 1.051-3.818.64-.731 1.189-1.805 1.258-2.514.091-.8.754-1.943 1.211-2.057.274-.069.64-.411.8-.754.16-.366.594-1.006 1.006-1.417.388-.435.731-.846.731-.915 0-.068.526-.983 1.189-2.057.663-1.051 1.211-1.966 1.211-2.057 0-.297 4.183-6.811 4.389-6.811.114 0 .777.594 1.508 1.325zm-112.73-.731l.845.183-.594.32c-.503.251-.846.251-2.034-.023-1.303-.32-1.463-.32-1.737.069-.183.25-.663.41-1.258.41-1.211.047-1.234-.228-.068-.593.503-.16 1.006-.389 1.097-.48.251-.229 2.606-.137 3.749.114zm84.845-.137c.068.114.068.251 0 .32-.183.183-1.052-.069-1.052-.32 0-.274.869-.274 1.052 0zm-73.417.251c.091.16-.206.252-.777.229-.892-.023-.892-.046-.183-.229.389-.091.731-.183.754-.205.023 0 .115.091.206.205zm170.879 0c.297.137.343.229.114.229-.205 0-.571-.114-.845-.229-.298-.114-.343-.205-.115-.205.206 0 .572.114.846.205zm-245.873.48c0 .137-.617.229-1.394.206l-1.371-.023 1.074-.183c1.646-.251 1.691-.251 1.691 0zm9.6 0c0 .32-1.691.32-2.171 0-.252-.16 0-.228.891-.228.709 0 1.28.114 1.28.228zm-16.091.115c0 .228-.709.342-.846.137-.068-.137.069-.252.343-.252s.503.046.503.115zm47.771.137c.297.183.274.228-.137.228-.252.023-1.029.092-1.692.16-1.028.115-1.211.092-1.211-.228s.251-.389 1.326-.389c.731 0 1.508.092 1.714.229zm2.994.228c.069.137.023.252-.114.252a.254.254 0 0 1-.251-.252c0-.114.045-.228.114-.228.046 0 .16.114.251.228zm3.886-.091c-.069.091-.274.091-.457.023-.183-.069-.137-.137.137-.137.251-.023.411.045.32.114zm-44.8.548c0 .206-1.143.503-1.874.503-.572 0-.16-.274.708-.48 1.098-.251 1.166-.251 1.166-.023zm9.829.023c0 .137-.32.252-.709.252-.411 0-.731-.115-.731-.252 0-.114.32-.228.731-.228.389 0 .709.114.709.228zm207.976.663c-.252.274-.389-.091-.206-.548.16-.435.183-.435.251-.023.069.251.046.503-.045.571zm-164.8-.388c.412.16.71.32.663.388-.228.206-5.44.343-5.44.137 0-.663 3.338-1.028 4.778-.525zm-55.77.205c-.092.137-.252.252-.39.252-.113 0-.205-.115-.205-.252 0-.114.16-.228.366-.228s.297.114.228.228zm42.24 0c-.092.137-.526.252-.96.252-.458 0-.892-.115-.96-.252-.092-.137.274-.228.96-.228.662 0 1.05.091.96.228zm203.084-.091c-.069.091-.275.091-.457.023-.183-.069-.138-.137.137-.137.251-.023.411.045.32.114zM58.93 80.42c0 .137-.114.228-.251.228-.138 0-.229-.091-.229-.228s.091-.252.229-.252c.137 0 .251.115.251.252zm360.706 0c0 .137-.114.228-.251.228s-.183-.091-.114-.228c.091-.137.205-.252.251-.252.069 0 .114.115.114.252zm-319.563.96c.388.16.274.205-.48.228-.709 0-.869-.068-.595-.228.412-.275.458-.275 1.075 0zm112.913.548c.915 1.372 1.486 2.789 1.577 3.772.069.731.275 1.211.64 1.508.48.412.526.663.549 3.017 0 1.806-.092 2.72-.343 3.155-.206.32-.32.731-.297.868.023.137-.114.412-.32.572-.183.16-.343.434-.343.594 0 .183-.183.366-.366.457-.205.069-.365.274-.365.434 0 1.006-3.909 5.532-7.703 8.937-1.006.915-3.452 2.537-3.817 2.537-.092 0-.366.206-.595.48-.251.275-.685.48-.96.48-.297 0-.777.206-1.074.48-.32.275-.891.48-1.303.48-.411 0-1.188.069-1.714.138-.846.091-.777.045.663-.549.891-.366 1.623-.754 1.623-.869 0-.251-1.509.069-1.692.343-.068.115-.617.275-1.188.366-.595.091-1.92.48-2.949.846-1.005.365-1.851.571-1.851.434 0-.32.503-.526 3.908-1.554 3.2-1.006 3.497-1.463.8-1.235-1.691.16-3.154.572-4.502 1.258-.39.205-.892.342-1.12.274-.252-.046.068-.32.914-.754.731-.366 1.485-.8 1.691-.983.183-.16 1.326-.549 2.514-.846 1.395-.343 2.332-.709 2.629-1.051.274-.298 1.44-.96 2.583-1.509 1.851-.891 3.131-1.988 2.766-2.354-.069-.069-.686.137-1.418.48-.708.32-1.508.594-1.782.594-.275 0-.709.229-.938.48-.251.274-.571.48-.731.48-.16 0-.434.183-.594.366-.16.206-.48.366-.686.343-.343 0-.343-.023-.023-.183.206-.092.572-.343.846-.572 1.12-1.028 2.857-2.4 3.908-3.085.618-.412 1.372-1.075 1.646-1.486.297-.434.777-1.074 1.074-1.417.892-1.12.343-.96-1.257.366a84.345 84.345 0 0 1-2.171 1.714c-.343.274-1.006.777-1.44 1.12-.457.343-1.074.708-1.372.8-.548.16-.548.16-.16-.434.206-.343.343-.732.252-.846-.069-.137-.046-.274.068-.32.458-.16 2.446-2.72 2.332-2.994-.092-.252.594-1.166 3.268-4.275 3.429-3.977 4.183-5.005 4.755-6.24.365-.8.845-2.148 1.074-3.017.229-.846.457-1.691.503-1.851.046-.183.503-.297 1.12-.297.8 0 1.097.114 1.371.548zm-106.72-.16c-.16.069-.48.069-.73.023-.23-.069-.092-.114.297-.114.411-.023.594.045.434.091zm-77.21.503c1.166.389 1.166.389.503.571-.732.206-1.349.07-1.349-.297 0-.137-.228-.183-.48-.091-1.005.32-1.6.343-2.468.114-.503-.137-.846-.343-.777-.48.228-.366 3.291-.251 4.571.183zm67.84-.251c-.16.068-.48.068-.709 0-.229-.046-.114-.115.297-.115.389 0 .572.046.412.115zm191.198.228c.206.183-.114.274-1.234.389-1.234.137-1.486-.069-.594-.48.457-.229 1.531-.16 1.828.091zm-245.85.092c.069.137-.022.228-.228.228-.183 0-.412-.091-.503-.228-.069-.138.023-.252.229-.252.182 0 .411.114.502.252zm236.456-.092c-.091.069-.297.092-.457.023-.206-.091-.137-.137.137-.16.252 0 .389.046.32.137zm1.737.092c.275.182.115.228-.548.228-.549 0-.869-.091-.777-.228.182-.298.845-.298 1.325 0zm-215.633.891c.412.251.435.343.115.549-.48.297-1.326.297-2.515-.023l-.96-.275.686-.548c.617-.48.777-.503 1.44-.274.411.16.96.411 1.234.571zm44.526-.64c0 .251-1.577.457-3.246.457-1.303 0-1.394-.046-1.006-.343.48-.343 4.252-.457 4.252-.114zm111.222-.046c.274.115.366.252.183.366-.252.16-1.486-.206-1.486-.434 0-.183.731-.137 1.303.068zm50.697.046c2.583-.297 4.868-.32 4.868-.046 0 .275-2.4.526-4.891.503-2.103 0-3.017-.16-3.017-.503 0-.114.205-.114.457.023.32.183 1.12.183 2.583.023zm-231.062.503c.595.228.595.251.137.594-.708.549-4.914.206-4.914-.411s3.292-.732 4.777-.183zm123.017-.069c.937.252.937.252-.252.115-.663-.069-1.623-.138-2.148-.115-.732.023-.869-.023-.595-.205.366-.275 1.418-.183 2.995.205zm-144.594.023c.32.229.32.252 0 .229-.205 0-.594-.115-.845-.229l-.48-.206h.48c.251 0 .64.092.845.206zm141.12 0c0 .137-.23.252-.48.252-.275 0-.48-.115-.48-.252 0-.114.205-.228.48-.228.25 0 .48.114.48.228zm-143.04.366c0 .251-.274.366-.914.388-.503 0-1.211.046-1.6.092-1.029.137-.411-.274.823-.549 1.531-.343 1.691-.32 1.691.069zm126.88-.206c-.07.069-.275.092-.458.023-.182-.091-.137-.137.138-.16.25 0 .41.046.32.137zm149.347.434c0 .618-5.714 1.28-5.943.686-.068-.228.252-.297 1.189-.297.708 0 1.806-.137 2.468-.343 1.578-.457 2.286-.48 2.286-.046zm-182.399.252c.137.183.709.366 1.257.411 1.029.069 1.28.32.938.892-.229.32-.755.251-3.269-.457-.526-.138-1.12-.275-1.326-.275-.708 0-1.44-.228-1.44-.434s.572-.297 2.903-.457c.366-.023.777.114.937.32zm-18.651.411c.503.275.457.32-.549.457-.594.092-1.691.275-2.445.435-.96.205-1.783.205-2.835.045-.8-.137-1.6-.182-1.782-.114-.183.069-.389.023-.458-.091-.091-.137 1.075-.297 2.698-.366 1.554-.091 3.108-.274 3.405-.389.8-.32 1.372-.32 1.966.023zm230.879.503c.754.343 1.371.754 1.371.914 0 .252-.869.092-1.326-.274-.617-.48-5.074-1.051-5.303-.686-.068.138.023.252.183.298.183.045 1.029.32 1.897.594.846.297 1.783.526 2.058.526.548 0 1.462.868 1.211 1.12-.114.114-.526 0-.96-.206-1.303-.663-1.646-.732-4.366-.8-2.651-.092-4.457.183-6.263.983-1.097.503-1.462.434-.937-.137.252-.275.572-.48.732-.48.16 0 .548-.206.891-.48.32-.252 1.12-.595 1.76-.755.663-.16 1.463-.48 1.783-.708.823-.572 1.463-.663 3.84-.617 1.646.045 2.309.182 3.429.708zm-246.902-.32c.435.183.412.229-.251.48-1.006.412-1.783.48-2.834.252-1.052-.229-1.235-.343-1.006-.709.183-.297 3.36-.32 4.091-.023zm-54.102.503c-.503.411-1.463.663-1.463.343 0-.137 1.463-.8 1.806-.8.137-.023-.023.183-.343.457zm9.097.114c.32.389.206.435-.709.366-.777-.069-1.028-.229-.845-.503.228-.366 1.234-.274 1.554.137zm186.97.412c.503.845.617 1.988.229 2.217-.275.16-.8-.937-1.075-2.217-.114-.503-.068-.777.092-.777s.48.342.754.777zm-188.89-.435c0 .252-.457.366-.594.138-.092-.138.022-.252.228-.252.206 0 .366.069.366.114zm227.198.435c.823.297 1.143 1.143.435 1.143-.183 0-.343-.092-.343-.229 0-.114-.389-.343-.846-.503-.48-.137-.8-.366-.708-.48.182-.297.502-.297 1.462.069zm49.76-.206c0 .229-.708.343-.846.137-.068-.114.069-.228.343-.228.275 0 .503.045.503.091zm-268.798.64c.365.571-1.006 1.006-1.577.503-.183-.16-1.578-.503-3.337-.846-.275-.046.685-.068 2.102-.046 1.943.046 2.652.138 2.812.389zm9.6-.137c-.686.388-1.92.48-1.92.137 0-.229.685-.411 1.805-.457l.709-.023-.594.343zm175.496.114c.068.252.023.549-.115.686-.137.16-.045.64.275 1.371.868 1.943.525 2.103-.983.457-1.212-1.325-1.486-1.897-1.143-2.514.343-.64 1.806-.663 1.966 0zm-181.965 0c-.343.229-2.148.114-2.377-.114-.069-.069.526-.114 1.303-.114.983 0 1.303.068 1.074.228zm-22.194.297c.069.092-.229.32-.663.549-.891.48-3.131.503-4.571.068-.96-.274-1.303-.822-.366-.571 1.531.411 2.354.457 2.354.091 0-.297.297-.365 1.532-.32.868.023 1.623.115 1.714.183zm159.222-.045c0 .137-.594.228-1.303.228-.731 0-1.371-.091-1.463-.228-.091-.16.412-.252 1.303-.252.823 0 1.463.114 1.463.252zm-111.45.48c.182 0 .342.114.342.251 0 .297-1.691.046-2.057-.32-.16-.16.023-.183.571-.091.457.091.96.16 1.143.16zm158.49.228c0 .137-.046.252-.115.252-.045 0-.16-.115-.251-.252-.069-.114-.023-.228.114-.228s.252.114.252.228zm76.09.526c0 .434-.068.457-.388.206-.297-.252-.297-.366-.046-.526.412-.252.435-.252.435.32zm-2.4-.046c.252.183.16.252-.434.252-.434 0-.777-.115-.777-.252 0-.297.732-.297 1.212 0zm5.76.274c0 .275-.89.275-1.074 0-.068-.114-.068-.251 0-.32.183-.182 1.075.069 1.075.32zm-151.267-.114c-.092.069-.297.092-.457.023-.206-.091-.137-.137.137-.16.251 0 .388.046.32.137zm123.085.092c.868.342.571.548-.937.64-.686.022-1.897.114-2.697.182-1.28.092-1.349.092-.595-.137a29.518 29.518 0 0 0 1.692-.571c1.051-.389 1.714-.412 2.537-.114zM22.93 87.87c.457.114-1.097.434-2.24.457-1.394.023-1.897-.366-.708-.548.548-.069 2.514-.023 2.948.091zm34.377.16c.366.183.777.274.892.183.137-.069.251-.046.251.091 0 .297-1.989.503-2.286.229a1.15 1.15 0 0 0-.594-.206c-.206 0-.594-.16-.846-.366-.457-.342-.411-.365.709-.32.663.023 1.508.206 1.874.389zm231.359-.251c-.16.068-.48.068-.732 0-.228-.046-.091-.115.297-.115.412 0 .595.046.435.115zm27.748.411c-.777.411-3.337.709-3.337.389 0-.298 1.234-.618 2.743-.663 1.143-.046 1.188-.046.594.274zM41.4 88.305c0 .252-1.28.755-1.875.755-.525 0-.205-.229.846-.618 1.12-.388 1.029-.388 1.029-.137zm175.313.023c.091.137.046.252-.092.252-.137 0-.297-.115-.388-.252-.069-.114-.046-.228.091-.228s.32.114.389.228zm-94.422.48c0 .137-.115.252-.229.252s-.411.068-.663.137c-.411.137-.411.114.023-.229.526-.434.869-.503.869-.16zm-76.16.183a2.486 2.486 0 0 1-.823 0c-.228-.069-.045-.114.412-.114.457 0 .64.045.411.114zm30.72-.023c-.069.069-.274.092-.457.023-.183-.091-.137-.137.137-.16.251 0 .411.046.32.137zm140.822.229c.274.205.503.594.526.891 0 .297.045 1.12.091 1.852.023.731.137 1.485.229 1.668.114.206.251.8.342 1.303.32 1.989.366 2.194 1.349 4.411.297.686.64 1.258.754 1.258.115 0 .206.182.206.411 0 .229.526.8 1.189 1.257 1.142.823 1.394 1.28 1.005 1.829-.251.388-1.143.822-1.668.822-.64 0-1.646 1.098-1.189 1.28.183.07.412.48.503.892.137.708.046.891-1.051 1.943-1.303 1.257-1.349 1.714-.229 2.103.8.274.846.434.343 1.165-.32.457-.32.617-.023 1.349.32.754.32.868-.069 1.211-.525.48-2.582.823-5.302.892-2.56.068-5.189-.526-6.217-1.44-2.675-2.355-2.492-2.24-3.52-2.103-1.166.16-2.195-.366-1.532-.8.183-.137.503-.252.709-.252.388 0 2.88-2.08 2.88-2.4 0-.114.457-.662 1.028-1.234 1.006-1.028 1.395-1.531 2.515-3.291.571-.914.777-1.303 1.302-2.606.16-.434.366-.8.458-.8.068 0 .594-.96 1.165-2.148.572-1.189 1.189-2.172 1.372-2.172.594 0 2.354-.937 2.651-1.417.434-.663 0-.8-.731-.251-.778.617-.96.32-.549-.869.617-1.714.914-3.474.754-4.297-.16-.914-.023-1.006.709-.457zm52.091-.137a.505.505 0 0 1-.389.228c-.114 0-.205-.091-.205-.228 0-.138.16-.252.365-.252.206 0 .298.114.229.252zm-255.427.525c-.137.115-.549.137-.914.046l-.709-.183.617-.16c.732-.183 1.303-.023 1.006.297zm60.365.115c.092.274-1.165.502-3.634.617-1.303.068-1.783-.389-.823-.777.777-.32 4.343-.183 4.457.16zm225.05-.16c.092.137-.068.228-.32.228-.274 0-.548-.091-.64-.228-.068-.138.069-.252.343-.252.252 0 .549.114.617.252zm-200.387.228c.274.48-3.04.869-3.771.457-.526-.297-.526-.32.411-.457 1.554-.251 3.2-.251 3.36 0zm-61.897.617c.412.389.32.435-.754.366-.846-.069-.937-.137-.731-.48.228-.366 1.074-.32 1.485.114zm260.502.183c.365.137.457.274.274.343-.412.16-2.446-.457-2.286-.709.114-.182.96-.045 2.012.366zm-267.107.046c.457.183.663.366.457.388-1.006.115-3.589.092-3.589-.045 0-.115 1.166-.48 2.172-.663.091-.023.525.114.96.32zm190.421-.114c.069.137.046.228-.091.228a.471.471 0 0 1-.389-.228c-.091-.138-.045-.252.092-.252s.297.114.388.252zm50.514.228c0 .137-.32.252-.708.252-.412 0-.732-.115-.732-.252 0-.114.32-.228.732-.228.388 0 .708.114.708.228zm13.097.297c-.205.137-.571.183-.8.137-.342-.091-.297-.16.183-.365.709-.275 1.212-.092.617.228zM41.171 90.98c0 .297-1.623.32-1.783.045-.068-.114.297-.228.823-.251.526-.023.96.068.96.206zm33.28-.092c-.069.069-.274.092-.457.023-.183-.091-.137-.137.137-.16.251 0 .411.046.32.137zm171.907.092c0 .137-.32.228-.731.228-.434 0-.686-.091-.594-.228.091-.138.411-.252.731-.252s.594.114.594.252zm30.72.708c.32.229.32.252 0 .252-.205 0-.525-.115-.708-.252-.32-.206-.32-.228 0-.228.183 0 .503.114.708.228zm5.532.137c-.183.183-.48.343-.663.343-.297 0-.32-.046-.069-.343.16-.205.457-.365.663-.365.297 0 .297.068.069.365zm52.96-.228c-.07.091-.275.091-.458.023-.183-.069-.137-.138.137-.138.252-.022.412.046.32.115zm-155.268.548c.137.389-.64.64-.983.297-.206-.205-.183-.342.091-.502.412-.275.755-.206.892.205zm115.313.069c.892.16 1.623.388 1.623.48 0 .091.366.114.823.046.457-.069 1.029-.046 1.257.068.32.137.114.229-.754.32-.754.092-1.349.046-1.554-.137-.206-.16-1.12-.343-2.035-.457-1.874-.183-2.285-.297-2.285-.64 0-.137.274-.183.64-.114.365.068 1.394.251 2.285.434zm25.257.206c-.068.137-.297.228-.48.228s-.388-.091-.48-.228c-.068-.138.137-.252.48-.252.366 0 .572.114.48.252zm-283.06.251c.045 0-.115.114-.367.229-.617.274-4.914.297-4.914.045 0-.48.48-.548 2.743-.434 1.326.069 2.469.137 2.537.16zm205.438-.023c0 .297-.983.96-1.44.96-.206 0-.663-.183-.983-.411l-.594-.412 1.211-.137c.663-.091 1.326-.16 1.486-.183.183-.023.32.046.32.183zm-216.73.412l.594.137-.571.205c-.32.138-.8.16-1.075.069-.548-.183-1.005-.229-2.971-.297-.846-.023-1.234-.114-1.12-.297.137-.252 3.771-.115 5.143.183zm79.93-.16c0 .137-.182.228-.365.228-.206 0-.366-.091-.366-.228 0-.138.16-.252.366-.252.183 0 .366.114.366.252zm64.549 0c-.457.091-1.097.274-1.394.411-.64.251-1.966.114-1.966-.183 0-.228 1.074-.388 2.88-.411 1.166 0 1.211.023.48.183zm135.725 0c.411.182.365.205-.252.205-.388 0-.982-.091-1.302-.205-.55-.183-.526-.183.228-.206.457 0 1.052.091 1.326.206zm3.885-.069a2.486 2.486 0 0 1-.822 0c-.229-.069-.046-.114.411-.114.457 0 .64.045.411.114zm-137.622.229a.951.951 0 0 1-.617 0c-.16-.069-.023-.115.32-.115.32 0 .457.046.297.115zm50.034.388c-.114.343-1.005.526-1.577.274-.365-.137-.343-.182.069-.342.754-.32 1.623-.275 1.508.068zm-191.335.412c.068.137-.07.228-.343.228-.252 0-.549-.091-.617-.228-.092-.138.068-.252.32-.252.274 0 .548.114.64.252zm150.01.64c-.114.297-.229.32-.411.137-.206-.206-.206-.389.045-.663.366-.457.617-.114.366.526zm-115.634-.252c-.091.069-.297.092-.457.023-.205-.091-.137-.137.137-.16.252 0 .389.046.32.137zm174.056.092c0 .137-.16.228-.365.228-.206 0-.32-.091-.229-.228.069-.138.252-.252.366-.252.137 0 .228.114.228.252zm38.652.228c.251.183-.092.252-1.143.252-.846 0-1.509-.115-1.509-.252 0-.297 2.172-.297 2.652 0zm-249.599.389l.595.343-.823-.069c-.457-.023-.869-.183-.915-.343-.137-.411.389-.366 1.143.069zm35.863-.137c-.069.137-.343.228-.594.228-.252 0-.526-.091-.595-.228-.091-.138.16-.252.595-.252.434 0 .685.114.594.252zm219.244-.138c0 .252-.457.366-.594.138-.091-.138.023-.252.229-.252.205 0 .365.069.365.114zm-26.902.526c.068.046-.458.092-1.143.092-.686 0-1.235-.115-1.235-.229 0-.229 2.126-.091 2.378.137zm29.12.023c.365.069.73.229.8.343.228.343-.435.228-1.464-.274-.525-.275-.73-.412-.48-.32.275.068.778.205 1.143.251zm-125.668.091c.068.115.662.206 1.302.206.663 0 1.189.114 1.189.252 0 .274-1.486.297-3.36.022-2.194-.32-2.606.183-.846.96.595.275 1.097.526 1.097.618 0 .274-1.622-.252-2.445-.8-.732-.48-.983-.549-1.372-.343-.548.297-1.554.137-1.92-.297-.16-.206.137-.298 1.12-.32.755-.023 1.646-.16 1.966-.275.731-.297 3.086-.297 3.269-.023zm77.302.206c.343.274.8.48 1.051.48.229 0 .503.137.595.274.228.366-3.269.115-3.977-.251-.732-.411-.572-.686.41-.8a16.147 16.147 0 0 0 1.12-.137c.092-.023.458.183.8.434zm26.354-.228c.183.297-.137.297-.594 0-.32-.206-.32-.229.045-.229.206 0 .458.091.55.229zm-240.433.251c.412 0 1.006.091 1.303.206.549.205.526.228-.388.617-1.166.503-4.206.343-5.166-.297-.549-.366-.572-.389-.114-.572.251-.114 1.165-.137 2.034-.068.868.068 1.897.137 2.331.114zm17.212.091c.845.16 1.302.366 1.142.48-.16.092-1.668.229-3.36.275-1.828.045-2.857 0-2.56-.115.275-.114.64-.388.823-.594.389-.48 1.897-.48 3.955-.046zm6.971-.114c.091.137-.023.252-.229.252-.205 0-.365-.115-.365-.252 0-.114.091-.228.228-.228.115 0 .297.114.366.228zm131.245.046c-.206.183-.389.183-.709 0-.388-.229-.365-.252.252-.274.525 0 .64.068.457.274zm53.028-.114a.951.951 0 0 1-.617 0c-.16-.069-.023-.115.32-.115.32 0 .457.046.297.115zm2.103.068c-.869.297-1.211.297-1.211 0 0-.114.411-.228.891-.206.823.023.846.046.32.206zm-176.296.252c.091.137.046.228-.092.228-.137 0-.182.183-.114.366.092.206.297.366.48.366.412 0 .434.297.046.662-.412.412-1.44.366-2.377-.114-.526-.274-1.349-.434-2.286-.434-.823 0-1.577-.069-1.668-.183-.092-.091.09-.183.434-.183.32 0 .731-.137.891-.343.412-.48 4.434-.8 4.686-.365zm5.508.251c.458.434-.388.96-1.508.937-1.189 0-3.086-.823-2.423-1.028.96-.343 3.543-.275 3.931.091zm159.2-.343c-.092.069-.298.092-.458.023-.205-.091-.137-.137.137-.16.252 0 .389.046.32.137zm43.565 0a.951.951 0 0 1-.617 0c-.16-.046-.023-.114.32-.114.32 0 .457.068.297.114zm24.823 0c-.069.069-.275.092-.458.023-.182-.091-.137-.137.138-.16.251 0 .411.046.32.137zm-240.525.434c1.052.389.778.458-.937.229-.617-.091-1.097-.251-1.097-.366 0-.32.96-.251 2.034.137zm72.503.229c.206.091.297.251.206.389-.138.251 2.125.137 2.56-.138.182-.114 1.508.663 1.897 1.098.045.068.48.365.96.64.754.434.891.457 1.371.137s.663-.32 1.691.068c.618.229 1.715.8 2.446 1.257.732.48 1.646.983 2.034 1.143.595.252.823.595 1.189 1.715.251.777.777 1.76 1.143 2.194.777.891.846 1.165 1.051 3.771.366 4.412.389 6.126.069 6.103-.48 0-1.166-.594-1.166-.983 0-.388-.457-.937-.777-.937-.091 0-.183.274-.183.617 0 .412-.183.686-.548.823-.458.16-.572.091-.823-.48-.16-.366-.48-.777-.709-.914-.343-.183-.366-.297-.114-.595.891-1.074-.937-.845-2.012.229-.32.32-.8.571-1.074.571-.617 0-.617.412 0 .595.297.091.457.343.412.64-.046.343.251.64 1.028 1.074.594.32.96.571.846.594-.137 0-.023.092.274.206.663.274 1.532.046 1.532-.366 0-.183.16-.343.342-.343.206 0 .366.16.366.366 0 .183.252.503.572.709.388.251.548.548.457.845-.069.275.068.526.365.709.458.229.48.297.16.914-.205.366-.342.777-.342.915 0 .137-.343.754-.732 1.394l-.731 1.143-1.257-.115c-.709-.068-1.44-.16-1.623-.205-.457-.092-.343 1.668.16 2.217.388.434.411.914.091 1.417-.183.297-.297.274-.8-.183-.411-.388-.754-.503-1.166-.411-.708.183-1.462-.206-2.697-1.372-1.143-1.074-1.691-1.143-2.171-.205-.343.662-1.029 1.12-1.28.868-.069-.068-.114-.434-.092-.846 0-.388-.09-.731-.205-.731-.137 0-.229-.16-.229-.366 0-.205-.114-.594-.251-.868l-.275-.48-.457.503c-.274.274-.457.822-.457 1.302 0 .846-.617 2.309-.96 2.309-.114 0-.091-.297.069-.686.32-.731.251-3.154-.092-3.154-.114 0-.274.274-.365.617-.16.64-.457.777-.663.297-.092-.228-.16-.228-.343.023-.183.252-.32.114-.549-.571-.297-.8-.342-.846-.457-.32-.114.434-.32.571-.845.571-.755.023-.892.297-.549 1.257.343 1.006-.183.526-.869-.777-.388-.731-.8-1.326-.914-1.326-.411 0 .069 2.515.823 4.503.503 1.257.457 1.852-.091 1.303-.343-.343-1.875-.388-1.875-.046 0 .412-.617.275-1.097-.274a64.856 64.856 0 0 0-1.348-1.371c-.709-.709-.915-1.166-1.166-2.446-.16-.846-.389-1.646-.503-1.783-.297-.32-.251-.64.091-.594.549.068.915 0 .915-.229 0-.114-.617-.183-1.349-.137-.983.046-1.371-.046-1.463-.297-.091-.183-.617-.549-1.188-.823-1.097-.526-2.492-1.897-2.492-2.491 0-.183-.114-.869-.251-1.532-.229-1.028-.389-1.28-1.029-1.554-3.223-1.417-2.971-1.211-4-3.36-.525-1.097-.96-2.331-.96-2.743 0-.64.16-.823 1.029-1.28 1.12-.571 1.6-1.074 1.6-1.714.023-.549 1.006-2.08 1.371-2.08.16 0 .617-.297 1.052-.64.617-.526.8-.594.96-.32.114.206.228.434.228.549 0 .274.595.068.617-.23 0-.113.138-.48.275-.822.16-.32.32-.777.388-1.006.206-.594 2.012-1.828 3.132-2.125a29.75 29.75 0 0 0 2.08-.617c1.165-.435 1.668-.503 5.028-.755 2.515-.183 4.137-.16 4.709.046zm185.919-.183c-.16.069-.48.069-.732.023-.228-.069-.091-.114.297-.114.412-.023.595.045.435.091zm-138.377.32c.389.206.366.252-.16.274-.343.023-.754.046-.937.046-.183-.023-.731.114-1.234.297-.777.275-.983.275-1.417-.045-.274-.183-.457-.435-.412-.526.183-.274 3.703-.32 4.16-.046zm73.988 0c0 .572-2.4.64-2.582.069-.069-.206.274-.297 1.234-.297.754 0 1.348.114 1.348.228zm39.063-.091c-.091.091-.297.091-.457.023-.206-.069-.137-.138.137-.138.252-.022.389.046.32.115zm16.96 0c.594.228.434.525-.229.411-.32-.068-.525-.228-.457-.343.16-.251.183-.251.686-.068zm9.828.228c.389.206.778.275.846.16.092-.137.366-.137.709-.023.868.32.388.663-.755.526-1.142-.16-1.85-.457-1.85-.8 0-.32.25-.274 1.05.137zm-171.313.389c.069.114-.068.206-.343.206-.251 0-.525-.16-.594-.343-.091-.229.023-.297.343-.206.251.069.526.229.594.343zm-121.485.137a.68.68 0 0 0 .457.183c.138 0 .298.16.366.343.092.251-.046.297-.457.183a4.54 4.54 0 0 0-1.006-.16c-.228 0-.411-.16-.411-.366 0-.366.731-.503 1.051-.183zm246.079.206c-.069.091-.275.091-.457.023-.183-.069-.138-.138.137-.138.251-.022.411.046.32.115zm-236.09.48c0 .068-.229.091-.503.091s-.411-.091-.343-.228c.137-.206.846-.092.846.137zm47.84-.069c.617.274.662.343.32.617-.206.16-.892.32-1.532.343-1.417.046-4.183-.251-4.366-.457-.068-.091.366-.069.983 0 .732.114 1.166.069 1.28-.091.412-.686 2.172-.892 3.315-.412zm-27.017.32c1.12.32.182.572-2.058.572-2.4 0-3.405-.16-3.405-.503 0-.412 4.023-.457 5.463-.069zm20.274.023a5.158 5.158 0 0 1-1.189 0c-.366-.046-.137-.091.526-.091.663-.023.96.022.663.091zm163.702.16c.891.32.891.32-.915.297-1.737-.023-2.377-.251-1.257-.457.96-.183 1.234-.16 2.172.16zm-146.925.297c.571.343.045.572-1.349.572-1.188 0-1.554-.092-1.554-.343 0-.183.183-.389.411-.457.457-.138 2.172.022 2.492.228zm214.284-.16c0 .137-.16.183-.366.092-.182-.069-.342-.183-.342-.229 0-.046.16-.091.342-.091.206 0 .366.114.366.228zm-262.924.229c.16.297-.731.503-2.194.503-1.235 0-1.92-.343-1.097-.549.777-.206 3.154-.183 3.291.046zm26.766 0c0 .114-.252.274-.549.343-.8.228-1.851.182-1.851-.069 0-.206.685-.366 1.851-.457.297-.023.549.068.549.183zm33.53.251c.48 0 .755.114.664.252-.16.251-2.24.32-2.857.091-.64-.251-.115-.617.64-.48.388.091 1.097.137 1.554.137zm-66.764.252c.068.137-.092.228-.366.228s-.434-.091-.366-.228c.092-.138.252-.252.366-.252.114 0 .274.114.366.252zm23.634-.046c0 .251-1.075.754-1.555.754-.708 0-.594-.457.16-.686 1.029-.297 1.395-.297 1.395-.068zm85.805.526c.343.388.366.48.068.48-.365 0-.914-.458-.914-.778s.389-.205.846.298zm104.16.022c.685.183.48.183-2.355 0-.092-.022-.16-.114-.16-.251 0-.229 1.28-.114 2.514.251zm-202.857-.114a.951.951 0 0 1-.617 0c-.16-.046-.023-.114.32-.114.32 0 .457.068.297.114zm27.52.206c.252.274.183.366-.274.48-.686.16-1.92-.16-2.057-.549-.137-.434 1.965-.365 2.331.069zm106.034.388c1.828.435 2.24.663 1.188.64-.48-.022-.96.046-1.028.115-.206.205-2.355-.412-2.446-.732-.114-.365.777-.365 2.286-.023zm60.068.206c0 .114-.389.343-.823.48-.663.229-.983.206-1.623-.091l-.8-.366 1.12.137c.617.069 1.303.023 1.555-.114.548-.32.57-.32.57-.046zm2.263 0c.366.16.16.229-.777.229-.686.023-1.257-.092-1.257-.229 0-.274 1.37-.274 2.034 0zm1.805 0c.183.114.275.297.183.389-.228.228-1.165-.137-1.005-.389.16-.274.365-.274.822 0zm54.972.48c0 .137-.16.252-.366.252-.183 0-.412-.115-.48-.252-.092-.114.068-.228.343-.228.274 0 .503.114.503.228zm2.034.252c.068.137-.092.228-.366.228s-.434-.091-.366-.228c.092-.138.252-.252.366-.252.114 0 .274.114.366.252zm-245.05.96c.091.137-.114.228-.48.228-.343 0-.549-.091-.48-.228a.628.628 0 0 1 .48-.252c.183 0 .411.114.48.252zm27.725.114c0 .183.412.388.892.503.663.137.777.205.434.297a2.086 2.086 0 0 0-.754.32c-.457.366-2.88-.8-2.606-1.257.206-.32 2.034-.206 2.034.137zm93.508-.092c.115.206-.205.252-1.097.138-.685-.07-1.554-.023-1.942.114-.778.274-1.555.114-1.303-.274.205-.343 4.114-.32 4.342.022zm-150.079.138c-.16.068-.48.068-.731 0-.229-.046-.091-.115.297-.115.412 0 .594.046.434.115zm122.125.662c0 .412-.388.412-.891.023-.434-.365-.434-.365.206-.32.365.046.663.183.685.297zm-84.662 1.098c.114.114-.069.274-.434.388-.732.183-3.246-.297-3.246-.617 0-.114.389-.297.891-.434.87-.206 2.218.114 2.789.663zm135.2-.572c-.07.069-.275.092-.458.023-.183-.091-.137-.137.137-.16.252 0 .412.046.32.137zm-101.326.32a7.81 7.81 0 0 1-1.211.229c-.389 0-.412-.023-.115-.229.206-.114.732-.206 1.212-.206l.823.023-.709.183zm-79.405.16c-.366.366-2.034.48-2.446.183-.388-.297-.251-.343 1.074-.343.846 0 1.463.069 1.372.16zm129.69.069c0 .228-1.92.594-2.125.388-.252-.251.526-.594 1.326-.594.434 0 .8.091.8.206zm30.72.023c-.205.137-.48.228-.617.228s-.068-.091.137-.228c.183-.138.457-.23.595-.23.137 0 .068.092-.115.23zm-140.639.342c0 .206-.16.297-.343.229-.183-.069-.388.046-.48.251-.091.297-.503.366-1.668.366-.846 0-1.874.137-2.286.274-.411.137-1.051.183-1.417.092-.571-.137-.389-.252 1.371-.755 1.12-.32 2.08-.64 2.149-.685.046-.069.686-.114 1.394-.114.96 0 1.28.09 1.28.342zm159.702.343c-.571.549-2.994 1.92-2.583 1.486.435-.48 2.812-2.126 2.926-2.011.068.045-.092.297-.343.525zm15.497-.571c0 .046-.114.16-.251.251-.137.069-.229.023-.229-.114s.092-.251.229-.251.251.045.251.114zm-199.222.365c.298.183.298.23-.045.366-.572.229-2.149-.091-1.966-.388.16-.275 1.554-.275 2.011.022zm151.382-.068a2.486 2.486 0 0 1-.822 0c-.229-.069-.046-.114.411-.114.457 0 .64.045.411.114zm47.36.663c0 .205-.274.777-.594 1.28-1.166 1.783-3.497 3.405-4.937 3.405-.777 0-.983-.365-.297-.594.228-.068.822-.48 1.302-.914a31.89 31.89 0 0 1 1.509-1.212c.343-.228.549-.525.48-.662-.091-.115 0-.229.183-.229s.64-.32 1.028-.709c.732-.777 1.326-.937 1.326-.365zm-12.96.228c0 .069-.114.183-.251.252-.137.091-.229.045-.229-.092s.092-.274.229-.274.251.069.251.114zm-43.817.617c.092.138-.205.23-.754.23-.686 0-.823-.047-.549-.23.458-.297 1.12-.297 1.303 0zm43.086.092c0 .046-.206.16-.48.228-.275.07-.48.023-.48-.09 0-.138.205-.23.48-.23.274 0 .48.046.48.092zm-25.554.846c.548.114.8.251.594.32-.686.251-2.514.617-3.109.617-.342-.023-1.371.068-2.331.16-1.166.114-1.76.091-1.874-.092-.092-.16.091-.274.525-.274.389 0 1.235-.137 1.875-.343 2.125-.594 2.88-.663 4.32-.388zm1.92.022c-.092.138-.32.23-.503.23s-.343-.092-.343-.23c0-.137.228-.25.503-.25.274 0 .411.113.343.25zm-141.485.23c0 .113-.137.25-.297.32-.457.136-1.166-.092-1.006-.344.183-.274 1.303-.274 1.303.023zm114.833.25c.092.138-.022.23-.228.23-.206 0-.366-.092-.366-.23 0-.137.092-.25.229-.25.114 0 .297.113.365.25zm9.257.23c0 .388-.388.479-1.348.319l-.937-.16.708-.16c1.097-.251 1.577-.251 1.577 0zm-130.444.342c.411.32.411.343-.343.731-.595.32-1.097.389-1.852.275-.571-.092-1.051-.252-1.051-.343 0-.297 1.486-.96 2.171-.983.343 0 .823.137 1.075.32zm125.644.137c-.48.32-.73.32-.73 0 0-.114.25-.229.548-.229.434 0 .457.046.182.229zm-137.462.503c.366.16.663.388.663.48 0 .091-1.28.137-2.834.091a124.31 124.31 0 0 0-3.611-.114c-.983 0-.983-.297.023-.64.982-.343 4.868-.206 5.76.183zm24.823-.16c.069.068 0 .297-.16.48-.206.251-.868.343-2.537.366-1.257 0-2.263-.092-2.263-.206 0-.274.503-.663 1.074-.823.595-.16 3.68-.023 3.886.183zm59.474-.092c.069.138-.114.229-.48.229-.32 0-.594-.091-.594-.229 0-.137.206-.251.457-.251s.526.114.617.251zm-50.171.229c-.069.137-.251.251-.366.251-.137 0-.228-.114-.228-.251 0-.114.16-.229.365-.229.206 0 .32.115.229.229zm37.188 0c.252.389-.251.48-.731.137-.434-.343-.434-.343.068-.366.298 0 .595.092.663.229zm-42.697.251c.092.138-.137.229-.525.229-.595-.023-.617-.046-.206-.229.274-.114.503-.205.526-.228.023 0 .114.091.205.228zm2.812.16a.884.884 0 0 1-.594 0c-.16-.068-.023-.114.297-.114s.457.046.297.114zm99.702.389c.183.366.183.663 0 .937-.206.297-.206.503 0 .686.183.183.183.617.023 1.394-.114.617-.274 1.417-.32 1.783a4.65 4.65 0 0 1-.32 1.12c-.137.229-.183.48-.137.549.16.16-.48 2.697-1.029 4.137-1.417 3.611-2.423 5.143-3.703 5.668-.937.366-2.354 1.6-2.354 2.034 0 1.19-2.834 2.766-4.868 2.675-.686-.023-1.463.045-1.715.183-.343.16-.411.114-.32-.138.046-.182.366-.41.686-.502 2.583-.755 3.269-1.029 3.931-1.532.435-.32.892-.594 1.029-.594.137 0 1.143-.869 2.24-1.966 1.76-1.737 2.194-2.331 3.383-4.754.754-1.509 1.44-3.131 1.531-3.589.092-.457.275-.982.412-1.142.137-.16.183-.366.114-.435-.069-.068.023-.731.206-1.485.183-.846.274-2.126.183-3.452-.115-1.966-.092-2.126.342-2.126.252 0 .549.252.686.549zm-113.256.503c.045.046-.046.388-.183.754-.252.663 0 1.303.526 1.303.342 0 1.645.96 1.645 1.234 0 .435-.823.206-3.085-.914l-2.286-1.12-1.577.457c-1.783.526-6.012.777-6.012.366 0-.297.343-.366 3.475-.732 1.531-.182 2.742-.48 3.36-.8.525-.297 1.234-.594 1.554-.685.548-.137 2.4-.046 2.583.137zm144.707-.114c.686.022.732.502.046.502-.274 0-.663.092-.891.206-.298.16-.526.069-.846-.343l-.412-.571.778.091c.434.046 1.028.092 1.325.115zm2.469.388c0 .069-.206.114-.48.114s-.48-.16-.48-.365c0-.297.091-.32.48-.115.274.138.48.298.48.366zm-12.96-.16c0 .366-.731.526-1.211.274-.663-.365-.572-.48.365-.48.457 0 .846.092.846.206zm-108.616.48c.137.206-2.286.503-4.16.503-1.715.023-.846-.434 1.028-.526.892-.023 1.943-.091 2.309-.114.388-.046.754.023.823.137zm99.382.023c.183.32-.366.32-.846 0-.297-.183-.251-.229.16-.229.297 0 .594.115.686.229zm-114.125.297c0 .297-1.029.457-2.4.389-2.08-.115-1.692-.572.48-.549 1.051 0 1.92.069 1.92.16zm159.953.412c-.137.137-.503.297-.823.365-.343.046-.983.229-1.44.366-.48.137-1.143.251-1.486.251-.342 0-.777.16-.937.366-.228.274-.503.343-.937.206a7.9 7.9 0 0 0-1.211-.206c-.32-.046-.732-.068-.892-.091-.182-.023-.297-.137-.297-.252 0-.114.617-.274 1.372-.343a51.559 51.559 0 0 0 3.062-.48c2.149-.388 3.886-.48 3.589-.182zm-16.823.342c.617.32.595.343-.731.48-.777.069-1.44.092-1.486.023-.068-.068 1.074-.663 1.554-.823.023 0 .32.138.663.32zm-15.52.549c.298.046.549.206.549.343 0 .251-3.794.32-4.411.091-1.555-.594 1.462-.937 3.862-.434zm-125.21.091c-.48.298-.96.298-.96 0 0-.137.297-.228.663-.228.502 0 .571.046.297.228zm102.72.229c.342.64.296 1.12-.16 2.08-.32.686-.344.937-.092 1.371.434.8.114 3.315-.572 4.663-.297.617-.937 1.715-1.417 2.423-.457.709-.914 1.714-1.006 2.217-.182 1.097-.411 1.28-1.554 1.303-.594 0-.846.114-.846.343 0 .206-.114.686-.251 1.097-.526 1.394-.891 3.131-.846 4 .046 1.029-.525 1.737-1.28 1.554-.64-.137-2.057-.64-2.605-.914-.503-.251-.549.091-.046.503.571.503.411.731-.48.731-.892 0-1.006-.205-.617-.96.183-.32.16-.548-.137-.823-.526-.525-1.532-.502-1.532.046 0 .252-.16.64-.343.892-.274.411-.388.411-.731.137-.297-.252-.457-.252-.663-.046-.206.206-.183.434.137.983.206.366.412.96.412 1.303 0 .503-.115.617-.618.617-.365 0-.662.183-.731.434-.069.229-.251.617-.366.846-.137.228-.16.548-.068.686.114.182-.046.228-.48.114-.572-.137-.709-.069-.937.571-.183.48-.435.732-.778.732-.594 0-2.034-.48-2.034-.663 0-.229 1.074-1.623 1.554-2.034.412-.366.435-.458.138-.663-.435-.275-.732-.115-.732.411 0 .274-.251.16-.891-.457-.892-.846-.937-.869-2.332-.709-1.142.138-1.508.298-1.988.846-.389.457-.549.892-.48 1.257.046.297.023.549-.069.549-.183 0-.503-.754-.571-1.303-.069-.411-.412-.846-.663-.846-.114 0-.503.275-.846.617-.457.458-.777.572-1.188.48-.663-.16-.709-.502-.206-1.531.434-.869.709-.96 2.606-.983.754-.023 1.508-.091 1.623-.16.137-.091 1.348-.251 2.674-.343 2.56-.228 4.617-.868 5.623-1.76.457-.411.64-.434 1.142-.205.595.274 1.372.068 1.806-.458.069-.091.572-.388 1.143-.662.663-.343 1.28-.938 1.806-1.783.48-.755 1.371-1.646 2.194-2.217 2.354-1.623 3.84-3.223 4.914-5.235.526-1.028.983-2.057.983-2.308 0-.252.114-.526.252-.617.114-.069.228-.389.228-.709 0-.32.092-.64.206-.708.114-.069.251-1.098.32-2.286.16-2.583.754-3.612 1.394-2.423zm15.13-.229c0 .275-1.577.709-2.102.572-.755-.206-.686-.526.114-.617 1.12-.137 1.988-.115 1.988.045zm-150.422.64a.951.951 0 0 1-.617 0c-.16-.068-.022-.114.32-.114.32 0 .457.046.297.114zm1.852.069c0 .137-.274.251-.594.251-.343 0-.595-.114-.595-.251 0-.114.252-.229.595-.229.32 0 .594.115.594.229zm78.902-.091c-.251.251-2.971.525-3.68.388l-.708-.137.617-.16c.708-.206 3.977-.297 3.771-.091zm97.92.251c1.028.274.525.549-.732.411-1.897-.228-2.468-.525-1.005-.548.662 0 1.44.068 1.737.137zm2.583.32c.388.183.32.229-.366.229-.457 0-1.006-.092-1.189-.229-.297-.16-.205-.229.343-.206.412 0 .937.115 1.212.206zm-28.595.229c.16.251-1.188.205-1.44-.046-.091-.092.16-.183.572-.183.411 0 .8.114.868.229zm19.703.022c.092.138-.137.229-.571.229-.389 0-.892.069-1.143.16-.412.114-.412.091.023-.251.525-.435 1.463-.503 1.691-.138zm-144.41.206c.228.137.205.274-.115.572-.32.297-.983.388-2.583.411-3.04.023-6.354-.229-6.354-.48 0-.137 1.395-.229 3.177-.251 2.606 0 4.115-.138 5.463-.435.046 0 .252.069.412.183zm129.485.686c1.85.091 2.308.16 2.194.343-.115.16-2.789.045-3.429-.16-.16-.069-.228-.229-.137-.389.092-.137.229-.16.32-.046.069.115.549.229 1.052.252zm-17.098.091c2.195.046 5.829.595 5.943.915.046.137.252.251.435.251.571 0 2.262.594 2.262.8 0 .091.138.16.32.16.183 0 .709.274 1.212.617.48.32 1.166.663 1.531.754.343.069.755.229.892.32.137.092.891.229 1.714.298.823.068 1.737.297 2.034.525.297.206.823.366 1.143.366.343 0 1.577.274 2.766.594 1.211.32 3.04.777 4.091 1.006 1.052.229 2.469.663 3.132.983.662.297 1.417.548 1.668.548.274 0 .823.206 1.234.458.412.251 1.258.548 1.875.64.594.09 1.143.228 1.211.342.092.138-1.166.618-2.057.8-.091.023-.069.275.046.549l.183.526 1.394-.435c1.76-.548 1.737-.548 2.651-.502.435 0 .8.114.8.228s-.365.32-.8.48c-.685.229-.685.252-.091.137.594-.114.663-.068.526.366-.183.571.114.617 1.622.206.572-.137 1.418-.183 1.92-.092.755.137.869.229.663.572-.183.365-.091.434.526.48.434.045.96.274 1.211.525.229.275.755.48 1.143.48.389 0 .709.092.709.183 0 .092.64.594 1.44 1.12.777.503 1.371 1.029 1.303 1.143-.069.114.091.183.365.183.275 0 .503.114.503.251s-.183.229-.366.229c-.731 0-.342.617.64 1.028 1.212.503 1.029.823-.708 1.326-1.966.549-3.612.64-4.092.229-.274-.252-.845-.366-1.76-.343-1.417.023-3.588-.754-4.228-1.509-.251-.297-.32-.297-.503-.023-.183.275-.343.252-.96-.114-.411-.251-.754-.594-.754-.754 0-.389-.297-.389-.663-.023-.229.229-.457.137-.96-.366-.754-.708-1.44-.823-1.646-.274a.693.693 0 0 1-.571.343.693.693 0 0 1-.572-.343c-.16-.411-.868-.503-.868-.137 0 .503-.389.206-1.074-.823-.778-1.166-1.143-1.211-.938-.114.183.868-.182.937-.982.137-.32-.32-.846-.64-1.189-.732-.343-.068-.617-.25-.617-.388a.246.246 0 0 0-.229-.229c-.457 0-.548 1.6-.137 2.377.366.709.297.869-.228.732-1.92-.457-2.378-.663-2.423-1.052-.046-.228-.115-.48-.183-.548-.206-.206-.457 1.097-.32 1.623.297 1.188-1.28-.252-1.806-1.623-.16-.434-.388-.8-.503-.8-.205 0-.16.64.206 2.468.183.846-.206.869-.777.046-.251-.32-.617-.823-.823-1.12l-.388-.503-.503.526c-.617.617-.663 1.189-.137 1.6.25.16.32.411.205.594-.457.777-5.12-.274-7.063-1.6-1.051-.708-1.28-.708-1.074-.023.16.503.16.503-.457.115-.343-.229-.777-.412-.96-.412-.183 0-.754-.503-1.234-1.097-.686-.823-.846-1.166-.64-1.371.205-.206.708-.046 1.965.617l1.669.891v-.617c0-.343-.114-.846-.251-1.097-.16-.274-.275-1.303-.252-2.263 0-.983-.046-1.783-.091-1.783-.069 0-.275.389-.48.846-.343.823-.846 1.143-.846.503 0-.411-.64-.709-.846-.389-.068.115-.068.503.023.823.092.366.046.617-.091.617s-.32-.32-.412-.731c-.091-.411-.32-.8-.503-.869-.411-.16-.434-.8-.022-.8.16 0 .091-.137-.138-.274-.32-.183-.434-.48-.365-1.097.114-1.417-.435-1.211-.617.229a58.429 58.429 0 0 1-.252 1.737c-.046.274-.114.594-.137.731-.069.434-.709-1.188-.709-1.874-.022-.686-.342-.869-.64-.366-.114.16-.16.594-.137.96.069.983-.32.823-.64-.274-.16-.526-.525-1.097-.823-1.257-.502-.297-.662-.343-1.302-.412-.343-.023-.435-.891-.092-1.028.297-.115.572-2.355.274-2.355-.137 0-.32.275-.388.595-.092.32-.297.708-.48.868-.297.229-.343.092-.343-.845 0-1.258-.343-1.303-.571-.092-.389 1.897-.458 2.103-.64 1.989-.115-.069-.183-.617-.115-1.212.069-.685 0-1.12-.205-1.234-.435-.274-1.143-3.703-.846-4.069.297-.365 1.097-.525 1.897-.411.32.046 1.303.114 2.171.114zm54.149.046c.114.183.411.411.685.526.32.114.366.228.16.297-.16.068-.434 0-.594-.114-.16-.138-.823-.32-1.486-.435-1.028-.16-1.12-.205-.594-.365.937-.275 1.623-.252 1.829.091zm-106.034.549c.366.8-.068 2.697-.731 3.291-.275.229-.846.411-1.257.411-1.692 0-4.389 1.509-6.606 3.703-1.92 1.875-3.634 2.675-7.086 3.246-2.537.411-5.28 1.189-6.011 1.668-.137.092-.732.32-1.303.48-.594.16-1.44.412-1.897.55-.983.296-1.189.136-.457-.344.297-.206 1.188-.96 1.988-1.714 1.097-1.029 1.326-1.326.96-1.349-.274 0-.777.16-1.097.32-.343.183-1.051.412-1.577.503-.503.092-1.28.366-1.691.617-.595.343-.96.389-1.669.229-.526-.114-1.166-.137-1.463-.069-.686.16-.708-.297-.046-.64.275-.16.435-.342.366-.411-.068-.069-.411.046-.731.251-.709.458-1.417.526-1.28.115.137-.412 2.834-2.035 3.703-2.217.411-.092 1.097-.48 1.531-.869.434-.389 1.211-.823 1.714-.96.48-.137.96-.343 1.029-.48a.742.742 0 0 1 .503-.229c.205 0 1.165-.365 2.148-.822 1.806-.846 4.8-1.898 8.023-2.766.983-.274 1.897-.594 2.034-.732.115-.137.595-.251 1.029-.251.457 0 1.12-.137 1.486-.343.365-.183.731-.297.8-.228.137.137 2.514-.32 3.177-.618.274-.114 1.12-.342 1.897-.48.777-.137 1.486-.297 1.554-.365.274-.275.709-.069.96.503zm4.114-.183c0 .091-.297.365-.663.594l-.662.389.617.045c.32.023.777.023 1.028-.023.229-.022.572.092.755.252.182.137.548.206.822.114.64-.206.96.366.389.709a4.301 4.301 0 0 0-.823.617c-.914.846-2.126 1.668-2.514 1.668-.48 0-.503-.205-.046-.708.526-.617.686-1.44.32-1.577-.503-.206-1.623.297-1.623.708 0 .206-.045.366-.091.366-.069 0-.297.091-.526.16-.32.137-.365.091-.16-.297.137-.252.366-1.052.549-1.806l.297-1.348 1.166-.023c.64-.023 1.165.045 1.165.16zm3.36 1.028c0 .115-.16.206-.343.206-.342 0-.617-.503-.617-1.143.023-.32.115-.297.48.16.275.32.48.663.48.777zm73.691-.731c.229.137-.183.206-1.12.228-.8 0-2.24.183-3.2.389-1.188.274-1.874.32-2.24.16-.457-.206-.365-.274.8-.617a20.68 20.68 0 0 1 1.92-.503c.8-.137 3.383.091 3.84.343zm-14.171.64c.731.206 2.126.411 3.109.457 2.034.091 2.902.549 1.188.617-1.76.069-3.383-.068-4.777-.411-2.811-.709-3.68-1.006-3.36-1.12.526-.183 2.354.045 3.84.457zm30.354-.183c.366.137.297.206-.457.32-.983.16-1.44.046-1.212-.32.16-.274 1.006-.274 1.669 0zm-181.622.389c-.068.091-.274.091-.457.022-.183-.068-.137-.137.137-.137.252-.023.412.046.32.115zm42.72.274a2.486 2.486 0 0 1-.823 0c-.228-.069-.046-.114.412-.114.457 0 .64.045.411.114zm-13.851.548c0 .138-.32.229-.732.229-.434 0-.685-.091-.594-.229.091-.137.411-.251.731-.251s.595.114.595.251zm-28.572.298c0 .091.32.114.686.022.526-.091.732-.022.869.298.091.228.023.502-.115.594-.16.091-.228.366-.16.617.069.251.206.686.298.983.114.457.045.548-.412.548-.32 0-.8-.16-1.097-.365-.434-.32-.686-.32-1.463-.092-.686.206-1.234.206-2.263-.023-.754-.137-1.371-.365-1.371-.457 0-.091.274-.32.594-.503.48-.251.846-.274 1.737-.068 1.28.297 1.463.251 1.052-.252-.16-.205-.983-.434-2.012-.525-.96-.092-1.942-.275-2.217-.435-.457-.251-.457-.251.069-.388.823-.206 5.805-.16 5.805.046zm165.76 0c-.48.16-.755.16-.938-.023-.205-.206-.023-.275.686-.252.937.023.937.023.251.275zm30.354.114c.297.343.274.366-.252.228-.343-.091-.708-.16-.8-.16-.114 0-.137-.114-.046-.251.229-.343.732-.274 1.098.183zm4.548-.183a.254.254 0 0 1-.251.251c-.137 0-.229-.114-.229-.251 0-.114.092-.229.229-.229s.251.115.251.229zm185.987 0c0 .137-.25.251-.548.251-.434 0-.457-.045-.16-.251.457-.297.708-.297.708 0zm-192.067.16c-.068.069-.274.091-.457.023-.183-.092-.137-.137.137-.16.252 0 .412.046.32.137zm-17.577.594c-.183.275-.823.275-.823.023 0-.343.252-.503.617-.366.183.069.275.229.206.343zm7.451-.023c-.091.138-.251.183-.365.115-.115-.069-.275-.023-.366.114-.069.137-.64.251-1.257.229l-1.143-.023 1.097-.32c1.326-.389 2.217-.435 2.034-.115zm-12.594.96c0 .138-.137.229-.274.229s-.183-.091-.091-.229c.068-.137.182-.251.251-.251.046 0 .114.114.114.251zm-2.103.252c.755 0 1.12.068.892.183-.503.274-3.154.068-2.972-.229.069-.137.298-.183.503-.091.183.068.915.137 1.577.137zm20.869.114c-.092.343-1.554.274-1.692-.091-.068-.229.138-.297.823-.229.526.046.915.183.869.32zm8.823-.183c0 .115-.435.16-.96.092-.526-.046-.96-.137-.96-.183 0-.046.434-.092.96-.092.525 0 .96.092.96.183zm-19.497.709c.685.457.685.64-.069 1.028-.48.252-.777.252-1.6.023-1.006-.32-2.103-.96-2.103-1.28-.023-.183 2.08-.365 2.743-.228.274.068.731.274 1.029.457zm17.28-.503c-.092.069-.298.091-.458.023-.205-.092-.137-.137.138-.16.251 0 .388.046.32.137zm-203.336.32c.068.137.023.251-.115.251a.254.254 0 0 1-.251-.251c0-.114.046-.229.114-.229.046 0 .16.115.252.229zm20.937-.091c-.092.091-.297.091-.457.022-.206-.068-.138-.137.137-.137.251-.023.388.046.32.115zm187.427.022a1.671 1.671 0 0 1-.823 0c-.228-.045-.046-.114.412-.114.457 0 .64.069.411.114zm1.211-.022c-.09.091-.297.091-.457.022-.205-.068-.137-.137.137-.137.252-.023.39.046.32.115zm-210.901.342c.251.16.069.229-.709.206-.914 0-.982-.046-.48-.206.8-.251.778-.251 1.189 0zm19.451.458c.572.182.549.205-.251.365-.503.092-1.28.023-1.92-.183-1.052-.32-1.052-.342-.48-.571.388-.16.846-.16 1.326-.023.388.137.982.32 1.325.412zm70.674-.458c-.091.138-.32.229-.503.229-.457 0-.434.229.046.777.48.526.16.572-.503.069-.251-.206-.708-.366-1.006-.366-.32 0-.548-.091-.548-.229 0-.228.503-.388 1.783-.548.411-.069.754-.114.8-.137.045-.023 0 .068-.069.205zm123.176-.091c-.091.069-.297.091-.457.023-.205-.092-.137-.137.137-.16.252 0 .389.046.32.137zm-215.655.617c-.252.252-1.052 0-.892-.297.069-.091.343-.114.617-.046.298.069.412.206.275.343zm104.548.023c.045.251-.069.411-.298.411-.205 0-.365-.045-.365-.091 0-.069-.092-.297-.16-.503-.115-.32-.046-.388.297-.32.251.046.48.274.526.503zm-87.314.16c0 .137-.572.251-1.257.251-.915 0-1.166-.068-.892-.251.457-.297 2.149-.297 2.149 0zm188.113-.114c-.183.183-2.103.228-2.286.045-.068-.091.435-.16 1.143-.16.686 0 1.212.046 1.143.115zm-198.765.503c.618.205 1.372.342 1.669.274.64-.114 1.371.274.891.457-.16.069-.228.251-.182.411.091.206-.663.275-2.812.298-1.623 0-3.405.068-3.931.16-1.212.182-1.852-.115-1.12-.503.274-.16.777-.275 1.097-.275.343 0 .663-.091.754-.205.069-.115-.045-.206-.274-.183-.206.023-.434-.092-.48-.252-.229-.594 2.788-.708 4.388-.182zm7.84-.229a.951.951 0 0 1-.617 0c-.16-.046-.023-.114.32-.114.32 0 .457.068.297.114zm17.989.891c-.046.115-.709.138-1.463.069-.754-.069-1.806-.137-2.377-.137-.572 0-1.006-.137-1.006-.274 0-.16.206-.206.526-.138.297.069 1.074-.022 1.737-.182 1.029-.275 1.303-.252 1.966.068.411.229.685.48.617.594zm66.354-.685c0 .205-.092.365-.206.365-.114 0-.206-.16-.206-.365 0-.183.092-.366.206-.366.114 0 .206.183.206.366zm-8.229.64c.595.434 1.075.8 1.029.823-.114.114-4.252.32-4.252.228 0-.297 1.532-1.806 1.829-1.806.16 0 .8.343 1.394.755zm118.102-.046c-.091.137-.342.251-.548.229-.343 0-.32-.046.068-.229.64-.274.64-.274.48 0zm13.006.32c0 .297.091.754.206 1.006.137.365-.046.274-.732-.32-.685-.595-1.051-.755-1.485-.64-.298.068-.549.023-.549-.092 0-.137.389-.274.891-.32.503-.068 1.075-.114 1.303-.137.252-.023.389.137.366.503zm-171.473-.16c-.16.069-.48.069-.709.023-.228-.069-.114-.114.297-.114.389-.023.572.045.412.091zm149.645 0c-.092.069-.298.091-.458.023-.205-.092-.137-.137.138-.16.251 0 .388.046.32.137zm15.588 0c-.069.069-.274.091-.457.023-.183-.092-.137-.137.137-.16.251 0 .411.046.32.137zm-116.8 1.074c0 .526-.114.915-.228.823-.114-.068-.206-.503-.206-.96 0-.457.092-.846.206-.846.114 0 .229.435.229.983zm102.4-.845c-.068.091-.274.091-.457.022-.183-.068-.137-.137.137-.137.252-.023.412.046.32.115zm-6.423.571c1.6.023 1.509.137-.251.343-1.029.114-1.44.046-1.806-.229-.434-.365-.434-.365.16-.251.32.091 1.166.137 1.897.137zm2.537 0c-.091.137-.365.251-.617.251-.251 0-.457-.114-.457-.251 0-.114.274-.229.594-.229.366 0 .549.115.48.229zm-189.278.48c1.874.251 2.194.366 2.194.777 0 .412-4.983-.228-5.509-.686-.251-.205.617-.548 1.075-.434.251.069 1.257.229 2.24.343zm-8.595 0c0 .32-.274.32-.731 0-.297-.183-.251-.229.183-.229.297 0 .548.115.548.229zm142.308.686c0 .183.183.503.411.685.32.252.343.389.138.48-.183.069-.297.275-.297.458 0 .182-.115.342-.252.342-.388 0-.708-.891-.708-1.942 0-.846.045-.96.342-.709.206.183.366.48.366.686zm71.771-.595c-.114.115-.389.092-.64-.045-.389-.229-.366-.252.206-.206.388.023.571.114.434.251zm-198.856.412c.137.137-.457.228-1.508.228-1.212 0-1.738-.091-1.738-.297 0-.365 2.858-.274 3.246.069zm24.594.091c.389.48.046.617-1.623.595-.8-.023-1.554.045-1.691.114-.32.206-3.131.251-3.337.046-.366-.366.617-.618 1.874-.48.869.068 1.646 0 2.263-.229 1.234-.457 2.149-.48 2.514-.046zm61.28.275c-.114.297-.183.32-.32.068-.229-.366-.046-.754.251-.571.115.091.16.32.069.503zm98.445-.389c.091.137-.046.251-.297.251-.229 0-.617.229-.869.503-.228.275-.48.435-.548.366-.16-.137 1.074-1.349 1.371-1.349.114 0 .274.115.343.229zm6.72 0c.32.137.366.229.137.229-.206 0-.526-.092-.731-.229-.435-.274-.069-.274.594 0zm-140.753.114c0 .252-2.172 1.372-2.446 1.28-.183-.068 0-.251.411-.457.389-.16.777-.388.846-.457.206-.297 1.189-.571 1.189-.366zm369.049.046c-.069.069-.275.091-.457.023-.183-.092-.138-.137.137-.16.251 0 .411.046.32.137zm-346.01.32c0 .137-.182.251-.411.274-.229 0-.663.069-.96.115-.366.068-.549-.023-.549-.252 0-.274.275-.366.96-.366.526 0 .96.115.96.229zm52.549 1.143c0 .297.251.754.525 1.028.503.458.503.48.069.48-.251 0-.777-.388-1.143-.868-.617-.754-.663-.914-.388-1.44.274-.526.32-.526.617-.137.183.228.32.64.32.937zm-47.749-.343c1.235.343 1.692.571 1.692.914 0 .137-.183.137-.48-.023-.252-.137-.732-.251-1.097-.251-.343 0-.937-.16-1.303-.343-.617-.32-.96-.32-3.063 0-2.789.412-3.177.434-3.177.114 0-.137.457-.251 1.006-.251a22.55 22.55 0 0 0 2.102-.206c1.6-.297 3.109-.274 4.32.046zm122.468.091c.617.069 1.074.229 1.006.343-.229.366-2.08.206-3.36-.274l-1.189-.457 1.189.114c.663.069 1.714.183 2.354.274zm-158.97 1.12c-.8.526-1.715 1.258-2.035 1.6-.297.32-.937 1.029-1.44 1.555-.48.525-1.142 1.371-1.462 1.874-.298.48-.686.891-.846.891-.16 0-.457.16-.663.343-.206.183-.754.412-1.211.503-.846.16-.823.16.891-1.577.96-.96 1.669-1.829 1.6-1.943-.069-.137 0-.389.16-.571.16-.206.206-.366.114-.366-.548 0-4.32 2.491-5.668 3.748-1.189 1.098-3.269 2.263-4.023 2.263-.251 0-.709.206-1.029.457-.32.252-.868.435-1.211.412l-.64-.023.617-.663a6.431 6.431 0 0 1 1.486-1.051c.457-.229 1.394-.892 2.057-1.509.663-.617 1.486-1.257 1.806-1.44 1.577-.891 2.88-1.463 3.337-1.463.274 0 .686-.114.937-.228.229-.137 1.326-.686 2.446-1.235 1.12-.548 2.582-1.28 3.245-1.622 2.812-1.463 3.726-1.44 1.532.045zm135.747-1.051c-.091.137-.274.251-.434.251-.183 0-.137-.091.069-.251.457-.297.548-.297.365 0zm-1.325.251c-.32.115-.755.206-.96.206-.32.023-.32 0 0-.206.205-.137.64-.228.96-.205l.594.023-.594.182zm-167.656.252c-.069.114-.48.228-.892.228-.571 0-.845.138-1.005.549-.206.411-.458.549-1.258.571-1.074.046-1.234-.091-.731-.594.206-.228.114-.297-.434-.297-.663 0-.663-.023-.252-.343.526-.388 4.823-.503 4.572-.114zm38.537.228c-.32.252-.709.48-.846.48s.046-.228.366-.48c.32-.251.708-.48.845-.48s-.045.229-.365.48zm61.92-.137a.742.742 0 0 1-.23.503c-.137.069-.25.343-.25.617 0 .32-.16.457-.55.457-.457-.022-.48-.045-.16-.297.23-.16.343-.434.298-.617-.115-.32.343-1.006.685-1.006.115 0 .206.16.206.343zm20.16-.114c0 .137-.115.251-.23.251a.254.254 0 0 1-.25-.251c0-.114.113-.229.25-.229.115 0 .23.115.23.229zm-60.16.16c.228.229-.938.891-3.726 2.148-2.72 1.212-4.275 2.15-4.275 2.538 0 .16.23.114.595-.138.32-.205.845-.388 1.188-.388.32 0 .663-.092.732-.229.411-.64 5.714-2.651 7.017-2.651.914 0 .868.389-.069.731-.548.206-.823.709-.388.709.091 0 1.143-.32 2.308-.732 1.989-.685 2.263-.73 4.435-.594 2.765.183 4.16.503 5.37 1.257 1.258.8 1.19 1.28-.25 1.303-.618.023-1.486 0-1.898-.023-.411-.023-.822.069-.891.183-.137.252 1.097.526 2.491.549.686.023.755.068.366.228-.274.115-.8.206-1.166.229-.685.023-1.462.548-1.188.823.091.091.526.137.983.137.685 0 .777.068.548.343-.343.411-.251.48 1.417.868 1.509.343 2.172.64 2.172.96 0 .275 1.097 1.486 3.885 4.275 2.675 2.628 3.292 3.634 3.406 5.6.092 1.668 0 2.125-.48 2.125-.183 0-.457.252-.617.549-.457.891-1.394 1.6-2.194 1.714-.435.069-1.12.183-1.555.274-.617.138-.777.092-.777-.205 0-.412.549-.96 2.172-2.172.96-.708 1.074-.891 1.005-1.668-.045-1.006-.822-2.812-1.371-3.292-.526-.434-.48.137.069.846.32.389.411.869.365 1.669-.091 1.6-.251 1.965-1.051 2.285-.389.16-.8.435-.892.572-.777 1.234-5.302 3.771-7.497 4.228-5.097 1.052-13.691 1.714-14.514 1.097-.366-.251-.526-.708-.594-1.485-.023-.366-3.817-2.263-4.526-2.263-.914 0-.571.503.777 1.097 1.075.48 3.497 2.468 3.497 2.88 0 .206-1.92-.846-2.354-1.28-.617-.594-2.171-1.371-2.354-1.166-.092.092.16.526.594.96.869.892.96 1.509.274 1.714-.617.206-1.44-.068-1.44-.457 0-.297-3.405-.617-6.65-.617-1.098 0-1.258-.068-1.258-.48 0-.457 1.051-1.188 1.737-1.211.503 0 1.097-.754.709-.892-.412-.137-.366-.708.091-.868.206-.092.64-.092.96 0 .434.114.732 0 1.074-.366.503-.548.869-.617 1.395-.274.205.114.708.068 1.28-.137 1.325-.457 2.034-.412 3.428.274.663.32 1.257.594 1.349.594.091 0 .16-.457.137-1.028l-.046-1.006.823.069c.457.022.983 0 1.189-.069.32-.137.32-.183.022-.366-.205-.137-.594-.228-.891-.228-.297 0-.549-.092-.549-.206 0-.114-.274-.343-.594-.48-.731-.343-.777-.777-.114-1.211.388-.229.594-.229.846-.023.182.16.274.388.205.503-.228.342.297.228.617-.16.16-.183.229-.366.138-.366-.092 0 .16-.412.571-.914.389-.526.731-1.052.731-1.212 0-.388.64-.32.8.092.183.457.732.457 1.966.022.617-.228 1.394-.297 2.217-.205 1.28.137 1.6-.069.892-.663-.229-.183-.823-.252-1.669-.183-1.006.091-1.326.046-1.326-.206 0-.183.778-1.097 1.738-2.057 1.302-1.303 2.057-1.851 2.994-2.194 1.6-.549 1.668-.983.16-.777-1.303.183-2.08.731-4.617 3.2-.983.96-1.829 1.737-1.875 1.737-.228 0-.022-.526.343-.892.229-.251.732-.845 1.097-1.325.366-.503.938-1.189 1.258-1.532.662-.708.708-.937.274-1.097-.526-.206-2.034 1.097-3.269 2.857-1.92 2.652-2.354 3.109-3.52 3.657-1.394.663-2.011.595-1.348-.114.525-.548.777-1.851.388-1.988-.114-.069-.64.617-1.143 1.485-.64 1.097-1.074 1.6-1.37 1.6-.572 0-.572-.045.022-1.257.251-.548.48-1.143.48-1.326 0-.571-.892.115-1.531 1.212-.778 1.326-1.28 1.783-1.646 1.44-.343-.366.32-2.034 1.508-3.84.617-.937.823-1.463.663-1.623-.297-.297-1.805 1.303-3.017 3.2l-.823 1.28-.594-.549c-.457-.434-.64-.48-.869-.251-.251.229-.205.389.206.709.572.434 1.029 1.965.594 1.965-.137 0-.32-.274-.411-.594-.069-.343-.229-.594-.343-.617-.251 0-.708 1.371-.503 1.6.092.114-.114.023-.434-.183-.411-.251-.64-.64-.686-1.189-.114-1.142-.457-1.394-.754-.548-.137.366-.366.914-.503 1.166-.228.48-.617 2.102-.868 3.68-.069.434-.252.822-.412.868-.137.046-.64.183-1.097.343-.48.137-2.514.32-4.571.411-5.6.206-6.355.252-6.858.526-.708.366-3.702.526-3.725.206-.023-.137-.046-.434-.092-.64a22.75 22.75 0 0 1-.091-.892c-.023-.297-.137-.548-.251-.548-.252.023-.572.914-.526 1.486.023.228-.069.48-.206.548-.16.114-.251-.114-.251-.548 0-.39-.16-.823-.366-1.006-.32-.252-.48-.229-1.029.183-.342.274-.617.663-.594.845.069.275-.228.366-1.394.366-1.234.023-1.417-.023-1.166-.32.16-.183.48-.343.732-.343.251 0 .457-.091.457-.183 0-.274 2.743-2.034 4.434-2.857 1.714-.823 3.817-2.4 3.497-2.583-.206-.137-6.491 2.903-6.743 3.269-.137.183-1.783.914-2.08.914-.114 0 .137-.251.526-.571.869-.709.731-.96-.343-.594-.617.205-.823.205-.983-.046-.114-.183-.411-.229-.8-.137-.777.205-1.508-.16-1.714-.823-.114-.343-.32-.48-.686-.412-.457.046-.503.183-.434 1.212.091 1.166.091 1.166-.594 1.097-.595-.069-.686-.206-.823-1.097-.137-1.029-.343-1.463-.594-1.212-.275.275-.549 1.989-.435 2.515.092.32.023.548-.114.548-.16 0-.274-.114-.274-.251s-.229-.549-.503-.937c-.48-.64-.48-.732-.137-1.212a3.4 3.4 0 0 1 .845-.868c.275-.206.64-.595.778-.869l.297-.526-.709.435c-.388.251-1.006.777-1.394 1.165-.754.732-1.577 1.258-1.577 1.006 0-.251 1.188-1.303 1.463-1.303.114 0 .228-.091.205-.228 0-.366 1.989-2.149 3.132-2.835.594-.342 1.188-.754 1.325-.914.229-.251 1.166-.823 3.726-2.194 1.417-.777 1.669-1.029.96-1.029-.297 0-1.417.48-2.468 1.075-1.052.594-1.989 1.097-2.08 1.097-.092 0-.595.205-1.098.48-.525.251-1.12.48-1.348.48-.663 0-.732-.732-.206-1.6.366-.595.686-.823 1.143-.823.366 0 1.234-.343 1.966-.777 1.165-.686 1.851-1.006 4.091-1.897.32-.138 1.074-.389 1.646-.572 1.6-.48.777.183-1.052.846-2.285.846-5.394 2.468-5.394 2.811 0 .229.183.275.64.16.777-.16 1.577-.548 1.76-.8.16-.274 2.994-1.691 3.36-1.691.16 0 .503-.16.754-.389.229-.205 1.326-.571 2.423-.8 1.12-.228 2.24-.548 2.515-.685.708-.389 9.462-2.858 11.2-3.178 2.468-.434 4.228-.548 4.228-.25 0 .16-.389.273-.869.273-.891 0-3.154.686-4.891 1.486-.594.251-1.806.663-2.697.914-1.646.435-3.794 1.532-3.794 1.92 0 .503 1.371.115 4.205-1.211 2.835-1.349 3.703-1.669 4.457-1.669.96 0 .869.389-.16.732-.48.16-1.211.571-1.622.937-1.532 1.303-5.852 2.72-9.509 3.108-1.508.183-2.354.48-3.131 1.098-.206.16-1.075.48-1.966.708-1.623.434-2.606.937-2.309 1.212.435.457 7.109-1.463 8-2.286.389-.366.846-.48 2.103-.48.892 0 1.623-.069 1.623-.183 0-.297 3.269-1.326 3.817-1.189.343.092 1.074-.274 2.4-1.211 4.366-3.063 6.857-4.457 10.812-5.966 2.445-.937 3.794-1.257 6.08-1.508 1.257-.137 2.377-.389 2.765-.64.503-.343 1.349-.64 2.217-.777.069-.023.206.045.297.114zm23.154.526c.137.434-.366.343-.526-.092-.092-.228-.046-.343.137-.297.16.069.32.229.389.389zm94.856-.206c.274.183.206.251-.32.251-.366 0-.64-.114-.64-.251 0-.297.48-.297.96 0zm23.109.091c.068.229-.092.275-.595.206-.937-.137-1.12-.526-.251-.526.388 0 .777.138.846.32zm-30.286.938c-.137.137-.777.182-1.6.068-1.394-.16-1.509-.503-.229-.663.96-.114 2.149.275 1.829.595zm-180.159-.298l.732.16-.732.298c-.937.388-3.223.434-3.84.09-.411-.25-.343-.296.617-.296.572-.023 1.235-.114 1.44-.252.389-.251.732-.251 1.783 0zm46.217 0c0 .32-.686.595-.914.366-.092-.068 0-.251.183-.366.48-.297.731-.297.731 0zm87.474.023c.251.389.023.457-.32.069-.16-.183-.206-.343-.069-.343.137 0 .297.137.389.274zm-.96.206a.628.628 0 0 1-.48.251c-.183 0-.412-.114-.48-.251-.092-.114.114-.229.48-.229.343 0 .548.115.48.229zm-130.674.48c0 .137-.228.251-.503.251-.274 0-.434-.114-.342-.251.068-.114.297-.229.48-.229.205 0 .365.115.365.229zm14.332.16c-.092.068-.298.091-.458.023-.205-.092-.137-.137.138-.16.251 0 .388.046.32.137zm29.828.571c-.457.389-.891.64-.96.572-.16-.16 1.211-1.303 1.554-1.28.137 0-.137.32-.594.708zm82.468.069c-.069.16-.114.023-.114-.32 0-.32.045-.457.114-.297a.951.951 0 0 1 0 .617zm-3.817.343l.549.64-.526.548c-.389.412-.754.549-1.44.526-.617-.023-.846-.137-.732-.297.115-.16.458-.663.778-1.166.32-.503.64-.891.708-.891.046 0 .343.274.663.64zm71.222-.412c-.091.137-.365.229-.617.229-.251 0-.457-.092-.457-.229s.274-.251.594-.251c.366 0 .549.114.48.251zm-172.159 1.326c-.525.366-1.005.297-1.005-.137 0-.137.343-.229.777-.229.754 0 .777 0 .228.366zm18.446-.16c0 .297-1.714 2.011-1.874 1.851-.069-.068.16-.41.503-.777.342-.343.64-.777.64-.96 0-.183.16-.32.365-.32.183 0 .366.092.366.206zm-2.103.617c-.228.343-.64.594-.914.594-.457 0-.457 0 .023-.205.251-.115.617-.366.8-.595.503-.594.571-.434.091.206zm4.252-.503c0 .069-.16.229-.366.412-.297.251-.343.228-.206-.092.114-.343.572-.571.572-.32zm-16.023.32a.884.884 0 0 1-.594 0c-.16-.068-.023-.114.297-.114s.457.046.297.114zm174.353-.023c-.069.092-.274.092-.457.023-.183-.068-.137-.137.137-.137.251-.023.411.046.32.114zm-45.051 1.19c.457.456.731.822.617.822-.434 0-1.806-1.006-1.806-1.326 0-.548.32-.411 1.189.503zm39.908-.687a.951.951 0 0 1-.617 0c-.16-.068-.023-.114.32-.114.32 0 .457.046.297.114zm-113.645.457c-.091.092-.297.092-.457.023-.206-.068-.137-.137.137-.137.252-.023.389.046.32.114zm38.629.709c.16.457.16.823.045.823-.114 0-.205.114-.205.251s.16.229.388.183c.297-.046.48.183.617.8.183.732.115 1.006-.411 1.783-.343.503-.686 1.303-.754 1.806-.069.48-.229 1.005-.32 1.165-.275.458-.96.023-.96-.594 0-.32-.138-.594-.32-.594-.229-.023-.229-.046 0-.137.182-.069.32-.297.32-.503 0-.229.182-.594.388-.846.389-.411.389-.503-.023-1.257-.457-.846-.411-1.394.229-2.926.411-1.028.686-1.005 1.006.046zm91.062-.366c1.394.275 2.446.96 1.44.96-.297 0-.869-.16-1.257-.365-.572-.298-1.12-.343-2.332-.229-1.211.091-1.508.069-1.188-.137.228-.137.525-.183.64-.114.137.068.297.022.388-.115.183-.297.686-.297 2.309 0zm-219.77.48c.754.275.777.617.091.983-.503.274-1.371.114-3.063-.548-.571-.229-.594-.252-.137-.435.686-.297 2.377-.274 3.109 0zm113.302 0c.068.137.343.229.594.229.252 0 .526.114.594.251.115.16-.16.229-.754.137-.503-.045-1.303-.114-1.737-.114-.869-.023-.8-.366.091-.571.823-.206 1.052-.183 1.212.068zm75.474.229c0 .137-.16.251-.366.251-.183 0-.343-.114-.343-.251 0-.114.16-.229.343-.229.206 0 .366.115.366.229zm24.48.114c0 .343-.892.777-1.12.526-.092-.069-.069-.297 0-.503.182-.457 1.12-.48 1.12-.023zm-104.32.366c.252.251-.914.663-2.285.823-.755.091-1.349.023-1.806-.206-.663-.366-.64-.366.8-.366 1.028 0 1.554-.114 1.783-.365.297-.343 1.051-.298 1.508.114zm122.194-.069c.457.366.457.366-.229.206-.891-.206-1.371-.617-.708-.594.251 0 .685.183.937.388zm-83.017.823c.069.114.023.206-.114.206-.389 0-1.463-.526-1.463-.732 0-.228 1.394.229 1.577.526zm-38.194-.366c.206.092.32.252.252.366-.206.32-.526.252-.686-.137-.16-.411-.114-.434.434-.229zm79.588.343a.229.229 0 0 1-.228.229.505.505 0 0 1-.389-.229c-.069-.137.023-.251.229-.251.205 0 .388.114.388.251zm-158.879.092c0 .045-.183.16-.388.251-.206.069-.298.023-.229-.114.137-.229.617-.32.617-.137zm68.845.891c-.525.754-1.097 1.097-1.325.869-.252-.252.96-1.577 1.417-1.6.411 0 .411.045-.092.731zm119.428-.411c.275.205.389.434.297.525-.114.115-.32.069-.48-.091-.16-.16-.64-.297-1.074-.297-.434 0-.777-.092-.777-.229 0-.365 1.509-.297 2.034.092zm-212.593.068c.297.069.549.229.549.366 0 .343-1.989.114-2.103-.229-.114-.32.64-.388 1.554-.137zm186.01-.023c-.09.092-.297.092-.457.023-.205-.068-.137-.137.138-.137.251-.023.388.046.32.114zm1.67 0c-.07.092-.275.092-.458.023-.183-.068-.137-.137.137-.137.252-.023.412.046.32.114zm6.56.115c0 .434-.687.525-2.127.32l-1.371-.206 1.577-.137c.846-.092 1.623-.16 1.737-.183.092-.023.183.069.183.206zm-171.611.365c0 .206-.457.618-1.806 1.578-.663.48-1.463 1.165-1.783 1.531-.343.343-.823.754-1.074.891-.366.206-.434.16-.297-.16.228-.594-.275-.457-1.28.343-.503.389-1.006.709-1.143.709s-.366.16-.503.343c-.137.16-.777.571-1.394.891-.617.32-1.486.937-1.897 1.372-.435.434-.846.685-.915.571-.16-.274 2.149-2.446 2.583-2.446.434 0 1.714-1.28 1.394-1.394-.525-.16-.297-.526.343-.526.343 0 1.006-.297 1.486-.685.503-.366 1.211-.8 1.6-.938.411-.137 1.531-.685 2.537-1.211 1.806-.983 2.149-1.12 2.149-.869zm1.92-.045c0 .045-.252.274-.549.525l-.526.458.458-.526c.434-.526.617-.663.617-.457zm92.502.525c.183.526.183.572-.16.572-.183 0-.32-.206-.32-.48 0-.572.274-.617.48-.092zm42.628.343c0 .137-.114.229-.251.229s-.229-.092-.229-.229.092-.251.229-.251.251.114.251.251zm27.36.229c0 .137-.411.251-.914.228-.8-.022-.823-.045-.297-.228.868-.274 1.211-.274 1.211 0zm31.794 0c.434.16.412.206-.297.571-.777.412-1.143.252-.891-.411.16-.412.434-.457 1.188-.16zm-210.353.206c0 .182-1.531.845-2.057.891-.137.023-.663.16-1.188.32-1.143.32-4.115.366-4.32.046-.206-.343.32-.572 2.4-1.006 2.034-.411 5.165-.571 5.165-.251zm161.325-.046a.884.884 0 0 1-.594 0c-.16-.046-.023-.114.297-.114s.457.068.297.114zm29.531 0a.951.951 0 0 1-.617 0c-.16-.046-.023-.114.32-.114.32 0 .457.068.297.114zm-185.279.251a.951.951 0 0 1-.617 0c-.16-.068-.023-.114.32-.114.32 0 .457.046.297.114zm8.823.297c0 .275-2.88 2.218-3.154 2.126-.32-.091.023-.48 1.326-1.463 1.12-.845 1.828-1.097 1.828-.663zm104.754.023c.183.297-.366.297-.846 0-.297-.183-.251-.228.16-.228.297 0 .594.091.686.228zm3.085.777c-.137.229-1.142.252-1.37.023-.092-.091.022-.274.25-.457.298-.206.526-.228.823-.023.229.137.366.343.297.457zm65.76-.548c-.114.137-.754.297-1.394.366-.64.045-1.234.205-1.326.32-.16.251-2.286.571-3.703.571-1.417 0-1.485-.411-.068-.434.685-.023 2.217-.252 3.405-.526 2.446-.549 3.452-.663 3.086-.297zm-92.48.731c0 .32-.548.297-1.37-.023l-.686-.274.617-.183c.617-.183 1.44.092 1.44.48zm10.423-.114c.252.206.755.343 1.143.343.366 0 .663.114.663.251 0 .115-.548.206-1.234.16-1.12-.045-1.28.023-1.897.777-.915 1.098-1.212.778-.389-.411.343-.503.64-1.051.64-1.189 0-.388.503-.365 1.074.069zm3.452 1.28c-.777.914-1.166 1.189-1.166.823 0-.297 1.714-2.034 1.852-1.897.068.068-.229.571-.686 1.074zm69.874-.8c-1.12.434-1.326.434-.96 0 .16-.206.64-.366 1.051-.343l.754.023-.845.32zm-22.629.594c.709.16 1.28.389 1.28.503 0 .343-2.834.252-3.771-.137-.48-.206-1.052-.366-1.303-.366-.64 0-.571-.434.091-.525.595-.092 1.806.068 3.703.525zm232.022 0a.471.471 0 0 1-.389.229c-.137 0-.16-.092-.091-.229.091-.137.251-.251.388-.251s.183.114.092.251zm-281.781.595c-.138.342-1.28 1.211-1.28.96 0-.069.16-.389.365-.732.435-.617 1.143-.823.915-.228zm11.542.434c.183.297.115.48-.228.754-.274.206-.549.366-.617.366-.16.023-.663-1.646-.526-1.76.183-.206 1.097.251 1.371.64zm3.017-.412c0 .069-.228.092-.48.092-.274 0-.48-.092-.48-.206 0-.114.206-.16.48-.091.252.068.48.16.48.205zm68.16.092a.254.254 0 0 1-.251.251c-.138 0-.229-.114-.229-.251 0-.114.091-.229.229-.229.137 0 .251.115.251.229zm-62.491.16c-.229.251-2.4.548-2.674.366-.137-.092.137-.229.594-.298 1.189-.205 2.263-.251 2.08-.068zm-114.88.891c0 .709-.456 2.126-.822 2.469-.137.16-.549.343-.892.411-.548.137-.662.069-.891-.548-.297-.892.297-2.103 1.303-2.537 1.028-.458 1.303-.412 1.303.205zm126.491-.091c0 .137-.48.251-1.028.228-.8 0-.914-.068-.549-.228.686-.274 1.577-.274 1.577 0zm57.76-.092c-.251.275-1.6.366-1.6.115 0-.137.389-.252.869-.252s.822.069.731.137zm2.537.023a.951.951 0 0 1-.617 0c-.16-.068-.023-.114.32-.114.32 0 .457.046.297.114zm-103.473.457c-.298.229-.618.32-.71.229-.182-.183.412-.594.915-.594.229 0 .16.114-.205.365zm-88.32.275c-.137.228-.457.64-.754.914a40.92 40.92 0 0 0-1.052 1.006c-.594.571-.868.685-.868.343 0-.252 2.445-2.675 2.697-2.675.114 0 .091.183-.023.412zm-5.783.297c-.16.274-.365.48-.503.48-.32 0-.297-.183.069-.594.457-.503.709-.435.434.114zm144.89-.137c.16.183-.754.251-3.36.251-1.782.023-2.445-.183-1.325-.411.731-.16 4.503-.023 4.686.16zm-88.022.137a.254.254 0 0 1-.251.251c-.137 0-.183-.114-.114-.251.091-.114.205-.229.251-.229.069 0 .114.115.114.229zm37.326.251a.505.505 0 0 1-.389.229c-.137 0-.182-.092-.091-.229a.497.497 0 0 1 .389-.251c.137 0 .16.114.09.251zm19.314-.16c0 .069-.16.229-.366.389-.297.251-.342.228-.342-.069 0-.228.16-.411.342-.411.206 0 .366.046.366.091zm69.897.069a.884.884 0 0 1-.594 0c-.16-.046-.023-.114.297-.114s.457.068.297.114zm-176.228 1.714c-.068 1.897-.777 2.766-1.005 1.212-.16-1.029.434-2.56.96-2.583.045 0 .068.617.045 1.371zm170.056-1.143c.092.137-.205.229-.708.229-.48 0-.846-.092-.846-.229s.297-.251.686-.251c.388 0 .777.114.868.251zm4.526.046c-.068.114-1.051.183-2.194.183-1.166 0-1.966-.069-1.829-.183.389-.229 4.16-.229 4.023 0zm-71.77.206c-.138.16-.732.32-1.304.411-.96.114-1.028.092-.731-.274.206-.252.686-.389 1.303-.389.708 0 .914.069.731.252zm-4.275.365c.457.366.434.366-.343.252-.434-.092-1.006-.16-1.257-.16-.252 0-.434-.092-.434-.229 0-.388 1.531-.274 2.034.137zm26.331-.228c-.16.068-.48.068-.708.023-.229-.069-.115-.115.297-.115.388-.022.571.046.411.092zm-137.096.274c-.023.297-2.377 1.303-3.429 1.44-.914.114-.983.092-.685-.274.182-.206.502-.389.731-.389.229 0 .617-.16.869-.32.754-.525 2.537-.845 2.514-.457zm10.08.64c0 .092-.137.732-.846 3.909-.069.297-.251.548-.389.548-.342 0-.137-3.314.252-4.045.228-.435.983-.755.983-.412zm100.8.892c-.32.137-1.898.297-3.475.342-2.789.092-2.834.069-1.44-.205 1.966-.389 5.76-.503 4.914-.137zm8.16.571c0 .183-.16.343-.344.343-.457 0-.685-.389-.32-.549.526-.205.663-.16.663.206zm-113.28.96c-.16.183-.434.274-.64.183-.274-.114-.252-.229.206-.732.457-.48.57-.502.64-.182.045.205-.046.548-.206.731zm-2.834.366c-.458.937-.709 1.188-1.075 1.143-.754-.115-.731-.503.092-.983.411-.229.8-.64.868-.892.069-.274.252-.48.412-.48.205 0 .091.412-.297 1.212zm124.524-.732c0 .137-.228.229-.502.229-.275 0-.435-.092-.343-.229.068-.137.297-.251.48-.251.205 0 .365.114.365.251zm1.669-.137c0 .252-.457.366-.594.137-.092-.137.023-.251.228-.251.206 0 .366.068.366.114zm40.32.137c-.48.297-.777.297-.595 0 .07-.137.32-.228.55-.228.342 0 .365.023.045.228zm-122.4.595c0 .342-.09.594-.205.594-.114 0-.16-.252-.092-.594.069-.32.16-.595.206-.595.046 0 .092.275.092.595zm9.715-.046c.32.457.343.548.023.617-.503.091-1.326-.411-1.326-.823 0-.526.868-.411 1.303.206zm35.84.251c.251.183.251.297-.023.572-.297.297-.457.251-1.235-.183-.64-.389-.8-.594-.571-.732.343-.228 1.349-.045 1.829.343zm9.897-.32c0 .137-.663.229-1.509.206-1.188-.023-1.348-.069-.777-.206 1.074-.274 2.286-.274 2.286 0zm-95.131.96c-.023.846-.092.96-.526.915-.32-.046-.457-.229-.388-.549.068-.389.685-1.326.89-1.326.024 0 .024.435.024.96zm40.914-.594c0 .114-.114.251-.252.297-.137.069-.251-.091-.251-.297 0-.229.114-.366.251-.32.138.046.252.183.252.32zm-52.823.114c0 .137-.114.229-.251.229s-.229-.092-.229-.229.092-.251.229-.251.251.114.251.251zm19.109 1.326c.023.32-.069.594-.183.594-.114 0-.206-.274-.206-.594 0-.777.343-.777.389 0zm6.811-.137c0 .274-.731.526-1.006.366-.114-.092-.16-.229-.114-.32.16-.252 1.12-.275 1.12-.046zm-10.331.548c0 .183-.16.549-.366.846-.297.412-.32.549-.069.572.183 0-.114.114-.64.205-.64.137-1.417.092-2.262-.114-1.737-.457-2.103-.846-.8-.846.548 0 1.051.115 1.143.229.068.137.525.251.982.251.526 0 .777-.091.686-.251-.183-.32.549-1.189 1.006-1.189.183 0 .32.137.32.297zm9.005.183c-.091.137-.32.229-.502.229-.183 0-.343-.092-.343-.229s.228-.251.503-.251c.274 0 .411.114.342.251zm2.4.137c-.525.389-.845.435-.845.115 0-.229.411-.457.96-.457.274-.023.251.068-.115.342zm78.126-.137c0 .137-.183.229-.389.229-.206 0-.297-.092-.229-.229.092-.137.252-.251.39-.251.113 0 .228.114.228.251zm-87.291.48c.114.503-.206.617-.777.275-.183-.138-.252-.343-.16-.48.274-.435.8-.32.937.205zm121.37-.251c0 .137-.297.251-.662.251-.526 0-.595-.068-.298-.251.458-.297.96-.297.96 0zm11.497.343c.23.297.07.343-1.074.32l-1.371-.023.8-.297c1.097-.389 1.303-.389 1.645 0zm-128.136.137c0 .137-.068.251-.114.251-.069 0-.183-.114-.252-.251-.091-.114-.045-.229.092-.229s.274.115.274.229zm93.348.114c-.617.343-1.074.274-.823-.114.069-.137.412-.229.777-.229l.64.023-.594.32zm19.863-.206c-.092.092-.297.092-.457.023-.206-.068-.137-.137.137-.137.251-.023.388.046.32.114zm63.36.046c-.366.046-.96.046-1.326 0-.366-.068-.069-.114.663-.114.731 0 1.028.046.662.114zm-199.496.297c-.092.137-.389.229-.686.229-.412 0-.457-.046-.16-.229.48-.297 1.028-.297.846 0zm7.428-.023c.183.298-.32.435-1.074.298l-.594-.115.594-.183c.846-.251.914-.251 1.074 0zm-13.303.115c0 .228-.731.343-.868.137-.069-.114.091-.229.365-.229.275 0 .503.046.503.092zm1.783.114c.434.183.434.206-.068.343-.663.16-1.532-.046-1.349-.343.16-.251.754-.251 1.417 0zm48.937.891c.709.275.411.549-.571.549-.983-.023-1.303-.32-.549-.526.663-.16.731-.16 1.12-.023zm-3.451.572c.274.206.228.251-.275.251-.343 0-1.143.069-1.783.16-1.417.183-1.234-.183.206-.411 1.463-.252 1.463-.252 1.852 0zm70.902.365c-.503.39-1.051.48-1.051.16 0-.342.297-.525.914-.525.594 0 .594.023.137.365zm-122.262.092c0 .343-.96.503-1.577.274-.869-.343-.709-.48.503-.48.594 0 1.074.092 1.074.206zm19.863-.069c-.092.092-.297.092-.457.023-.206-.068-.138-.137.137-.137.251-.023.388.046.32.114zm1.257.092c0 .137-.092.251-.229.251-.114 0-.297-.114-.365-.251-.092-.115.022-.229.228-.229.206 0 .366.114.366.229zm6.423-.046c-.503.046-1.258.046-1.692 0-.411-.069-.023-.114.914-.114.915 0 1.258.045.778.114zm19.748.046c-.206.137-.869.228-1.44.228-.823 0-.983-.068-.617-.228.709-.297 2.514-.297 2.057 0zm-29.463.16c-.16.068-.48.068-.731.023-.229-.069-.091-.115.297-.115.412-.023.594.046.434.092zm39.954 0c-.091.068-.297.091-.457.023-.205-.092-.137-.138.137-.16.252 0 .389.045.32.137zm-23.817.32c.092.16-.251.251-.822.251-.549 0-.983-.114-.983-.251 0-.115.365-.229.823-.229.457 0 .891.114.982.229zm18.606-.137c0 .045-.229.16-.48.228-.274.069-.48.023-.48-.091 0-.137.206-.229.48-.229.251 0 .48.046.48.092zm68.16 0c0 .068-.183.297-.412.502-.251.275-.594.343-1.097.23-.823-.184-1.371.365-1.371 1.393 0 .343-.115.709-.252.777-.137.092-.228.366-.228.595 0 .525-.229.617-2.766.937-3.154.411-5.691.548-5.531.274.091-.137.571-.251 1.097-.251.503 0 .983-.092 1.074-.229.069-.137.434-.251.823-.251.686 0 3.177-1.189 3.84-1.852.205-.205.48-.594.617-.845.297-.595 2.08-1.303 3.291-1.349.503-.023.915.023.915.069zm-23.612.731c-.16.32-.548.731-.868.891-.823.39-6.72.595-6.72.23 0-.138.228-.275.526-.275.297 0 .982-.137 1.508-.32s1.737-.412 2.72-.503c.96-.092 1.989-.252 2.286-.366.777-.32.845-.274.548.343zm16.343.069c.046.16-.274.342-.823.434a22.15 22.15 0 0 0-2.354.594c-1.211.366-3.771 1.052-6.011 1.623-.389.091-.366 0 .228-.64.389-.411.846-.754 1.029-.754.183 0 .891-.275 1.577-.617 1.783-.915 6.126-1.349 6.354-.64zm13.989.068c-.206.137-.48.229-.618.229-.137 0-.068-.092.138-.229.182-.137.457-.228.594-.228.137 0 .068.091-.114.228zm84.799.366c.343.32.846.594 1.166.594.297.023.754.16.983.343.48.366 1.485.32 3.04-.114 1.097-.297 2.331-.297 2.514.023.114.16-.183.182-.846.068-.663-.091-1.051-.046-1.166.137-.114.16-.96.343-1.897.435-1.371.114-1.943.045-2.743-.298-1.051-.457-2.102-1.257-2.102-1.6 0-.365.457-.205 1.051.412zm-210.376.48c.503.48-2.354.868-3.405.457-.503-.206-.48-.526.022-.663.435-.137 3.223.046 3.383.206zm124.73-.137c.07.137.024.434-.09.663-.206.342-.572.434-2.126.434-1.555 0-1.989.091-2.629.526-.983.708-1.257.708-.594-.023.366-.366 1.143-.709 2.263-.983.96-.229 1.897-.503 2.103-.617.48-.275.891-.275 1.074 0zm-130.261.388c-.092.092-.297.092-.457.023-.206-.068-.137-.137.137-.137.251-.023.388.046.32.114zm38.651.343c.046 0 0 .114-.069.229-.182.297-1.851.32-3.04.091l-.8-.183 1.189-.274c.731-.16 1.486-.183 1.92-.069.389.115.754.206.8.206zm-11.223-.137c0 .183-1.234.297-1.348.114-.069-.114.205-.228.594-.228.411 0 .754.045.754.114zm40.251.274c.595.183.275.48-.525.48-.503 0-.892-.137-1.075-.411-.228-.389-.182-.412.526-.297.412.068.914.183 1.074.228zm-58.17.617c-.138.229-1.76.549-1.92.366-.32-.297.205-.594 1.096-.571.526.023.892.114.823.205zm75.747.366c.252.252-3.04.366-4.182.16l-.709-.137.686-.274c.731-.32 3.84-.137 4.205.251zm-63.953.297c1.142.206 1.622.457 1.417.755-.137.251-2.88.16-4-.138-.777-.182-.892-.594-.183-.594.274 0 .48-.114.48-.274 0-.16.228-.206.663-.069.365.092 1.097.252 1.623.32zm10.788.206c.777.114.846.183.411.274-.845.229-3.908.023-3.748-.251.16-.229 1.714-.252 3.337-.023zm69.6.731a2.292 2.292 0 0 0-.709.275c-.137.114-.937.114-1.806.045l-1.554-.16 1.806-.388c1.28-.252 1.92-.297 2.263-.114l.48.251-.48.091zm-8.092-.297c-.091.092-.297.092-.457.023-.206-.068-.137-.137.137-.137.252-.023.389.046.32.114zm30.651.092a.497.497 0 0 1-.388.251c-.137 0-.16-.114-.092-.251.092-.115.252-.229.389-.229s.183.114.091.229zm-86.262.251c0 .137.229.229.549.229.297 0 .754.16 1.005.365.435.32.298.343-1.325.343-.983-.023-2.08-.114-2.4-.205-.549-.16-.503-.183.411-.343.572-.115 1.097-.297 1.166-.412.183-.297.594-.274.594.023zm123.177-.091a.951.951 0 0 1-.618 0c-.16-.046-.022-.115.32-.115.32 0 .458.069.298.115zm55.2.091c-.32.137-1.144.137-1.92.023l-1.395-.206 1.92-.023c1.371 0 1.76.069 1.394.206zm-146.766.48c.023.32-.16.526-.548.617-.777.206-7.086.252-7.086.069 0-.092.732-.229 1.623-.32.891-.092 1.737-.274 1.874-.366.137-.114.846-.251 1.555-.297.731-.046 1.6-.114 1.92-.137.457-.046.617.068.662.434zm-15.451-.023c.389.137.411.206.114.32-.96.366-6.148.709-6.331.435-.343-.572 5.028-1.235 6.217-.755zm78.56-.068c.297.091.548.228.548.343 0 .297-1.348.388-1.966.16l-.548-.229.594-.183c.8-.251.777-.251 1.372-.091zm-85.6.594c0 .091-.183.229-.388.32-.503.183-4.298.183-5.509-.023-.869-.16-.914-.183-.343-.343.732-.228 6.24-.183 6.24.046zm-20.685.709c-.366.228-.755.045-.572-.252.092-.114.32-.16.503-.068.297.114.32.182.069.32zm-23.475-.023c.32.228.32.251 0 .228-.205 0-.594-.114-.845-.228l-.48-.206h.48c.251 0 .64.091.845.206zm2.377.068c.023.32-.662.48-1.325.32-.32-.091-.549-.251-.457-.388.16-.275 1.782-.206 1.782.068zm19.658.046c-.275.229-1.395.343-1.395.16 0-.251.937-.48 1.257-.32.115.069.16.137.138.16zm4.09.297c.07.046-.296.069-.753.069-.48 0-.938-.115-1.029-.252-.114-.16.137-.205.754-.091.526.091.983.228 1.029.274zm60.458-.16c.685 0 .48.343-.32.572-.252.068-.023.091.525.022 1.189-.137 1.623.252.549.48-.457.115-.914.046-1.257-.16-.297-.182-1.166-.365-1.966-.388-.777-.023-1.463-.092-1.508-.16-.183-.183 1.988-.572 2.674-.457.388.045.96.091 1.303.091zm111.702.297c-.16.137-.366.183-.457.092-.115-.092-.023-.275.16-.389.457-.274.64-.068.297.297zm-104.342-.137c.731.274-.138.549-1.669.526h-1.44l1.074-.32c1.349-.389 1.555-.412 2.035-.206zm-64.846.823c.8 0 .915.046.503.206-.274.114-.983.183-1.554.137-1.989-.16-2.057-.16-1.303-.366.411-.091.869-.137 1.051-.091.16.045.755.091 1.303.114zm72.297-.023c.069.137-.091.229-.366.229-.274 0-.434-.092-.365-.229.091-.137.251-.251.365-.251.115 0 .275.114.366.251zm2.034 0c.32.206.32.229 0 .229-.205 0-.525-.092-.708-.229-.32-.206-.32-.228 0-.228.183 0 .503.091.708.228zm-28.48.686c.252.228.892.571 1.44.8.8.297.915.434.572.548-.503.206-1.372.069-2.812-.48-.594-.205-1.645-.457-2.354-.525-1.508-.16-1.417-.343.389-.686 1.531-.297 2.125-.229 2.765.343zm25.052-.526a1.671 1.671 0 0 1-.823 0c-.229-.046-.046-.114.411-.114.457 0 .64.068.412.114zm-44.983.229c.777.114 1.12.274 1.212.594.068.32-.023.457-.275.48-1.874.069-9.965-.023-10.08-.137-.388-.389.618-.617 3.452-.8 4.365-.297 4.48-.297 5.691-.137zm373.78.48c-.068.068-.274.091-.456.023-.183-.092-.138-.138.137-.16.251 0 .411.045.32.137zm-413.688.32c0 .137-.343.251-.777.228-.663 0-.709-.045-.297-.228.662-.275 1.074-.275 1.074 0zm29.325.045c.823-.022 1.098.366.412.572-.686.228-6.309-.137-6.057-.389.297-.274 2.148-.411 3.68-.274a45.72 45.72 0 0 0 1.965.091zm15.315.115c0 .045-.275.091-.618.091-.342 0-.548-.091-.48-.228.138-.183 1.098-.069 1.098.137zm2.125-.137c-.251.137-.617.137-.96 0-.503-.183-.434-.229.389-.229.731 0 .868.046.571.229zm-50.605.457c.274.183.206.251-.297.251-.366 0-.663-.114-.663-.251 0-.297.48-.297.96 0zm112.776-.137c-.045.045-.571.137-1.165.228-.686.069-.938.046-.709-.091.32-.206 2.103-.343 1.874-.137zm261.393.64c0 .205-.754.525-.914.365-.046-.045-.023-.32.068-.617.115-.411.229-.457.503-.228.183.16.343.365.343.48zm1.92 0c0 .137-.183.228-.366.228-.365 0-.48-.274-.205-.548.182-.206.57.022.57.32zm-370.33.228c-.48.297-1.85.297-2.033 0-.092-.16.32-.228 1.12-.228.914 0 1.165.068.914.228zm369.301.137c-.091.092-.297.092-.457.023-.205-.068-.137-.137.137-.137.252-.023.389.046.32.114zm20.869 2.652c-.069.068-.274.091-.457.023-.183-.092-.137-.138.137-.16.251 0 .411.045.32.137z"/>
	<path d="M240.85 67.871c-1.006.046-2.149.252-2.56.434-.434.206-.869.343-.983.343-.114 0-.548.343-.983.732-.434.388-.891.708-.983.708-.114 0-.411.297-.64.663-.274.434-.297.572-.091.412.206-.16.617-.343.96-.412.32-.091.891-.388 1.234-.686.96-.754 2.332-1.188 3.36-1.028.48.068.937.023 1.029-.114.205-.343.777-.069.914.457.069.274-.16.731-.594 1.211-.64.709-.709.914-.572 1.852.069.571.023 1.257-.114 1.508-.183.343-.16.457.023.457.16 0 .617.297 1.028.64.732.617 1.372.663 3.292.275.183-.023.343 0 .343.068 0 .366.845.937 1.188.8.457-.183.48-.434.092-1.051-.229-.366-.229-.526-.023-.755.228-.228.411-.182.777.138.274.251.411.525.343.64-.069.114 0 .205.16.205.206 0 .251-.251.16-.823-.092-.48-.023-.914.114-.982.137-.092 0-.389-.388-.755-.343-.32-.915-1.005-1.258-1.531-.342-.526-.685-.892-.754-.823-.068.069-.114.663-.068 1.303.022.96-.069 1.257-.435 1.44a4.28 4.28 0 0 0-.8.594c-.274.274-.457.297-.937.069-.617-.32-.754-.96-.366-1.715.138-.274.229-.822.183-1.234-.045-.503.137-.96.572-1.463.32-.411.617-.8.617-.868 0-.366-.846-.869-1.417-.823-.343.023-1.44.068-2.423.114z"/>
	<path d="M238.336 71.323c-.64.8-1.097 1.508-1.006 1.577.183.183 2.56-2.332 2.56-2.72 0-.617-.434-.32-1.554 1.143zM226.084 73.448c-.091.137-.32.252-.525.252-.206 0-1.143.503-2.08 1.143-2.126 1.394-2.24 1.485-2.858 2.148-.274.297-.64.549-.8.549-.365 0-.548.457-.388 1.028.137.595.366.526 1.006-.32.297-.388.685-.708.845-.708.32 0 1.806-1.326 2.172-1.943.114-.206 1.051-.754 2.08-1.234 1.028-.48 1.874-.938 1.874-1.006 0-.252-1.189-.137-1.326.091zM234.13 77.288c-.206.389-.183.48.091.48.183 0 .755.389 1.258.846.822.754.937.8 1.302.457.709-.617.778.092.115.892-.48.57-.64.662-.755.365-.182-.48-1.76-1.691-1.965-1.485-.069.068.023.502.228.937.526 1.12 1.669 1.6 3.132 1.371 1.348-.206 1.645-.411 1.142-.8-.205-.16-.32-.571-.297-.937.069-.526-.137-.8-1.211-1.623-1.486-1.097-2.629-1.303-3.04-.503zM249.01 77.7c.023.365.023 1.303.023 2.057-.046 1.646-.366 1.76-1.28.434-.526-.777-.755-.914-1.44-.891-.8.045-3.269 1.325-3.817 1.965-.389.503-.48 1.555-.115 1.555.16 0 .526-.32.823-.732.663-.891 1.874-1.668 2.629-1.668.8 0 1.965.663 1.965 1.12 0 .228.183.594.389.845.32.343.343.503.091.8-.457.526-1.28.435-1.92-.251-.32-.32-.822-.594-1.142-.594-.503 0-.572.091-.435.617.16.594.115.617-.571.457-.572-.114-.732-.069-.732.228 0 .206.115.366.252.366.114 0 .206.092.16.206-.069.206 1.143 1.714 1.394 1.714.092 0 .343-.228.572-.503.365-.434.48-.457.914-.183.457.275.594.252.983-.091.228-.229.548-.411.685-.411.138 0 .435-.229.686-.48.366-.412.434-.938.457-3.772.023-2.537-.045-3.291-.297-3.383-.228-.068-.32.115-.274.595zM238.496 84.74c-.572.251-.709.822-.252 1.097.16.114.686.251 1.189.343.937.182 1.165 0 1.165-.96 0-.64-1.074-.892-2.102-.48zM241.261 86.02c-.823.662-.845 1.28-.068 1.645.411.183.617.457.617.869 0 1.074.64.137.777-1.166.251-1.966-.114-2.331-1.326-1.348zM202.496 66.431c.046.297-.114.457-.48.503-.343.046-.709.411-1.006.983-.251.48-.617 1.028-.823 1.211a1.02 1.02 0 0 0-.388.732c0 .388.685.457 2.468.251.092 0 .183-.274.183-.594 0-.343.229-.709.594-.96.503-.32.595-.549.549-1.463-.023-.96-.091-1.074-.594-1.074-.412 0-.572.114-.503.411zM195.959 70.157c-.206.16-.503.503-.686.731-.297.366-.297.412.114.252.572-.206 1.6-1.28 1.212-1.28-.16.023-.435.137-.64.297zM193.079 71.665c-.457.183-1.029.343-1.257.343-.252 0-.412.206-.412.48 0 .617-.045.617 1.554-.137 1.966-.937 2.035-1.417.115-.686zM192.919 74.065c-.754.732-1.44 1.326-1.509 1.326-.343 0-1.554 1.829-1.508 2.286.023.366-.366.868-1.303 1.691-1.6 1.395-2.743 2.56-2.606 2.674.16.183 1.44-.777 2.354-1.737 1.692-1.805 2.698-2.765 2.88-2.765.115 0 .846-.595 1.6-1.326.937-.891 1.372-1.486 1.28-1.76-.045-.229.115-.617.389-.869.274-.228.503-.525.503-.64 0-.525-.8-.091-2.08 1.12zm-1.486 2.583c-.32.32-.64.069-.411-.297a.328.328 0 0 1 .411-.114c.16.114.16.251 0 .411zM185.376 82.751c-.297.389-.297.389.091.091.229-.182.412-.365.412-.41 0-.207-.206-.07-.503.32zM213.902 89.677c-.092.091-.183.868-.183 1.691 0 .823-.115 1.577-.229 1.646a.628.628 0 0 0-.251.48c0 .183-.252.708-.549 1.166-.297.434-.8 1.257-1.12 1.828-.731 1.212-2.811 3.543-2.994 3.337-.206-.183.274-1.371.708-1.805.183-.183.366-.503.366-.663 0-.183.16-.457.343-.617.206-.16.366-.412.366-.549 0-.16-.755.48-1.646 1.394-1.143 1.143-1.577 1.737-1.394 1.875.183.137.137.16-.137.068-.595-.183-2.652 1.874-2.469 2.492.114.342-.114.64-1.12 1.302-.686.48-1.394.846-1.554.846-.275 0-2.949 2.491-2.949 2.766 0 .068.274.068.64-.023l.663-.16-.434.64c-.297.457-.32.617-.115.617.503 0 1.623-1.166 1.486-1.531-.091-.229.206-.549.8-.892.503-.32 1.143-.708 1.394-.868.252-.16 1.006-.572 1.669-.937 2.103-1.098 4.16-2.949 5.646-5.075.525-.754 1.44-2.034 2.034-2.88.571-.823 1.234-2.103 1.463-2.857.343-1.211.343-1.531.068-2.423-.182-.571-.411-.96-.502-.868zm-5.463 10.56c0 .251-.686.823-.983.823-.183 0-.137-.183.137-.48.411-.458.846-.64.846-.343zm-1.417 1.371c-.298.32-.618.069-.389-.297a.328.328 0 0 1 .411-.114c.16.114.16.251-.022.411zM217.719 95.46c-.092.091-.16.64-.16 1.211 0 .869-.092 1.074-.572 1.257-.731.274-1.6 1.692-1.76 2.88-.114.777-.045.96.412 1.212.662.365 1.211.16 1.211-.48 0-.275.137-.48.343-.48.228 0 .366-.229.366-.595 0-.32.182-.685.411-.823.389-.205.389-.251 0-.685-.411-.457-.411-.526.046-1.829.365-1.051.388-1.371.16-1.577-.16-.137-.366-.183-.457-.091zM115.914 97.837c-.458.343-.412.365.48.251a56.716 56.716 0 0 0 1.92-.366c.96-.205.937-.205-.48-.228-1.006-.023-1.6.091-1.92.343zM112.462 98.202c-.274.298-.434.618-.366.732.206.343.732.228 1.143-.229.366-.388.366-.503.069-.754-.274-.229-.457-.16-.846.251zM122.68 98.82c-.275.274-.184.8.136.8.16 0 .549.32.846.685.549.709 1.394 1.097 1.6.777.274-.434-2.217-2.628-2.583-2.262zM119.296 99.368c-.137.206 1.852 1.44 2.309 1.44.411 0 .069-.571-.503-.868-.297-.138-.663-.389-.8-.526-.343-.32-.823-.366-1.006-.046zM116.096 99.985c-.64.457-.731.96-.091.572.343-.229.754-.16 1.92.251.846.297 1.577.48 1.646.389.274-.275-.709-1.052-1.532-1.212-.457-.091-.96-.205-1.12-.274-.16-.046-.525.069-.823.274zM113.925 101.402c-.457.206-.869.595-.937.869-.069.274-.457.663-.846.846-1.211.64-.686.96 1.417.868 1.052-.045 2.332.023 2.835.16.845.229.96.206 1.417-.388.274-.366.48-.732.457-.8-.023-.092.114-.297.297-.48.32-.252.274-.343-.366-.732-1.028-.617-3.245-.8-4.274-.343zM114.2 105.814c-.96.411-1.6.868-1.806 1.234-.549 1.12-1.189 1.714-1.555 1.417-.183-.137-.32-.411-.32-.594s-.228-.549-.503-.823l-.48-.503.046 1.509c.046.845.16 1.668.297 1.828.32.412-.183.389-.548-.045-.137-.183-.389-.778-.549-1.326-.388-1.303-.754-1.349-.846-.114-.091 1.234.48 2.034 1.509 2.034 1.143 0 2.514-.274 2.514-.526 0-.137.115-.16.252-.068.137.091.503-.069.8-.343.823-.777 2.194-1.235 3.748-1.235 1.417 0 1.989-.388.937-.662-.274-.069-.434-.252-.365-.435.068-.183-.137-.525-.457-.8-.389-.274-.549-.594-.458-.845.229-.549-.48-.48-2.217.297zM105.216 107.55c-.091.984.069 2.035.343 2.31.115.114.115-.412.046-1.12-.16-1.303-.343-1.852-.389-1.19zM131.982 109.95c-.069.138-.343.184-.617.092-.252-.068-.777-.068-1.189.023-.594.137-.708.252-.617.64.092.389.023.457-.343.366-.594-.16-.8.16-.343.548.206.16.366.435.366.595 0 .137.229.525.503.823l.526.548.685-.754c.572-.64.8-.754 1.418-.617.594.137.754.068.982-.435.229-.502.183-.708-.251-1.348-.571-.777-.846-.892-1.12-.48zm-.891.367c-.069.091-.275.091-.458.022-.182-.068-.137-.137.138-.137.251-.023.411.046.32.115zM109.445 112.168c-.823.709-.96.96-1.074 2.194-.16 1.44.091 2.057.845 2.057.343 0 .595.115 1.715.686.891.457.96.343.96-1.348 0-.983.16-1.989.388-2.538.389-.914.389-.937-.068-.822-.297.091-.663-.092-1.006-.435-.297-.32-.594-.594-.686-.594-.091 0-.571.366-1.074.8zm.274 1.669c-.091.297-.16.914-.16 1.348 0 .709-.045.777-.365.503-.206-.16-.32-.526-.275-.8.206-1.006.457-1.6.686-1.6.137 0 .183.251.114.549zM130.176 117.677c-.068 2.148-.228 2.948-.8 4.32-.434 1.005-.434 1.005.503.617.366-.137.777-.252.914-.206 1.143.274 1.258.137 2.012-2.171.343-1.098.343-1.463-.023-1.372-.571.114-1.806-.754-1.966-1.348-.205-.869-.617-.755-.64.16zM160.165 125.608c0 .411-.046 1.074-.092 1.44-.068.457.046.731.389.891.434.252.457.16.457-1.051 0-.731-.069-1.486-.137-1.691-.252-.64-.572-.412-.617.41zM161.559 125.425c.069.183.229.343.343.343.114 0 .228-.16.228-.343a.361.361 0 0 0-.365-.366c-.206 0-.297.138-.206.366zM161.879 128.145c0 .229.091.526.183.617a.745.745 0 0 1 .183.434c0 .138.137.298.297.366.388.137.366-.891-.046-1.44-.411-.548-.617-.526-.617.023zM160.37 128.808c-.205.206.023.571.32.571.138 0 .229-.16.229-.365 0-.366-.274-.48-.549-.206zM172.919 130.476c0 .206.114.298.251.23.137-.092.183-.252.092-.39-.206-.32-.343-.274-.343.16zM70.748 134.865c-.274.091-.96.549-1.508 1.051-.549.503-1.075.892-1.166.892-.092 0-.297.228-.457.48-.16.274-.435.48-.595.48-.16 0 .138-.412.663-.937.892-.937.915-.983.457-1.303-.342-.252-.571-.274-.937-.092-.64.343-2.514 2.378-2.514 2.766-.023.297-.731.434-.731.137 0-.091.434-.685.982-1.348.549-.64.915-1.235.846-1.303-.32-.32-2.354 1.074-3.177 2.148-1.074 1.418-.891 1.829.846 1.738 1.531-.092 2.194-.298 2.194-.732 0-.183.16-.343.343-.343.434 0 .48.755.091 1.143-.16.16-.228.343-.16.412.069.068.892-.686 1.852-1.669.937-1.006 1.851-1.806 2.011-1.806.16 0 .572-.32.892-.731.32-.389.731-.709.891-.709.183 0 .32-.114.32-.251 0-.252-.343-.274-1.143-.023zM70.428 136.762c-.457.48-.571.663-.251.412.96-.778 1.485-1.326 1.28-1.326-.115 0-.572.411-1.029.914zM71.32 137.242c-.046.092-.023.389.068.663.183.457.183.457.457-.046.16-.297.275-.594.275-.663 0-.205-.686-.16-.8.046zM46.131 138.91c-.251.07-.388.23-.343.366.137.458.503.435 1.143-.068.526-.412.549-.457.114-.434a3.83 3.83 0 0 0-.914.137zM57.605 139.756c-.663.275-1.463.572-1.783.709-1.005.389-.342.48 1.052.16.777-.183 1.577-.549 1.851-.869.617-.64.457-.64-1.12 0zM47.8 140.328c-1.76.411-4.869 2.491-3.749 2.491.114 0 .412-.091.663-.228a105.3 105.3 0 0 1 2.491-1.189c1.143-.548 2.149-1.097 2.24-1.234.183-.274.115-.274-1.645.16zM43.411 140.762c-.388.32-.594.594-.457.594.366.023 1.463-.891 1.28-1.051-.069-.091-.457.114-.823.457zM52.074 141.082c-1.166.274-3.931 1.554-4.046 1.874-.137.366.343.48.709.138.114-.115.868-.435 1.668-.732 1.898-.708 3.269-1.44 2.629-1.417-.251 0-.686.069-.96.137z"/>
</svg>
