<?xml version="1.0" encoding="utf-8"?>
<svg xmlns="http://www.w3.org/2000/svg" xmlns:svg="http://www.w3.org/2000/svg" version="1.1" viewBox="0 0 1400 440">
	<title>The titlepage for the Standard Ebooks edition of The Enchanted Castle, by E. Nesbit. Illustrated by H. R. Millar.</title>
	<g>
		<path d="m 605.01389,68.245613 18.33918,0 0,61.754387 17.59064,0 0,-61.754387 18.33918,0 0,-15.438597 -54.269,0 0,15.438597 z"/>
		<path d="m 688.20833,99.029239 24.88889,0 0,30.970761 17.59065,0 0,-77.192984 -17.59065,0 0,30.783626 -24.88889,0 0,-30.783626 -17.59064,0 0,77.192984 17.59064,0 0,-30.970761 z"/>
		<path d="m 791.23612,52.807016 -44.16374,0 0,77.192984 44.16374,0 0,-15.4386 -26.5731,0 0,-15.532161 25.45029,0 0,-15.438597 -25.45029,0 0,-15.345029 26.5731,0 0,-15.438597 z"/>
	</g>
	<g>
		<path d="m 221.68932,152.80702 -44.16374,0 0,77.19298 44.16374,0 0,-15.4386 -26.5731,0 0,-15.53216 25.45029,0 0,-15.4386 -25.45029,0 0,-15.34503 26.5731,0 0,-15.43859 z"/>
		<path d="m 254.39254,182.09357 0.18713,0 30.69006,47.90643 17.59064,0 0,-77.19298 -17.59064,0 0,47.90643 -0.18713,0 -30.69006,-47.90643 -17.59065,0 0,77.19298 17.59065,0 0,-47.90643 z"/>
		<path d="m 357.25657,214.09357 c -17.68421,0 -25.45029,-12.35088 -25.45029,-22.73685 0,-10.29239 7.76608,-22.64327 25.45029,-22.64327 8.98245,0 15.15789,4.77193 15.15789,4.77193 l 7.48538,-14.97076 c 0,0 -8.60818,-7.11111 -25.35672,-7.11111 -21.89474,0 -41.82456,17.96491 -41.82456,40.14035 0,22.08187 20.02339,39.85965 41.82456,39.85965 16.74854,0 25.35672,-7.11111 25.35672,-7.11111 l -7.48538,-14.97076 c 0,0 -6.17544,4.77193 -15.15789,4.77193 z"/>
		<path d="m 409.12937,199.02924 24.88889,0 0,30.97076 17.59065,0 0,-77.19298 -17.59065,0 0,30.78362 -24.88889,0 0,-30.78362 -17.59064,0 0,77.19298 17.59064,0 0,-30.97076 z"/>
		<path d="m 507.19809,152.80702 -16.2807,0 -31.1579,77.19298 18.90059,0 5.7076,-15.4386 29.38012,0 5.7076,15.4386 18.90059,0 -31.1579,-77.19298 z m 0.5614,46.31579 -17.40351,0 8.60819,-22.45614 0.18714,0 8.60818,22.45614 z"/>
		<path d="m 563.86622,182.09357 0.18713,0 30.69006,47.90643 17.59065,0 0,-77.19298 -17.59065,0 0,47.90643 -0.18713,0 -30.69006,-47.90643 -17.59064,0 0,77.19298 17.59064,0 0,-47.90643 z"/>
		<path d="m 619.144,168.24561 18.33918,0 0,61.75439 17.59064,0 0,-61.75439 18.33918,0 0,-15.43859 -54.269,0 0,15.43859 z"/>
		<path d="m 728.91155,152.80702 -44.16374,0 0,77.19298 44.16374,0 0,-15.4386 -26.5731,0 0,-15.53216 25.45029,0 0,-15.4386 -25.45029,0 0,-15.34503 26.5731,0 0,-15.43859 z"/>
		<path d="m 744.02411,152.80702 0,77.19298 22.36257,0 c 21.23977,0 38.92398,-16.09357 38.92398,-38.64328 0,-22.45614 -17.77778,-38.5497 -38.92398,-38.5497 l -22.36257,0 z m 17.59064,61.47368 0,-45.75439 2.71346,0 c 13.09941,0 21.9883,10.0117 21.9883,22.92398 -0.0936,12.91228 -8.98246,22.83041 -21.9883,22.83041 l -2.71346,0 z"/>
		<path d="m 886.83988,214.09357 c -17.68421,0 -25.45029,-12.35088 -25.45029,-22.73685 0,-10.29239 7.76608,-22.64327 25.45029,-22.64327 8.98246,0 15.1579,4.77193 15.1579,4.77193 l 7.48538,-14.97076 c 0,0 -8.60819,-7.11111 -25.35673,-7.11111 -21.89474,0 -41.82456,17.96491 -41.82456,40.14035 0,22.08187 20.02339,39.85965 41.82456,39.85965 16.74854,0 25.35673,-7.11111 25.35673,-7.11111 l -7.48538,-14.97076 c 0,0 -6.17544,4.77193 -15.1579,4.77193 z"/>
		<path d="m 960.32675,152.80702 -16.2807,0 -31.1579,77.19298 18.90059,0 5.7076,-15.4386 29.38012,0 5.7076,15.4386 18.90059,0 -31.1579,-77.19298 z m 0.56141,46.31579 -17.40351,0 8.60818,-22.45614 0.18714,0 8.60819,22.45614 z"/>
		<path d="m 1026.0212,151.40351 c -12.4445,0 -25.1696,9.16959 -25.1696,23.57895 0,8.04678 5.4269,15.25146 14.69,19.83625 9.1696,4.5848 17.4035,7.11111 17.4035,12.72515 0,7.20468 -7.2982,7.57895 -11.1345,7.57895 -8.6081,0 -18.9005,-8.70176 -18.9005,-8.70176 l -8.79536,14.78363 c 0,0 10.94736,10.19883 29.00586,10.19883 15.0643,0 29.0994,-6.45614 29.0994,-24.88889 0,-10.10526 -9.4503,-17.40351 -18.0585,-21.05263 -8.7953,-3.74269 -16.0935,-6.83041 -16.0935,-11.13451 0,-4.21052 3.1812,-6.92397 9.1695,-6.92397 7.9533,0 15.6258,5.33333 15.6258,5.33333 l 7.1111,-14.03509 c 0,0 -9.9181,-7.29824 -23.9532,-7.29824 z"/>
		<path d="m 1056.008,168.24561 18.3392,0 0,61.75439 17.5907,0 0,-61.75439 18.3391,0 0,-15.43859 -54.269,0 0,15.43859 z"/>
		<path d="m 1139.2025,152.80702 -17.5907,0 0,77.19298 44.1638,0 0,-15.4386 -26.5731,0 0,-61.75438 z"/>
		<path d="m 1223.5899,152.80702 -44.1638,0 0,77.19298 44.1638,0 0,-15.4386 -26.5731,0 0,-15.53216 25.4503,0 0,-15.4386 -25.4503,0 0,-15.34503 26.5731,0 0,-15.43859 z"/>
	</g>
	<g>
		<path d="m 548.81634,332.10526 -33.12281,0 0,57.89474 33.12281,0 0,-11.57895 -19.92983,0 0,-11.64912 19.08772,0 0,-11.57895 -19.08772,0 0,-11.50877 19.92983,0 0,-11.57895 z"/>
		<path d="m 569.40077,374.98246 c -4.42105,0 -8,3.57894 -8,8.07017 0,4.42105 3.57895,8 8,8 4.49123,0 8.07017,-3.57895 8.07017,-8 0,-4.49123 -3.57894,-8.07017 -8.07017,-8.07017 z"/>
		<path d="m 628.31634,354.07018 0.14035,0 23.01754,35.92982 13.19299,0 0,-57.89474 -13.19299,0 0,35.92983 -0.14035,0 -23.01754,-35.92983 -13.19298,0 0,57.89474 13.19298,0 0,-35.92982 z"/>
		<path d="m 711.22314,332.10526 -33.12281,0 0,57.89474 33.12281,0 0,-11.57895 -19.92983,0 0,-11.64912 19.08772,0 0,-11.57895 -19.08772,0 0,-11.50877 19.92983,0 0,-11.57895 z"/>
		<path d="m 745.14091,331.05263 c -9.33333,0 -18.87719,6.8772 -18.87719,17.68421 0,6.03509 4.07017,11.4386 11.01754,14.8772 6.87719,3.43859 13.05263,5.33333 13.05263,9.54385 0,5.40351 -5.47368,5.68422 -8.35088,5.68422 -6.45614,0 -14.17543,-6.52632 -14.17543,-6.52632 l -6.59649,11.08772 c 0,0 8.21052,7.64912 21.75438,7.64912 11.29825,0 21.82456,-4.8421 21.82456,-18.66666 0,-7.57895 -7.08772,-13.05264 -13.54386,-15.78948 -6.59649,-2.80702 -12.07017,-5.12281 -12.07017,-8.35088 0,-3.15789 2.38596,-5.19298 6.87719,-5.19298 5.96491,0 11.7193,4 11.7193,4 l 5.33333,-10.52631 c 0,0 -7.43859,-5.47369 -17.96491,-5.47369 z"/>
		<path d="m 775.95669,332.10526 0,57.89474 21.96491,0 c 12,0 18.94737,-6.59649 18.94737,-16.14035 0,-9.33333 -5.12281,-13.33333 -12.35088,-14.59649 4.91228,-2.52632 7.22807,-7.08772 7.22807,-12.42105 0,-11.01755 -7.85965,-14.73685 -17.82456,-14.73685 l -17.96491,0 z m 13.19298,22.66667 0,-12.49123 1.05263,0 c 5.75439,0 8.77193,1.75439 8.77193,5.89474 0,4.8421 -3.08772,6.59649 -8.77193,6.59649 l -1.05263,0 z m 0,25.05263 0,-13.68421 4.14035,0 c 6.24561,0 9.68421,1.89474 9.68421,7.22807 0,4.5614 -3.4386,6.45614 -9.68421,6.45614 l -4.14035,0 z"/>
		<path d="m 840.88761,332.10526 -13.19298,0 0,57.89474 13.19298,0 0,-57.89474 z"/>
		<path d="m 847.27466,343.68421 13.75439,0 0,46.31579 13.19298,0 0,-46.31579 13.75439,0 0,-11.57895 -40.70176,0 0,11.57895 z"/>
	</g>
	<g>
		<path d="m 628.09716,460.04 c -0.696,0 -1.26,0.564 -1.26,1.26 0,0.696 0.564,1.26 1.26,1.26 0.696,0 1.26,-0.564 1.26,-1.26 0,-0.696 -0.564,-1.26 -1.26,-1.26 z m -1.092,3.804 2.124,0 0,6.156 -2.124,0 0,-6.156 z"/>
		<path d="m 635.63797,470 2.124,0 0,-10.32 -2.124,0 0,10.32 z"/>
		<path d="m 644.22391,470 2.124,0 0,-10.32 -2.124,0 0,10.32 z"/>
		<path d="m 654.81384,463.844 -2.124,0 0,3.444 c 0,2.064 1.032,2.892 3.336,2.892 2.304,0 3.336,-0.828 3.336,-2.892 l 0,-3.444 -2.124,0 0,2.928 c 0,1.212 -0.324,1.68 -1.212,1.68 -0.888,0 -1.212,-0.468 -1.212,-1.68 l 0,-2.928 z"/>
		<path d="m 668.33741,463.664 c -1.62,0 -2.688,0.72 -2.688,1.98 0,0.924 0.624,1.356 1.248,1.68 0.696,0.36 1.368,0.396 1.368,0.84 0,0.408 -0.36,0.444 -0.66,0.444 -0.684,0 -1.524,-0.708 -1.524,-0.708 l -0.864,1.452 c 0,0 0.888,0.828 2.376,0.828 1.26,0 2.916,-0.288 2.916,-2.1 0,-1.26 -1.056,-1.716 -1.872,-1.968 -0.528,-0.168 -0.96,-0.264 -0.96,-0.588 0,-0.288 0.192,-0.372 0.66,-0.372 0.648,0 1.368,0.384 1.368,0.384 l 0.696,-1.392 c 0,0 -0.876,-0.48 -2.064,-0.48 z"/>
		<path d="m 676.78703,463.844 -0.888,0 0,1.62 0.888,0 0,2.364 c 0,1.092 0.408,2.352 2.1,2.352 0.876,0 1.56,-0.384 1.56,-0.384 l -0.528,-1.716 c 0,0 -0.252,0.192 -0.528,0.192 -0.336,0 -0.48,-0.276 -0.48,-0.852 l 0,-1.956 1.296,0 0,-1.62 -1.296,0 0,-2.292 -2.124,0 0,2.292 z"/>
		<path d="m 686.16141,470 2.124,0 0,-3.24 c 0,-0.156 0.156,-1.248 1.26,-1.248 0.708,0 1.104,0.336 1.104,0.336 l 0.888,-1.8 c 0,0 -0.552,-0.384 -1.344,-0.384 -1.212,0 -1.884,1.068 -1.884,1.068 l -0.024,0 0,-0.888 -2.124,0 0,6.156 z"/>
		<path d="m 696.62366,466.928 c 0,1.8 1.26,3.252 3.06,3.252 0.84,0 1.56,-0.372 2.016,-0.876 l 0.024,0 0,0.696 2.1,0 0,-6.156 -2.124,0 0,0.588 c -0.504,-0.492 -1.188,-0.768 -2.016,-0.768 -1.8,0 -3.06,1.464 -3.06,3.264 z m 2.256,0 c 0,-0.852 0.636,-1.452 1.44,-1.452 0.792,0 1.428,0.6 1.428,1.452 0,0.84 -0.6,1.44 -1.428,1.44 -0.864,0 -1.44,-0.6 -1.44,-1.44 z"/>
		<path d="m 710.53703,463.844 -0.888,0 0,1.62 0.888,0 0,2.364 c 0,1.092 0.408,2.352 2.1,2.352 0.876,0 1.56,-0.384 1.56,-0.384 l -0.528,-1.716 c 0,0 -0.252,0.192 -0.528,0.192 -0.336,0 -0.48,-0.276 -0.48,-0.852 l 0,-1.956 1.296,0 0,-1.62 -1.296,0 0,-2.292 -2.124,0 0,2.292 z"/>
		<path d="m 726.13941,467.216 c 0.012,-0.072 0.012,-0.204 0.012,-0.288 0,-2.16 -1.428,-3.264 -3.3,-3.264 -1.86,0 -3.384,1.464 -3.384,3.264 0,1.788 1.524,3.252 3.384,3.252 1.368,0 2.496,-0.444 3.192,-1.608 l -1.536,-0.768 c -0.516,0.552 -0.816,0.684 -1.5,0.684 -0.54,0 -1.332,-0.324 -1.332,-1.272 l 4.464,0 z m -4.404,-1.176 c 0.036,-0.564 0.444,-0.996 1.176,-0.996 0.624,0 1.068,0.348 1.164,0.996 l -2.34,0 z"/>
		<path d="m 731.70959,466.928 c 0,1.8 1.26,3.252 3.06,3.252 0.84,0 1.56,-0.372 2.016,-0.876 l 0.024,0 0,0.696 2.1,0 0,-10.32 -2.124,0 0,4.752 c -0.504,-0.492 -1.188,-0.768 -2.016,-0.768 -1.8,0 -3.06,1.464 -3.06,3.264 z m 2.256,0 c 0,-0.852 0.636,-1.452 1.44,-1.452 0.792,0 1.428,0.6 1.428,1.452 0,0.84 -0.6,1.44 -1.428,1.44 -0.864,0 -1.44,-0.6 -1.44,-1.44 z"/>
		<path d="m 760.83797,466.928 c 0,-1.8 -1.26,-3.264 -3.06,-3.264 -0.828,0 -1.512,0.276 -2.016,0.768 l 0,-4.752 -2.124,0 0,10.32 2.1,0 0,-0.696 0.024,0 c 0.456,0.504 1.176,0.876 2.016,0.876 1.8,0 3.06,-1.452 3.06,-3.252 z m -2.256,0 c 0,0.84 -0.576,1.44 -1.44,1.44 -0.828,0 -1.428,-0.6 -1.428,-1.44 0,-0.852 0.636,-1.452 1.428,-1.452 0.804,0 1.44,0.6 1.44,1.452 z"/>
		<path d="m 771.50909,463.844 -1.464,3.156 -1.716,-3.156 -2.448,0 2.916,5.196 -2.124,4.08 2.448,0 4.836,-9.276 -2.448,0 z"/>
	</g>
	<g>
		<path d="m 635.726,536.028 3.192,0 0,3.972 2.256,0 0,-9.9 -2.256,0 0,3.948 -3.192,0 0,-3.948 -2.256,0 0,9.9 2.256,0 0,-3.972 z"/>
		<path d="m 649.00206,537.432 c -0.756,0 -1.368,0.612 -1.368,1.38 0,0.756 0.612,1.368 1.368,1.368 0.768,0 1.38,-0.612 1.38,-1.368 0,-0.768 -0.612,-1.38 -1.38,-1.38 z"/>
		<path d="m 665.11063,530.1 0,9.9 2.25599,0 0,-3.912 3.024,3.912 2.86801,0 -3.408,-4.092 c 1.212,-0.384 2.028,-1.38 2.028,-2.868 0,-1.944 -1.39201,-2.94 -3.22801,-2.94 l -3.53999,0 z m 2.25599,4.392 0,-2.592 0.264,0 c 0.852,0 1.872,0.06 1.872,1.296 0,1.236 -1.02,1.296 -1.872,1.296 l -0.264,0 z"/>
		<path d="m 680.08019,537.432 c -0.756,0 -1.368,0.612 -1.368,1.38 0,0.756 0.612,1.368 1.368,1.368 0.768,0 1.38,-0.612 1.38,-1.368 0,-0.768 -0.612,-1.38 -1.38,-1.38 z"/>
		<path d="m 704.37275,540 2.256,0 -0.888,-9.9 -2.4,0 -2.196,5.712 -2.196,-5.712 -2.4,0 -0.888,9.9 2.256,0 0.468,-5.868 0.06,0 2.028,5.808 1.344,0 2.028,-5.808 0.06,0 0.468,5.868 z"/>
		<path d="m 714.7885,530.1 -2.256,0 0,9.9 2.256,0 0,-9.9 z"/>
		<path d="m 723.49162,530.1 -2.25599,0 0,9.9 5.664,0 0,-1.98 -3.40801,0 0,-7.92 z"/>
		<path d="m 735.26506,530.1 -2.256,0 0,9.9 5.664,0 0,-1.98 -3.408,0 0,-7.92 z"/>
		<path d="m 749.998,530.1 -2.088,0 -3.996,9.9 2.424,0 0.732,-1.98 3.768,0 0.732,1.98 2.424,0 -3.996,-9.9 z m 0.072,5.94 -2.232,0 1.104,-2.88 0.024,0 1.104,2.88 z"/>
		<path d="m 759.36844,530.1 0,9.9 2.256,0 0,-3.912 3.024,3.912 2.868,0 -3.408,-4.092 c 1.212,-0.384 2.028,-1.38 2.028,-2.868 0,-1.944 -1.392,-2.94 -3.228,-2.94 l -3.54,0 z m 2.256,4.392 0,-2.592 0.264,0 c 0.852,0 1.872,0.06 1.872,1.296 0,1.236 -1.02,1.296 -1.872,1.296 l -0.264,0 z"/>
	</g>
</svg>
