<?xml version="1.0" encoding="utf-8"?>
<svg xmlns="http://www.w3.org/2000/svg" xmlns:svg="http://www.w3.org/2000/svg" version="1.1" viewBox="0 0 1400 590">
	<title>The titlepage for the Standard Ebooks edition of The Enchanted Castle, by E. Nesbit. Illustrated by H. R. Millar</title>
	<g aria-label="THE ENCHANTED CASTLE">
		<path d="M 59.13303,68.245613 H 77.472212 V 130 H 95.062856 V 68.245613 H 113.40204 V 52.807016 H 59.13303 Z"/>
		<path d="m 142.32748,99.029239 h 24.88888 V 130 h 17.59065 V 52.807016 H 167.21636 V 83.590642 H 142.32748 V 52.807016 H 124.73683 V 130 h 17.59065 z"/>
		<path d="M 245.17251,52.807016 H 201.00877 V 130 h 44.16374 v -15.4386 h -26.5731 V 99.029239 H 244.0497 V 83.590642 H 218.59941 V 68.245613 h 26.5731 z"/>
		<path d="M 335.03362,52.807016 H 290.86988 V 130 h 44.16374 v -15.4386 h -26.5731 V 99.029239 h 25.4503 V 83.590642 h -25.4503 V 68.245613 h 26.5731 z"/>
		<path d="m 367.73685,82.093566 h 0.18713 L 398.61404,130 h 17.59064 V 52.807016 H 398.61404 V 100.71345 H 398.4269 L 367.73685,52.807016 H 350.1462 V 130 h 17.59065 z"/>
		<path d="m 470.60089,114.09357 c -17.68421,0 -25.45029,-12.35088 -25.45029,-22.736846 0,-10.292397 7.76608,-22.643275 25.45029,-22.643275 8.98245,0 15.15789,4.77193 15.15789,4.77193 l 7.48538,-14.97076 c 0,0 -8.60818,-7.111112 -25.35672,-7.111112 -21.89474,0 -41.82456,17.964913 -41.82456,40.140352 0,22.081871 20.02339,39.859651 41.82456,39.859651 16.74854,0 25.35672,-7.11111 25.35672,-7.11111 l -7.48538,-14.97076 c 0,0 -6.17544,4.77193 -15.15789,4.77193 z"/>
		<path d="m 522.65643,99.029239 h 24.88889 V 130 h 17.59064 V 52.807016 H 547.54532 V 83.590642 H 522.65643 V 52.807016 H 505.06579 V 130 h 17.59064 z"/>
		<path d="m 620.54238,52.807016 h -16.2807 L 573.10378,130 h 18.90059 l 5.7076,-15.4386 h 29.38012 L 632.79969,130 h 18.90058 z m 0.5614,46.31579 h -17.40351 l 8.60819,-22.45614 h 0.18714 z"/>
		<path d="m 677.21051,82.093566 h 0.18713 L 708.0877,130 h 17.59065 V 52.807016 H 708.0877 v 47.906434 h -0.18713 L 677.21051,52.807016 H 659.61987 V 130 h 17.59064 z"/>
		<path d="M 732.48832,68.245613 H 750.8275 V 130 h 17.59064 V 68.245613 h 18.33918 V 52.807016 h -54.269 z"/>
		<path d="M 842.25584,52.807016 H 798.09209 V 130 h 44.16375 v -15.4386 h -26.5731 V 99.029239 h 25.45029 V 83.590642 H 815.68274 V 68.245613 h 26.5731 z"/>
		<path d="M 857.3684,52.807016 V 130 h 22.36257 c 21.23977,0 38.92398,-16.09357 38.92398,-38.643276 0,-22.45614 -17.77778,-38.549708 -38.92398,-38.549708 z M 874.95904,114.2807 V 68.526315 h 2.71345 c 13.09942,0 21.98831,10.011696 21.98831,22.923977 -0.0936,12.912278 -8.98246,22.830408 -21.98831,22.830408 z"/>
		<path d="m 1000.1842,114.09357 c -17.68418,0 -25.45026,-12.35088 -25.45026,-22.736846 0,-10.292397 7.76608,-22.643275 25.45026,-22.643275 8.9825,0 15.1579,4.77193 15.1579,4.77193 l 7.4854,-14.97076 c 0,0 -8.6082,-7.111112 -25.35672,-7.111112 -21.89474,0 -41.82456,17.964913 -41.82456,40.140352 0,22.081871 20.02339,39.859651 41.82456,39.859651 16.74852,0 25.35672,-7.11111 25.35672,-7.11111 l -7.4854,-14.97076 c 0,0 -6.1754,4.77193 -15.1579,4.77193 z"/>
		<path d="m 1073.8538,52.807016 h -16.2807 L 1026.4152,130 h 18.9006 l 5.7076,-15.4386 h 29.3801 L 1086.1112,130 h 18.9005 z m 0.5614,46.31579 h -17.4035 l 8.6082,-22.45614 h 0.1872 z"/>
		<path d="m 1139.5483,51.403507 c -12.4444,0 -25.1696,9.169591 -25.1696,23.578948 0,8.046784 5.4269,15.251462 14.6901,19.836258 9.1696,4.584795 17.4035,7.111107 17.4035,12.725147 0,7.20468 -7.2982,7.57895 -11.1345,7.57895 -8.6082,0 -18.9006,-8.70176 -18.9006,-8.70176 l -8.7953,14.78363 c 0,0 10.9474,10.19883 29.0058,10.19883 15.0644,0 29.0995,-6.45614 29.0995,-24.88889 0,-10.105264 -9.4503,-17.40351 -18.0585,-21.052632 -8.7954,-3.742691 -16.0936,-6.83041 -16.0936,-11.134504 0,-4.210526 3.1813,-6.923976 9.1696,-6.923976 7.9532,0 15.6257,5.333333 15.6257,5.333333 l 7.1111,-14.035088 c 0,0 -9.9181,-7.298246 -23.9532,-7.298246 z"/>
		<path d="m 1169.5351,68.245613 h 18.3392 V 130 h 17.5907 V 68.245613 h 18.3391 V 52.807016 h -54.269 z"/>
		<path d="m 1252.7296,52.807016 h -17.5907 V 130 h 44.1638 v -15.4386 h -26.5731 z"/>
		<path d="m 1337.117,52.807016 h -44.1638 V 130 h 44.1638 v -15.4386 h -26.5731 V 99.029239 h 25.4503 V 83.590642 h -25.4503 V 68.245613 h 26.5731 z"/>
	</g>
	<g aria-label="E. NESBIT">
		<path d="M 548.81634,232.10526 H 515.69353 V 290 h 33.12281 v -11.57895 h -19.92983 v -11.64912 h 19.08772 v -11.57895 h -19.08772 v -11.50877 h 19.92983 z"/>
		<path d="m 569.40077,274.98246 c -4.42105,0 -8,3.57894 -8,8.07017 0,4.42105 3.57895,8 8,8 4.49123,0 8.07017,-3.57895 8.07017,-8 0,-4.49123 -3.57894,-8.07017 -8.07017,-8.07017 z"/>
		<path d="m 628.31634,254.07018 h 0.14035 L 651.47423,290 h 13.19299 v -57.89474 h -13.19299 v 35.92983 h -0.14035 L 628.31634,232.10526 H 615.12336 V 290 h 13.19298 z"/>
		<path d="M 711.22314,232.10526 H 678.10033 V 290 h 33.12281 v -11.57895 h -19.92983 v -11.64912 h 19.08772 v -11.57895 h -19.08772 v -11.50877 h 19.92983 z"/>
		<path d="m 745.14091,231.05263 c -9.33333,0 -18.87719,6.8772 -18.87719,17.68421 0,6.03509 4.07017,11.4386 11.01754,14.8772 6.87719,3.43859 13.05263,5.33333 13.05263,9.54385 0,5.40351 -5.47368,5.68422 -8.35088,5.68422 -6.45614,0 -14.17543,-6.52632 -14.17543,-6.52632 l -6.59649,11.08772 c 0,0 8.21052,7.64912 21.75438,7.64912 11.29825,0 21.82456,-4.8421 21.82456,-18.66666 0,-7.57895 -7.08772,-13.05264 -13.54386,-15.78948 -6.59649,-2.80702 -12.07017,-5.12281 -12.07017,-8.35088 0,-3.15789 2.38596,-5.19298 6.87719,-5.19298 5.96491,0 11.7193,4 11.7193,4 l 5.33333,-10.52631 c 0,0 -7.43859,-5.47369 -17.96491,-5.47369 z"/>
		<path d="M 775.95669,232.10526 V 290 h 21.96491 c 12,0 18.94737,-6.59649 18.94737,-16.14035 0,-9.33333 -5.12281,-13.33333 -12.35088,-14.59649 4.91228,-2.52632 7.22807,-7.08772 7.22807,-12.42105 0,-11.01755 -7.85965,-14.73685 -17.82456,-14.73685 z m 13.19298,22.66667 V 242.2807 h 1.05263 c 5.75439,0 8.77193,1.75439 8.77193,5.89474 0,4.8421 -3.08772,6.59649 -8.77193,6.59649 z m 0,25.05263 v -13.68421 h 4.14035 c 6.24561,0 9.68421,1.89474 9.68421,7.22807 0,4.5614 -3.4386,6.45614 -9.68421,6.45614 z"/>
		<path d="M 840.88761,232.10526 H 827.69463 V 290 h 13.19298 z"/>
		<path d="m 847.27466,243.68421 h 13.75439 V 290 h 13.19298 v -46.31579 h 13.75439 v -11.57895 h -40.70176 z"/>
	</g>
	<g aria-label="illustrated by">
		<path d="m 594.20663,453.16684 c 0,0.42508 0.34007,0.5101 0.59511,0.5101 0.34007,0 1.02019,0.0425 1.91286,0.0425 0.76515,0 1.02019,0.17003 1.02019,0.89267 0,2.42295 -1.91286,9.05419 -1.91286,12.2848 0,1.82784 0.29756,3.52816 1.5728,3.52816 1.57279,0 3.91073,-2.50797 3.91073,-2.50797 0.46759,-0.5101 1.23273,-1.95537 1.23273,-2.46546 0,-0.29756 -0.17003,-0.46759 -0.42508,-0.46759 -0.59511,0 -1.19022,2.21041 -2.63549,2.21041 -0.42508,0 -0.85016,-0.5526 -0.85016,-1.14771 0,-0.5101 0,-0.42508 1.27524,-8.45909 0.34006,-2.1679 1.14771,-3.82571 1.14771,-4.93092 0,-0.29756 -0.29755,-0.46759 -0.59511,-0.46759 -2.42295,0 -3.14559,0.38257 -4.84591,0.38257 h -0.42507 c -0.46759,0 -0.97769,0.0425 -0.97769,0.59511 z m 4.50585,-8.37407 c 0,0.42508 1.14771,2.25293 1.91286,2.25293 0.38257,0 1.87035,-1.40277 1.87035,-2.25293 0,-0.76514 -0.80766,-2.25292 -1.65781,-2.25292 -0.76515,0 -2.1254,1.87035 -2.1254,2.25292 z"/>
		<path d="m 605.93883,466.34431 c 0,3.99575 1.23273,3.99575 2.08289,3.99575 0.80765,0 2.59299,-0.85016 3.6982,-2.12539 1.02019,-1.19023 2.12539,-2.6355 2.12539,-3.06058 0,-0.42508 -0.21254,-0.68013 -0.51009,-0.68013 -1.10521,0 -1.53029,3.01807 -3.86823,3.01807 -0.5526,0 -0.68012,-0.21254 -0.68012,-1.65781 0,-1.44527 0.51009,-4.12327 1.23273,-9.13921 1.36025,-9.13922 0.63762,-7.56642 2.21041,-15.81297 0.12752,-0.80765 0.42508,-1.36025 0.42508,-1.95537 0,-0.42507 -0.21254,-0.68012 -0.89267,-0.68012 -1.1052,0 -2.04038,0.42508 -5.14346,0.63762 -0.5526,0.0425 -0.63762,0.38257 -0.63762,0.59511 0,0.46759 0.38257,0.59511 1.23273,0.59511 0.5101,0 0.59511,-0.0425 1.23273,-0.0425 0.63762,0 1.0627,0.34007 1.0627,0.85016 0,0.5101 -0.63762,4.33581 -1.36025,8.92667 -0.42508,2.72051 -0.63762,5.73858 -1.0202,8.41658 -0.085,0.68013 -1.19022,5.69607 -1.19022,8.11902 z"/>
		<path d="m 617.06396,466.34431 c 0,3.99575 1.23274,3.99575 2.08289,3.99575 0.80766,0 2.59299,-0.85016 3.6982,-2.12539 1.02019,-1.19023 2.1254,-2.6355 2.1254,-3.06058 0,-0.42508 -0.21254,-0.68013 -0.5101,-0.68013 -1.10521,0 -1.53029,3.01807 -3.86822,3.01807 -0.55261,0 -0.68013,-0.21254 -0.68013,-1.65781 0,-1.44527 0.51009,-4.12327 1.23273,-9.13921 1.36025,-9.13922 0.63762,-7.56642 2.21041,-15.81297 0.12753,-0.80765 0.42508,-1.36025 0.42508,-1.95537 0,-0.42507 -0.21254,-0.68012 -0.89266,-0.68012 -1.10521,0 -2.04039,0.42508 -5.14347,0.63762 -0.5526,0.0425 -0.63762,0.38257 -0.63762,0.59511 0,0.46759 0.38257,0.59511 1.23273,0.59511 0.5101,0 0.59511,-0.0425 1.23273,-0.0425 0.63762,0 1.0627,0.34007 1.0627,0.85016 0,0.5101 -0.63762,4.33581 -1.36025,8.92667 -0.42508,2.72051 -0.63762,5.73858 -1.02019,8.41658 -0.085,0.68013 -1.19023,5.69607 -1.19023,8.11902 z"/>
		<path d="m 626.83482,457.50266 c 0,0.29755 0.17003,0.5526 0.42508,0.5526 0.21254,0 0.46759,-0.17003 0.63762,-0.59511 0.59511,-1.36026 1.53029,-2.46546 1.91286,-2.46546 0.5526,0 0.85016,0.42508 0.85016,0.89266 0,2.59299 -1.91286,7.26887 -1.91286,11.85973 0,1.23273 0.29756,2.72051 1.44527,2.72051 3.10308,0 6.24867,-3.86823 8.16153,-6.58874 1.27524,-1.78533 1.48778,-2.72051 1.74283,-2.72051 0.12752,0 0.21254,0.17003 0.21254,0.46759 0,0.38257 -0.76515,3.7407 -0.76515,6.46121 0,1.31775 0.34007,2.29543 1.27524,2.29543 3.99575,0 6.63125,-4.33581 6.63125,-5.356 0,-0.38257 -0.0425,-0.89267 -0.59512,-0.89267 -0.89266,0 -1.06269,3.14559 -3.65568,3.14559 -0.38257,0 -0.93518,-0.085 -0.93518,-1.02019 0,-2.16791 2.59299,-12.45484 2.59299,-13.60255 0,-0.63762 -0.72264,-0.93518 -1.40276,-0.93518 -0.42508,0 -1.10521,0.12753 -1.23273,0.68013 -0.97769,3.7407 -2.16791,7.65144 -4.93093,11.00956 -1.99787,2.38045 -3.48565,4.37833 -4.84591,4.37833 -0.29755,0 -0.76514,-0.42508 -0.76514,-1.14772 0,-3.23061 1.57279,-7.9915 1.57279,-11.7322 0,-0.51009 -0.085,-3.10308 -1.6153,-3.10308 -2.84803,0 -4.8034,3.91073 -4.8034,5.69607 z"/>
		<path d="m 648.95557,467.70457 c 0,2.25292 3.06057,2.80553 4.71838,2.80553 5.44102,0 6.63125,-4.03826 6.63125,-5.56855 0,-2.84803 -1.61531,-4.03826 -2.93305,-5.52603 -1.0202,-1.10521 -3.35813,-2.84804 -3.35813,-4.46334 0,-1.27524 0.63762,-2.25292 2.25292,-2.25292 1.65781,0 1.82784,2.38044 3.35813,2.38044 0.21254,0 1.6153,-0.12752 1.6153,-1.44527 0,-1.65781 -1.65781,-2.21041 -3.95324,-2.21041 -3.31562,0 -5.78108,1.95536 -5.78108,4.8034 0,2.55048 1.6153,3.65568 3.31562,5.39851 1.53028,1.53029 2.93305,2.76302 2.93305,4.76089 0,0.5101 -0.29756,2.72051 -3.40064,2.72051 -2.59299,0 -1.87035,-2.93305 -4.03826,-2.93305 -0.51009,0 -1.36025,0.21254 -1.36025,1.53029 z"/>
		<path d="m 663.74767,453.42189 c 0,1.19023 2.50797,0.25505 2.50797,1.14772 0,1.14771 -1.78533,8.034 -1.78533,11.94474 0,3.31562 1.57279,3.99575 2.72051,3.99575 2.63549,0 6.24867,-2.89055 6.24867,-3.99575 0,-0.59512 -0.34006,-0.59512 -0.46759,-0.59512 -0.68012,0 -1.65781,1.87036 -3.99575,1.87036 -0.17003,0 -1.74282,-0.085 -1.74282,-2.33794 0,-0.68013 0.97768,-6.20617 1.36025,-8.84166 0.25505,-1.74283 0.12753,-2.50797 1.36026,-2.50797 0.93517,0 2.76302,0.21254 3.44314,0.21254 0.76515,0 1.02019,-0.25505 1.02019,-1.23273 0,-0.5101 -0.21254,-0.80765 -1.1052,-0.80765 -0.46759,0 -0.80765,0.0425 -2.46547,0.0425 -1.40276,0 -1.48777,-0.0425 -1.48777,-0.29755 0,-0.63762 0.76514,-2.63549 0.76514,-3.1881 0,-0.38257 -0.21254,-0.51009 -0.42508,-0.51009 -0.68013,0 -0.76514,0.5526 -2.46546,2.33793 -1.87035,1.95537 -3.48566,1.91286 -3.48566,2.76302 z"/>
		<path d="m 675.85515,457.41764 c 0,0.59511 0.34006,0.72264 0.51009,0.72264 0.21254,0 0.34006,-0.12753 0.46759,-0.25505 0.25505,-0.29756 0.59511,-2.84804 2.33794,-2.84804 0.76514,0 1.44527,0.76515 1.44527,2.89055 0,3.18809 -1.82784,9.43677 -1.82784,11.13708 0,1.0202 0.85015,1.10521 1.27523,1.10521 h 0.21254 c 1.53029,0 1.44528,0 2.38045,-7.22635 l 0.21254,-1.40277 c 0.21254,-1.78533 1.27524,-7.35387 3.1881,-7.35387 1.53028,0 1.36025,1.78533 2.29543,1.78533 0.76514,0 0.85016,-1.31775 0.93517,-1.6153 0.12753,-0.46759 0.46759,-1.02019 0.46759,-1.5728 0,-0.59511 -0.46759,-1.31774 -1.57279,-1.31774 -3.14559,0 -5.27099,4.37832 -5.56855,4.37832 -0.085,0 -0.12752,-0.0425 -1.19022,-2.80553 -0.25505,-0.68013 -0.68013,-1.48778 -1.5728,-1.48778 -0.38257,0 -3.99574,1.02019 -3.99574,5.8661 z"/>
		<path d="m 689.4464,465.15409 c 0,2.76302 0.5101,5.48353 4.54836,5.48353 4.03825,0 7.56641,-5.10096 7.77895,-5.10096 0.29756,0 -0.085,4.7609 2.6355,4.7609 1.14771,0 3.06057,-1.95537 4.12327,-3.48566 0.5526,-0.76514 0.76514,-1.40276 0.76514,-1.82784 0,-0.17003 -0.0425,-0.46759 -0.38257,-0.46759 -0.80765,0 -1.70032,2.76302 -3.10308,2.76302 -0.80765,0 -1.44527,-1.40276 -1.44527,-2.50797 0,-1.6153 0.42508,-3.57067 0.76514,-5.44102 0.34007,-1.91286 0.59511,-3.86823 0.97769,-5.44102 0.29755,-1.23273 0.85016,-2.25292 0.85016,-2.93305 0,-0.46759 -0.21254,-0.63762 -0.46759,-0.63762 -0.85016,0 -1.36026,2.08289 -2.21042,2.08289 -1.40276,0 -2.29543,-0.46759 -3.61317,-0.46759 -1.10521,0 -1.95537,0.21254 -3.10309,0.76515 -2.25292,1.0627 -4.20828,3.10308 -5.73857,5.52603 -1.31775,2.1254 -2.38045,4.54836 -2.38045,6.9288 z m 2.97556,-0.25505 c 0,-0.76514 0.085,-1.53028 0.21254,-2.29543 0.38257,-2.21041 1.40276,-4.12327 2.63549,-6.16365 1.27524,-2.16791 3.52817,-3.44315 5.27099,-3.44315 0.89267,0 2.80553,0.29756 2.80553,1.48778 0,0.12753 -1.14772,7.94899 -2.16791,9.98937 -0.38257,0.76515 -2.38044,3.82572 -5.44102,3.82572 -1.78533,0 -3.31562,-1.27524 -3.31562,-3.40064 z"/>
		<path d="m 711.32007,453.42189 c 0,1.19023 2.50797,0.25505 2.50797,1.14772 0,1.14771 -1.78534,8.034 -1.78534,11.94474 0,3.31562 1.5728,3.99575 2.72051,3.99575 2.6355,0 6.24868,-2.89055 6.24868,-3.99575 0,-0.59512 -0.34007,-0.59512 -0.46759,-0.59512 -0.68013,0 -1.65781,1.87036 -3.99575,1.87036 -0.17003,0 -1.74283,-0.085 -1.74283,-2.33794 0,-0.68013 0.97769,-6.20617 1.36026,-8.84166 0.25505,-1.74283 0.12752,-2.50797 1.36025,-2.50797 0.93518,0 2.76302,0.21254 3.44315,0.21254 0.76514,0 1.02019,-0.25505 1.02019,-1.23273 0,-0.5101 -0.21254,-0.80765 -1.10521,-0.80765 -0.46759,0 -0.80765,0.0425 -2.46546,0.0425 -1.40276,0 -1.48778,-0.0425 -1.48778,-0.29755 0,-0.63762 0.76514,-2.63549 0.76514,-3.1881 0,-0.38257 -0.21254,-0.51009 -0.42508,-0.51009 -0.68012,0 -0.76514,0.5526 -2.46546,2.33793 -1.87035,1.95537 -3.48565,1.91286 -3.48565,2.76302 z"/>
		<path d="m 723.56901,463.75133 c 0,3.78321 1.31774,6.75877 6.71626,6.75877 3.69819,0 7.39638,-2.97556 7.39638,-3.95325 0,-0.25504 -0.17003,-0.42508 -0.51009,-0.42508 -0.46759,0 -2.16791,1.82785 -4.59086,1.82785 -4.20829,0 -6.12115,-2.1254 -6.12115,-5.3135 0,-1.10521 0.12752,-1.74283 0.72263,-1.74283 3.99575,-0.0425 6.29118,-0.97768 6.67376,-1.14771 0.80765,-0.34006 4.12327,-2.08289 4.12327,-5.14346 0,-1.87036 -1.70032,-3.14559 -3.69819,-3.14559 -2.38045,0 -4.33582,0.76514 -5.90861,2.25292 -2.93305,2.72051 -4.8034,6.37619 -4.8034,10.03188 z m 3.48565,-4.42083 c 0,-0.5526 0.97768,-3.27311 2.25292,-4.59086 1.10521,-1.14772 2.42296,-1.99788 3.48566,-1.99788 0.72263,0 2.25292,0.38258 2.25292,1.99788 0,2.678 -3.48565,5.44102 -7.60893,5.44102 -0.29755,0 -0.38257,-0.5526 -0.38257,-0.85016 z"/>
		<path d="m 740.0342,464.6865 c 0,3.1881 1.48778,5.65356 5.10096,5.65356 4.20829,0 6.37619,-4.76089 6.75876,-4.76089 0.59512,0 -0.38257,4.76089 2.59299,4.76089 2.76302,0 5.44102,-4.2933 5.44102,-5.18597 0,-0.17003 -0.12752,-0.38257 -0.46759,-0.38257 -0.68012,0 -1.65781,2.63549 -3.52816,2.63549 -0.97768,0 -1.10521,-0.89266 -1.10521,-1.82784 0,-1.27524 0.42508,-3.95324 0.89267,-7.18385 2.38045,-17.38575 2.80553,-18.74601 2.80553,-19.85122 0,-0.38257 -0.29756,-0.72263 -0.68013,-0.72263 -1.14771,0 -0.89267,0.085 -3.27311,0.68013 -1.19023,0.29755 -2.67801,0.12752 -2.67801,0.85015 0,0.29756 0.25505,0.46759 0.68013,0.46759 0.0425,0 1.02019,-0.0425 1.48778,-0.0425 0.63762,0 1.23273,0.42508 1.23273,1.0627 0,0.29756 -1.40276,11.47715 -1.53028,11.47715 -1.19023,0 -2.04039,-0.5526 -3.14559,-0.5526 -5.05845,0 -10.58449,6.33369 -10.58449,12.92242 z m 2.97556,-1.19022 c 0,-4.46334 3.48565,-10.83953 7.39639,-10.83953 1.14771,0 2.84803,0.5526 2.84803,1.70032 0,1.70032 -0.63762,9.18172 -2.33794,11.30712 -1.10521,1.40276 -2.76302,2.21041 -4.2933,2.21041 -2.59299,0 -3.61318,-1.91286 -3.61318,-4.37832 z"/>
		<path d="m 771.23638,466.98193 c 0,2.46547 2.678,3.57067 5.18597,3.57067 6.58873,0 11.60467,-7.60892 11.60467,-13.39001 0,-2.76301 -1.48778,-5.39851 -4.67587,-5.39851 -4.88842,0 -6.88629,3.95324 -7.48141,3.95324 -0.085,0 -0.21254,-0.34006 -0.21254,-0.63762 0,-3.06057 2.72051,-15.72795 2.72051,-16.49309 0,-0.46759 -0.34006,-0.76514 -0.80765,-0.76514 -0.25505,0 -1.02019,0.25505 -2.678,0.46759 -1.95537,0.25504 -3.14559,0.21254 -3.14559,1.06269 0,0.59512 0.34006,0.59512 0.80765,0.59512 0.63762,0 1.10521,-0.085 1.74283,-0.085 0.85016,0 1.0627,0.29756 1.0627,0.5101 0,1.02019 -0.25505,2.50797 -0.63762,4.33581 -0.63762,3.14559 -1.14772,7.26886 -1.91286,11.68969 -0.59511,3.44315 -1.57279,7.86397 -1.57279,10.58448 z m 2.80552,-0.51009 c 0,-0.42508 0.46759,-4.97343 1.70032,-8.33156 1.36025,-3.6982 4.12327,-4.12328 5.14346,-4.12328 2.33794,0 4.16579,1.95537 4.16579,4.33582 0,4.88841 -3.91074,11.00956 -7.73646,11.00956 -2.63549,0 -3.27311,-1.44527 -3.27311,-2.89054 z"/>
		<path d="m 789.67222,475.3135 c 0,1.95536 1.70032,2.50797 3.52816,2.50797 3.99575,0 6.71626,-4.84591 8.71413,-9.90436 2.50797,-6.33369 3.52816,-12.19979 3.52816,-14.11265 0,-1.31774 -0.72263,-2.25292 -1.65781,-2.25292 -1.02019,0 -1.44527,0.80765 -1.44527,1.5728 0,1.14771 1.0627,1.99787 1.0627,3.2306 0,2.84804 -0.93517,7.39639 -1.53029,7.39639 -0.46758,0 -4.50584,-12.07226 -8.62911,-12.07226 -2.59299,0 -3.44315,3.69819 -3.44315,5.48352 0,0.72264 0.17003,0.93518 0.42508,0.93518 1.27524,0 0.38257,-3.1881 2.84803,-3.1881 2.25293,0 6.9288,10.96706 6.9288,13.3475 0,1.61531 -2.80552,7.05633 -5.27098,7.05633 -1.95537,0 -1.99788,-1.40277 -3.6982,-1.40277 -0.72263,0 -1.36025,0.68013 -1.36025,1.40277 z"/>
	</g>
	<g aria-label="H. R. MILLAR">
		<path d="m 529.17726,524.51462 h 12.44445 V 540 h 8.79532 v -38.59649 h -8.79532 v 15.39181 h -12.44445 v -15.39181 h -8.79532 V 540 h 8.79532 z"/>
		<path d="m 566.35124,529.9883 c -2.94737,0 -5.33333,2.38597 -5.33333,5.38012 0,2.94737 2.38596,5.33333 5.33333,5.33333 2.99415,0 5.38012,-2.38596 5.38012,-5.33333 0,-2.99415 -2.38597,-5.38012 -5.38012,-5.38012 z"/>
		<path d="M 600.1663,501.40351 V 540 h 8.79533 V 524.74854 L 620.7511,540 h 11.18129 l -13.28655,-15.95322 c 4.72514,-1.49707 7.90643,-5.38011 7.90643,-11.18128 0,-7.57895 -5.4269,-11.46199 -12.5848,-11.46199 z m 8.79533,17.12281 v -10.10527 h 1.02924 c 3.32163,0 7.29824,0.23392 7.29824,5.05263 0,4.81872 -3.97661,5.05264 -7.29824,5.05264 z"/>
		<path d="m 644.03399,529.9883 c -2.94737,0 -5.33333,2.38597 -5.33333,5.38012 0,2.94737 2.38596,5.33333 5.33333,5.33333 2.99416,0 5.38012,-2.38596 5.38012,-5.33333 0,-2.99415 -2.38596,-5.38012 -5.38012,-5.38012 z"/>
		<path d="m 709.75549,540 h 8.79532 l -3.46198,-38.59649 h -9.35673 l -8.5614,22.269 -8.56141,-22.269 h -9.35672 L 675.79058,540 h 8.79532 l 1.82456,-22.87719 h 0.23392 l 7.90643,22.64327 h 5.23977 l 7.90643,-22.64327 h 0.23392 z"/>
		<path d="M 735.86952,501.40351 H 727.0742 V 540 h 8.79532 z"/>
		<path d="m 755.30666,501.40351 h -8.79532 V 540 h 22.08187 v -7.7193 h -13.28655 z"/>
		<path d="M 786.71382,501.40351 H 777.9185 V 540 h 22.08187 v -7.7193 h -13.28655 z"/>
		<path d="m 829.65899,501.40351 h -8.14035 L 805.9397,540 h 9.45029 l 2.8538,-7.7193 h 14.69006 l 2.8538,7.7193 h 9.45029 z m 0.28071,23.15789 h -8.70176 l 4.3041,-11.22807 h 0.0936 z"/>
		<path d="M 851.69774,501.40351 V 540 h 8.79532 V 524.74854 L 872.28253,540 h 11.18129 l -13.28655,-15.95322 c 4.72515,-1.49707 7.90643,-5.38011 7.90643,-11.18128 0,-7.57895 -5.4269,-11.46199 -12.58479,-11.46199 z m 8.79532,17.12281 v -10.10527 h 1.02924 c 3.32164,0 7.29824,0.23392 7.29824,5.05263 0,4.81872 -3.9766,5.05264 -7.29824,5.05264 z"/>
	</g>
</svg>
